<svg id="Layer_1" data-name="Layer 1" xmlns="http://www.w3.org/2000/svg" viewBox="0 0 459.57 207.36"><defs><style>.cls-1{fill:#fff;}</style></defs><path class="cls-1" d="M175.87,52.64c.47.69,1.07,1.17,1,1.54-.24,1.31-.9,2.56-1,3.87a33.69,33.69,0,0,0-.06,4.17l-1,0c-.45-1-.88-1.89-1.25-2.8l-.15-.39a3.77,3.77,0,0,1-.06-1.17l.9.16C174.71,56.41,175.22,54.77,175.87,52.64Z"/><path class="cls-1" d="M448.16,166.34h0l0,0,0,0Z"/><path class="cls-1" d="M283.42,66.73c.35.09.92.46.89.64a14,14,0,0,1-.88,4.44,21.58,21.58,0,0,1-3.17,3.9l-.8-.49,2-3.63-2.64.64-.29-.55,1.76-1.24,1.89-3.74A4.18,4.18,0,0,1,283.42,66.73Z"/><path class="cls-1" d="M31.52,37.14a1.24,1.24,0,0,1-.21-.18A1.24,1.24,0,0,0,31.52,37.14Z"/><path class="cls-1" d="M159.32,115.5q-1,4.86-2.11,9.74l-.44,0c-.76-3.55.41-6.73,1.85-9.85Z"/><path class="cls-1" d="M286.57,70.92c-.39-.71-.79-1.42-1.32-2.39l2.29-2.37c.12.13.24.25.37.37-.63,1.31-2.73,2.22-.78,4.22Z"/><path class="cls-1" d="M299.6,36.81a.08.08,0,0,1,0,0l0,0Z"/><path class="cls-1" d="M40.75,72.64c.13-.11.29-.21.44-.32a5.34,5.34,0,0,0-.43.32Z"/><path class="cls-1" d="M325.54,94.49c.87-.49,1.56-1.58,3-.24l-2.77.91C325.67,94.93,325.6,94.71,325.54,94.49Z"/><path class="cls-1" d="M160.29,54.76l.26-.09Z"/><path class="cls-1" d="M153.4,58c1.13,4.08,2.08-1.28,3.38.08a4.7,4.7,0,0,1,.59,2c-.15,1.15-.29,2.45-1.65,3.09-.29.14-.37.87-.41,1.35,0,.17.35.38.55.58.27-.31.55-.62.81-.94.75-.87,1.46-1.77,2.23-2.63.95-1,.39-1.7-.35-2.23l2.12-4.59,0,0v-.08h0l-.09,0c-2.73-1.63-1.55-4.1-1.09-6.41.06.45.1.9.16,1.37l.8-.09-.42.31,2.3,3.43c.83-1.56,1.44-2.72,2-3.86,3,2.32,1.31,4.8.68,7.2l.6.18c.6-1.5,1.19-3,1.89-4.76.41.51.84.87.78,1-1.35,3,.21,6.73-2.32,9.53-.48.53-.07,1.93.05,2.91a2.73,2.73,0,0,1-.67,2.06,1.37,1.37,0,0,1-.17.17,2.64,2.64,0,0,1-.37.31,2.8,2.8,0,0,1-.66.3,2,2,0,0,1-.48.09,1.11,1.11,0,0,0,0,.19c.06.52.13,1,.2,1.62-2.16-.41-2.16-.41-2.73,3.2a5,5,0,0,0,.51.1l-.1.64c-1.18,1.14-.49,2.33-.32,3.49a2.1,2.1,0,0,1-.12,1.21l1.28.26c-1.42,1.93-.21,5.35-3.91,6,.15-1.64.3-3.22.45-4.8l-.42-.06L157.65,82l-.57-.17c.18-1.71.36-3.41.55-5.12l-.43-.15a64.48,64.48,0,0,1-2.73,5.9c-1.24,2.1,0,4.45-1.05,6.54l-1.34-.4c2.45,3.7,1.54,7.47,1.29,11.34l-.8.17c.6,1.58-.59,4.24-2,4.71l1.86.43c-1.1,1.06-2.64,1.32-3,.41a18.58,18.58,0,0,1-.61-3.45l-.47-.18a17,17,0,0,0-1.05,1.51c-.13.24,0,.62-.08.87-.35.78-.76,1.54-1.14,2.32-.11-.73-.2-1.45-.35-2.16-.26-1.27.55-2.9-1.14-3.67-.35-.16-1.18-.06-1.28.16a49.89,49.89,0,0,0-2.3,5.5c-.2.6.2,1.41.33,2.17l1.49.1-2.2,1.32c-.79-2.85-1.28-5.32.57-7.65.17-.2.31-.66.2-.79-1.13-1.41.19-2.08.84-3,.17-.23.47-.44.51-.69.88-5.38,2.94-10.57,1.76-16.25-.6-2.86-.29-5.9-.33-8.86,0-.35.37-.69.53-1s.56-1.1.42-1.26c-1.48-1.61.41-3.06,0-4.41,3.93-1.1,2.43-4.23,2.7-6.69l1.32.56-.3-1.14,2.34-3.07.11-.12,1.82-.62v1.86l-.4-.23L152,58l-1.12,1.77.43.48c1,0,.94-1.15,1.34-1.84A.83.83,0,0,1,153.4,58Z"/><path class="cls-1" d="M299.67,61.25l-.51.34-.09-1.23,0,.66-3.78,4.39c-.89-2,.48-4.33,4.91-8.1L299,59.52l1.19.5C300,60.43,299.84,60.84,299.67,61.25Z"/><path class="cls-1" d="M417.28,74.93c.3,1.25-.27,1.61-1.09,2.44V69.26l-.33,0,1.4-2.25,1.24.9c-.56.73-1.26,1.23-1.31,1.78A17.79,17.79,0,0,0,417.28,74.93Z"/><path class="cls-1" d="M151.92,108.16a8.65,8.65,0,0,1-.44,4.68,8.64,8.64,0,0,0,.44-4.68Z"/><path class="cls-1" d="M4.26,92.59l.5.13,1-.92L4.56,89.11l-.3,0ZM18.78,74.44c-.18.62-.31,1.25-.47,1.87l-.59.22c-.16-.45-.31-.89-.49-1.41-.88,1.08-.64,2.44-.73,3.62l-.94.14a3.42,3.42,0,0,1-2.37-4.37,6.54,6.54,0,0,0,0-1.4c-.35.35-.93.66-1,1.06A7.69,7.69,0,0,0,12,77.49a28.45,28.45,0,0,0,2.59,6.8c.65,1.11,2.07,1.79,1.88,3.39-.15,1.24-.37,2.47-.62,3.68a1.4,1.4,0,0,1-1,0,11.71,11.71,0,0,1-1.08-1.53c-.25-.34-.54-.64-.8-1l-.43.31A26,26,0,0,0,14,91.58a34.48,34.48,0,0,0,3,3.64c.17.18,1.47-.23,1.52-.51.59-3,1.05-6,1.5-9,.26-1.73.52-3.17,2.31-4.35a12.75,12.75,0,0,0,3.14-3.58v88.6a36.79,36.79,0,0,1-4-14.2c-.11-1.93-.52-3.84-.73-5.77s-.82-3.15-3-3.3c-2.37-.18-4.21-1.5-6-3.08a8,8,0,0,1-2.67-6.93c.12-1.93-.06-3.87,0-5.8.21-3.92-1.95-7.05-3.38-10.41-1.09-2.56-1-5.12-.81-7.79.12-1.86-.23-3.76-.28-5.64,0-.67.29-1.36.32-2a2.8,2.8,0,0,0-.47-1.6C5.08,98,5,96.33,3.33,95a1.65,1.65,0,0,1-.39-1.29A7.33,7.33,0,0,0,2,88.27a1.05,1.05,0,0,1-.2-.48c-.15-2.91-.28-5.82-.41-8.73a2.31,2.31,0,0,0,0-.88c-1.25-2.49-.42-5-.25-7.57.06-.9-.06-1.8-.08-2.71a1.87,1.87,0,0,1,.05-.67C1.85,65,2.7,62.7,3.41,60.4c.15-.45-.18-1-.27-1.59A3.14,3.14,0,0,1,3,57.51a84.52,84.52,0,0,1,3-10,73.17,73.17,0,0,1,5-9.14c1.13-1.89,2.49-3.63,3.75-5.44.17-.24.35-.47.53-.7l1.84-2.49c.05.06.15.23.26.39l1.08-1-.84-.66a9,9,0,0,0,.82-.55c1.67-1.37,3.27-2.83,5-4.11.7-.52,1.37-1.08,2-1.66V48.08c-1.14,1.89-2.24,3.72-3.35,5.54l.43.43a14.94,14.94,0,0,0,2.22-2.44,7.68,7.68,0,0,1,.7-1V66c-.63.75-1.27,1.51-1.93,2.31l-.71-1.57a28.74,28.74,0,0,0-2.88,2.09,1.48,1.48,0,0,0-.14,1.42,2,2,0,0,1-.34,2.35A6.73,6.73,0,0,0,18.78,74.44ZM8.59,110.36c-.71,2.36-.2,5.31.84,6.27A6.88,6.88,0,0,0,8.59,110.36ZM17.88,64l2.22-4C18.25,59.94,17.66,61,17.88,64Z"/><path class="cls-1" d="M421.29,83.24l.9-.42a6.56,6.56,0,0,1,.78,1.74c0,.25-.62.59-1,.89Z"/><path class="cls-1" d="M299.63,36.76v.09a.08.08,0,0,0,0,0h0Z"/><path class="cls-1" d="M300.21,60l0,0-.05,0Z"/><path class="cls-1" d="M294.23,82.1c-.06-3.14,2.35-5.38,2.9-8.29l.77.31c-.54,1.23-1.15,2.43-1.61,3.7a5.19,5.19,0,0,0-.2,2c0,.27.37.52.57.78l-1.37.36c-.17.46-.34.9-.5,1.34Z"/><path class="cls-1" d="M297,52.28a2,2,0,0,1-2,0c-.44-.43-1.85-1.47.1-2.12.06.36.11.68.16.94l4.37-2.35.18.28A27.61,27.61,0,0,1,297,52.28Z"/><path class="cls-1" d="M301.35,36.39c-.65-.09-1.26-.18-1.72.36.05-1.56,1.52-1.89,2.48-2.4a13,13,0,0,1,8.49-1.07c.68.11,1.37.14,2,.21v.63c-1.48.08-3,.18-4.45.23-.38,0-.8-.22-1.12-.11-1.25.41-3,.56-3.58,1.45A1.87,1.87,0,0,1,301.35,36.39Z"/><path class="cls-1" d="M46.44,54.78c-.28.65-.53,1.32-.86,1.95-.55,1.05-1.11,2.09-1.67,3.13l-.52-.28c-.88-2.57,1.32-3.54,2.51-5Z"/><path class="cls-1" d="M175.14,45.49c.34,1.23.54,1.93.82,2.92L173.77,48Z"/><path class="cls-1" d="M150.87,114.31l-.19.36Z"/><path class="cls-1" d="M405.79,67.4c-2.32-1.13-.72-3-1-4.05l4-4c-.06-.07.48.37.39.57a17,17,0,0,1-1.31,2.45,10.06,10.06,0,0,1-.67.94h1.47c-.16.43-.31,1.15-.43,1.15C406.2,64.38,405.9,65.82,405.79,67.4Z"/><path class="cls-1" d="M331.55,162.34c1.57,0,1.11,1.44.95,2.22-.08.34-1.29.44-2.33.75C330.75,164.05,331.12,163.27,331.55,162.34Z"/><path class="cls-1" d="M390.58,93.84c0,.07,0,.13.05.19h0l-.1.06C390.55,94,390.56,93.93,390.58,93.84Z"/><path class="cls-1" d="M195.71,73.69c.39,2,.69,3.5,1,5.18l-1.9.77a14.22,14.22,0,0,1-1.16-2.35c-.09-.29.46-.75.7-1.15C194.75,75.49,195.09,74.83,195.71,73.69Z"/><path class="cls-1" d="M40.53,32.56c.14.71.55,1.56.31,2.13A13.45,13.45,0,0,1,38.73,38c-.64.77-.7,1.31-.23,1.77l-.88.1c-.34-.37-.66-.75-.63-1.1.06-.69.91-1.28,1.22-2a10.06,10.06,0,0,0,.46-2.14l-.42-.36,1.88-.54L40,32.52A2.06,2.06,0,0,1,40.53,32.56Z"/><path class="cls-1" d="M315.24,114.59l.74-.23c.3.73,1,1.57.79,2.17s-1.19.92-1.84,1.37a8.08,8.08,0,0,1-.17-1.69A8.09,8.09,0,0,1,315.24,114.59Z"/><path class="cls-1" d="M70.72,4.68c-.37.25-.72.65-1.13.73-.71.13-1.42.23-2.13.33l-.14-1c1.07-.15,2.13-.36,3.19-.53Z"/><path class="cls-1" d="M456.2,106.43a12.87,12.87,0,0,1-.66-2.05c0-.25.44-.6.72-.86s.76-.66,1.26-1.08l1.16.72c-.53,1-1,2-1.53,2.87C457,106.27,456.53,106.3,456.2,106.43Z"/><path class="cls-1" d="M299.58,36.82h0c-.44,1-.88,2-1.34,3C298.7,38.79,299.15,37.81,299.58,36.82Z"/><path d="M387.75,125.63Z"/><path class="cls-1" d="M390.63,68.78c-.78,1.3-1.55,2.6-2.42,4l1.59-.24L391,69Zm1-4.33L388,63.25a10.45,10.45,0,0,1,.79,1.64c-1.31,1-.18,1.71,0,2.57Zm-3.73-2c2-4.61,3.49-6.47,4.49-6.21l-3.63,5.58c.53.52.85,1.11,1.29,1.21s1.52,0,1.65-.35c.88-2.11,3-3.36,3.41-6,.22-1.49,2.29-2.72,3.55-4,.81-.84,1.67-1.64,2.58-2.52l.63.74c.08-.58.23-1.19.26-1.79l.65,0c0,.66.91,1.13,1.14,1.76-.47.88-.95,1.78-1.65,3.12l2.3-.43c-1.18,1.78-2.19,3.43-3.36,5-.33.43-1.15.49-1.74.73l-.32-.42-1.76,3.61c-1.94.48-3.17,2.13-4.14,3.88-.37.66.09,1.8.59,2.73l-1.26,1.79c.71,1.5,1.41,3,2.1,4.46l-1.79.41c2.07.69.42,3,1.92,4.2.43.34-.06,2-.36,3a3.31,3.31,0,0,1-1.26,1.83c-3.07,1.62-1.61,4.58-2.17,6.92-.16.72-.27,1.45-.4,2.18a36,36,0,0,1-1.1-4.53,42.93,42.93,0,0,1,0-5.11l-1.32,1L387.9,83l-.6,0c-.16.58-.31,1.16-.47,1.74l-.47,0c-.1-.75-.21-1.5-.31-2.23l-.25.37c-.34-1-.7-2-1.12-3.23l-.93,1c-.15-.11-.3-.22-.44-.34.37-.49.72-1,1.13-1.47.11-.12.37-.11.84-.22l-1.95-1.78c-1,1.86-1.83,3.57-2.78,5.43-2.39-2.68-2.34-3.87,0-5l-2.2-.59,1-.52L378.9,76c.34-2.08.65-4,1-5.88L377.77,70a30.41,30.41,0,0,1,.77-5.58c.66-2.06,1.26-4.26,3.27-5.65.39-.27.26-1.28.79-1.9l1.56,3.68c-.17.47-.38,1.07-.6,1.67l.41.25-2,.88c1.13.84,1.92,1.71-.17,2.87l.89.12,4.07-4.69Z"/><path class="cls-1" d="M304,48.17l-.91,0c.1-2.52,2.87-5.25,6.38-6.16l-1.63,2.09c.19.3.43.69.64,1Z"/><path class="cls-1" d="M293,44.93c-.74.66-1.52,1.28-2.2,2a4,4,0,0,0-.49,1.25l.45.35c-1.08.19-2.15.42-3.23.52-.09,0-.52-1-.36-1.24,1.3-2.07,3.57-2.48,5.56-3.35Z"/><path class="cls-1" d="M284.21,62.48c.21,1.65.24,1.65-1.6,3.22.58-2.55,1.07-4.73,1.56-6.9l-.45-.25c-1.16,2-2.31,3.9-3.5,5.92-1.54-3.26-.4-6,1.64-8.32,1.69-1.93,3.72-3.56,5.6-5.33l.77.41c-.47,1.74-.94,3.47-1.38,5.21a6.43,6.43,0,0,0-.15,1.45c0,1.07-.44,1.66-1.24,1.38l-.82,2.14C284.5,61.77,284.17,62.15,284.21,62.48Z"/><path class="cls-1" d="M40.73,72.66c1,1,1.13,1.67.32,1.62a5.52,5.52,0,0,1-2.19-.63Z"/><path class="cls-1" d="M160.7,54.62h0l-.09,0h0Z"/><path class="cls-1" d="M52.56,104.27c0,.19,0,.38,0,.57L49.3,106.2l-.44-.46c.34-.75.57-2,1.06-2.12C50.71,103.44,51.67,104,52.56,104.27Z"/><path class="cls-1" d="M160.7,54.62v.08l0,0S160.68,54.64,160.7,54.62Z"/><path class="cls-1" d="M177.7,82.27l.43.55h0Z"/><path class="cls-1" d="M34,35.06c-.21.42-.41.85-.61,1.27C33.54,35.91,33.74,35.48,34,35.06Z"/><path class="cls-1" d="M159.34,56.42c.08.42-.43.94-.75,1.56-1.89-1.57-1.39-3.46-1.6-5l3.61,1.71,0,0-.26.09A1.29,1.29,0,0,0,159.34,56.42Z"/><path class="cls-1" d="M40.68,72.61l.07,0h0l0,0Z"/><path class="cls-1" d="M400.4,67.56c0-.37.42-.73.64-1.1a5.71,5.71,0,0,1,.94.63c.44.44.82.94,1.33,1.55a4.07,4.07,0,0,0-.79.4,4.35,4.35,0,0,0-.56.64l1.17,1.08L403,71c-.78-.34-1.8-.49-2.26-1.08A4,4,0,0,1,400.4,67.56Z"/><path class="cls-1" d="M377.43,86.17c1.11,1.24,1.11,1.24-.39,3.51C377.16,88.61,377.28,87.54,377.43,86.17Z"/><path class="cls-1" d="M150.55,114.87a.57.57,0,0,0,.08-.13A.57.57,0,0,1,150.55,114.87Z"/><path class="cls-1" d="M38.17,40.54a7.55,7.55,0,0,0-.55-.64l.88-.1a3.48,3.48,0,0,0,.93.58c-.76,1.14-1.54,2.22-2.21,3.35-.44.74-.65,1.61-1.08,2.35-.29.5-.93.83-1.17,1.35-.59,1.24-.69,3-1.61,3.77-1.88,1.67-1.66,3.43-1,5.64L31,56.19c-.63,2.39-1.25,4.73-1.88,7.06l-.47-.13c0-.38.07-.75.09-1L25.43,66V50.61A5.7,5.7,0,0,1,28,48.86c.78-.28,1.19-1.62,1.77-2.49l3.07.21c.67-1,1-1.61,1.46-2.18A2.43,2.43,0,0,0,35,42.09a8,8,0,0,1,.28-2.87l.58.05v3.34C36.87,42,36.29,39.89,38.17,40.54Z"/><path d="M300.21,60v0S300.21,60,300.21,60Z"/><path class="cls-1" d="M42.64,41.56c0-.05.32,0,.69.08-.16,1.2-.31,2.37-.49,3.78l-1.46-.67c-.06-.23-.1-.3-.08-.34C41.73,43.46,42.17,42.5,42.64,41.56Z"/><path class="cls-1" d="M398.38,72.56l-1.2-.32c.17-.26.36-.76.5-.75.45.05,1.24.26,1.25.45a16.9,16.9,0,0,1-.21,2.65l-.34,0Z"/><path class="cls-1" d="M160.6,54.65l0,0Z"/><path class="cls-1" d="M218,156.69c.15,2.11-1.59,2-2.72,2.67-.67-1.3-.67-1.3.69-3.39Z"/><path d="M299.6,36.8h0v0l0,0h0Z"/><path class="cls-1" d="M391.44,93.91a4.41,4.41,0,0,1,.11,1.82c-.11.3-.94.34-1.62.54.28-.9.49-1.55.68-2.18Z"/><path class="cls-1" d="M305.28,77.46c0-2.1,1.07-3.76,2.38-3.73Z"/><path class="cls-1" d="M71.52,174.68v0l0,.05Z"/><path class="cls-1" d="M448.11,166.34a7.16,7.16,0,0,1-1.5-.13.77.77,0,0,1-.25-.14c-.38-.33-.32-1.14-.46-1.74.2-.09.41-.18.6-.28Z"/><path class="cls-1" d="M195.82,114.6c.27-.16,1,.46,1.86.89l-4,1.63-.35-.45A17.11,17.11,0,0,1,195.82,114.6Z"/><path class="cls-1" d="M15.56,78.88l.94-.14A2.34,2.34,0,0,1,15,81C13.9,80,13.61,79.26,15.56,78.88Z"/><polygon class="cls-1" points="448.17 166.34 448.17 166.35 448.17 166.34 448.17 166.34"/><path class="cls-1" d="M33.34,36.33c-.21.42-.41.84-.61,1.26C32.93,37.17,33.13,36.75,33.34,36.33Z"/><path class="cls-1" d="M161.68,51.41c.21-1.44-.06-3,1.44-4,.58-.41.63-1.52,1-2.27s.75-1.25,1.17-1.94c.89,2.08.46,3.37-1.25,4.61a4.82,4.82,0,0,0-1,1.67A7.63,7.63,0,0,1,161.68,51.41Z"/><polygon class="cls-1" points="160.61 54.65 160.61 54.65 160.6 54.65 160.6 54.65 160.61 54.65"/><path class="cls-1" d="M411.4,81.93c.66-1.52,1.25-2.71,1.69-4s.65-2.35,1-3.6l1.11,3.47c-.19.16-.54.45-.68.58l1,2.17-2.08-.83c.26.64.45,1.07.63,1.51a4.15,4.15,0,0,0-1.11,0A9.33,9.33,0,0,0,411.4,81.93Z"/><path class="cls-1" d="M32.73,37.59h0a5.92,5.92,0,0,1-.61-.16A4.19,4.19,0,0,0,32.73,37.59Z"/><path class="cls-1" d="M400.22,71.44c1.47,1.62,1.47,1.62-.6,5.09Z"/><path class="cls-1" d="M38.59,46.75c.19.43.38.83.55,1.21-.12.14-.19.31-.26.3a1.85,1.85,0,0,0-2.05,1.66c-.55,2.18-1.2,4.33-1.89,6.46-.1.3-.63.46-.88.63-.24-1.34-.49-2.42-.6-3.51a2.84,2.84,0,0,1,.3-1.49c.93-1.79,1.87-3.58,2.92-5.3a31.31,31.31,0,0,1,3-4.1c.3-.34,1.21-.15,1.85-.2,0,.18.08.36.13.54a14.06,14.06,0,0,0-1.14,1c-.22.23-.54.71-.46.83C41.34,46.73,39.58,46.43,38.59,46.75Z"/><path class="cls-1" d="M160.7,54.7l0,0h0Z"/><path class="cls-1" d="M154.62,102.52c1.27,2.14.33,3.72-.11,5.33l-.54,0C154.17,106.21,154.37,104.61,154.62,102.52Z"/><path class="cls-1" d="M292,72.49c-1.5,0-2.45,1.3-2.92,4l-1.9-1L283.09,80c-.54-1.25,1-2.93-1.3-3.58,1.73-1.77,3.37-3.32,4.85-5,1.06-1.21,1.9-2.61,3-4.13a4.66,4.66,0,0,1,1.35-.15c.82.1,1.5.2,1.09,1.52A13.51,13.51,0,0,0,292,72.49Z"/><path class="cls-1" d="M394.64,75.33l.07,0,0,0Z"/><path class="cls-1" d="M301,57.59c.18-.57.37-1.14.56-1.7.07-.18.43-.29.68-.36.06,0,.32.3.3.33-.8,1.09.54,3.16-1.65,3.63-.23,0-.42.28-.63.44C300.53,59.15,300.77,58.37,301,57.59Z"/><path class="cls-1" d="M300.28,59.93l0,.11,0,0h0A.46.46,0,0,0,300.28,59.93Z"/><path class="cls-1" d="M412.16,89.67a24.38,24.38,0,0,1-.45-3.48c0-.4.69-.8,1.12-1.26v4.71Z"/><path class="cls-1" d="M162.08,77.57c-.23-1.11.55-2.57-.45-3.43l.1-.64c.82.14.81,0,.74-1.37l.44-.13a4.69,4.69,0,0,1,.23,1.1c0,1,0,2,0,3.1v2.55A1.58,1.58,0,0,1,162.08,77.57Z"/><path class="cls-1" d="M160.67,54.68h0l-.07,0h0Z"/><path class="cls-1" d="M175.7,50.06l-1.79,5.32C172.74,52.79,173.18,51.32,175.7,50.06Z"/><path class="cls-1" d="M171.31,101c-.9.73,0,2.24-.67,3.06l-.8-.32c.14-.69.28-1.38.47-2.27l-1.76.3-.09-.42,2.56-.81Z"/><path class="cls-1" d="M151.92,108.16l-.53.75Z"/><path class="cls-1" d="M164.87,68a2.64,2.64,0,0,0,.37-.31A2.64,2.64,0,0,1,164.87,68Z"/><path class="cls-1" d="M393.18,88.47c-1.5-2-.07-2.4.77-3.07l.41.23C394,86.48,393.66,87.33,393.18,88.47Z"/><path class="cls-1" d="M160.66,132.48v-3.3c-1.69.41-2.1,1.17-1.73,3.08Zm-7.22,5.34c-.44-1.45-.79-2.62-1.15-3.78l-.54.15C151.15,135.44,151.65,136.68,153.44,137.82Zm57.3,8.41c-.64-1.76-1.84-2.38-3.12-1.42-.5.37-.56,1.35-.82,2.05a5.92,5.92,0,0,0,1.95.31A8,8,0,0,0,210.74,146.23Zm-56.09-18.44a7.75,7.75,0,0,1,0,2.09c3.47,2.08,3.73-1.65,5.07-3.5l.42.17c-.12.66-.25,1.32-.37,2l.43.12,1.53-4.25-.63-.41c-.26.68-.51,1.37-.76,2.05l-.67-.61c1-3.1,2.09-6.19,3.17-9.41l.89.44c.14-.15.26-.22.28-.31.49-2.17,1-4.33,1.45-6.5a1.48,1.48,0,0,1,.32-.79c2.13-1.81,4.25-3.65,6.48-5.35,1.66-1.28,3.73-.89,5.64-.88.51,0,1,1,1.47,1.41-1.52.51-2.69.85-3.8,1.33a1.24,1.24,0,0,0-.52,1c0,.23.51.45.81.65,2,1.31,3.82-.32,5.73-.48a26,26,0,0,0,3.58-.81c.57.82,1.57,1.31,3.23.69.83-.32,2,.43,3.09.63a35.45,35.45,0,0,1,3.67.72c-5.7.48-10.58,2.44-13.94,7.62a10,10,0,0,1-.53-.94,4.67,4.67,0,0,1-.13-.67c-2.21.58-2.55,1.42-1.34,4.06l2.2-1.51,2.15-1.48c.55-.38,1.36-1.19,1.59-1a7.3,7.3,0,0,1,2.49,2.25c.37.61.36,1,1.29,1.14s1.61,1.15,2.4,1.77a6.21,6.21,0,0,0,1.57,1c.66,1.21,1.16,2.59,3.22,2.11-.08.58-.14,1.07-.22,1.6.2,0,.41.17.51.11a5.09,5.09,0,0,0,1.72-1.15,3.43,3.43,0,0,1,2.35-1.58c1.73-.35,2.56-1.78,3-4l2.78-2.12c-1.16-3.69-4.1-4.72-7-5.93,4.68-.09,9,2.94,13.82,1,.16.61.15,1.23.36,1.32,2.05.86,1.52,2.64,1.62,4.21a28.64,28.64,0,0,1,.32,5.12,18.9,18.9,0,0,0,.23,5.31,48.09,48.09,0,0,1,.11,5.64c.07,1.52.27,3,.41,4.63l-1.81,1c.44.3.78.52,1.26.83-2.47,1.69-.65,4.15-.65,6.24,0,.68.05,1.35.08,2a27,27,0,0,0,.13,2.7,1.73,1.73,0,0,1-1.13,2.2,5.79,5.79,0,0,0-3.22,4.89c-.09.78,1.08,1.51.18,2.39-.28.28-.51.69-.85.83-3.27,1.37-6.55,2.7-9.84,4a1.9,1.9,0,0,1-1,.15c-3-.58-4.15.05-5.17,2.84-.14.38-.31.75-.56,1.32,2.62-.61,5.13-1.38,7.7-1.76s5.25-.38,7.88-.55c.48,2.25,1.52,4.41-1.19,6l2.31,2.88c-1.07,1.54,1.08,2.18,1.64,3.87l-5.06-1.69,1.07,1.34h-2l2.85,3.66,1.34-.26c.69,1.68-.44,2.78-1.09,4a2.15,2.15,0,0,0-.26,1.6c.95,1.85.46,2.78-1.76,2.86-.1.49-.2,1-.33,1.66a2.36,2.36,0,0,0-1.13.18c-.2.13-.1.69-.14,1.11h1.74c-.69.74-1.39,1.44-2,2.2-.19.22-.34.76-.22.9,1.08,1.22,0,1.55-1.15,2.17,1.2.77,2.21,1.42,3.22,2,.2.12.46.12.66.23,2.94,1.49,2.85,2.31.44,4.41-1.41,1.23-2.28.93-3.67.33a63,63,0,0,1-12.22-7c-2.44-1.79-5.33-2.94-7.92-4.54a47.39,47.39,0,0,1-5.84-4.19c-2-1.67-3.73-3.65-5.66-5.4A9.61,9.61,0,0,1,170,178a52.69,52.69,0,0,1-1.17-8.1A43.12,43.12,0,0,0,166,156.53c-.73-2-1.19-4.17-1.79-6.25-.16-.54-.4-1.05-.45-1.19-1.78,1-3.39,2.49-5.09,2.61a11.44,11.44,0,0,1-6.13-1.55c-6.36-3.6-9.43-9.68-11.65-16.33-.57-1.73-1.53-3.33-2-5.07a14.82,14.82,0,0,1-.72-5.16,17.47,17.47,0,0,1,5.14-10.53c.9-.93,1.61-.43,2.11.42a8.55,8.55,0,0,1,.62,1.85c-2.36.39-3.48,2.33-4.27,4.18a11.83,11.83,0,0,0-.26,7.11,34.84,34.84,0,0,0,3.13,8.68,27.39,27.39,0,0,0,4,5.65c-4.83-7.5-5.79-15.22-2.29-22.94h3.41c-.83,2,.32,2.5,2,2.67-.16-.5-.29-.94-.43-1.37l.37-.2,2,3.6c-.81.53-1.14,1.38-.33,2.58A10.74,10.74,0,0,1,154.65,127.79Z"/><path class="cls-1" d="M303.05,48.26v-.13l.91,0,1,1.09L298.13,54l-.39-.48C299.49,51.77,300.06,48.94,303.05,48.26Z"/><path class="cls-1" d="M394.71,78.43V75.36c2.6-.34,3.76.64,4.13,3.3.05.37.6.67.93,1l.43-.25c-.07.48-.14,1-.21,1.47L398.71,80c0,.17.06.35.09.51l-.65.09a7,7,0,0,0-.38-1c-.19-.5-.43-1-.63-1.42Z"/><path class="cls-1" d="M390.53,94.1l.1-.06s0,0,0,0Z"/><path class="cls-1" d="M73.74,169.38a2.21,2.21,0,0,1,.52,2.47,7.52,7.52,0,0,0-.34,1.63c0,.51-1.49,1-2.31,1.51,0,0-.08-.08-.1-.13a.33.33,0,0,1,0-.14l1.15-1.28c-.3-.67-1.77-1.48,0-2.49.71-.4-.94-.79-.2-1.81s1-.95,1.56-.64C73.92,168.82,73.66,169.29,73.74,169.38Z"/><path class="cls-1" d="M448.14,166.38l0,0v.06Z"/><path class="cls-1" d="M164.21,68.3a2.56,2.56,0,0,1-.48.1,1.1,1.1,0,0,1,0,.18,1.11,1.11,0,0,1,0-.19A2,2,0,0,0,164.21,68.3Z"/><path class="cls-1" d="M440.25,145.37c2.44.93,3.76.8,4.84-.48C442.6,143.37,441,143.53,440.25,145.37Zm-15-35.48c-4.89.87-8.88,3.44-12.9,7.16,2.17.1,3.95.56,5.46.14s2.76-1.74,4.25-2.74c1.31,2.19,3.1,3.86,5.71,3.27a5.31,5.31,0,0,0,4.35-4.62,6.57,6.57,0,0,1,1.43.47c.61.43,1.15,1,1.72,1.46a7.79,7.79,0,0,1-1.15,1.21c-1.43,1-2.91,2-4.38,3,0,.15.07.3.1.46.53,0,1.15.27,1.58.08,1.38-.63,3.05.49,4.37-.94.56-.61,2-.39,2.59-1s.56-1.82.81-2.83l1.56.63.65-1.47c-.7-1.34-1.29-2.44-1.7-3.24-.84-.3-1.46-.57-2.11-.75-1.58-.46-3.17-1.25-4.75-1.23A48,48,0,0,0,425.22,109.89Zm-37.47,15.74Zm-13.14-12.77c-.53,3.67.22,7.17,1.46,11.17.52-.61,1-1,1.1-1.37.23-1.07.25-2.18.43-3.27.42-2.62.16-5.42,2-7.67a1.43,1.43,0,0,0-.4-1.29C377.08,109.23,375,110.39,374.61,112.86Zm.14-4.28c1.77-2.79,6.07-3.35,8.09-.85.52.65.3,1.88.43,2.85l-.08,0c.05.22.2.59.12.65-1.32,1.07-.73,2.15,0,3.15s1.52,1.81,2.28,2.72c1.29,1.58,2.89,2.83,3.7,4.89a80.91,80.91,0,0,0,4.3,8.52c.26.5.95.77,1.83,1.43,0-1,0-1.63,0-2.21-.25-3.42-.65-6.83-.76-10.26a58.13,58.13,0,0,1,.29-9.7c.28-2,1.53-3.86,2.25-5.58,1.81-.33,3.41,1.42,4.74-.45a10.68,10.68,0,0,1,1.23.57c.41.16,1.11.49,1.23.35a10.89,10.89,0,0,1,6.38-3.86c.33-.07.61-.32.83,0l6.1,1.63c-.18-.8-.28-1.22-.38-1.64.56-.56,3.92.78,5.05,2.07l-1.22,1.78c-.35-.33-.62-.59-.62-.58l-4.26,2.61c.07.65.45,1.07,1.73.8a65,65,0,0,1,7.45-1.1,27.15,27.15,0,0,1,3.91.27,71.4,71.4,0,0,0,8.13.27,3.37,3.37,0,0,1,2.71.74c1.3,1.22,2.12-.66,3.38-.25-.32-1-.59-1.87-.92-2.9l-1.48-.34c.22-.32.41-.72.49-.7,1.39.37,2.75.87,4.16,1.15.45.09,1-.41,1.53-.57.83-.23,2-.84,2.45-.51.89.69,2.14,1.23,2,3a39,39,0,0,0,.46,5.87,4.47,4.47,0,0,1-.23,1.34c.35,1.87.64,3.5,1,5.13a1,1,0,0,0,.26.4c1.72,1.94.76,4.26.85,6.4.07,1.75-.46,3.57-.18,5.26.35,2.13,1.46,4.13,1.87,6.26a13.55,13.55,0,0,1,.05,5.49,8.86,8.86,0,0,1-2.55,3.72c-1.3,1.28-3,2.15-4.3,3.43a24.09,24.09,0,0,0-3.29,4.16c-.81,1.29.51,3.2,1.77,3.21a42.23,42.23,0,0,1,1.65-4.37c.13-.29,1.3-.44,1.67-.19a11,11,0,0,1,2,2.16c.8,1,.82,1.94-.43,2.61a25.75,25.75,0,0,0-4.31,2.32c-2.79,2.3-5.75,2-8.87,1.08a9.24,9.24,0,0,0-7.86.78,7.78,7.78,0,0,1-3.85.61,4.31,4.31,0,0,0-3.94,1.78c.17.07.33.19.48.17,3.81-.42,7.61-.93,11.43-1.25,1.64-.13,3.31.22,5,.19,1.17,0,2.24-.09,2.63,1.35.84-.75,1.28-.68,1.54.41a10.23,10.23,0,0,0,1,2l.42-.15c-.07.41-.15.83-.25,1.39,0,.19-.07.39-.11.62a15.8,15.8,0,0,0-3.56.09c-.53.12-.85,1.13-1.27,1.73l.39.45h2l-.57.83c1.92,1.68,3.6,3.71,6.39,3.29L447.22,179l2.62,1.44v3.4l-.38.21c.34.53.67,1,1.05,1.65l-2.05,1.11,1.41.27-2.73,2.44c-.27-.17-.64-.38-1.1-.64-.27.46-.53.88-.82,1.36-.09-1.3-1.12-2.08-1.88-1.36s-1.79.58-2.53,1.15l-2.21,1.73L433,191c-.34.83-.63,1.57-1,2.38l1.75.81-.21.64a22.3,22.3,0,0,1-4.62-1.38c-3.26-1.82-6.34-4-9.57-5.88a22.4,22.4,0,0,0-3.69-1.31,4.37,4.37,0,0,1-.78-.39c-3.13-1.71-6.14-3.68-9.4-5.08-3.55-1.54-6.18-4.07-8.68-6.8s-2.22-6.54-2.34-10c-.18-4.8-.31-9.6-.45-14.38l3.09-2.78c-.45-.38-.78-.67-1.15-1a3.93,3.93,0,0,1-.49,1c-3.69,4.2-11.58,2.66-13.94-1.89A82.47,82.47,0,0,1,375,127c-.89-3.46-1.45-7-2-10.53A11,11,0,0,1,374.75,108.58Zm5.53,14.67c-1.63,1.82-1.6,4.19-1,6.44.29,1,.85,2.29,1.66,2.65a22.59,22.59,0,0,0,5.33,1.39c1.3.25,2.71.1,3.16,1.84.1.37.65.62,1.32,1.23-.83-2.15-1.47-3.8-2.05-5.28h-3.25c-.1-.19-.19-.38-.28-.56.43-.36.91-1,1.31-1.17a.44.44,0,0,1,.22,0c2,.26,1.34-1.15,1.64-2.32l-2.21,1.48-.26-.25,1.8-3.12,0,0a30.67,30.67,0,0,0-1.13-3.13c-.77-1.62-2.11-.19-3.15-.49-.11,0-.23,0-.34-.09C381.7,121.32,380.88,122.58,380.28,123.25Z"/><path class="cls-1" d="M300.2,60c-.17.41-.36.82-.53,1.23.17-.41.35-.82.53-1.23Z"/><path class="cls-1" d="M189.28,77.47V74.34l.78,0-.15,3.11Z"/><path class="cls-1" d="M151.22,55.94l-1.59,1.51-.35-.17,1.47-4.46.58.07v2.93Z"/><path class="cls-1" d="M71.52,174.68l0,.09-.06-.1Z"/><path class="cls-1" d="M73.37,195.23c.08.74.16,1.44.26,2.36l-2.13-.81.18-.47C72.2,196,72.7,195.65,73.37,195.23Z"/><path class="cls-1" d="M178.13,82.82h0a2.4,2.4,0,0,0-1.17.53,2.41,2.41,0,0,1,1.16-.53Z"/><path class="cls-1" d="M160.7,54.62h0s0,0,0,.06l-.06,0Z"/><path class="cls-1" d="M172.82,87.76c.31-1.31.61-2.63.92-4l-.64-.22C171.67,84.74,172.59,86.31,172.82,87.76Zm7.24-16.82c.89-2,1.91-4,2.95-5.92a3.32,3.32,0,0,1,1.47-1.25c-1.64,2.88-2.4,6-1.06,8.9,1,2.19-.38,4.22.9,6.13l-.46.13L183,77.72c-.8,2.41-1.59,4.81-2.39,7.2h-.91q-.41-1.51-.81-3.06l-1.58-.14c.15.19.29.38.44.56l.42.55a2.41,2.41,0,0,0-1.16.53,2.44,2.44,0,0,0-.93,2.42c.44,1.78-.16,2.14-2,1.65l.77,2.46c-2.11.68-2.35,2.83-3.17,4.93l-1.28-1.66c2.55-.75.08-1.83.47-2.72l-.43-.4-4.16,3c.13-1.22.26-2,.28-2.84a8.55,8.55,0,0,0-.19-1.5l-.56,0-.56,1.49-.31,0c0-.42-.09-.83-.13-1.24L162.85,90h0c-.19-.65-.41-1.31-.57-2a2.59,2.59,0,0,1,.38-2.63,10.26,10.26,0,0,0,1.77-4.66c.22-1.47-.28-3-.28-4.56,0-.09,0-.18,0-.27a6.71,6.71,0,0,1,.94-3.52,4,4,0,0,0,.9-3.21,3.5,3.5,0,0,1,.31-1.2l.59.08c.14,2.9.27,5.81.42,8.94a4,4,0,0,0,.72-1.18c.19-1.07.53-2.11.79-3.12a57.62,57.62,0,0,0,1.33-9.65c.1-1.19-.46-2.42-.48-3.64a10,10,0,0,1,.58-2.45c.06-.22.2-.46.15-.66A6.53,6.53,0,0,1,172,50.1c-.22,3.45-.43,6.9-.64,10.5l1.44-.47c.58,2.11.58,2.11,1.93,2.11l1,0c0,.48,0,1,0,1.49l-1.53-.2c-.06.72-.14,1.65-.2,2.45l3.09-.19c0-.49-.82-1.63.71-2.24.29-.11.12-1.36.18-2.37l1.67.81c.26-.3.53-.64.94-1.13.42.4.84.78,1.25,1.16l-.21.37-1.17-.18c-.71,1.84-.22,4.17-2.36,5.28l-.33-.52-.39,0c.05.86.08,1.72.11,2.34-.5.22-1.33.32-1.51.72a12.68,12.68,0,0,0-.53,2.87c1-.28,1.59-.67,1.92-.5C179.14,73.26,179.52,72.16,180.06,70.94Z"/><path class="cls-1" d="M407,45.46c-1.22.91-2.32,1.64-3.32,2.46l-.42-.7c-.18-.83-.34-1.57-.51-2.41Z"/><path class="cls-1" d="M301.85,41.16l-7.45,2c-1.55-1.64.85-2,1.31-3.18l-1.37.21c0-.5-.27-1.32-.06-1.46a41.68,41.68,0,0,1,4.36-2.5c.17-.09.61.34.94.56-.43,1-.88,2-1.33,3l-.45,1C299.09,40.71,300.62,39.34,301.85,41.16Z"/><path class="cls-1" d="M322.62,142.23c.69,1.14,1.63,1.1,2.84-.38l-2.61-1C322.77,141.35,322.45,141.94,322.62,142.23ZM302.29,104c3,.42,6.14.61,9.13,1.28,2.24.51,4.31,1.69,6.51,2.42.92.3,2.1.61,2.47-1,.32-1.36-.19-2.43-1.38-2.72-3.32-.82-6.67-1.55-9.94-2.51-3.1-.92-5.54.87-8.28,1.37,0,.25,0,.49,0,.74A13.34,13.34,0,0,0,302.29,104Zm3.64,10.2a9.83,9.83,0,0,1,2,1.56,12.32,12.32,0,0,1,1,2.52l4.66,1.64a6.91,6.91,0,0,0-.91,2.08c0,.25,1,.61,1.68,1v.88c.65-.45,1.2-1.14,1.67-1.09,1.7.18,2.09-.92,2.53-2.12a13.18,13.18,0,0,1,1.37-3.11c.7-.94,1.37-3.54.68-4.53a11.82,11.82,0,0,0-9.37-5.41c-4.67-.24-8,2.06-10.56,5.7a8.56,8.56,0,0,0-.75,2.8l.56.39.95.47a3.91,3.91,0,0,0-.26,1.1Zm-24.66,2.95c3,1.77,3,5,4.11,7.76a34.75,34.75,0,0,0,2.81,4.76l.51-.26c-.24-1.7-.53-3.39-.72-5.09a50.56,50.56,0,0,1,.95-15.71c.09-.45-.09-1,.12-1.38s.84-1,1.14-.94c2.57.63,4.29-1.06,5.92-2.37a47.61,47.61,0,0,0,5.09-5.42,9.06,9.06,0,0,0,1.09-1.38c2.18-3.71,5.16-3.39,8.17-1.72,1.75,1,3.32,1.09,4.61.31,2.25.94,4.22,1.82,6.23,2.6,1.52.59,3.13,1,4.6,1.65.48.24.75,1.16.88,1.81a11,11,0,0,0,.24,2c.44-.77.89-1.54,1.35-2.3l.41.08v4.85l-1.54-1.24-.29.23a26.3,26.3,0,0,1,1.55,2.66,10.19,10.19,0,0,1,.47,2,26.22,26.22,0,0,1,1,4.29,29.24,29.24,0,0,1-.4,4.83c-.06.57-.29,1.13-.32,1.7-.15,3-.18,6.07-.42,9.09-.22,2.6-.81,5.17-.94,7.77-.07,1.64-.07,3.58.71,4.9,1.39,2.33.38,4.26-.22,6.32-.49,1.68-1.62,3.28-.41,5.31l4.25-2.43-.18-.63a8.32,8.32,0,0,1,1.74.95,2.66,2.66,0,0,1,1.05,1.57c0,.41-.66,1-1.16,1.26-1.33.54-2.74.91-4.51,1.48-.13.55-.35,1.47-.61,2.59a14.27,14.27,0,0,1-3.39-1.06,2,2,0,0,0-2.56.44c-1.07.93-2,1.85-3.63,1.8a3.12,3.12,0,0,0-1.54.79,1.08,1.08,0,0,0-.45.83,1,1,0,0,0,.79.48,8,8,0,0,0,2.93-.43,8,8,0,0,1,6.47-.38c.77.25,1.58.42,2.41.64.31,1.29.37,2.43-1.14,3-.2.08-.53.27-.52.38.19,2.23-2.52,2.94-2.48,5.14,2.68-.24.25,2.23,1.12,2.75a48.62,48.62,0,0,1,5.64-.41c1.15.05,1.75.92,1.21,2.18a1,1,0,0,0-.05.65c.13.64.65,1.56.4,1.86a10.55,10.55,0,0,1-2.46,1.9,47.51,47.51,0,0,0-4,2.64c-.33.28-.11,1.35,0,2A7.72,7.72,0,0,0,328,186l-.48.31-1.23-.88.67,2.16c-2.79,1.73-5.21.07-7.47-1.08-5.17-2.65-8.9-7.07-12.46-11.46a94.61,94.61,0,0,1-9.23-13.43c-1.7-3-2.31-6.71-3.29-10.13-.73-2.6-1.25-5.26-1.9-7.88-.18-.73-.44-1.43-.53-1.71-1.8.23-3.51.92-4.84.49a9.87,9.87,0,0,1-4.23-3.14,53,53,0,0,1-4.17-6.51,28.23,28.23,0,0,1-3.78-16c.1-2.34-.42-4.79,1.29-6.9-.31,3.92-.23,7.77,1.65,11.36,0-1.05,0-2.19,0-3.33a14,14,0,0,1,.18-3.83c.69.65,1.4,1.28,2.07,2C280.58,116.34,280.84,116.88,281.27,117.13Z"/><path class="cls-1" d="M399.29,83.41c-.81-.71-2.05-1.18-1.17-2.53a.42.42,0,0,0,0-.28l.65-.09C399,81.66,399.14,82.53,399.29,83.41Z"/><path class="cls-1" d="M59.11,140.58c1.61,1.66,3,1.61,4.61-.05a7.61,7.61,0,0,0-2.29-.79A7.24,7.24,0,0,0,59.11,140.58ZM65.3,94.17c.09.07.67-.27.65-.37a8.72,8.72,0,0,0-.59-2.68c-.21-.43-1.06-.54-1.74-.84.38,1.23.62,2.15.95,3A2,2,0,0,0,65.3,94.17ZM39.93,92c1.61,2.27,4.2,2.87,6.73,3.37a42.21,42.21,0,0,0,5.64.49c1.7.11,3.49,1.06,5.09-.43l1.19.64a6,6,0,0,1,1.81-.62c1.38,0,1.87-.55,1.57-2a10.75,10.75,0,0,1-.12-1.77l-1.22-1.85-.33.27c0,.35,0,.69,0,1-2.53-1.82-5.07-3.34-8.25-3.3a19.57,19.57,0,0,1-3.34-.09c-3-.5-5.52,1-8,2.35C40.19,90.35,39.7,91.67,39.93,92Zm1.24,12.53c.14.27.26.56.42.9L43,103.67l.53.32c-.35.77-.69,1.55-1.11,2.5,3.42.86,6.61,3.7,10.42.88l-.65,1,6.07-2.28c-.36-.66-1.12-1.44-.95-1.83.68-1.61-.47-2.4-1.32-3.11a11.46,11.46,0,0,0-11.09-2.49c-1.32.39-2.54,1.1-3.86,1.5-2.89.89-4.78,3.05-7.13,5,1.5.48,2.33.32,3.15-.82C38.41,102.39,40.08,102.55,41.17,104.52ZM78,82.08a2.48,2.48,0,0,1,3,2.73c0,.63-.09,1.26-.15,2l1.6-.1c0,.74-.08,1.36-.14,2.37-1.36-2-2.76-.11-4.15-.35-.14,1.8-3.77,6.84-5.23,7l.67,1-.45-.46-1.75,2.19.68.29a21.58,21.58,0,0,0,.22,2.41c.56,2.77-.6,5.63.58,8.42.41,1,.08,2.28,0,3.42s-.25,2.51-.38,3.79l1-.35c0,.53-.14,1-.14,1.41,0,1.49,0,3,0,4.48,0,.72-1.08,1-.46,2.06.41.67.19,1.77.11,2.67-.17,1.78-.51,3.55-.64,5.33-.07.9.27,1.82.26,2.73,0,1.61-.22,3.22-.25,4.84,0,.33.35.67.57,1.06-2,1.33-2.08,3.78-3.12,6l1.51.27-.52,1.46c.29,0,.5.13.6.07a1.94,1.94,0,0,1,3.13,1.41c.17,1.59.38,3.19.58,4.78.07.6.43,1.6.22,1.73-.86.55-2,1.28-2.84,1.12a2.5,2.5,0,0,0-2.65,1.46c-.68,1.65-1.75,1.05-2.51.63a2.78,2.78,0,0,0-2.76-.07,7.07,7.07,0,0,1-2,.35,33.65,33.65,0,0,1-4,.3c-1.53,0-3.05-.33-4.59-.44-1-.07-2,0-3.22,0,.51,2,1,2.72,2.8,2.15,1.55-.48,3.32-.18,5-.44,3.53-.56,6.72.76,10,1.58.81.2,1.6.49,2.53.79.2-.13.94-.77,1.08-.65a5,5,0,0,1,1.52,1.89c.1.22-.67,1-1.16,1.25a15,15,0,0,1-2.34.84c.15.25.32.56.55,1l-1.27.48a3.45,3.45,0,0,1,.12.46c.14.8.22,1.61.42,2.39a10,10,0,0,0,.7,1.81,8.35,8.35,0,0,0,.72,1.07l-1.35-.14c.35.62.64,1.11,1,1.7l3.8-1.14v-3.22l.31,0,.42,1.86v-4.79L78,171.65c.27.48.74,1.36,1.25,2.21s1,1.89-.48,2.34l1.47,1.39,1.36-1.52.36.24-.37,1.09.67.08c0,.09.07.16,0,.2-.89,1.73-1.78,3.46-2.71,5.17a.75.75,0,0,1-.72.18c-1.22-.66-1.3.33-1.57,1s-.51,1.36-.76,2-1,1.65-.88,2.39a2.85,2.85,0,0,1-1.42,3.24c-.6.37-1.49.71-.94,1.84.09.2-.58.79-.93,1.17s-.72.72-1.09,1.08l.38.48-.18.47-1.26-.47c-.43.38-.81,1-1.2,1a38.63,38.63,0,0,1-7.61-.12,30.59,30.59,0,0,1-7.61-2.5A39.72,39.72,0,0,1,46,190a116.29,116.29,0,0,1-11.23-10,51.27,51.27,0,0,1-6.85-9.1q-1.34-2.22-2.48-4.51V77.77c.3-.43.61-.85.94-1.26.67.48,3.05,0,3.72-.87s1.47-1.55,2.1-2.4c1.8-2.47,3.51-5,5.32-7.47.79-1.09,1.81-2,2.62-3.08.69-.92,2.31-1.48,1.41-3.29l1.85.18.52.28c-.78,1.47-1.58,3-2.38,4.45l-.61-.67c-.14.19-.41.42-.37.52.83,2.21-1.36,3.32-1.93,5-.45,1.38-2.07,2.38-3,3.71-.72.1-1.92-.5-1.83,1.23a8.15,8.15,0,0,1-1,.24c.09,1.13.44,1.89,1.94,1.17,0,.59-.08,1-.1,1.31a19.54,19.54,0,0,0,4.29.25c2-.3,3.8-1.43,5.86.23.68.55,2.32-.09,3.52-.2l2-.2a26.78,26.78,0,0,0,4.6,1.81c4.65.92,9.11,2.89,14,2.61.5,0,1,.43,1.57.67-.16.57-.3,1-.4,1.44,0,.09.07.21.57.44.15-.69.31-1.38.5-2.22,1-.09,2.18-1,2.65.62.59,0,1.12-.09,1.66-.11C76.22,82.14,77.11,82.19,78,82.08ZM67.35,95.55l2.39-.25c-.08-.33-.21-.86-.25-1.08l-1.69-.76C67.67,94.09,67.51,94.8,67.35,95.55Z"/><path class="cls-1" d="M449.9,183.78h0Z"/><path class="cls-1" d="M150.55,114.87a3.65,3.65,0,0,1-1.47,1.48l1-1.46c-.62-1-1.21-2-1.79-2.92-.06-.09-.1-.3-.06-.32,1.55-1,.68-3.09,2-4.51.18,1,.31,1.72.49,2.69.24-.35.46-.64.65-.92l.53-.75a8.64,8.64,0,0,1-.44,4.68,10.78,10.78,0,0,1-.61,1.47l-.19.36-.05.07A.57.57,0,0,1,150.55,114.87Z"/><path class="cls-1" d="M324.06,92.82l-4.95,1.9-.18-.1a16.75,16.75,0,0,1,2.69-2.11,6.76,6.76,0,0,1,2.46-.24C324.07,92.45,324.07,92.64,324.06,92.82Z"/><path class="cls-1" d="M44.35,70.19c-1,1.23-1.5,3.07-3.59,2.45a5.34,5.34,0,0,1,.43-.32c.27-.18.52-.36.52-.55C41.77,69.83,43.08,70.2,44.35,70.19Z"/><path d="M40.75,72.64h0Z"/><path class="cls-1" d="M449.27,169.1l-2.82-.94,1.13-1.19.56-.59,0,0c.58-1.48,1.32-1,2.3-.13l-2,1.44C448.61,168,448.8,168.34,449.27,169.1Z"/><path class="cls-1" d="M40.74,72.65h0l0,0,0,0Z"/><path class="cls-1" d="M162.85,90h0l.57,2-3,1.2C161.38,92,162.11,91,162.85,90Z"/><path class="cls-1" d="M448.14,166.38l-.56.59C447.77,166.77,448,166.57,448.14,166.38Z"/><path class="cls-1" d="M208.85,71.56c-1.1-.36-1.61-2.59-1.17-5.25C208.1,68.22,208.47,69.88,208.85,71.56Z"/><path class="cls-1" d="M301.35,36.39c-.64-.09-1.26-.18-1.72.37h0C300.09,36.21,300.7,36.3,301.35,36.39Z"/><path class="cls-1" d="M383.19,110.61l.08,0c1.79-.73.7-2.56,1.41-3.72a9.17,9.17,0,0,0,.66-1.62l.5.13a5.92,5.92,0,0,1-.24,1.92c-.67,1.34-.31,1.78,1,1.6-1.8,2.71.64,4.3,1.85,6.21-.1.11-.21.22-.3.33a4.75,4.75,0,0,1-1.07-.78c-.87-1.08-1.63-2.25-2.53-3.31A4,4,0,0,0,383.19,110.61Z"/><path class="cls-1" d="M29.3,40.36c2-.56,2.38-2.33.86-4C29.84,37.87,29.59,39,29.3,40.36Zm3.89-14.67-.33-.58L29.75,27.5l.48.61Zm-.46-1.24,2.73,1,.12-.29-1.66-1,1.77-.88-.3-.49L32.73,24ZM41.25,17c2.11,1.4-.14,2.3-.08,3.43-1.44-.47-2.8.37-3.81,2.53l2.7-1.47c.77,1.7.37,2.43-.85,2.45-1.14,1.15-2,2.05-2.88,2.9-1.06,1-2.16,1.94-3.49,3.14.1.45.28,1.22.51,2.27-2.17-.44-4.26-.26-5.68,1.67a7.23,7.23,0,0,0-1.15,2.22c-.1.37.37.91.85,1.94,1-1.23,1.7-2.11,2.37-3,.27-.36.33-.89.63-1.21a3.25,3.25,0,0,1,1.07-.53,3.74,3.74,0,0,1-.06,1.12c-.49,1.27-.54,2.06-.07,2.57a1.24,1.24,0,0,0,.21.18,1.75,1.75,0,0,0,.27.16,2.52,2.52,0,0,0,.33.14,5.92,5.92,0,0,0,.61.16h0c.2-.42.4-.84.61-1.26s.4-.85.61-1.27l.4.21c-.93,1.18.16,3.09-2.09,4A4,4,0,0,0,29.86,43c0,.38-.4.81-.64,1.26l-1.43-.69-.21.25c.25.42.51.83.6,1-.11.69-.19,1.15-.27,1.61l.43.07L27,47.27l-.57-.77-1,1.58V22.19c2.48-2.2,4.75-4.66,8-6,2.35-1,4.24-3.07,6.24-4.78a5.21,5.21,0,0,1,3.57-1.5c1.29,0,2.54-1,3.86-1.43,1.87-.59,3.78-1,5.68-1.56,1.5-.41,3-1,4.5-1.26,1.12-.22,2.33,0,3.46-.24,1-.16,1.89-.73,2.86-.85s1.77.3,2.64.23l1.07-.11.14,1c-.84.12-1.69.23-2.53.37Q59.72,7,54.52,8A35.06,35.06,0,0,0,50.86,9,4.75,4.75,0,0,0,49,10.38l1.49.47-.29.49a5.45,5.45,0,0,1-1.49.12c-2.39-.47-3.81,1.18-5.49,2.36-1.84,1.31-3.76,2.49-5.66,3.74-.36.64-.79,1.4-1.43,2.56a20.45,20.45,0,0,0,2.74-1.22A24.94,24.94,0,0,0,41.25,17Z"/><path class="cls-1" d="M293.55,38.77c.61,2.11-.66,2.49-1.69,3l-.39-.34Z"/><path class="cls-1" d="M31.52,37.14a1.75,1.75,0,0,0,.27.16A1.75,1.75,0,0,1,31.52,37.14Z"/><path class="cls-1" d="M402.1,48.68c0-.9-.44-1.9,1.14-1.46l.42.7-.42.36a1.23,1.23,0,0,0-.5.86l-.65,0A3,3,0,0,0,402.1,48.68Z"/><path class="cls-1" d="M394.71,75.31v0h0Z"/></svg>