<svg id="Layer_1" data-name="Layer 1" xmlns="http://www.w3.org/2000/svg" viewBox="0 0 616.36 184.45"><defs><style>.cls-1{fill:#fff;}.cls-2{fill:#dcd8cb;}.cls-3{fill:#e4d6af;}.cls-4{fill:#e6e4d5;}.cls-5{fill:#6d5a49;}.cls-6{fill:#0f1114;}.cls-7{fill:#1e222c;}.cls-8{fill:#7c5449;}.cls-9{fill:#ddc599;}.cls-10{fill:#e7e9e8;}.cls-11{fill:#293941;}.cls-12{fill:#f7f8f8;}.cls-13{fill:#253037;}.cls-14{fill:#11151e;}.cls-15{fill:#384953;}.cls-16{fill:#d3d0bf;}.cls-17{fill:#6292ad;}.cls-18{fill:#efd298;}.cls-19{fill:#2a2e39;}.cls-20{fill:#4c88ae;}.cls-21{fill:#41708c;}</style></defs><polygon class="cls-1" points="603.46 181.08 557.65 181.08 485.77 117.78 518.22 115.71 603.46 181.08"/><path class="cls-1" d="M603.46,181.08l-85.24-65.37-32.45,2.07,71.88,63.3h-2.12L482.29,116.6q18.18-1.16,36.36-2.31l87.12,66.79Z"/><path class="cls-1" d="M482.29,116.6l73.24,64.48h-2.14l-74.56-65.65,40.24-2.57,89,68.22h-2.3l-87.12-66.79Q500.47,115.43,482.29,116.6Z"/><path class="cls-2" d="M447.33,159.53c2.5-1.18,5-2.37,7.72-2.57a10,10,0,0,1,2.64.16,4.45,4.45,0,0,0,2,1.9c1.09.53,1.39.2,6.17,1,2.35.4,3,.6,3.09,1,.18.78-1.51,2-3.09,2.57a14,14,0,0,1-6.17.52c-1.38-.13-2.93-.42-4.11.51-.31.25-.23.3-.51.52-1.39,1.12-3.65.34-6.17-.52-2.14-.73-2.46-1.17-2.57-1.54-.18-.61.25-1,.51-2.06a5.79,5.79,0,0,0,.19-1.38Z"/><path class="cls-3" d="M450.93,33.05c.16.65.3,1.26,0,1.54-.5.47-1.73-.39-2.05,0-.21.23.45.69.51,1.54a2.14,2.14,0,0,1-.51,1.55,1.6,1.6,0,0,1-.6.34,9.21,9.21,0,0,1-.95-4.46c0-2.23,1-2.49,1.55-5.14a13.5,13.5,0,0,0,.37-3.13,8.06,8.06,0,0,1,.65,3.13,7.11,7.11,0,0,0,0,2.06C450.15,31.47,450.64,31.79,450.93,33.05Z"/><path class="cls-1" d="M448.38,114.37l2-.08,61.41,66.79h-1.9l-60.1-65.37-1.09.05C448.63,115.33,448.5,114.88,448.38,114.37Z"/><path class="cls-1" d="M450.42,114.29l-2,.08s0-.05,0-.08c-.12-.48-.22-.92-.31-1.32l3-.11,62.72,68.22h-1.9Z"/><path class="cls-4" d="M448.05,113c.09.4.19.84.31,1.32,0,0,0,.06,0,.08-4.63.19-9.27.36-13.9.54-.22-.49-.43-1-.64-1.38Z"/><path class="cls-5" d="M449.25,25.29a13.5,13.5,0,0,1-.37,3.13c-.58,2.65-1.53,2.91-1.55,5.14a9.21,9.21,0,0,0,.95,4.46,3.91,3.91,0,0,1-3.52-.86c-2.89-2.82,1.83-13.13,3.6-12.85C448.67,24.36,449,24.73,449.25,25.29Z"/><path class="cls-4" d="M455.05,157c-2.71.2-5.22,1.39-7.72,2.57l-.32.16a7.11,7.11,0,0,0-.19-1.7h.51c4.37-.14,6-4,8.23-3.6,1.23.2,1.42,1.48,2.13,2.73A10,10,0,0,0,455.05,157Z"/><path class="cls-4" d="M452,127.14c.78,2.89,1.37,5.35,2.57,10.29,2.54,10.39,2,9,2.57,10.79,1.62,5,3.16,7.67,2.06,8.74-.38.36-.78.28-1.47.16-.71-1.25-.9-2.53-2.13-2.73-2.24-.39-3.86,3.46-8.23,3.6h-.51a7.11,7.11,0,0,1,.19,1.7c-1.59.76-2.28,1.21-2.76.87a.85.85,0,0,1-.17-.16c-.47-.67.15-2.27.17-4.47,0-2.57-.81-4.13-1.54-6.17-1.7-4.76-.42-5.31-2.06-13.88-.51-2.65-1.2-5.18-2.57-10.28a74.5,74.5,0,0,0-2.57-8.22c-.14-.38-.3-.75-.44-1.1l13.67-.52C449.78,119.87,450.23,120.63,452,127.14Z"/><path class="cls-1" d="M442.91,161.18l-21.12-31.51a25.29,25.29,0,0,0,3.95-4.07,23.56,23.56,0,0,0,3.6-6.17c.39-1,.66-2,1-3l4.69-.19c.14.35.3.72.44,1.1a74.5,74.5,0,0,1,2.57,8.22c1.37,5.1,2.06,7.63,2.57,10.28,1.64,8.57.36,9.12,2.06,13.88.73,2,1.56,3.6,1.54,6.17,0,2.2-.64,3.8-.17,4.47Z"/><path class="cls-2" d="M444.25,44.87c-.95-.42-.31-2.08-1.26-3.71a3.93,3.93,0,0,1,1.26,1.14,5.8,5.8,0,0,1,.79,2.59A1.12,1.12,0,0,1,444.25,44.87Z"/><path class="cls-1" d="M457.69,157.12c.69.12,1.09.2,1.47-.16,1.1-1.07-.44-3.72-2.06-8.74-.57-1.81,0-.4-2.57-10.79-1.2-4.94-1.79-7.4-2.57-10.29-1.73-6.51-2.18-7.27-3.22-11.38l1.09-.05,60.1,65.37h-53.7l-13.32-19.9,1.17-.78a.85.85,0,0,0,.17.16c.48.34,1.17-.11,2.76-.87a5.79,5.79,0,0,1-.19,1.38c-.26,1-.69,1.45-.51,2.06.11.37.43.81,2.57,1.54,2.52.86,4.78,1.64,6.17.52.28-.22.2-.27.51-.52,1.18-.93,2.73-.64,4.11-.51a14,14,0,0,0,6.17-.52c1.58-.59,3.27-1.79,3.09-2.57-.1-.42-.74-.62-3.09-1-4.78-.83-5.08-.5-6.17-1A4.45,4.45,0,0,1,457.69,157.12Z"/><path class="cls-2" d="M441.48,86.51a4.41,4.41,0,0,0,1.57-2,23,23,0,0,1,.17,5,20.42,20.42,0,0,1-.73,4.58c-.89-2.56-1-2.76-1.32-3a4.9,4.9,0,0,0-1.91-1c.29-.09.5-.65,1.39-1,1-.43,1.89-.12,2.06-.51.09-.22-.13-.48-.52-1C441.9,87.15,441.66,86.81,441.48,86.51Z"/><path class="cls-4" d="M442.71,82a2.5,2.5,0,0,1,.51,1.91,2.39,2.39,0,0,1-.17.61C442.94,83.69,442.8,82.92,442.71,82Z"/><path class="cls-2" d="M440.14,72.63a19,19,0,0,1,1-5.14c1.72-6.37,2.6-9.55,2.57-12.34a42.28,42.28,0,0,0-.52-6.16,23.53,23.53,0,0,1-.51-3.09c-.17-2.62.46-3.24,0-4.63a2.15,2.15,0,0,0-.13-.32,2.27,2.27,0,0,1,.41.21c.95,1.63.31,3.29,1.26,3.71a1.12,1.12,0,0,0,.79,0c.08.42.16.93.24,1.52.39,2.86.48,5,.51,5.66.28,6.23,1.22,6.57,1,9.77-.16,2.94-1.09,2.74-2.57,8.22a42.16,42.16,0,0,0-1.54,7.71,20.58,20.58,0,0,0,0,4.26,11.29,11.29,0,0,1-1.54-3.23A18.7,18.7,0,0,1,440.14,72.63Z"/><path class="cls-4" d="M440.14,85c.39,0,.56.41,1.34,1.54a4.82,4.82,0,0,1-.83.52,6.27,6.27,0,0,1-2.06.5,4.55,4.55,0,0,1,.52-1.53C439.34,85.58,439.67,85,440.14,85Z"/><path class="cls-3" d="M439,90l.31.09a.19.19,0,0,1-.15,0A.29.29,0,0,1,439,90Z"/><path class="cls-3" d="M442.71,88.57c-.17.39-1,.08-2.06.51-.89.38-1.1.94-1.39,1L439,90a3.22,3.22,0,0,1-.36-2.49,6.27,6.27,0,0,0,2.06-.5,4.82,4.82,0,0,0,.83-.52c.18.3.42.64.71,1C442.58,88.09,442.8,88.35,442.71,88.57Z"/><path class="cls-2" d="M442.71,107.08c-1.79.15-2.9-1.08-4.63-2.06a25.36,25.36,0,0,0-5.14-1.54c-5.25-1.31-5.08-.59-7.2-1.54-1.37-.61-2-1.14-3.47-2a9.07,9.07,0,0,1,.39-2.14c1.9-5.49,11.14-9.16,16.29-7.8a.29.29,0,0,0,.16.09.19.19,0,0,0,.15,0,4.9,4.9,0,0,1,1.91,1c.29.28.43.48,1.32,3a7.41,7.41,0,0,0-.3,3.64c.66,4.38,3.31,7.42,2.06,8.74A2.16,2.16,0,0,1,442.71,107.08Z"/><path class="cls-4" d="M448.74,115.76l-13.67.52c-.2-.48-.4-.93-.59-1.37,4.63-.18,9.27-.35,13.9-.54C448.5,114.88,448.63,115.33,448.74,115.76Z"/><path class="cls-4" d="M439.62,38.19a6.14,6.14,0,0,1,2.54,2,7.25,7.25,0,0,0-3.57-1.48,11.31,11.31,0,0,0-3.59,0,10.4,10.4,0,0,0-1.14.19A6,6,0,0,1,439.62,38.19Z"/><path class="cls-4" d="M443.05,84.55a4.41,4.41,0,0,1-1.57,2c-.78-1.13-1-1.55-1.34-1.54s-.8.61-1,1a4.55,4.55,0,0,0-.52,1.53,3.63,3.63,0,0,1-2-.5c-1.47-.91-1.28-2.51-2.57-5.66-1.08-2.6-1.68-2.66-2.57-4.62-.59-1.3-1.26-3.32-.52-14.4.25-3.6.31-3.3.52-6.68.15-2.62.26-5.17.51-8.74.42-6,.69-6.89,1.54-7.71a2.34,2.34,0,0,1,.3-.25c1.15.12,2.52.4,4.33.76a19.47,19.47,0,0,1,4.5,1.22,2.15,2.15,0,0,1,.13.32c.46,1.39-.17,2,0,4.63a23.53,23.53,0,0,0,.51,3.09,42.28,42.28,0,0,1,.52,6.16c0,2.79-.85,6-2.57,12.34a19,19,0,0,0-1,5.14,18.7,18.7,0,0,0,1,6.17A11.29,11.29,0,0,0,442.71,82C442.8,82.92,442.94,83.69,443.05,84.55Z"/><path class="cls-4" d="M438.59,38.7a7.25,7.25,0,0,1,3.57,1.48,4.73,4.73,0,0,1,.42.77,19.47,19.47,0,0,0-4.5-1.22c-1.81-.36-3.18-.64-4.33-.76l.09-.08h0A10.4,10.4,0,0,1,435,38.7,11.31,11.31,0,0,1,438.59,38.7Z"/><path class="cls-1" d="M434.48,114.91l-3.53.14c.21-.45.46-.93.76-1.44l2.13-.08C434.05,114,434.26,114.42,434.48,114.91Z"/><path class="cls-1" d="M435.07,116.28l-4.69.19c.16-.45.35-.92.57-1.42l3.53-.14C434.67,115.35,434.87,115.8,435.07,116.28Z"/><path class="cls-4" d="M430.38,116.47c-.38,1-.65,2-1,3a23.56,23.56,0,0,1-3.6,6.17,25.29,25.29,0,0,1-3.95,4.07l-7.28-10.86a9.37,9.37,0,0,0,2.07-1.81Z"/><path class="cls-4" d="M432.94,103.48a25.36,25.36,0,0,1,5.14,1.54c1.73,1,2.84,2.21,4.63,2.06a2.16,2.16,0,0,0,1.54-.52c1.25-1.32-1.4-4.36-2.06-8.74a7.41,7.41,0,0,1,.3-3.64c.2.58.45,1.26.73,2.1,1.75,5.1,2.62,7.64,3.09,9.26.93,3.31.88,3.8,1.74,7.43l-14.21.56c-.32-.69-.64-1.3-.9-1.81a18.15,18.15,0,0,0-1,1.54c-.08.13-.14.24-.2.35l-14,.54a16.85,16.85,0,0,1,.85-4c1.12-3.39,2-3.78,3.08-7.19a14,14,0,0,0,.64-3c1.51.84,2.1,1.37,3.47,2C427.86,102.89,427.69,102.17,432.94,103.48Z"/><path class="cls-2" d="M430.37,39.22a7.39,7.39,0,0,1,3.16-.28l-1.1.28a11.75,11.75,0,0,0-3.09,1c-1.79,1.09-1.42,2.47-3.6,4.62-.31.31-.68.67-1.06,1a11.55,11.55,0,0,0-.57-1.2l.6-.81C426,42.18,427.63,40.12,430.37,39.22Z"/><path class="cls-2" d="M424.68,45.85c-.54.42-1.09.74-1.51.56a.26.26,0,0,1-.11-.07,14,14,0,0,1,1.05-1.69A11.55,11.55,0,0,1,424.68,45.85Z"/><path class="cls-2" d="M424.68,45.85c2,4.94,3.74,17.65.55,22.67-.36.56-1.23,1.93-2.57,2.06A3.53,3.53,0,0,1,420,69.24a37.1,37.1,0,0,0,1.65-14.09,14.86,14.86,0,0,1,.51-6.68,13.63,13.63,0,0,1,.92-2.13.26.26,0,0,0,.11.07C423.59,46.59,424.14,46.27,424.68,45.85Z"/><path class="cls-4" d="M424.11,44.65a14,14,0,0,0-1.05,1.69c-.36-.25-.48-.92-.5-1.9.27-.39.47-.58.61-.6C423.47,43.83,423.78,44.11,424.11,44.65Z"/><path class="cls-5" d="M448.88,22.77a9.61,9.61,0,0,1,.37,2.52c-.26-.56-.58-.93-.89-1-1.77-.28-6.49,10-3.6,12.85a3.91,3.91,0,0,0,3.52.86,1.3,1.3,0,0,0,.08.17c.56,1,1,1.28,1,2.06,0,1.29-1.14,2.29-2.06,3.08A8,8,0,0,1,445,44.89a5.8,5.8,0,0,0-.79-2.59A3.93,3.93,0,0,0,443,41.16c-.1-.14-.17-.26-.28-.4a3.8,3.8,0,0,0-.55-.58,6.14,6.14,0,0,0-2.54-2,6,6,0,0,0-5.76.7h0l-.31,0a7.39,7.39,0,0,0-3.16.28c-2.74.9-4.35,3-5.66,4.62l-.6.81c-.33-.54-.64-.82-.94-.81-.14,0-.34.21-.61.6,0-.72,0-1.61.1-2.65.17-3.38.7-3.77.51-6.17a5.26,5.26,0,0,1,0-2.06c.41-1.57,1.67-2.27,2.57-3.08,2.09-1.87,1.3-3.4,3.09-6.69A14.45,14.45,0,0,1,435,17.63a10.25,10.25,0,0,1,7.71-1A9.41,9.41,0,0,1,448.88,22.77Z"/><path class="cls-1" d="M442.91,161.18l13.32,19.9h-1.7l-33.84-50.51.43-.34c.21-.17.45-.36.67-.56Z"/><path class="cls-1" d="M420.69,130.57l33.84,50.51h-1.68l-33.23-49.61Z"/><path class="cls-4" d="M423.06,46.34a13.63,13.63,0,0,0-.92,2.13,14.86,14.86,0,0,0-.51,6.68A37.1,37.1,0,0,1,420,69.24a8.63,8.63,0,0,1-.92-1.23c-.94-1.55-.84-2.82-.51-7.71.37-5.8.54-8.74,1.54-11.31a19,19,0,0,1,1.54-3.09c.4-.64.7-1.14.93-1.46C422.58,45.42,422.7,46.09,423.06,46.34Z"/><path class="cls-2" d="M433.45,39.22c-.85.82-1.12,1.74-1.54,7.71-.25,3.57-.36,6.12-.51,8.74-.21,3.38-.27,3.08-.52,6.68-.74,11.08-.07,13.1.52,14.4.89,2,1.49,2,2.57,4.62,1.29,3.15,1.1,4.75,2.57,5.66a3.63,3.63,0,0,0,2,.5A3.22,3.22,0,0,0,439,90c-5.15-1.36-14.39,2.31-16.29,7.8a9.07,9.07,0,0,0-.39,2.14c-.56-.31-1.26-.67-2.18-1.11a16,16,0,0,0-2.57-1c-2.64-.57-3.77.57-6.17.52-1.86,0-4.86-.78-5.66-2.57-.92-2,1.37-4.47,5.14-9.77,3.56-5,5.33-7.49,6.69-10.28A45.18,45.18,0,0,0,420,69.24a3.53,3.53,0,0,0,2.68,1.34c1.34-.13,2.21-1.5,2.57-2.06,3.19-5,1.42-17.73-.55-22.67.38-.31.75-.67,1.06-1,2.18-2.15,1.81-3.53,3.6-4.62a11.75,11.75,0,0,1,3.09-1l1.1-.28.22,0A2.34,2.34,0,0,0,433.45,39.22Z"/><path class="cls-4" d="M417.7,114.15l14-.54c-.3.51-.55,1-.76,1.44l-13.57.53A5,5,0,0,0,417.7,114.15Z"/><path class="cls-4" d="M417.38,115.58l13.57-.53c-.22.5-.41,1-.57,1.42l-13.8.53a6.12,6.12,0,0,0,.42-.65A6.79,6.79,0,0,0,417.38,115.58Z"/><path class="cls-1" d="M413.39,117.13l3.19-.13a9.37,9.37,0,0,1-2.07,1.81Z"/><path class="cls-4" d="M420.69,130.57q-3.62-5.44-7.29-10.89c.42-.34.8-.62,1.11-.87l7.28,10.86c-.22.2-.46.39-.67.56Z"/><path class="cls-4" d="M412.33,120.6c.4-.36.76-.65,1.07-.92q3.68,5.44,7.29,10.89l-1.07.9Z"/><path class="cls-1" d="M410.83,115.83c2.18-.07,4.37-.17,6.55-.25a6.79,6.79,0,0,1-.38.77,6.12,6.12,0,0,1-.42.65l-3.19.13,1.12,1.68c-.31.25-.69.53-1.11.87Z"/><path class="cls-1" d="M413.4,119.68c-.31.27-.67.56-1.07.92l-4.07-6.08,9.44-.37a5,5,0,0,1-.32,1.43c-2.18.08-4.37.18-6.55.25Z"/><path class="cls-1" d="M398.56,165.12l6.87,16H403.9Q400.45,173,397,165A10.58,10.58,0,0,0,398.56,165.12Z"/><path class="cls-1" d="M397,165q3.47,8,6.92,16.07h-1.53l-7.08-16.45.12,0A8.45,8.45,0,0,0,397,165Z"/><path class="cls-2" d="M402.61,163.64c-.27.88-2,1.47-4.05,1.48l-6.42-14.87,1.73,1.06a22.25,22.25,0,0,0,3.68,1.74c0,.25-.05.53-.08.83-.27,3.11-.39,4.69.51,5.65s2.2.58,3.6,2.06C402,162,402.81,162.91,402.61,163.64Z"/><path class="cls-2" d="M392.14,150.25l6.42,14.87A10.58,10.58,0,0,1,397,165q-3.54-8.23-7.1-16.48A20.42,20.42,0,0,0,392.14,150.25Z"/><path class="cls-4" d="M389.85,144.9c2.9-.9,7.35,1.47,8.13,4.35.27,1-.14,1.2-.43,3.8a22.25,22.25,0,0,1-3.68-1.74l-1.73-1.06Z"/><path class="cls-4" d="M406.72,147.19a30.45,30.45,0,0,1-6.17,6.69,26,26,0,0,1-3-.83c.29-2.6.7-2.79.43-3.8-.78-2.88-5.23-5.25-8.13-4.35l-1-2.18c.75-.78,2-1.95,3.94-3.75,2.42-2.23,4.66-4.22,5.14-4.63,2.67-2.37,3.51-3.07,5.14-4.63.53-.51.59-.59,3.09-3.08,3.21-3.24,4.83-4.86,5.14-5.14l1-.89,7.29,10.87c-.78.67-1.67,1.45-2.62,2.36a46.35,46.35,0,0,0-6.68,7.19C408.29,143.84,408.57,144.44,406.72,147.19Z"/><path class="cls-4" d="M388.65,145.7c.42,1,.83,1.88,1.23,2.83a7.71,7.71,0,0,1-1.76-2.13C388.32,146.12,388.49,145.88,388.65,145.7Z"/><path class="cls-4" d="M389.88,148.53c-.4-.95-.81-1.88-1.23-2.83a2.17,2.17,0,0,1,.59-.56,2.5,2.5,0,0,1,.61-.24l2.29,5.35A20.42,20.42,0,0,1,389.88,148.53Z"/><path class="cls-4" d="M388.65,145.7c-.23-.59-.5-1.17-.75-1.76a6.38,6.38,0,0,1,1-1.22l1,2.18a2.5,2.5,0,0,0-.61.24A2.17,2.17,0,0,0,388.65,145.7Z"/><path class="cls-4" d="M388.12,146.4a3.37,3.37,0,0,1-.42-1.78,1.5,1.5,0,0,1,.2-.68c.25.59.52,1.17.75,1.76C388.49,145.88,388.32,146.12,388.12,146.4Z"/><path class="cls-2" d="M387.7,147a6,6,0,0,1,.42-.59,7.71,7.71,0,0,0,1.76,2.13q3.56,8.25,7.1,16.48a8.45,8.45,0,0,1-1.57-.34l-.12,0Z"/><path class="cls-2" d="M386.14,149.25c.62-.9,1.14-1.67,1.56-2.26l7.59,17.64a10.75,10.75,0,0,1-6.05-5.1c-1.23-2.34-.75-3.88-2.58-5.65-.64-.64-1.41-1.11-1.55-2.06a2.35,2.35,0,0,1,0-.27A4.41,4.41,0,0,1,386.14,149.25Z"/><path class="cls-1" d="M386.14,149.25a4.41,4.41,0,0,0-1,2.3l-2.29.11a1.31,1.31,0,0,0-.27-.87,1.83,1.83,0,0,0-1.54-.51c-.84.06-1.09.56-2.06,1a5.22,5.22,0,0,1-2.57.51c-.34,0-1-.17-3.08-2.06-.81-.74-1.23-1.21-1.75-1.74,2.86-1.23,3.53-1.39,3.81-2.37.4-1.35-.63-1.87-4.63-8.74-1.2-2.06-2.56-4-3.6-6.17,0,0-1.84-3.77-3.6-5.14a7.94,7.94,0,0,0-1.54-1c-.51-.22-.81-.23-1-.51-.37-.5-.08-1.31,0-1.54.33-1,.05-2.39-.51-5.14a13.43,13.43,0,0,0-.35-1.39l14.34.2L387.7,147C387.28,147.58,386.76,148.35,386.14,149.25Z"/><path class="cls-6" d="M365.06,159c-2.13,0-2.44-.33-2.57-.52-.23-.36,0-.64,0-1.54a9.29,9.29,0,0,0-.51-3.08c-.14-.5-.27-.92-.36-1.39a33.65,33.65,0,0,0,5-2.21c2.13-1.05,3.73-1.76,4.93-2.26.52.53.94,1,1.75,1.74,2.06,1.89,2.74,2,3.08,2.06a5.22,5.22,0,0,0,2.57-.51c1-.47,1.22-1,2.06-1a1.83,1.83,0,0,1,1.54.51,1.31,1.31,0,0,1,.27.87,3.3,3.3,0,0,1-.27,1.19c-.84,2.13-3.7,2.85-4.62,3.08a14.85,14.85,0,0,1-6.17,0c-1-.23-2.39-.67-3.09,0a2.49,2.49,0,0,0-.51,1c-.19.83.2,1.14,0,1.54C367.88,159.05,366.9,159.05,365.06,159Z"/><path class="cls-1" d="M354.27,136.91c1,2.81,2.51,6.73,3.08,8.23,1.78,4.58,1.9,4.59,2.06,5.65.12.75.14,1.22.51,1.54a1.82,1.82,0,0,0,1.7.16c.09.47.22.89.36,1.39a9.29,9.29,0,0,1,.51,3.08c0,.9-.23,1.18,0,1.54.13.19.44.49,2.57.52,1.84,0,2.82,0,3.09-.52.2-.4-.19-.71,0-1.54a2.49,2.49,0,0,1,.51-1c.7-.67,2.09-.23,3.09,0a14.85,14.85,0,0,0,6.17,0c.92-.23,3.78-1,4.62-3.08a3.3,3.3,0,0,0,.27-1.19l2.29-.11a2.35,2.35,0,0,0,0,.27c.14,1,.91,1.42,1.55,2.06,1.83,1.77,1.35,3.31,2.58,5.65a10.75,10.75,0,0,0,6.05,5.1l7.08,16.45H344.81l-5.47-65.37,6.34.09c.28.52.58,1,.88,1.58,3.08,5.57,3.31,6,3.59,6.68C352.29,128.76,351.62,129.43,354.27,136.91Z"/><path class="cls-7" d="M366.61,150.28a33.65,33.65,0,0,1-5,2.21,5.57,5.57,0,0,1-.15-1.18v-.52c.07-1.85,3.3-6.78,6.16-6.17.52.11,1.2.75,2.57,2.06.6.56,1,1,1.34,1.34C370.34,148.52,368.74,149.23,366.61,150.28Z"/><path class="cls-7" d="M359.92,152.33c-.37-.32-.39-.79-.51-1.54-.16-1.06-.28-1.07-2.06-5.65-.57-1.5-2.09-5.42-3.08-8.23-2.65-7.48-2-8.15-4.12-12.85-.28-.64-.51-1.11-3.59-6.68-.3-.53-.6-1.06-.88-1.58l14.41.19a13.43,13.43,0,0,1,.35,1.39c.56,2.75.84,4.14.51,5.14-.08.23-.37,1,0,1.54.22.28.52.29,1,.51a7.94,7.94,0,0,1,1.54,1c1.76,1.37,3.6,5.14,3.6,5.14,1,2.14,2.4,4.11,3.6,6.17,4,6.87,5,7.39,4.63,8.74-.28,1-1,1.14-3.81,2.37-.34-.38-.74-.78-1.34-1.34-1.37-1.31-2.05-2-2.57-2.06-2.86-.61-6.09,4.32-6.16,6.17v.52a5.57,5.57,0,0,0,.15,1.18A1.82,1.82,0,0,1,359.92,152.33Z"/><path class="cls-1" d="M387.7,147l-13.27-30.8-14.34-.2a10.92,10.92,0,0,0-.46-1.4l15.72.21q6.28,14.57,12.55,29.14a1.5,1.5,0,0,0-.2.68,3.37,3.37,0,0,0,.42,1.78A6,6,0,0,0,387.7,147Z"/><path class="cls-1" d="M359,113.17l17.25.23.36.84,12.26,28.48a6.38,6.38,0,0,0-1,1.22q-6.25-14.56-12.55-29.14l-15.72-.21A14.72,14.72,0,0,0,359,113.17Z"/><path class="cls-7" d="M353.24,90.63A25.18,25.18,0,0,0,352.8,95a23.06,23.06,0,0,1-3.25-3.13c.06-.28.12-.59.18-.92Z"/><path class="cls-7" d="M353.24,90.63l-3.51.32c.28-1.44.61-3.22.94-5.46.28-1.92.51-3.62.7-5.29a21,21,0,0,0,1.87,2.72c4.52,5.59,5.14,6.16,5.14,6.16,1.65,1.55,3,2.5,3.09,4.12,0,1.07-.49,1.91-1.55,3.6-.89,1.41-1.59,2.55-2.57,2.57s-1.77-1.13-2.05-1.55A13.07,13.07,0,0,0,352.8,95,25.18,25.18,0,0,1,353.24,90.63Z"/><path class="cls-8" d="M352.73,26.88a6,6,0,0,1,1.69,1.06c-1.26,0-2.08-1.08-3-1.68C351.9,26.46,352.34,26.68,352.73,26.88Z"/><path class="cls-9" d="M347.52,29.34c.52-1.68,1.42-3.35,2.63-3.49a1.82,1.82,0,0,1,.33,0c.3.11.61.23.92.38,0,0,0,0,.05,0,.89.6,1.71,1.66,3,1.68a1.73,1.73,0,0,1,.36.48c.52.94,0,1.43.52,3.6a5.32,5.32,0,0,0,.51,1.54c.51.86,1.07,1,1,1.54a1.37,1.37,0,0,1-1,1c-.53.14-.76-.17-1,0s-.12,1.26,0,3.09a5.82,5.82,0,0,1,0,2.05c-.17-.45-1.35.13-3.08-.51a4.61,4.61,0,0,1-2.57-2.06c-.36-.74-.05-1-.52-2.05a7.83,7.83,0,0,0-1-1.55,5.34,5.34,0,0,1-.51-3.59,11.6,11.6,0,0,1,.31-1.7Z"/><path class="cls-7" d="M359,113.17l-14.9-.2c-.21-.35-.39-.67-.56-1a4.35,4.35,0,0,0,.93-.76,10.25,10.25,0,0,0,1.54-3.1,23,23,0,0,0,1.54-6.69c.36-4,1-5,2-9.55A23.06,23.06,0,0,0,352.8,95a18.79,18.79,0,0,0,.44,4.37,9.66,9.66,0,0,1,.51,3.08,6.73,6.73,0,0,0,0,2.06,5.18,5.18,0,0,0,1.45,2,16.61,16.61,0,0,1,2,3.18C357.88,110.91,358.51,112,359,113.17Z"/><path class="cls-8" d="M349.77,43c0-.12,0-.23-.07-.36a3.52,3.52,0,0,0,.45.18c1.78.53,4.07-.21,4.63-1.55.2.5-1.06,1.76-2.57,2.06A3.92,3.92,0,0,1,349.77,43Z"/><path class="cls-7" d="M349.55,91.87c-.22-.25-.45-.53-.72-.82l.9-.1C349.67,91.28,349.61,91.59,349.55,91.87Z"/><path class="cls-8" d="M350.15,25.85c-1.21.14-2.11,1.81-2.63,3.49.44-1.68-.26-2.87.58-3.49a2.63,2.63,0,0,1,2.38,0A1.82,1.82,0,0,0,350.15,25.85Z"/><path class="cls-6" d="M348.1,56.7a28.49,28.49,0,0,0-1-7.2c-.14-.53-.3-1-.44-1.42a20.67,20.67,0,0,1,2,4A6.59,6.59,0,0,0,349.84,50a13.21,13.21,0,0,1,.83,1.61,20.64,20.64,0,0,1,1.54,6.68,61.79,61.79,0,0,1,0,12.34c-.29,3.85-.51,6.7-.84,9.62a29.7,29.7,0,0,1-3.79-11.68C347.27,64.69,348.21,64.41,348.1,56.7Z"/><path class="cls-8" d="M348.61,42.3a6.18,6.18,0,0,1-2.05-3.08,8.61,8.61,0,0,1-.38-1.47c.72.36.61,1.7,1.4,3a5,5,0,0,0,2.12,1.88c0,.13.05.24.07.36A5.78,5.78,0,0,1,348.61,42.3Z"/><path class="cls-8" d="M347.58,40.76c-.79-1.31-.68-2.65-1.4-3a7.75,7.75,0,0,1-.14-1.09,9.55,9.55,0,0,1,3.6,5.64,2.73,2.73,0,0,1,.06.34A5,5,0,0,1,347.58,40.76Z"/><path class="cls-7" d="M344.9,114.38l14.73.21a10.92,10.92,0,0,1,.46,1.4l-14.41-.19Z"/><path class="cls-10" d="M345,44.87c-.23-.32-.51-.71-.82-1.09.56.44,1,.83,1.34,1.09A19.73,19.73,0,0,1,349.84,50a6.59,6.59,0,0,1-1.23,2.12,20.67,20.67,0,0,0-2-4A11.62,11.62,0,0,0,345,44.87Z"/><path class="cls-7" d="M344.13,113l14.9.2a14.72,14.72,0,0,1,.6,1.42l-14.73-.21C344.62,113.9,344.38,113.42,344.13,113Z"/><path class="cls-1" d="M344.13,113c.25.45.49.93.77,1.41l-6.93-.09c.27-.45.53-.92.8-1.4Z"/><path class="cls-9" d="M343.47,36.65a2,2,0,0,1,.24-.45,1.28,1.28,0,0,1,.28-.07,3.09,3.09,0,0,1,2.05.52h0a7.75,7.75,0,0,0,.14,1.09.27.27,0,0,0-.14-.07c-.36-.11-.45.09-1,0A2.32,2.32,0,0,1,343.47,36.65Z"/><path class="cls-9" d="M346,35.1a8,8,0,0,0,0,1.55,3.09,3.09,0,0,0-2.05-.52,1.28,1.28,0,0,0-.28.07c.76-1.38,2-2.34,2.33-2.12C346.21,34.19,346.1,34.53,346,35.1Z"/><path class="cls-8" d="M346,36.65a8,8,0,0,1,0-1.55c.06-.57.17-.91,0-1-.34-.22-1.57.74-2.33,2.12a2.22,2.22,0,0,0-.39.12,2.53,2.53,0,0,1,.15-1.73c.31-.72.78-.89,1.54-1.54a10,10,0,0,0,2.06-2.57c.12-.24.22-.45.31-.67a11.6,11.6,0,0,0-.31,1.7,5.34,5.34,0,0,0,.51,3.59,7.83,7.83,0,0,1,1,1.55c.47,1,.16,1.31.52,2.05a4.61,4.61,0,0,0,2.57,2.06c1.73.64,2.91.06,3.08.51-.56,1.34-2.85,2.08-4.63,1.55a3.52,3.52,0,0,1-.45-.18,2.73,2.73,0,0,0-.06-.34,9.55,9.55,0,0,0-3.6-5.64Z"/><path class="cls-9" d="M343,38.7c.36-1,.09-1.1.51-2.05a2.32,2.32,0,0,0,1.54,1c.58.09.67-.11,1,0a.27.27,0,0,1,.14.07,8.61,8.61,0,0,0,.38,1.47,6.18,6.18,0,0,0,2.05,3.08,5.78,5.78,0,0,0,1.16.7,8.52,8.52,0,0,1-.08,2.64,7.9,7.9,0,0,0-2.11-2.82,9.26,9.26,0,0,0-5.9-2.11A5.82,5.82,0,0,0,343,38.7Z"/><path class="cls-8" d="M343.71,36.2a2,2,0,0,0-.24.45,2.41,2.41,0,0,1-.15-.33A2.22,2.22,0,0,1,343.71,36.2Z"/><path class="cls-8" d="M340.9,40.25c-.5-1,.76-3.24,2.42-3.93a2.41,2.41,0,0,0,.15.33c-.42,1-.15,1.06-.51,2.05a5.82,5.82,0,0,1-1.28,2l-.2,0A1,1,0,0,1,340.9,40.25Z"/><path class="cls-10" d="M347.58,42.82a7.9,7.9,0,0,1,2.11,2.82c0,.09,0,.18-.05.26-2-3-4.05-4.16-5.65-4.63-1-.28-1.78-.31-2.36-.48,0,0,.05,0,.05-.08A9.26,9.26,0,0,1,347.58,42.82Z"/><path class="cls-8" d="M341.62,40.79l-.14-.06.2,0s0,0-.05.08Z"/><path class="cls-10" d="M344.19,43.78a13.42,13.42,0,0,0-3.34-2h0A4.48,4.48,0,0,1,344.19,43.78Z"/><path class="cls-10" d="M344.19,43.78a4.48,4.48,0,0,0-3.29-2h-.09a.76.76,0,0,0-.2-.06,11.24,11.24,0,0,0,1-.94h0c.58.17,1.39.2,2.36.48,1.6.47,3.66,1.62,5.65,4.63,0-.08,0-.17.05-.26a5.83,5.83,0,0,1,.46,2.83,5.38,5.38,0,0,1-.31,1.48,19.73,19.73,0,0,0-4.31-5.08C345.22,44.61,344.75,44.22,344.19,43.78Z"/><path class="cls-10" d="M340.81,41.79a1.48,1.48,0,0,0-.31,0,.53.53,0,0,1,.11-.09A.76.76,0,0,1,340.81,41.79Z"/><path class="cls-10" d="M343.47,44.36c-1.34-1.2-2.52-1.9-3.15-2.4a.86.86,0,0,1,.18-.14,1.48,1.48,0,0,1,.31,0h0a13.42,13.42,0,0,1,3.34,2c.31.38.59.77.82,1.09a11.62,11.62,0,0,1,1.62,3.21A18.85,18.85,0,0,0,343.47,44.36Z"/><path class="cls-7" d="M347.07,49.5a28.49,28.49,0,0,1,1,7.2c.11,7.71-.83,8-.52,11.82a29.7,29.7,0,0,0,3.79,11.68c-.19,1.67-.42,3.37-.7,5.29-.33,2.24-.66,4-.94,5.46l-.9.1c-.64-.8-1.39-1.78-2.27-3a71.37,71.37,0,0,1-6.69-10.8c-1.77-3.57-2.65-5.36-3.08-7.71-.22-1.17-.75-4.72-1-8.74a7.85,7.85,0,0,0-1-4.11c-.87-1.34-1.7-1.42-2.05-2.57a3.39,3.39,0,0,1,.18-2.22,0,0,0,0,0,0,0c.48-.86.82-1.34.82-1.34,1.59-2.2,2.57-2.21,3.6-4.12a7.25,7.25,0,0,0,.86-2.89,15.61,15.61,0,0,0,1.71-1.22c.16-.11.3-.23.45-.34.63.5,1.81,1.2,3.15,2.4a18.85,18.85,0,0,1,3.16,3.72C346.77,48.5,346.93,49,347.07,49.5Z"/><path class="cls-8" d="M340.5,41.82a.86.86,0,0,0-.18.14l-.09-.09A.57.57,0,0,1,340.5,41.82Z"/><path class="cls-8" d="M339.87,41.27c.1-.29.72-.51,1.61-.54l.14.06a11.24,11.24,0,0,1-1,.94,2.37,2.37,0,0,0-.66-.14A.37.37,0,0,1,339.87,41.27Z"/><path class="cls-8" d="M340,41.59a2.37,2.37,0,0,1,.66.14.53.53,0,0,0-.11.09.57.57,0,0,0-.27,0A2.43,2.43,0,0,1,340,41.59Z"/><path class="cls-6" d="M341.42,108.11c.59,1.06,1.3,2.35,2.15,3.86a9.2,9.2,0,0,1-4.77.86C339.65,111.33,340.53,109.76,341.42,108.11Z"/><path class="cls-1" d="M344.9,114.38l.78,1.42-6.34-.09,5.47,65.37h-1.4q-2.78-33.29-5.58-66.56l.14-.23Z"/><path class="cls-6" d="M349.55,91.87c-.95,4.51-1.61,5.6-2,9.55a23,23,0,0,1-1.54,6.69,10.25,10.25,0,0,1-1.54,3.1,4.35,4.35,0,0,1-.93.76c-.85-1.51-1.56-2.8-2.15-3.86-.89,1.65-1.77,3.22-2.62,4.72-2,0-4.5-.27-7.67-.6a28.8,28.8,0,0,1-5.82-1c.06-.38.11-.72.17-1,.79-4.34,3.35-10.51,11.31-18l12-1.12C349.1,91.34,349.33,91.62,349.55,91.87Z"/><path class="cls-8" d="M340.32,42c-.15.11-.29.23-.45.34a15.61,15.61,0,0,1-1.71,1.22c0-.24,0-.44.08-.63l.09-.07a4.34,4.34,0,0,1,1.9-1Z"/><path class="cls-8" d="M340,41.59a2.43,2.43,0,0,0,.28.28,4.34,4.34,0,0,0-1.9,1l-.09.07a1.41,1.41,0,0,1,.6-1.1A1.72,1.72,0,0,1,340,41.59Z"/><path class="cls-8" d="M338.24,42.89c0,.19-.05.39-.08.63a2.85,2.85,0,0,1-.78.37A3.67,3.67,0,0,1,338.24,42.89Z"/><path class="cls-7" d="M338,114.29l-.14.23c0-.07,0-.15,0-.23Z"/><path class="cls-1" d="M337.83,114.52q2.81,33.29,5.58,66.56H342l-5.39-64.44C337,116,337.41,115.26,337.83,114.52Z"/><path class="cls-8" d="M343.47,34.59a2.53,2.53,0,0,0-.15,1.73c-1.66.69-2.92,2.9-2.42,3.93a1,1,0,0,0,.58.48c-.89,0-1.51.25-1.61.54a.37.37,0,0,0,.08.32,1.72,1.72,0,0,0-1.11.2,1.41,1.41,0,0,0-.6,1.1,3.67,3.67,0,0,0-.86,1,.69.69,0,0,1-.59,0c-.42-.28-.28-1.23,0-3.08a19.77,19.77,0,0,1,.51-2.57c.81-3-.32-4.71,0-7.2.5-3.77,3.93-6.18,4.63-6.68,2.6-1.87,6.92-3.29,10.28-1.54,2.18,1.12,4.13,3.63,3.6,4.62-.2.39-.76.47-1,.52l-.36,0a6,6,0,0,0-1.69-1.06c-.39-.2-.83-.42-1.28-.62,0,0,0,0-.05,0a1.93,1.93,0,0,0-.92-.38,2.63,2.63,0,0,0-2.38,0c-.84.62-.14,1.81-.58,3.49l-.14.47c-.09.22-.19.43-.31.67A10,10,0,0,1,345,33.05C344.25,33.7,343.78,33.87,343.47,34.59Z"/><path class="cls-7" d="M336.29,112.86l2.48,0c-.27.48-.53,1-.8,1.4h-.15c0,.08,0,.16,0,.23-.42.74-.82,1.44-1.23,2.12Z"/><path class="cls-7" d="M338.16,43.52a7.25,7.25,0,0,1-.86,2.89c-1,1.91-2,1.92-3.6,4.12,0,0-.34.48-.82,1.34A20.29,20.29,0,0,1,333.7,50c.89-1.85,1.16-1.6,2.57-4.11.52-.92.81-1.53,1.11-2A2.85,2.85,0,0,0,338.16,43.52Z"/><path class="cls-6" d="M339.87,77.26a71.37,71.37,0,0,0,6.69,10.8c.88,1.21,1.63,2.19,2.27,3l-12,1.12c-8,7.48-10.52,13.65-11.31,18-.06.33-.11.67-.17,1a4.66,4.66,0,0,1-2.4-1.56,13.2,13.2,0,0,0-2.06-2.57c-1.07-1-1.71-1.14-2.05-2.06s0-1.56-.52-2-1.37-.16-1.54-.52,1-1.57,1.54-2.06a28.1,28.1,0,0,0,4.11-4.62c6.2-9.79,7.36-17.39,7.2-22.62,0,0-.36-11.92,2.06-18.51a20.64,20.64,0,0,1,1.21-2.73,3.39,3.39,0,0,0-.18,2.22c.35,1.15,1.18,1.23,2.05,2.57a7.85,7.85,0,0,1,1,4.11c.28,4,.81,7.57,1,8.74C337.22,71.9,338.1,73.69,339.87,77.26Z"/><path class="cls-6" d="M319.31,160.56c-.13.17-.58.7-3.09.51a13.89,13.89,0,0,1-4.62-1c-1.82-.75-1.28-1-3.6-2.06-.89-.42-1.68-.73-2.06-1.54-.22-.47-.2-.89-.51-1s-.66.31-1.54.51a4,4,0,0,1-1.55,0,5.74,5.74,0,0,1-1.54-.51,7.51,7.51,0,0,1-1.54-1c-.31-.26-.47-.4-.51-.51a.82.82,0,0,1-.05-.56,8,8,0,0,1,1.59-2.53c.48-.62,1.09-1.4,1.82-2.27a28.77,28.77,0,0,0,11.82,7,6.28,6.28,0,0,0,1.27,2,3.89,3.89,0,0,0,2.57,1.55c.68,0,1.2-.3,1.54,0A1.3,1.3,0,0,1,319.31,160.56Z"/><path class="cls-7" d="M313.14,150.79a12.18,12.18,0,0,0,.79,4.71,28.77,28.77,0,0,1-11.82-7,3.4,3.4,0,0,1,.23-.3Z"/><path class="cls-7" d="M331.13,112.23c3.17.33,5.67.58,7.67.6a.33.33,0,0,1,0,.06l-2.48,0,.31,3.78c-2.1,3.6-4,6.61-5.47,9-4.86,7.63-8.19,16.22-13.36,23.65-.64.92-2.56,3.49-2.06,5.65a.77.77,0,0,1,0,.52c-.19.29-.84.29-1.78.08a12.18,12.18,0,0,1-.79-4.71l-10.8-2.57a3.4,3.4,0,0,0-.23.3c-.09-.11-.19-.21-.28-.3.58-.95,1.46-2.38,2.57-4.11a189.58,189.58,0,0,1,11.82-17c4.37-5.48,6.66-7.47,8.23-12.34a24.47,24.47,0,0,0,.86-3.59A28.8,28.8,0,0,0,331.13,112.23Z"/><path class="cls-1" d="M295.66,149.76c-.15-.28-.45-.25-.51-.51s.51-.59.51-1a1.13,1.13,0,0,0-.67-.81l6.17-31.73H273.88a9.82,9.82,0,0,0-.5-1.39h29.48q-3.48,17.85-6.95,35.72l-.2,0A.38.38,0,0,0,295.66,149.76Z"/><path class="cls-9" d="M293.88,153.05l1.11-5.64a1.13,1.13,0,0,1,.67.81c0,.44-.61.66-.51,1s.36.23.51.51a.38.38,0,0,1,0,.21,3.57,3.57,0,0,1-.56,1.34,7.56,7.56,0,0,1-1,1.54A1.41,1.41,0,0,1,293.88,153.05Z"/><path class="cls-1" d="M291.3,181.08h-1.43q3-15.54,6-31.07,3.48-17.87,6.95-35.72H273.38a8.2,8.2,0,0,0-.79-1.4h32l-7.79,40.05Z"/><path class="cls-1" d="M295.15,151.31a3.57,3.57,0,0,0,.56-1.34l.2,0q-3,15.54-6,31.07h-1.44l5.45-28a1.41,1.41,0,0,0,.24-.2A7.56,7.56,0,0,0,295.15,151.31Z"/><path class="cls-1" d="M292.58,153.88a6.68,6.68,0,0,0,1.3-.83l-5.45,28H232.35l29.26-57.44c2.77,5.93,3,6.82,4.73,9.16,4.64,6.2,7.28,5.5,8.74,10.28.81,2.59.91,5.62,3.09,6.68a3.07,3.07,0,0,0,1,.31,14.76,14.76,0,0,0,.52,2.26c.47,1.59,1,3.34,2.07,3.6.58.14.73-.28,2.06-.51a9.66,9.66,0,0,1,2.57,0,16.54,16.54,0,0,0,3.6,0C290.71,155.18,290.4,155.08,292.58,153.88Z"/><path class="cls-9" d="M285.38,86c.05.34.51,3.29-1,4.11a1.79,1.79,0,0,1-.9.22c0-1.59-.72-4.14-1.65-8.85a6.55,6.55,0,0,1,1.52.92A5.75,5.75,0,0,1,285.38,86Z"/><path class="cls-11" d="M281.8,81.48c.93,4.71,1.65,7.26,1.65,8.85a4.42,4.42,0,0,1-2.7-1.25c-2.38-2.19-2.12-6.91-.53-7.71A1.92,1.92,0,0,1,281.8,81.48Z"/><path class="cls-9" d="M295,147.41l-1.11,5.64a6.68,6.68,0,0,1-1.3.83c-2.18,1.2-1.87,1.3-2.57,1.54a16.54,16.54,0,0,1-3.6,0,9.66,9.66,0,0,0-2.57,0c-1.33.23-1.48.65-2.06.51-1.12-.26-1.6-2-2.07-3.6a14.76,14.76,0,0,1-.52-2.26,5.58,5.58,0,0,0,2.59-.31c1.85-.67,2.34-2,3.37-3.44a6.78,6.78,0,0,0,2.29,1.39,8.38,8.38,0,0,0,3.08.51,4.92,4.92,0,0,0,2.57-.51c.42-.25.59-.49,1-.52A1.51,1.51,0,0,1,295,147.41Z"/><path class="cls-11" d="M282.81,144.62c1,0,1.4.81,2.34,1.7-1,1.42-1.52,2.77-3.37,3.44a5.58,5.58,0,0,1-2.59.31,3.75,3.75,0,0,1,0-.82C279.43,147.12,281.09,144.65,282.81,144.62Z"/><path class="cls-11" d="M286.92,135.88c3.3,3.52,5.08,4.88,4.63,6.17-.41,1.09-1.86.61-4.11,2.06a7.6,7.6,0,0,0-2.29,2.21c-.94-.89-1.34-1.71-2.34-1.7-1.72,0-3.38,2.5-3.62,4.63a3.75,3.75,0,0,0,0,.82,3.07,3.07,0,0,1-1-.31c-2.18-1.06-2.28-4.09-3.09-6.68-1.46-4.78-4.1-4.08-8.74-10.28-1.74-2.34-2-3.23-4.73-9.16l4.05-8h8.22a6.56,6.56,0,0,1,.17.67c.52,2.37-.07,3.42,1,5.65a11.42,11.42,0,0,0,3.09,3.6C282.25,129.22,281,129.62,286.92,135.88Z"/><path class="cls-1" d="M291.55,142.05c.45-1.29-1.33-2.65-4.63-6.17-5.89-6.26-4.67-6.66-8.75-10.28a11.42,11.42,0,0,1-3.09-3.6c-1.1-2.23-.51-3.28-1-5.65a6.56,6.56,0,0,0-.17-.67h27.28L295,147.41a1.51,1.51,0,0,0-.87-.22c-.44,0-.61.27-1,.52a4.92,4.92,0,0,1-2.57.51,8.38,8.38,0,0,1-3.08-.51,6.78,6.78,0,0,1-2.29-1.39,7.6,7.6,0,0,1,2.29-2.21C289.69,142.66,291.14,143.14,291.55,142.05Z"/><path class="cls-11" d="M267.29,91.86c0,.15,0,.31.06.47a1.29,1.29,0,0,0-.23,0A4.2,4.2,0,0,0,267.29,91.86Z"/><path class="cls-11" d="M266.86,45.39c-.22-1.73.11-2.73-.05-3.62a.42.42,0,0,0,.06-.18,4.4,4.4,0,0,1,1,.71c1.39,1.28,1.39,3.21,1.55,5.14,0,0,.06.67,1.54,7.71,1.43,6.77,5.81,6.42,8.74,13.89,1.26,3.19.09,2.29,2.07,12.33,0,0,0,.08,0,.11a1.92,1.92,0,0,0-1.58-.11c-1.59.8-1.85,5.52.53,7.71a4.42,4.42,0,0,0,2.7,1.25,2.39,2.39,0,0,1-.64,1.84c-1.34,1.34-3.27.12-10.81,0a34.22,34.22,0,0,0-4.65.16c0-.16,0-.32-.06-.47.66-2.23.63-5,1.62-11,1.08-6.29,1.76-7,1.54-10.28a7.42,7.42,0,0,0-.14-1.23l.14.2a49.24,49.24,0,0,0-.48-7.77c0-1.11,0-2.5,0-4.06a28.71,28.71,0,0,0-.51-6.16C268.54,48.16,267.25,48.28,266.86,45.39Z"/><path class="cls-11" d="M266.75,41.52a.52.52,0,0,1,.12.07.42.42,0,0,1-.06.18A2.27,2.27,0,0,0,266.75,41.52Z"/><path class="cls-11" d="M264.8,114.29h8.58a9.82,9.82,0,0,1,.5,1.39h-8.22l-4.05,8c-.24-.5-.49-1-.75-1.61C262.17,119.45,263.49,116.88,264.8,114.29Z"/><path class="cls-12" d="M266.34,42.3c-.39.17-.9-.06-1.63-.67a1.51,1.51,0,0,1,.6-.36,2.24,2.24,0,0,1,1.44.25,2.27,2.27,0,0,1,.06.25A1,1,0,0,1,266.34,42.3Z"/><path class="cls-11" d="M265.83,92.17A3.89,3.89,0,0,1,263.88,90l3-1c.17,1,.31,1.89.43,2.78a4.2,4.2,0,0,1-.17.5A2.16,2.16,0,0,1,265.83,92.17Z"/><path class="cls-12" d="M263.71,44.09a4.81,4.81,0,0,1,1-2.46c.73.61,1.24.84,1.63.67a1,1,0,0,0,.47-.53c.16.89-.17,1.89.05,3.62.39,2.89,1.68,2.77,2.57,6.17a28.71,28.71,0,0,1,.51,6.16c.06,1.56.06,3,0,4.06-.17-1.14-.36-2.14-.54-3A47.74,47.74,0,0,0,263.71,44.09Z"/><path class="cls-13" d="M263.71,44.09a47.74,47.74,0,0,1,5.72,14.66c.18.89.37,1.89.54,3,0,.4,0,.76,0,1.09-.47-1.41-1.21-3.76-2.06-6.69-1.79-6.29-1.69-7.37-3.08-9.77-.39-.66-.78-1.3-1.17-1.88C263.65,44.37,263.68,44.23,263.71,44.09Z"/><path class="cls-11" d="M266.34,58.24c1.31,4.19,1.14,6.46,3.09,9.77a14.26,14.26,0,0,0,.88,1.34,7.42,7.42,0,0,1,.14,1.23c.22,3.3-.46,4-1.54,10.28-1,6-1,8.77-1.62,11-.12-.89-.26-1.83-.43-2.78l-3,1c-1.74-4-.58-13.11-.62-29.73,0-3.2-.06-6.28,0-9,.35.56.71,1.15,1.06,1.81A28.15,28.15,0,0,1,266.34,58.24Z"/><path class="cls-13" d="M263.63,44.53c.39.58.78,1.22,1.17,1.88,1.39,2.4,1.29,3.48,3.08,9.77.85,2.93,1.59,5.28,2.06,6.69,0-.33,0-.69,0-1.09a49.24,49.24,0,0,1,.48,7.77l-.14-.2a70.15,70.15,0,0,0-1.91-7,106.9,106.9,0,0,0-5.1-14.22A28.47,28.47,0,0,1,263.63,44.53Z"/><path class="cls-13" d="M263.3,48.13a106.9,106.9,0,0,1,5.1,14.22,70.15,70.15,0,0,1,1.91,7,14.26,14.26,0,0,1-.88-1.34c-1.95-3.31-1.78-5.58-3.09-9.77a28.15,28.15,0,0,0-2-5.14c-.35-.66-.71-1.25-1.06-1.81C263.23,50.17,263.26,49.11,263.3,48.13Z"/><path class="cls-9" d="M262.74,28.94c.81.77.46,1.74,1,2a1.25,1.25,0,0,0,1.54-.51c.42-.92-1.45-2.12-1-3.09.24-.57,1-.31,1.54-1s.08-1.45.51-2.58a3.31,3.31,0,0,1,2.57-2.05c1.16,0,1.92,1,2.37,1,.09.33.14.67.2,1,.25,1.34,0,1.95.52,2.58.37.4.79.45,1,1,.14.33.23.83,0,1s-.71-.2-1,0-.28,1.36,0,2.06l.51,1a2.36,2.36,0,0,0-.51,1,3.54,3.54,0,0,0,0,1,2.48,2.48,0,0,1-1,2.06c-.3.15-.75.23-2.57-.52a25.67,25.67,0,0,1-3.09-1.54,11.21,11.21,0,0,1,1.55,4.12,10.3,10.3,0,0,1,0,3.91.52.52,0,0,0-.12-.07,2.48,2.48,0,0,0-.41-.76c-.7-.9-1.35-.65-3.08-2.06-.8-.65-.72-.74-2.06-2.05a19.48,19.48,0,0,0-2.6-2.32,1.54,1.54,0,0,1,0-.36,3.14,3.14,0,0,0,.57-.92c.53-1.31-.15-1.86.52-3.09.06-.09.9-1.63,2.06-1.54A1.61,1.61,0,0,1,262.74,28.94Z"/><path class="cls-13" d="M263.23,51.29a26.09,26.09,0,0,0-3.26-4c.22-.5.45-1.11.72-1.85a15.18,15.18,0,0,0,.48-1.58c.45.83,1,1.86,1.57,3.12.19.39.38.79.56,1.2C263.26,49.11,263.23,50.17,263.23,51.29Z"/><path class="cls-11" d="M263.94,112.89h8.65a8.2,8.2,0,0,1,.79,1.4H264.8c-1.31,2.59-2.63,5.16-3.94,7.74-.24-.5-.5-1-.77-1.6Z"/><path class="cls-11" d="M260,47.24a26.09,26.09,0,0,1,3.26,4c0,2.73,0,5.81,0,9,0,16.62-1.12,25.7.62,29.73l-6,1.91c-.25-1.33-.53-3-.79-4.91a89.78,89.78,0,0,1-1-19.54c.41-5.85,1.15-6.7,2.06-13.88.29-2.33.34-3.28,1-4.62C259.41,48.47,259.67,47.94,260,47.24Z"/><path class="cls-11" d="M261.2,98.85a14.14,14.14,0,0,1-2.62,1.22c0-2.21.36-2.4.05-3.79a10.07,10.07,0,0,0-1.2-3l.69-.06q-.12-.57-.24-1.26l6-1.91a3.89,3.89,0,0,0,1.95,2.14,2.16,2.16,0,0,0,1.29.19,8.74,8.74,0,0,1-1.29,2.38A15.59,15.59,0,0,1,261.2,98.85Z"/><path class="cls-12" d="M261.72,38.7c-1.91-2-2.87-3-3.09-4.11,0-.09,0-.19,0-.26a19.48,19.48,0,0,1,2.6,2.32c1.34,1.31,1.26,1.4,2.06,2.05,1.73,1.41,2.38,1.16,3.08,2.06a2.48,2.48,0,0,1,.41.76,2.24,2.24,0,0,0-1.44-.25,1.51,1.51,0,0,0-.6.36A41.8,41.8,0,0,1,261.72,38.7Z"/><path class="cls-14" d="M264.29,27.39c-.43,1,1.44,2.17,1,3.09a1.25,1.25,0,0,1-1.54.51c-.57-.31-.22-1.28-1-2a1.61,1.61,0,0,0-1-.52c-1.16-.09-2,1.45-2.06,1.54-.67,1.23,0,1.78-.52,3.09a3.14,3.14,0,0,1-.57.92c0-1.08.53-1.65.57-4,0-1.91-.29-3.52,0-3.59s.5,1.12,1.55,1.54a2.56,2.56,0,0,0,1.54,0,4.63,4.63,0,0,0,2.57-2.06c1.42-2.2.37-3.57,1.54-4.63a3.38,3.38,0,0,1,4.11,0,2.89,2.89,0,0,1,.83,1.56c-.45-.09-1.21-1.09-2.37-1a3.31,3.31,0,0,0-2.57,2.05c-.43,1.13.11,1.8-.51,2.58S264.53,26.82,264.29,27.39Z"/><path class="cls-11" d="M261.2,98.85a15.59,15.59,0,0,0,4.63-4.11,8.74,8.74,0,0,0,1.29-2.38,1.29,1.29,0,0,1,.23,0,62.35,62.35,0,0,1,.53,9.09,22.11,22.11,0,0,0,0,3.6c.64,4,3,5.35,4.71,7.87h-8.65l-3.85,7.54c-.7-1.47-1.52-3.16-2.49-5.11-1.07-2.21-2-4-2.57-5.16l2.06-.51h1l-.33-4.5c.09.11.2.25.33.39.43.51.48.53.51.51.36-.08.11-2,0-4.11,0-.75-.05-1.37-.05-1.87A14.14,14.14,0,0,0,261.2,98.85Z"/><path class="cls-13" d="M262.23,41.79c.36.51.87,1.29,1.48,2.3,0,.14-.06.28-.08.44a28.13,28.13,0,0,0-3.46-4.28c-1.13-1.09-2.51-2.22-2.94-3.74l.37-.38A43.52,43.52,0,0,1,262.23,41.79Z"/><path class="cls-12" d="M257.1,35.21c0-.4.13-1,.5-1.13a.82.82,0,0,1,.75.11A10.14,10.14,0,0,1,257.1,35.21Z"/><path class="cls-12" d="M264.71,41.63a4.81,4.81,0,0,0-1,2.46c-.61-1-1.12-1.79-1.48-2.3a43.52,43.52,0,0,0-4.63-5.66l-.37.38a3.25,3.25,0,0,1-.14-.89c0-.06,0-.22,0-.41a10.14,10.14,0,0,0,1.25-1,.91.91,0,0,1,.25.14c0,.07,0,.17,0,.26.22,1.15,1.18,2.15,3.09,4.11A41.8,41.8,0,0,0,264.71,41.63Z"/><path class="cls-13" d="M258.12,40.25c.48.09,1.27.39,3.05,3.56a15.18,15.18,0,0,1-.48,1.58c-.27.74-.5,1.35-.72,1.85l-.31-.31,1-3.09c-1.11-1.21-2.22-2.44-3.32-3.66A3.18,3.18,0,0,1,258.12,40.25Z"/><path class="cls-13" d="M262.74,46.93c-.6-1.26-1.12-2.29-1.57-3.12a1.92,1.92,0,0,0,0-1c-.25-1-1-1.13-2.57-2.57-1.84-1.7-1.74-2.42-2.57-2.57l1.17-1.17c.43,1.52,1.81,2.65,2.94,3.74a28.13,28.13,0,0,1,3.46,4.28,28.47,28.47,0,0,0-.33,3.6C263.12,47.72,262.93,47.32,262.74,46.93Z"/><path class="cls-12" d="M257.09,104.51c.17,0,.31.17.7.64l.33,4.5h-1c-.13-1.59-.27-3.16-.39-4.75C257,104.59,257,104.52,257.09,104.51Z"/><path class="cls-15" d="M257.43,93.26a6.41,6.41,0,0,0-.65-1c.37-.11.73-.24,1.1-.34q.12.69.24,1.26Z"/><path class="cls-12" d="M257.79,105.15c-.39-.47-.53-.66-.7-.64s-.11.08-.39.39c-.05-.47-.08-1-.13-1.42l1-1C257.66,103.35,257.73,104.24,257.79,105.15Z"/><path class="cls-13" d="M258.63,40.25c1.57,1.44,2.32,1.58,2.57,2.57a1.92,1.92,0,0,1,0,1c-1.78-3.17-2.57-3.47-3.05-3.56a3.18,3.18,0,0,0-.75-.07c-.61-.67-1.22-1.32-1.82-2l.51-.51C256.89,37.83,256.79,38.55,258.63,40.25Z"/><path class="cls-11" d="M253.49,94.23a14.64,14.64,0,0,1,3.94-1,10.07,10.07,0,0,1,1.2,3c.31,1.39,0,1.58-.05,3.79a14.73,14.73,0,0,1-3.55.84,29.64,29.64,0,0,1-3.61-.44c0-1.4.5-1.76.53-3.16a5.13,5.13,0,0,0-.42-2.12A13.77,13.77,0,0,1,253.49,94.23Z"/><path class="cls-15" d="M256.78,92.28,251,94.1a1.91,1.91,0,0,1-.11-1.42A3.38,3.38,0,0,1,254,90.63,3.88,3.88,0,0,1,256.78,92.28Z"/><path class="cls-14" d="M264.8,25.85a4.63,4.63,0,0,1-2.57,2.06,2.56,2.56,0,0,1-1.54,0c-1.05-.42-1.28-1.62-1.55-1.54s0,1.68,0,3.59c0,2.36-.59,2.93-.57,4l-.22.22a.82.82,0,0,0-.75-.11c-.37.17-.46.73-.5,1.13-.15.13-.34.27-.53.41-1.38,1-2.52,1.88-3.08,1.54s-.2-1.59,0-3.08c.53-3.94-.64-4.57-.51-9.26.09-3.24.12-4.84,1-6.17,2.53-3.72,8.57-3.16,9.26-3.08s5.81.62,7.71,4.11c.68,1.25.95,2.82.51,3.09a.23.23,0,0,1-.2,0,2.89,2.89,0,0,0-.83-1.56,3.38,3.38,0,0,0-4.11,0C265.17,22.28,266.22,23.65,264.8,25.85Z"/><path class="cls-9" d="M256.57,103.48c.05.47.08,1,.13,1.42a.71.71,0,0,0-.13.12,2.49,2.49,0,0,1-.51.52c-.55.14-.86-.92-2.06-1.55-.79-.4-1-.12-1.54-.51a3.44,3.44,0,0,1-1-2.57c0-.16,0-.3,0-.44a29.64,29.64,0,0,0,3.61.44,14.73,14.73,0,0,0,3.55-.84c0,.5,0,1.12.05,1.87.11,2.13.36,4,0,4.11,0,0-.08,0-.51-.51-.13-.14-.24-.28-.33-.39-.06-.91-.13-1.8-.19-2.7Z"/><path class="cls-15" d="M256.78,92.28a6.41,6.41,0,0,1,.65,1,14.64,14.64,0,0,0-3.94,1,13.77,13.77,0,0,0-2,1c-.17-.4-.38-.75-.5-1.09Z"/><path class="cls-15" d="M257.88,91.94c-.37.1-.73.23-1.1.34A3.88,3.88,0,0,0,254,90.63a3.38,3.38,0,0,0-3.08,2.05A1.91,1.91,0,0,0,251,94.1l-1.61.52c-1-3.49-1.65-6.44-2.1-8.62-1.12-5.42-1.62-12.43-2.57-26.22a1.83,1.83,0,0,1,0-.33s0,0,0,0A30.83,30.83,0,0,1,248.35,49c.62-1.08,5-8.67,9-8.81,1.1,1.22,2.21,2.45,3.32,3.66l-1,3.09.31.31c-.3.7-.56,1.23-.83,1.75-.68,1.34-.73,2.29-1,4.62-.91,7.18-1.65,8-2.06,13.88a89.78,89.78,0,0,0,1,19.54C257.35,88.94,257.63,90.61,257.88,91.94Z"/><path class="cls-15" d="M249.89,96.28c-.17-.57-.33-1.12-.47-1.66L251,94.1c.12.34.33.69.5,1.09A14.54,14.54,0,0,0,249.89,96.28Z"/><path class="cls-15" d="M257.37,40.18c-4,.14-8.4,7.73-9,8.81a30.83,30.83,0,0,0-3.62,10.43c-.26-3.91-.37-6.09.53-8.89s2.67-5,6.17-9.26c2.36-2.88,3.51-3.81,4.63-3.59l-.51.51C256.15,38.86,256.76,39.51,257.37,40.18Z"/><path class="cls-11" d="M248.86,99.88a30.72,30.72,0,0,1-3.32-1.11,10.53,10.53,0,0,0,.24-3l3.64-1.15c.14.54.3,1.09.47,1.66a14.54,14.54,0,0,1,1.64-1.09,5.13,5.13,0,0,1,.42,2.12c0,1.4-.55,1.76-.53,3.16C250.61,100.32,249.75,100.13,248.86,99.88Z"/><path class="cls-11" d="M247.32,86c.45,2.18,1.12,5.13,2.1,8.62l-3.64,1.15a10.53,10.53,0,0,1-.24,3,30.73,30.73,0,0,1-4.9-2.49c.45-4.77,1.06-8.63,1.54-11.31,1-5.59,1.71-7.4,2.06-11.82.39-4.94-.32-4.91,0-9.26.07-1.12.2-2.66.49-4.44a1.83,1.83,0,0,0,0,.33C245.7,73.57,246.2,80.58,247.32,86Z"/><path class="cls-1" d="M230.78,181.08,260.86,122c.26.58.51,1.11.75,1.61l-29.26,57.44Z"/><path class="cls-1" d="M244.19,151.66l.08-.15,15.82-31.08c.27.58.53,1.1.77,1.6l-30.08,59.05H229.2Z"/><path class="cls-11" d="M238.58,147.71a.47.47,0,0,1,.06.09c-1.79.37-4.14-.2-7.77-1.12s-5.73-1.43-6.78-2.54a3.32,3.32,0,0,1,.61-1.06c1.51-1.81,4.64-1.81,6.68-1,.21.08.05,0,4.12,3.09C237.65,146.76,238.16,147.12,238.58,147.71Z"/><path class="cls-11" d="M256.7,104.9c.12,1.59.26,3.16.39,4.75l-2.06.51a163.47,163.47,0,0,0-7.71,17.5c-2.66,7.21-4,10.82-4.11,11.31-1.2,4.72-1.14,6.93-3.09,8.22a4,4,0,0,1-1.48.61.47.47,0,0,0-.06-.09c-.42-.59-.93-1-3.08-2.57-4.07-3.06-3.91-3-4.12-3.09-2-.78-5.17-.78-6.68,1a3.32,3.32,0,0,0-.61,1.06,2.23,2.23,0,0,1-.42-.55c-1.15-2,0-4.53,5.14-13.36,8.7-14.9,10.05-15.41,10.8-19,.39-1.9.72-5.11,3.08-7.73a10.8,10.8,0,0,0,2.06-2.57,7.86,7.86,0,0,0,.79-2.14,30.72,30.72,0,0,0,3.32,1.11c.89.25,1.75.44,2.56.59,0,.14,0,.28,0,.44a3.44,3.44,0,0,0,1,2.57c.53.39.75.11,1.54.51,1.2.63,1.51,1.69,2.06,1.55a2.49,2.49,0,0,0,.51-.52A.71.71,0,0,1,256.7,104.9Z"/><path class="cls-9" d="M244.24,151.31a.4.4,0,0,1,0,.18.64.64,0,0,1-.08.14,2.35,2.35,0,0,1-.93.7c-.83.36-1.47,0-2.57,0a16.71,16.71,0,0,1-3.6,0c-1.2-.25-1-.6-3.09-1.54-1.62-.73-3-1.34-4.62-1-.67.13-.56.27-1.55.52-1.26.31-2.75.68-3.59,0s-.67-2-.52-3.6a11.74,11.74,0,0,1,.42-2.54c1,1.11,3.12,1.62,6.78,2.54s6,1.49,7.77,1.12a3.94,3.94,0,0,0,1,.94l1,.51c.65.31,1,.47,1,.51.56.46.56.92,1,1,.21.05.22,0,.52,0S244.17,151,244.24,151.31Z"/><path class="cls-1" d="M226.85,115.68l-20.38,24.41a9.09,9.09,0,0,0-.28-1.12c-.81-2.35-2.47-3.37-5.14-5.66a28.21,28.21,0,0,1-7.2-8.74c-.76-1.48-1-2.33-2.57-5.65l-.62-1.3,2.18-1.94Z"/><path class="cls-16" d="M205.91,144.82l.21.07-.75.89A5.35,5.35,0,0,0,205.91,144.82Z"/><path class="cls-17" d="M204.79,144.3c.59-.72,1.2-1.44,1.79-2.15a7.17,7.17,0,0,1-.39,2,5.52,5.52,0,0,1-.28.71A5.78,5.78,0,0,1,204.79,144.3Z"/><path class="cls-17" d="M205.37,145.78a8.59,8.59,0,0,1-1.58,1.9Z"/><path class="cls-17" d="M203.61,143.52l2.86-3.43a8.63,8.63,0,0,1,.11,2.06c-.59.71-1.2,1.43-1.79,2.15h0C204.34,144.05,204,143.77,203.61,143.52Z"/><path class="cls-17" d="M200,150q2.38-2.88,4.77-5.73h0a5.78,5.78,0,0,0,1.12.52,5.35,5.35,0,0,1-.54,1l-1.58,1.9A11.64,11.64,0,0,1,200,150Z"/><path class="cls-16" d="M203.79,147.68l-6.24,7.47a5.12,5.12,0,0,1-.94-1.06c1.12-1.35,2.26-2.71,3.4-4.06A11.64,11.64,0,0,0,203.79,147.68Z"/><path class="cls-16" d="M203.62,152.33c-.67.74,0,1.66-.51,2.57-.66,1.13-2.65,1.45-4.11,1a4,4,0,0,1-1.45-.78l6.24-7.47a8.59,8.59,0,0,0,1.58-1.9l.75-.89a6.2,6.2,0,0,0,1.62.25,6.89,6.89,0,0,0,3.08-.52c1.65-.75,2-1.84,3.6-2.05.31,0,1.57-.19,2.05.51.18.23.3.67,0,1.54-.74,2.18-3.2,4.35-6.16,5.66-2.2,1-3.29,1.46-4.63,1.54C204.87,151.87,204.11,151.79,203.62,152.33Z"/><path class="cls-17" d="M204.78,144.3Q202.4,147.15,200,150a10.3,10.3,0,0,1-2.34.59l5.94-7.1C204,143.77,204.34,144.05,204.78,144.3Z"/><path class="cls-16" d="M197.67,150.62A10.3,10.3,0,0,0,200,150c-1.14,1.35-2.28,2.71-3.4,4.06a9,9,0,0,1-.7-1.24s0,0,0-.08Z"/><path class="cls-1" d="M196.61,154.09a5.12,5.12,0,0,0,.94,1.06l-21.64,25.93h-1.82Q185.33,167.57,196.61,154.09Z"/><path class="cls-17" d="M203.61,143.52l-5.94,7.1a6.84,6.84,0,0,1-2.4-.08,7,7,0,0,1,.13-2.32c.62-2.8,3.1-5.59,5.65-5.65A4,4,0,0,1,203.61,143.52Z"/><path class="cls-16" d="M195.27,150.54a6.84,6.84,0,0,0,2.4.08l-1.79,2.15A6.63,6.63,0,0,1,195.27,150.54Z"/><path class="cls-17" d="M206.19,139a9.09,9.09,0,0,1,.28,1.12l-2.86,3.43a4,4,0,0,0-2.56-1c-2.55.06-5,2.85-5.65,5.65a7,7,0,0,0-.13,2.32,5.2,5.2,0,0,1-.9-.26c-1.87-.77-1.79-2.07-7.2-13.88-1.26-2.74-1.51-3.2-3.08-6.69q-1.11-2.4-2-4.44l8.57-7.65.62,1.3c1.55,3.32,1.81,4.17,2.57,5.65a28.21,28.21,0,0,0,7.2,8.74C203.72,135.6,205.38,136.62,206.19,139Z"/><path class="cls-1" d="M229.84,114.29l-23.26,27.86a8.63,8.63,0,0,0-.11-2.06l20.38-24.41h-34l-2.18,1.94c-.2-.46-.42-.88-.62-1.3l2.27-2Z"/><path class="cls-17" d="M190,116.32c.2.42.42.84.62,1.3l-8.57,7.65L181.5,124C184.35,121.39,187.19,118.86,190,116.32Z"/><path class="cls-1" d="M232.83,112.89l-26.71,32-.21-.07a5.52,5.52,0,0,0,.28-.71,7.17,7.17,0,0,0,.39-2l23.26-27.86H192.31l-2.27,2-.66-1.31,2.39-2.12Z"/><path class="cls-17" d="M189.38,115l.66,1.31c-2.85,2.54-5.69,5.07-8.54,7.63-.22-.47-.4-.94-.61-1.36Z"/><path class="cls-1" d="M147.73,156l34.36-30.69q.89,2,2,4.44c1.57,3.49,1.82,3.95,3.08,6.69,5.41,11.81,5.33,13.11,7.2,13.88a5.2,5.2,0,0,0,.9.26,6.63,6.63,0,0,0,.61,2.23l-23.63,28.31H119.59l21.33-19c1.73,1.2,4.38,1,9.22.58,3.29-.28,4.33-.77,4.63-1.55a1.33,1.33,0,0,0,0-1c-.45-1-2.18-.66-4.11-1.55a7.35,7.35,0,0,1-2.58-2.05C147.94,156.28,147.84,156.12,147.73,156Z"/><path class="cls-18" d="M182.54,93.71a1,1,0,0,1-.53.05c-.68-2.68-1.51-5.75-2.55-9.3-.19-.63-.4-1.36-.65-2.17.42.22.81.42,1.16.63A24.22,24.22,0,0,1,185.63,87c1.76,1.81,2.93,3.71,2.57,4.11s-1.75-.45-2.06,0c-.2.3.22.81,0,1s-.57-.17-1,0-.49.89-1,1c-.22.06-.22,0-.52,0C183.07,93.28,183,93.57,182.54,93.71Z"/><path class="cls-17" d="M174.83,85.49a15.28,15.28,0,0,1,2.57,4.11c1.11,2.27,1.51,4,2.57,4.11.3.05.6-.06,1.55,0l.49.05c2.08,8.08,3,12.87,5.68,18,.31.58.9,1.7,1.69,3.29l-8.49,7.58c-.32-.77-.64-1.49-.92-2.13a122.15,122.15,0,0,0-8.75-13.9c-3.24-4.53-4.18-5.23-5.14-5.14-1.89.21-3.4,4.51-6,13l-2.66-.82-8.08-.13c.45-1.52.93-3.35,1.34-5.4.35-1.8.35-2.34,1-9.26.55-5.53.81-8.3,1-9.25.84-3.49,1.62-4.3,3.09-9.25.43-1.45.78-2.78,1-3.9a7.43,7.43,0,0,0,2.55.3c1.31,0,2.56,0,3.71.09.61,1.12,1.25,2.29,2,3.51,1.26,2.19,2.35,4,3.08,5.14l4.18-2.09A21.28,21.28,0,0,1,174.83,85.49Z"/><path class="cls-19" d="M180.16,33.75a14.09,14.09,0,0,0,.2-1.5,2.28,2.28,0,0,1,.13.28c.23.67.22,1.47,0,1.55S180.29,34,180.16,33.75Z"/><path class="cls-18" d="M180,93.71c-1.06-.12-1.46-1.84-2.57-4.11a15.28,15.28,0,0,0-2.57-4.11,21.28,21.28,0,0,0-2.52-2.09l4.35-2.17c.79.36,1.51.72,2.15,1.06.25.81.46,1.54.65,2.17,1,3.55,1.87,6.62,2.55,9.3l-.49-.05C180.57,93.65,180.27,93.76,180,93.71Z"/><path class="cls-18" d="M176.89,33.05a2.41,2.41,0,0,1,2.06-.52,2.68,2.68,0,0,1,1.21,1.22,8.45,8.45,0,0,1-.19.84c-.14.56-.26,1-.37,1.4a2.85,2.85,0,0,1-2.2.66,2.06,2.06,0,0,1-1.54-1.55A2.29,2.29,0,0,1,176.89,33.05Z"/><path class="cls-17" d="M176.38,76.23a4.4,4.4,0,0,0,.18-1c.91,2.75,1.67,5.15,2.25,7.05-.64-.34-1.36-.7-2.15-1.06l.74-.37a36.92,36.92,0,0,1-3.28-3.46C175.3,77.29,176.05,77,176.38,76.23Z"/><path class="cls-19" d="M179,37.16c-1.3.89-4.27,0-6.16-1.74v0a4,4,0,0,1,.49-.81,9.8,9.8,0,0,1,1.55-1.54c1-1,1-1.4,1.55-1.54s.82.2,1.54,0,.61-.5,1-.52c.59,0,1.13.64,1.41,1.26a14.09,14.09,0,0,1-.2,1.5A2.68,2.68,0,0,0,179,32.53a2.41,2.41,0,0,0-2.06.52,2.29,2.29,0,0,0-1,2.05,2.06,2.06,0,0,0,1.54,1.55,2.85,2.85,0,0,0,2.2-.66A2.16,2.16,0,0,1,179,37.16Z"/><path class="cls-20" d="M176.66,81.23l-4.35,2.17a1.48,1.48,0,0,1-.58-1c-.11-1,.75-1.9,1.55-2.57C174.52,80.3,175.64,80.77,176.66,81.23Z"/><path class="cls-21" d="M174.12,77.4A28.66,28.66,0,0,1,172,74.57l4.41.12.18.55a4.4,4.4,0,0,1-.18,1C176.05,77,175.3,77.29,174.12,77.4Z"/><path class="cls-1" d="M172.25,181.08l23.63-28.31s0,0,0,.08a9,9,0,0,0,.7,1.24q-11.27,13.49-22.52,27Z"/><path class="cls-19" d="M172.76,35.62a1.06,1.06,0,0,1,0-.2c1.89,1.77,4.86,2.63,6.16,1.74A2.16,2.16,0,0,0,179.6,36c.7-.5,1.23-1,1.4-.89s-.29,1.81-1.54,2.58C177,39.16,172.79,37,172.76,35.62Z"/><path class="cls-18" d="M172.25,24.31c1.43-1.82,3.18-4,5.67-4.11a3.08,3.08,0,0,1,2.05.51c1.27.95,1.52,3.15,1,4.63a5.68,5.68,0,0,0-.51,1.54,7.74,7.74,0,0,0,0,2.06v1c0,.47,0,1.3-.13,2.29-.28-.62-.82-1.29-1.41-1.26-.42,0-.44.33-1,.52s-1-.14-1.54,0-.5.49-1.55,1.54a9.8,9.8,0,0,0-1.55,1.54,4,4,0,0,0-.49.81,6,6,0,0,1-1.06-1.32c-.5-.91-.92-2.08-2-2.57-.69-.32-1.19-.07-1.55-.52a1.43,1.43,0,0,1,0-1.54c.5-.7,1.41-.31,2.06-1,.39-.42.31-.78.51-1.54A7.26,7.26,0,0,1,172.25,24.31Z"/><path class="cls-20" d="M163.1,76.84c5.11.25,8.8.79,11,.56a36.92,36.92,0,0,0,3.28,3.46l-.74.37c-1-.46-2.14-.93-3.38-1.4-.8.67-1.66,1.59-1.55,2.57a1.48,1.48,0,0,0,.58,1l-4.18,2.09c-.73-1.19-1.82-2.95-3.08-5.14C164.35,79.13,163.71,78,163.1,76.84Z"/><path class="cls-21" d="M166.7,45a3.18,3.18,0,0,0,1.43.9c1.24.41,1.3-.17,4.12,0,2,.11,2.55.44,3.1,0a1.87,1.87,0,0,0,.56-1.43c2.18,4.28,2.32,7.49,2,9.66s-1,2.94-1,5.65a21.55,21.55,0,0,0,1,6.68c1,2.93,2.13,3.93,1.54,5.15s-1.76,1-2.57,2.57a2.57,2.57,0,0,0-.33,1.06l-.18-.55L172,74.57a24.27,24.27,0,0,1-3.84-9.13C166.7,57.6,169.85,51.38,166.7,45Z"/><path class="cls-19" d="M165.94,43.64a9.13,9.13,0,0,0,4.25,1.75,10,10,0,0,0,5.67-1s0,.08,0,.11a1.87,1.87,0,0,1-.56,1.43c-.55.44-1.08.11-3.1,0-2.82-.17-2.88.41-4.12,0a3.18,3.18,0,0,1-1.43-.9,10.9,10.9,0,0,0-.62-1.16Z"/><path class="cls-20" d="M174.12,77.4c-2.22.23-5.91-.31-11-.56-.48-.87-.92-1.73-1.34-2.54l10.21.27A28.66,28.66,0,0,0,174.12,77.4Z"/><path class="cls-19" d="M162.6,39.9a15.1,15.1,0,0,1,3.34,3.74A12.82,12.82,0,0,1,162.6,39.9Z"/><path class="cls-19" d="M161.39,39l.58-.3a9.84,9.84,0,0,0,.63,1.2C162.18,39.56,161.78,39.26,161.39,39Z"/><path class="cls-19" d="M166.7,45a5,5,0,0,0-2.16-1.67c-1.58-.62-2.45-.22-3.09-1s.08-1.7-.51-2.57a2,2,0,0,0-.27-.31c.25-.16.5-.3.72-.42.39.26.79.56,1.21.9a12.82,12.82,0,0,0,3.34,3.74l.14.2A10.9,10.9,0,0,1,166.7,45Z"/><path class="cls-21" d="M161.76,74.3c.42.81.86,1.67,1.34,2.54-1.15,0-2.4-.08-3.71-.09a7.43,7.43,0,0,1-2.55-.3l.5-2.27Z"/><path class="cls-19" d="M160.94,38.7l.45.3c-.22.12-.47.26-.72.42a1.55,1.55,0,0,0-.48-.28C160.45,39,160.7,38.83,160.94,38.7Z"/><path class="cls-20" d="M172,74.57l-10.21-.27c-5.18-10.14-6.59-16.25-7-18.12-1.22-5.67-.94-8.52-.42-10.19a21.83,21.83,0,0,1,1.45-2.15,16.94,16.94,0,0,1,4.87-4.42,2,2,0,0,1,.27.31c.59.87-.16,1.7.51,2.57s1.51.41,3.09,1A5,5,0,0,1,166.7,45c3.15,6.38,0,12.6,1.43,20.44A24.27,24.27,0,0,0,172,74.57Z"/><path class="cls-19" d="M169.68,31.51c1.13.49,1.55,1.66,2,2.57a6,6,0,0,0,1.06,1.32v0a1.06,1.06,0,0,0,0,.2c0,1.39,4.25,3.54,6.7,2.06,1.25-.77,1.79-2.36,1.54-2.58s-.7.39-1.4.89c.11-.37.23-.84.37-1.4a8.45,8.45,0,0,0,.19-.84c.13.22.22.36.33.33s.23-.88,0-1.55a2.28,2.28,0,0,0-.13-.28c.11-1,.11-1.82.13-2.29v-1a7.74,7.74,0,0,1,0-2.06,5.68,5.68,0,0,1,.51-1.54c.49-1.48.24-3.68-1-4.63a3.08,3.08,0,0,0-2.05-.51c-2.49.07-4.24,2.29-5.67,4.11a7.26,7.26,0,0,0-1.55,2.57c-.2.76-.12,1.12-.51,1.54-.65.72-1.56.33-2.06,1a1.43,1.43,0,0,0,0,1.54C168.49,31.44,169,31.19,169.68,31.51Zm5.67,7.71c-.39.34.37,1.24.51,3.08a18.52,18.52,0,0,1,0,2.17s0-.08,0-.11a10,10,0,0,1-5.67,1,9.13,9.13,0,0,1-4.25-1.75,15.1,15.1,0,0,0-3.34-3.74,9.84,9.84,0,0,1-.63-1.2l-.58.3-.45-.3c-.24.13-.49.27-.75.44-1.29-.56-3.35,0-3.88-1-.42-.76.53-1.76,1.54-3.6,1.76-3.19.87-3.77,2.57-7.71a63.46,63.46,0,0,1,3.6-6.17c2.12-3.43,2.68-4.07,3.6-4.63a8.85,8.85,0,0,1,5.14-1c1.62,0,3.86.1,5.67,1.54,2.71,2.15,2.92,6.23,3.09,9.77.09,2-.17,2.29,0,5.14.14,2.66.42,3.33,0,4.62-.53,1.58-1.94,3.48-3.6,3.6C176.61,39.83,175.77,38.83,175.35,39.22Z"/><path class="cls-20" d="M160.67,39.42a16.94,16.94,0,0,0-4.87,4.42A21.83,21.83,0,0,0,154.35,46a7,7,0,0,1,.42-1.12,13.21,13.21,0,0,1,5.42-5.73A1.55,1.55,0,0,1,160.67,39.42Z"/><path class="cls-21" d="M155.8,75.72c-1.06-1.36.4-3-.52-6.17-.45-1.61-1-1.76-1-3.09,0-1.16.39-1.71.52-3.59a15.57,15.57,0,0,0,0-2.06c-.22-4.53-2.25-7.91-1.54-11.82a9,9,0,0,1,1.12-3c-.52,1.67-.8,4.52.42,10.19.4,1.87,1.81,8,7,18.12l-4.42-.12-.5,2.27A2.07,2.07,0,0,1,155.8,75.72Z"/><path class="cls-1" d="M149.11,151l31.78-28.39c.21.42.39.89.61,1.36l-32.39,28.91Z"/><path class="cls-17" d="M148.26,116.92l.81-.6-.63,0a4.34,4.34,0,0,0,.16-.47c.09-.28.19-.59.29-.92l4.34.07-5.75,4.25C147.73,118.54,148,117.81,148.26,116.92Z"/><path class="cls-17" d="M149.11,153.36l-.76.17c.25-.21.5-.45.76-.67Z"/><path class="cls-1" d="M148.35,153.53l.76-.17v-.5L181.5,124l.59,1.32L147.73,156a4.73,4.73,0,0,1-.64-1.3C147.51,154.3,147.93,153.91,148.35,153.53Z"/><path class="cls-17" d="M149.07,116.32l-.81.6c.06-.2.12-.4.18-.62Z"/><path class="cls-1" d="M107.3,115.69l41.14.61c-.06.22-.12.42-.18.62L61.48,181.08H14.06q4.95-3.47,10.66-7.48Z"/><path class="cls-16" d="M150.66,158.5c1.93.89,3.66.52,4.11,1.55a1.33,1.33,0,0,1,0,1c-.3.78-1.34,1.27-4.63,1.55-4.84.4-7.49.62-9.22-.58l6.81-6.08c.11.16.21.32.35.49A7.35,7.35,0,0,0,150.66,158.5Z"/><path class="cls-1" d="M61.48,181.08l86.78-64.16c-.3.89-.53,1.62-.78,2.31q-41.8,30.95-83.63,61.85Z"/><path class="cls-17" d="M146.73,153.1l2.38-2.12v1.88c-.26.22-.51.46-.76.67-.44.1-.94.17-1.5.25C146.82,153.56,146.78,153.33,146.73,153.1Z"/><path class="cls-1" d="M147.09,154.66a8.79,8.79,0,0,1-.24-.88c.56-.08,1.06-.15,1.5-.25C147.93,153.91,147.51,154.3,147.09,154.66Z"/><path class="cls-17" d="M157.4,113.64l-11,8.13.14-.28c.36-.8.66-1.5.94-2.26l5.75-4.25-4.34-.07c.15-.43.29-.9.43-1.4Z"/><path class="cls-1" d="M146.54,121.49l-.14.28L66.2,181.08H63.85q41.81-30.92,83.63-61.85C147.2,120,146.9,120.69,146.54,121.49Z"/><path class="cls-17" d="M146.73,153.1c.05.23.09.46.12.68l-.82.1h-.19Z"/><path class="cls-16" d="M147.09,154.66a4.73,4.73,0,0,0,.64,1.3L140.92,162a3.38,3.38,0,0,1-.55-.45l-.46-.52Z"/><path class="cls-1" d="M139.91,161.07l.46.52a3.38,3.38,0,0,0,.55.45l-21.33,19H117.5Z"/><path class="cls-17" d="M146.73,153.1l-.89.79c-2.88.28-8.29.72-11.64-2.58a9.13,9.13,0,0,1-.91-1.08,9.42,9.42,0,0,1,.4-1.49,6.93,6.93,0,0,1,7.2-2.58c3.19.78,4.78,3.87,5.14,4.63A9.4,9.4,0,0,1,146.73,153.1Z"/><path class="cls-16" d="M146,153.88l.82-.1a8.79,8.79,0,0,0,.24.88l-7.18,6.41a3.28,3.28,0,0,0-1.11-.88l7-6.3Z"/><path class="cls-1" d="M138.8,160.19a3.28,3.28,0,0,1,1.11.88l-22.41,20h-2.1Z"/><path class="cls-16" d="M133.29,150.23a9.13,9.13,0,0,0,.91,1.08c3.35,3.3,8.76,2.86,11.64,2.58l-7,6.3a1.79,1.79,0,0,0-.48-.14c-1-.14-1.31.52-2.57.51a3.79,3.79,0,0,1-2.57-1,4.1,4.1,0,0,1-1-2.57,10.72,10.72,0,0,1,.51-4.11C132.93,151.76,133.13,150.89,133.29,150.23Z"/><path class="cls-17" d="M157.4,113.64l2.66.82c-.35,1.22-.76,2.54-1.18,3.94-.08.27-1,3.49-2.57,7.72a44.86,44.86,0,0,1-2.06,5.14c-2.19,4.26-3.47,3.81-4.62,6.68-.5,1.26-.52,4.28-.52,10.28V151l-2.38,2.12a9.4,9.4,0,0,0-.7-2.31c-.36-.76-1.95-3.85-5.14-4.63a6.93,6.93,0,0,0-7.2,2.58,9.42,9.42,0,0,0-.4,1.49,10.48,10.48,0,0,1-1.66-4.07,9.83,9.83,0,0,0,3.09-2c2-2,2.21-4.08,3.6-7.71a47,47,0,0,1,3.6-7.2c2.27-4,3.08-4.42,4.48-7.43Z"/><path class="cls-1" d="M106.88,114.29l42,.62c-.1.33-.2.64-.29.92a4.34,4.34,0,0,1-.16.47l-41.14-.61L24.72,173.6q-5.7,4-10.66,7.48H11.63Z"/><path class="cls-1" d="M148.89,114.91l-42-.62L11.63,181.08H9.2l97.24-68.21,42.88.64C149.18,114,149,114.48,148.89,114.91Z"/></svg>