<svg id="Layer_1" data-name="Layer 1" xmlns="http://www.w3.org/2000/svg" viewBox="0 0 594.63 143.46"><defs><style>.cls-1{fill:#fff;}.cls-2{fill:#252022;}</style></defs><rect class="cls-1" x="3.08" y="2.15" width="136.73" height="133.21" rx="14.62"/><path class="cls-2" d="M29.72,135.22a7.34,7.34,0,0,1,2.52-4c2.77-2.14,5.75-.55,8.54-3a7.38,7.38,0,0,0,2-3c1-2.7,0-4.62,0-6.54.05-2.1,1.44-5,7.54-8.54a82.42,82.42,0,0,0,5.53,10c2.45,3.81,3.93,6.1,6.54,8.55,2.84,2.66,7.52,7,13.07,6.53,1.44-.13,4.33-2.1,10-6,6.49-4.46,8.38-6.24,10-8.55a24.9,24.9,0,0,0,3-5.52c-3.49-1.77-6.22-3.39-8-4.53-4.2-2.62-4.93-3.5-8-5-3.71-1.81-4.12-1.26-7.54-3A21.59,21.59,0,0,1,67.42,97c-1.75-2.17-5.17-7.59-3-10.56,1.36-1.86,4.66-2.4,7-1.51,3.18,1.2,2.86,4.29,6.54,6a8.28,8.28,0,0,0,6,.5c2.82-1,4.1-3.63,5-5.53a13.79,13.79,0,0,0,1.51-6.54c0-.81-.29-6.86-5-10a10.25,10.25,0,0,0-3.29-1.65,4.11,4.11,0,0,0-2.24.14c-2.43,1.08-.92,5.56-4,9.55-1.2,1.55-2.89,2.89-3.52,2.52-1-.63,2.08-5.36,0-9.05-.13-.23-1.19-2.07-2.51-2-1.79.07-3.07,3.55-3.52,5.53-.85,3.66.13,6.33-.5,6.53s-1.77-1.64-2.52-3.52c-1.19-3-.61-4.61-1-8a19.34,19.34,0,0,0-1-5.33,12.66,12.66,0,0,0-1.47-2.71c-1.6-2.21-3.8-3.11-8-5a44.24,44.24,0,0,0-5.53-2c-4.47-1.43-5.41-1.26-6-1-2,.82-2.62,3.36-3,4.53C36.17,61,32.93,65.3,23.19,69.37a45.65,45.65,0,0,1-.51-8.55c.13-3.26.59-5.45,0-9-.36-2.26-.7-2.37-1-4-1.33-7.38,3.76-14.35,5-16.09,1.41-2,1-.88,5.53-6,4-4.6,4.52-5.64,7-8,1.26-1.2,1.41-1.2,7-5.53,8-6.13,8.06-6.43,9.55-7,3.06-1.24,6.23-1,12.57-.51,7.36.57,11,.86,14.58,3s3.4,3.84,8,6.54c3.92,2.28,4.73,1.5,8,3.51s5.17,4.48,8.55,9.05c2.91,3.95,4.94,6.76,6,11.06.79,3.11,1.06,6.89.5,7-.25.07-.67-.64-1.12-1.4a22.82,22.82,0,0,1-1.39-3.13c-.24,0,1.25,7.28,1.51,15.59.06,2.12,0,3.87,0,5a40.8,40.8,0,0,1-5.53-1c-2.93-.74-4.67-1.52-9.55-3.52s-7.38-3-9-3.52c-3.75-1.11-8.43-2.44-10.05-.5-.89,1,0,2-1,3.52s-2.55,1.48-6,2.51-6.48,1.92-6.54,3c0,.59.82,1.45,6,3,10.41,3.13,14.14,1.84,18.1,5,1,.82,2.2,2.9,4.53,7A155.47,155.47,0,0,1,101.61,91c6,13.58,4.34,15.77,9,21.11a59.86,59.86,0,0,1,6,7c1.52,2.18,1.94,3.81,4.52,9.55,1.27,2.81,2.33,5.08,3,6.53-5.92-.34-12.17-.53-18.72-.52-6.28,0-12.28.2-18,.52H29.72Z"/><path class="cls-2" d="M3.58,118.63c.07-1,.36-2.55,2-8,.57-1.88,1.18-3.7,4-11.06,3.83-9.88,4.15-10.27,4.53-12.57.58-3.48.13-4.32,1-9,.76-4.11,1.17-6.21,2.52-8,3.1-4.24,9.22-5.69,10.05-4.52.48.66-1,1.87-3.52,6.53-1.76,3.24-3.35,6.84-3,7s2.06-3.39,6-7a32.21,32.21,0,0,1,8.54-5.53c5.82-2.57,11-2.77,11.06-2.51s-5.44.48-10.05,4.53c-2,1.73-1.53,2.18-4.52,5.52s-4.42,3.93-7.55,7c-2.7,2.69-4.9,4.89-6.53,8-1.29,2.49-1.69,6.69-2.51,15.08-.72,7.38-1.08,11.07-1,12.06.22,2.87.72,5.1-.5,6-1.89,1.44-5.82-1.77-7-.5-1,1.1,1.93,4.34.5,6.53,0,.07-.72,1.1-1.5,1C4.37,129,3.24,123.4,3.58,118.63Z"/><path class="cls-2" d="M58.88,75.91a8.54,8.54,0,0,0-3.52-3c-2.61-1-5.26-.13-8.55,1-2.76,1-4.23,1.49-5.53,3s-2.64,4.54-1.5,6a3.33,3.33,0,0,0,2.51,1c1,.06,3.13-.06,8.54-4.53,2.71-2.23,3.5-3.3,4.53-3,1.37.38,2,2.83,2,4.52,0,1.95-.7,2.58-4,8.55C51.61,92.59,51.1,93.7,49.83,94c-1.95.47-3.65-1.43-4-1s1.14,3.62,3.52,4c1.58.26,3-.77,5.53-2.52s2.76-2.51,4-2.51A4.09,4.09,0,0,1,62.4,94.5a4.52,4.52,0,0,1,0,3c-1,3.43-3.59,5.8-5.53,7.54-6.72,6-7.95,6.53-8,8-.15,2.49,3.14,3.77,7,7a39.83,39.83,0,0,1,10.06,13.07,18.44,18.44,0,0,0,0-10.55,77.12,77.12,0,0,1-3-9c-.59-2.45-.75-3.85,0-4.53,1.27-1.16,3.93.89,5,0,1.36-1.1-3.17-5.17-3-10.55.13-4.68,3.54-4.87,3.52-9C68.42,88.25,68.12,87.37,58.88,75.91Z"/><rect class="cls-1" x="153.92" y="2.15" width="136.73" height="133.21" rx="14.62"/><path class="cls-2" d="M169.93,135a27.48,27.48,0,0,0,8.54-3.52A35.54,35.54,0,0,0,185,126c1.07-1.07.26-.35,4-4.52,2-2.17,2.42-2.64,2.51-3.52.17-1.72-1.36-2.33-3-5-2.13-3.48-1-4.84-3-8-1.68-2.69-2.76-2.22-4.52-4.53-2.21-2.88-2.34-6.48-2.52-13.57-.16-6.59.5-7.24,0-11.56s-1.45-6-2.51-10.05c-.91-3.5-3.41-13.5-.5-24.64a41.93,41.93,0,0,1,5-11.56,45.7,45.7,0,0,1,13.58-13.57c4.28-3,11.25-7.8,21.61-9.55,5.09-.86,14.08-2.38,22.62,2,4.22,2.17,2.94,3,11.56,9.05,7.52,5.26,9.86,5.58,12.57,9.55a27.61,27.61,0,0,1,4,11.06c.81,4.37.12,5.07.51,10.55.76,10.82,3.7,11.54,2.51,17.1-.1.48-1.91,4.17-5.53,11.56-2.14,4.36-3,6-3,8.54-.07,3.77,1.6,4.36,1,7.54-.56,3-2.2,3.24-3.52,7.54-.81,2.64-.18,2.49-1,5-.64,2-1.83,5.61-5,7.54-1.68,1-2.29.58-3,1.51-1.62,2.06-.36,6.39,2,9,1.74,1.94,3.34,2.18,6,3.52A30.58,30.58,0,0,1,267,134.5Z"/><rect class="cls-1" x="304.75" y="2.15" width="136.73" height="133.21" rx="14.62"/><path class="cls-2" d="M313.22,134a23.15,23.15,0,0,1,10.56-4.52c4.27-.6,5.16.69,8.54-.5,4.28-1.51,4.2-4,9.05-5.53,2.63-.83,4.38-.64,5-2,.56-1.17-.33-2.11,0-5,.16-1.39.4-1.55.5-2.51.25-2.45-1-4.13-2-6-2.89-5.7-.25-8.21-3.52-12.56-1.17-1.56-1.38-1.06-3-3a25,25,0,0,1-4.53-9c-2.12-6.11-5.56-7.52-8.54-12.06-5.79-8.83-3.65-20.08-2-28.65,1.23-6.5,3.23-17,12.06-25.64a41.36,41.36,0,0,1,16.09-9.55c4.9-1.73,8.37-2.89,12.06-1.51,2.65,1,3.57,2.6,6,2.51,3-.11,3.76-2.5,7-4,4.17-1.93,8.55-.7,11.06,0,5.91,1.66,9.4,5.53,12.57,9.05a51.15,51.15,0,0,1,6.53,9.55,56.65,56.65,0,0,1,6,13.07,52.39,52.39,0,0,1,2,11.06c.54,6-.38,5.61,0,12.57.37,6.58,1.31,9.09-.5,11.06s-3.49.51-5.53,2.51c-2.72,2.68-.86,6.41-4,9.55-.31.31-2,2-3,1.51-1.42-.62,1.21-5,0-10.06-.93-3.9-4.11-8.21-8.54-9a9.42,9.42,0,0,0-5,.5l3.52,3a17.88,17.88,0,0,0-19.6,2,5.87,5.87,0,0,0-2.52-2c-1.51-.58-2.3,0-4.52,0-3.81.06-5.41-1.54-6.54-.5a2.65,2.65,0,0,0-.5,2.52c.44,1.54,2.06,1.69,3.52,3,1.8,1.63,2.13,3.92,2.51,6.54s.09,4.58-.5,8.54c-.88,6-1.81,7.93-.5,9.55,1.08,1.35,2.65,1.17,3,2.52a3.17,3.17,0,0,1-2,3.52c-1.79.45-4-2-5-4-2.05-4.24,1.25-6.7,1-13.57a20.94,20.94,0,0,0-4.52-12.06c-1.29-1.56-4.31-5.2-7.54-4.53-2.92.61-4.29,4.38-4.53,5-1,2.65-.43,4.72,0,8,.8,6.12-.05,6.45.51,11.06.26,2.17,1.5,12.48,8.54,20.61,2.46,2.84,4.42,4,9.05,9.55,2.36,2.82,2.42,3.18,3.52,4,4.46,3.41,11,3.14,15.58,1.51,4.84-1.73,7.3-5,11.56-10.55a54,54,0,0,0,9.55-19.61,52,52,0,0,0,1.51-11.56,7,7,0,0,0,7.54-5,12.48,12.48,0,0,1-5.53,13.58,38.82,38.82,0,0,1,1,4.52c.59,3.62.29,5,1,7a12.83,12.83,0,0,0,3.52,5c4.75,4.67,9.59,6.13,15.08,9.05A61.77,61.77,0,0,1,436.88,130l-6.53,5Z"/><path class="cls-2" d="M378.57,96.29c-1.55-2.38-2.27-3.2-2-3.52s1.29.06,2,.51c1.51.92,1.35,2,3,4.52,1.16,1.76,1.88,2.19,2,3.52.08.87-.11,1.93-.5,2s-.77-.88-2-3C380.18,98.77,379.29,97.39,378.57,96.29Z"/><rect class="cls-1" x="455.59" y="2.07" width="136.73" height="133.21" rx="14.62"/><path class="cls-2" d="M496.23,95.72c-.24,1-1.41.85-2,2-.73,1.41.47,2.74,1,5.53a12.1,12.1,0,0,1,0,5c-1,3.67-5.76,5.38-7.54,6C478,117.87,459.11,124.8,459,129.4c0,1.36,1.58,3.4,10.05,6h52.28l61.83-1.51a11.25,11.25,0,0,0,6-6c.3-.78,1.79-4.61,0-7s-4.67-.67-10.06-2.51c-5.15-1.77-4.36-4-10.55-6.54-4.48-1.85-6.13-1.21-8.55-3.52a13.06,13.06,0,0,1-3.52-6.53c-.54-2.68.22-3.72,0-7-.2-3.12-.95-6.55-1.51-6.53s-.57,2.48-1,5c-.81,4.81-2.45,8-5,13.07-2.41,4.72-4.61,9-9,13.58-5.12,5.23-8.79,6.23-10.55,6.53a12.82,12.82,0,0,1-4.53,0,15.4,15.4,0,0,1-5.53-2.51c-7.93-4.85-8.16-4.44-9.55-6a56.8,56.8,0,0,1-3.52-6c-2.16-3.94-3.25-5.91-4-7.54a79.08,79.08,0,0,1-4.52-12.06,44.5,44.5,0,0,1-2-8.55c-.37-3.36-.81-7.28,1-11.56,1.08-2.55,2.31-5.45,5-6.53,4.79-1.91,8.3,4.17,14.58,2.51,2.83-.75,3.28-2.3,6.53-2.51s4,1.17,6.54.5c2.27-.62,2.34-2,5.53-4a14.84,14.84,0,0,1,6-2.52,12.15,12.15,0,0,1,10.56,4.53c2.18,2.79,2.29,5.8,2.51,11.56a49.26,49.26,0,0,1-.5,9,10.06,10.06,0,0,0,7-.5,9.64,9.64,0,0,0,3.52-3c2.43-3.37,1.93-7.08,2-11.06.15-6.68,1.83-8.07,2.52-13.57,1.2-9.65-2.41-17.82-4.53-22.62-2.27-5.15-9.41-21.3-27.14-27.65-14-5-26.27-1-30.67.5-4.25,1.45-16.81,5.93-24.63,18.6a39.69,39.69,0,0,0-6,17.6c-.07.89.12,5,.5,13.07a131.87,131.87,0,0,0,1,13.57c.92,6.48,1.42,9.77,3.52,12.06s3.9,2.46,5.53,5.53c1.18,2.24,1,3.73,2.51,4.53,1.69.91,2.93-.48,5,.5C495.21,92.9,496.51,94.52,496.23,95.72Z"/></svg>