<svg id="Layer_1" data-name="Layer 1" xmlns="http://www.w3.org/2000/svg" viewBox="0 0 549.47 244.85"><defs><style>.cls-1{fill:#271013;}.cls-2{fill:#cfaf83;}.cls-3{fill:#facf9a;}.cls-4{fill:#0f143d;}.cls-5{fill:#fcf6fa;}.cls-6{fill:#094773;}.cls-7{fill:#c7aa75;}.cls-8{fill:#cc3c86;}.cls-9{fill:#0a3859;}.cls-10{fill:#f4d090;}.cls-11{fill:#3c180c;}.cls-12{fill:#c0daf2;}.cls-13{fill:#00619d;}.cls-14{fill:#070404;}.cls-15{fill:#e3c388;}.cls-16{fill:#030504;}.cls-17{fill:#0a0a0d;}.cls-18{fill:#010101;}</style></defs><path class="cls-1" d="M490,74.94a8.54,8.54,0,0,1-2.29-3.82c-1.2-4.47,2.14-8.24,2.29-8.39,2.66-2.91,6.27-3,8.39-3.06,1.79-.05,4.14-.12,6.11,1.53A6.6,6.6,0,0,1,506.77,65a28.88,28.88,0,0,1-.76,5.34c-.77,4,0,4.17-.77,5.34-1.93,2.89-7.63,3.06-7.63,3.06S492.88,77.88,490,74.94Z"/><path class="cls-2" d="M491.5,76.47c.26-1.28.51-2.55.77-3.82a19.63,19.63,0,0,0,5.34,0A19.4,19.4,0,0,0,503,71.12l1.53,6.11c-.64.42-4.63,3-9.16,1.53A9.94,9.94,0,0,1,491.5,76.47Z"/><path class="cls-3" d="M528.91,145.17a7.3,7.3,0,0,0,0,4.58c.37,1.64.68,1.42,1.53,3.81,1,2.78.93,4.1,2.29,5.35.48.45,1.23,1,1.52.76s-.17-1.45,0-1.53.81,1.6,2.29,3.06a6.29,6.29,0,0,0,2.29,1.52c.6.22,2.12.77,3.06,0a2.64,2.64,0,0,0,.76-1.52,3.53,3.53,0,0,0,0-1.53,5.51,5.51,0,0,0-1.53-2.29c.06-.06.89,1,1.53.76s.73-.95.76-1.52c.09-1.48-1.12-2.54-2.29-3.82-1.52-1.66-.3-.76-3.81-5.34-4-5.23-4.84-5.38-5.35-5.35C530.11,142.24,529,145,528.91,145.17Z"/><path class="cls-3" d="M448,46.7a19.32,19.32,0,0,0-.76-3.82,40,40,0,0,0-1.53-3.82,47.1,47.1,0,0,1-1.52-5.34c-1.44-5.63-1.51-7-.77-7.64.5-.39,1-.16,1.53-.76s.14-1.45.76-2.29c.39-.52,1.1-1,1.53-.76s.2,1.1.76,1.52,1.57-.4,2.29,0,.44,1.33.77,3.82c.25,1.91.59,3.07.76,3.05s-.1-1.71.76-2.29a1.52,1.52,0,0,1,1.53,0c1.14.77.41,3.78-.76,8.4-.78,3.06-1.39,4.7-1.53,7.64,0,1,0,1.75,0,2.29Z"/><path class="cls-4" d="M471.66,153.56c-.78,8.59-.35,17.71,0,25.19,0,.78.15,3.29.1,6.66,0,1,0,2.08-.1,3.27,0,.79-.19,3.7-.77,8.4-1.41,11.63-3.1,15.29-.76,19.08a7.12,7.12,0,0,0,3.05,3.05,6.35,6.35,0,0,0,4.47-.29,10,10,0,0,0,3.17-2c3.17-3.07,3.51-12.95,3.81-17.55.83-12.71,3.5-18.51,3.82-26.72.1-2.56.9-5.08.76-7.64a5.8,5.8,0,0,1,.77-3.81c.09-.14,1.19-1.67,2.29-1.53.38.05,1.87.44,3.05,7.63s-.2,7.57.76,13c1,5.85,3,7.16,3.06,13,0,1.39-.08,2.17,0,4.58a80.08,80.08,0,0,0,.76,8.4c1.4,10.51,2.37,11.61,3.05,12.21,1.27,1.1,3.45,2.14,5.35,1.53,2.81-.92,3.61-5,4.58-9.93a40.38,40.38,0,0,0,0-16c-.57-2.7-.9-2.84-1.53-5.34-2.47-9.75.62-14.81,0-23.67-.19-2.77-.65-9.44-4.58-15.26-7.5-11.13-25.53-16-32.06-9.93C472.73,141.66,472.38,145.62,471.66,153.56Z"/><path class="cls-5" d="M446.47,45.17q1.14,5.34,2.29,10.69l6.1-3.06q-1.14-5-2.29-9.92Z"/><path class="cls-5" d="M526.62,133.72l1.53,13,8.39-.76q-2.28-6.1-4.58-12.21Z"/><path class="cls-6" d="M473.18,149.75c-1-.65-1.42-1.05-7.63-7.64C450,125.67,448,122.91,447.23,118.45c-.43-2.64,0-5.57.76-11.45.63-4.63,1.17-5.72,3.06-14.5,2.61-12.15,2.5-14.34,2.29-16-.27-2.12-1.2-5-3.06-10.69C448.16,59.24,446.36,55,448,53.57c.54-.48.83-.11,3.06-.77,2.9-.85,3.55-1.82,4.58-1.52s1.34,1.88,2.29,4.58c1.31,3.74,3.1,8.85,6.87,10.68a27,27,0,0,1,3,1.53c2.73,1.64,3,2.63,3.05,3.05.11.77-.29,1.1,0,1.53.53.78,2-.07,3.06.76.93.72.58,1.9,1.52,2.29.48.2.59-.09,1.53,0a6.81,6.81,0,0,1,2.29.77c1,.47.89.5,1.53.76,1.5.6,1.83.17,3.05.76a6.46,6.46,0,0,0,1.53.77,3.7,3.7,0,0,0,1.52,0,2.21,2.21,0,0,0,1.53-.77c.16-.27.12-.48,0-1.52-.21-1.88-.17-2.13,0-2.29.33-.31,1-.15,1.53,0a4,4,0,0,1,1.52.76,15.12,15.12,0,0,0,3.06,1.53,8.06,8.06,0,0,0,6.87,0c.35-.17.46-.25,1.52-.77a10.49,10.49,0,0,0,1.53-.76c1-.72,1.31-1.62,1.53-1.53s0,.48,0,1.53a8,8,0,0,1,0,1.53c-.18.73-.54.74-.77,1.52a1.94,1.94,0,0,0,0,1.53c.47.64,1.5,0,2.29.76.45.4.32.76.77,1.53a4.58,4.58,0,0,0,1.52,1.53,58.12,58.12,0,0,0,6.11,6.1A14.26,14.26,0,0,1,519,92.5c1.47,2.15.85,2.87,2.3,5.34a25.59,25.59,0,0,0,3.81,4.58c.82.87,1.67,1.2,2.29,2.29a6.89,6.89,0,0,1,.77,3.05c.16,1.63.87,3.12,2.29,6.11,2,4.29,2.79,3.63,4.58,7.63,1.21,2.72,1,3.33,2.29,5.35,1,1.53,1.81,2.27,1.52,3.05-.41,1.14-2.57.59-3.81,2.29a4.84,4.84,0,0,0-.77,2.29,24.22,24.22,0,0,0,0,3.82c0,.66,0,1.2,0,1.52l-6.87.77-.35-1.4-.41-1.66c-.6.66-1.64,1.78-3,3.06-4.35,3.92-7.2,4.86-7.64,7.63a23.31,23.31,0,0,0,0,3.05c.07,2.5.25,3,0,3.82a5.67,5.67,0,0,1-3,3c-3.94,2.05-10.39-.57-16-2.29C483.34,151.74,480.3,154.56,473.18,149.75Z"/><path class="cls-7" d="M86.93,58.15a16.2,16.2,0,0,0,0,2.44,25.41,25.41,0,0,0,0,2.9c.42,2.12,3.52,3.4,5.34,3.82,3,.69,7.34.07,8.4-2.29.33-.74.22-1.76,0-3.82s-.33-3.12-.76-3.82C97.72,53.87,87.74,55.31,86.93,58.15Z"/><path class="cls-8" d="M493,88.68a27.85,27.85,0,0,1-3-4.58c-1.12-2.2-.92-2.79-.77-3a2.08,2.08,0,0,1,2.29-.77c.88.29,1.13,1.2,2.29,3.82,1.57,3.52,2,3.77,2.29,3.82.83.1,1.19-1.13,3.06-3.06,1.26-1.29,3.47-3.58,5.34-3A2.15,2.15,0,0,1,506,83.34c.24,1.34-1.56,2.69-3.06,3.81-2.88,2.16-4.29,2-5.34,3.82a7.83,7.83,0,0,0-.76,3,28.85,28.85,0,0,0,0,6.11c0,3.05-1.52,5.11-3.06,7.63-3.41,5.61-1.72,5.16-6.87,15.27-6.32,12.43-7.36,10.17-10.68,18.32-.95,2.33-2.39,6.26-3.82,6.11-.77-.08-1.34-1.33-1.53-2.29-.62-3.3,2.78-6.09,6.11-9.93a61.17,61.17,0,0,0,7.63-11.45c5-8.86,3.79-11.43,8.4-18.32a17.65,17.65,0,0,0,2.29-4.58c.45-1.38,1.82-5.58,0-9.16C495.26,91.61,494.52,90.63,493,88.68Z"/><path class="cls-9" d="M63.26,168.83c.27,1.21,2,1.82,5.35,3,5.57,2,10,2.17,16,2.29,14.92.32,18.1.21,21.37,0,7.64-.47,11.48-.74,12.22-2.29,1.84-3.85-6.45-14.17-16.8-17.55C83.69,148.52,62.15,163.79,63.26,168.83Z"/><path class="cls-4" d="M76.24,165.78c-.62,3.63-.24,4.83,0,12.21.47,14.33-.73,17.52,0,31.3.23,4.38.56,7.89.77,9.92.15.11,2.71,1.87,5.34.77s2.88-5,3.05-6.87c.65-7,2.12-25.83,3.82-51.15a5.63,5.63,0,0,1,6.87-2.29,5.46,5.46,0,0,1,3,4.58,216,216,0,0,1,3.06,22.9c.36,4.68.35,6.51.76,9.93a78.16,78.16,0,0,0,6.11,22.13,16.4,16.4,0,0,0,4.58,0c1.33-.19,3.48-.67,3.48-.67s.23,0,.33-.09c.76-.32-.76-3.82-.76-3.82-1.94-4.44-2.12-17-2.29-28.24-.09-5.89.06-4.94,0-16-.09-15.17-.37-16.66-1.53-18.32-5.19-7.46-21.47-9-29.77-1.53C78.09,155,76.89,162,76.24,165.78Z"/><path class="cls-10" d="M85.4,52.8a11.4,11.4,0,0,0,2.29,7.64c.86,1.09,2.89,3.7,6.11,3.81s5.22-2.12,6.11-3a12.16,12.16,0,0,0,3-6.87c.39-2.39.87-5.36-.76-7.63-2.65-3.69-9.84-4.2-13.74-.77A10.06,10.06,0,0,0,85.4,52.8Z"/><path class="cls-11" d="M86.17,47.46a4.24,4.24,0,0,0-1.53,2.29c-.09.27-.27.57-.57,1.2-.44.9-.75,1.45-1,1.85-1,1.84-1.45,2.75-1.52,3.82a4.57,4.57,0,0,0,.76,3.05c.74,1,2.19,2,3.05,1.53.38-.19.58-.62.77-1.53a13.61,13.61,0,0,0,0-4.58,8.65,8.65,0,0,1,2.29-6.87c1.47-1.34,3.28-1.41,6.1-1.52s5.48-.23,6.87,1.52c.86,1.08.82,2.38.77,4.58-.08,2.75-.83,3.75-.77,6.87,0,2.52.55,2.93.77,3.06,1,.6,2.84-.31,3.81-1.53,1.26-1.58,1-3.6.77-5.34a13.65,13.65,0,0,0-3.82-8.4c-4.16-4-10-4-12.21-3.05a16.55,16.55,0,0,0-1.53.76A18.41,18.41,0,0,0,86.17,47.46Z"/><path class="cls-12" d="M120.52,99.37v9.16c1.6-.31,2.9-.62,3.77-.84,4-1,7.36-1.89,10.37-4.16a16.22,16.22,0,0,0,1.89-1.67Z"/><path class="cls-12" d="M53.65,102.49l.23.27c1.38.88,2.83,1.77,4.35,2.64,2.52,1.46,5,2.75,7.32,3.89v-7.77a10.09,10.09,0,0,1-3.66-1,10.51,10.51,0,0,1-2.75-2H51.81A9.19,9.19,0,0,0,53.65,102.49Z"/><path class="cls-10" d="M164,105.47c.38.59,1.72-.12,3.81,0a8.31,8.31,0,0,1,3.06.77c.32.15,1,.61,2.29,1.52a21.47,21.47,0,0,0,2.29,1.53c.76.41.8.34,1.52.76.88.52,1.33.91,1.53.77s.09-.52,0-.77c-.3-.81-1.22-.73-1.53-1.52,0-.07-.19-.51,0-.77s1.12-.12,1.53,0a3.81,3.81,0,0,1,1.53.77c.95.79.93,1.4,1.52,1.52a1.61,1.61,0,0,0,1.53-.76,2.52,2.52,0,0,0,0-2.29c-.43-1-1.12-1.26-3.82-3a21.73,21.73,0,0,0-2.29-1.53c-1.69-.8-2.94-.64-4.58-.76-4.76-.36-6.53-2.56-7.63-1.53-.75.7,0,1.75-.76,4.58A.88.88,0,0,0,164,105.47Z"/><path class="cls-10" d="M19,97.84a14.47,14.47,0,0,0-2.29,0,16,16,0,0,0-5.34,1.53c-4,1.77-6,2.66-7.64,4.58s-2.95,4.7-2.29,5.34c.41.39,1.45-.06,3.06-.76,2.58-1.13,4.4-2.51,4.58-2.29s-1,1.12-.77,1.52,1.41,0,1.53,0c2-.56,2.62-2,3.82-3.05,3-2.56,7,.23,9.16-2.29a3.09,3.09,0,0,0,.76-3C23,98.16,20.81,98,19,97.84Z"/><path class="cls-6" d="M51.05,97.84a36.17,36.17,0,0,0,3.82,3.82,36.92,36.92,0,0,0,9.92,6.1v3.06a26,26,0,0,1-7.63-2.29c-2.54-1.22-5.14-2.48-6.87-5.35a11.44,11.44,0,0,1-1.53-4.58Z"/><path class="cls-6" d="M16.7,97.08A4.43,4.43,0,0,1,19,98.6c1.08,1.41.91,3.14.76,4.58a10.52,10.52,0,0,1-.76,3.06,11.29,11.29,0,0,0,1.53.76,13.45,13.45,0,0,0,6.87.76,92.3,92.3,0,0,0,19.08-4.58,74.47,74.47,0,0,0,13-6.1C61.36,95.91,62.91,94.84,64,94c0,2.49,0,6.2,0,10.69-.09,16.47-.55,24.86-.77,37.4-.11,6.44-.18,15.59,0,26.72,1.83-.21,4.46-.5,7.64-.76,8.64-.73,10.37-.4,24.43-.77,9.33-.24,12.77-.49,17.55,1.53a27.13,27.13,0,0,1,5.35,3c.76-11,1.24-20,1.52-25.95.6-12.6.73-19.56,1.53-36.64.31-6.57.58-11.92.76-15.27a56.78,56.78,0,0,0,5.35,3.82,62.34,62.34,0,0,0,13,6.11c8.85,3.18,16.79,5.74,22.9,7.63.21-1,.46-2,.77-3a38,38,0,0,1,4.58-9.93c-1.92-.73-4.54-1.76-7.64-3-11.89-5-20.58-9.47-22.9-10.69C127,79,127.63,78.29,120.52,74.94a98.34,98.34,0,0,0-19.85-6.87,14.49,14.49,0,0,1,1.86-3.26c.73-1,1.38-1.53,1.19-2.08A1.53,1.53,0,0,0,102.2,62c-1.4.1-1.58,1.92-3.06,3.06-2.61,2-7.08.22-7.63,0-1.31-.53-4.5-2.13-5.34-3.82-.08-.14-.31-.64-.77-.76a1.43,1.43,0,0,0-1.52.76c-.35.75.39,1.52,1.24,3.31a18.28,18.28,0,0,1,1,2.8l-3.06.76L77,69.6C70.73,71.17,54.38,79,53.34,79.52c-2,1-11.1,5.35-19.85,9.92-1.06.56-3.17,1.67-6.1,3.06C22.94,94.6,19.2,96.11,16.7,97.08Z"/><path class="cls-13" d="M86.17,44.41c-.73-.77,0-1.63,0-4.59-.07-4.32-1.77-5.75-.77-7.63.66-1.24,2-1.67,3.82-2.29,2.16-.71,4.52-.49,9.16,0,2.83.3,4.06.57,4.58,1.53a3,3,0,0,1,0,2.29c-.61,1.92-1.11,5.25-.76,11.45a17.44,17.44,0,0,0-7.64-1.53C90.22,43.81,87.4,45.71,86.17,44.41Z"/><path class="cls-13" d="M41.13,88.68c4,1.88,6.39,4.06,8.39,5.34,8.91,5.71,11.26,7.35,15.27,8.4a27.37,27.37,0,0,0,9.16.76,42.64,42.64,0,0,0,3.82-11.45c1.46-8.14,0-12.66,3-18.32a19.21,19.21,0,0,1,5.35-6.1A79.94,79.94,0,0,0,75.48,69.6c-5.91,1.68-10.19,3.63-22.9,9.92q-7.87,3.9-15.27,7.63A38.32,38.32,0,0,1,41.13,88.68Z"/><path class="cls-6" d="M82.35,49.75a3.53,3.53,0,0,1-2.29-3c.09-2,2.7-2.93,3-3.06,1.58-.58,2.79-.25,4.58,0h16c2-.13,2.68-.43,3.06,0,.57.68-.36,2.34-.77,3.06-.52.93-1.24,2.2-2.29,2.29s-1.55-.86-2.29-1.53c-3-2.78-9.84-2.75-13,0-.89.77-1.5,1.78-3.06,2.29A4.29,4.29,0,0,1,82.35,49.75Z"/><path class="cls-11" d="M220.51,45.93c-.52,1.08-.6,2.25-.76,4.58-.27,4.06-.51,7.54,1.53,10.69a11.68,11.68,0,0,0,6.11,4.58c5.86,1.79,12.91-1.57,13.74-5.34.35-1.61-.7-2-.77-5.35s.93-4,.77-6.1c-.27-3.31-3.19-6.32-6.11-7.64C229.58,38.9,222.63,41.61,220.51,45.93Z"/><path class="cls-13" d="M100.67,68.07a23.49,23.49,0,0,1,6.87,8.4c1.5,3.16,1.79,5.73,2.29,9.92.45,3.81,1.17,9.48,2.29,16.79a64,64,0,0,0,13-1.52c10.94-2.45,22.72-8.13,22.13-11.45-.12-.71-.84-1.24-2.29-2.29-2.59-1.88-4.4-1.8-6.87-3.06a16.5,16.5,0,0,1-4.58-3.81c-3.63-3.66-8.07-5.36-16-8.4A87.42,87.42,0,0,0,100.67,68.07Z"/><path class="cls-6" d="M119.75,108.53a28.27,28.27,0,0,0,16.8-7.64l1.52,1.53a25.63,25.63,0,0,1-4.58,4.58,27.13,27.13,0,0,1-13,5.34C120.26,111.07,120,109.8,119.75,108.53Z"/><path class="cls-14" d="M73.19,228.37c.34-2.52-.22-3.16,0-5.34.16-1.61.33-3.32,1.53-4.58,1.62-1.71,4.17-1.61,6.1-1.53,1.32.06,5.29.22,6.11,2.29.4,1-.3,1.59-.76,3.82-.4,1.91,0,2,0,6.11,0,1.39-.26,3.47-.77,7.63-.14,1.13-.23,1.78-.76,2.29-1.09,1-2.76.28-5.34,0-5.34-.58-7.55,1.58-9.17,0a4,4,0,0,1-.76-3.82c.53-1.64,2-1.68,3-3.81A8.59,8.59,0,0,0,73.19,228.37Z"/><path class="cls-14" d="M106.78,236c-1.26-1-.09-6.09,0-9.93.1-4.55-1.34-6.09,0-7.63.68-.79,1.09-.43,4.58-1.53,4-1.24,5.3-2.29,6.87-1.52a3.59,3.59,0,0,1,1.52,1.52c.64,1.19.3,2.21,0,4.58-.37,2.94-.55,4.4,0,5.35s1.23.78,3.82,2.29c2.29,1.33,3.69,2.16,4.58,3.81a6.67,6.67,0,0,1,.76,3.82,3.77,3.77,0,0,1-.76,2.29c-1.1,1.16-2.94.3-6.87,0a56.65,56.65,0,0,0-7.63,0c-1.84.12-4.76.41-5.35-.76a5.56,5.56,0,0,0-.76-1.53A4.1,4.1,0,0,0,106.78,236Z"/><path class="cls-15" d="M224.33,57.38c-.52,1,.11,1.46,0,5.29-.08,2.83-.44,3.19,0,3.87,1,1.49,3.59,1.23,8.4.77,3.23-.32,4.14-.78,4.58-1.53.24-.41.37-1,0-3.05-.53-2.94-.79-4.4-1.53-5.35C233.23,54.12,225.81,54.65,224.33,57.38Z"/><path class="cls-10" d="M167.08,42.88a6.13,6.13,0,0,0-1.53-1.53c-1.79-1.57-1.7-2.16-3.81-4.58-2.48-2.83-2.57-2-3.82-3.82-.76-1.11-1.53-2.6-3-3.05-.16,0-.65-.17-.77,0s.6.89,1.53,2.29c.33.5.92,1.39.76,1.53s-.66-.35-2.29-1.53a15.13,15.13,0,0,0-2.29-1.53,19.19,19.19,0,0,1-2.29-.76,6.75,6.75,0,0,0-1.52-.76c-.48-.14-1.37-.3-1.53,0s.95,1.26.76,1.52-.81-.28-1.52,0c-.05,0-.65.27-.77.77-.22,1,1.53,2.29,1.53,2.29a4.58,4.58,0,0,0-.76-.77c-.71-.42-2.24.17-2.29.77s1.24,1.09,3.81,2.29a20.37,20.37,0,0,1,3.06,1.52c1.25.84,2.47,2,2.29,2.29s-1.42-.44-3.82-.76c-.57-.07-2.21-.29-2.29,0s1.82,1.13,4.58,2.29c1.46.61,2.34,1,3.82,1.53,4.4,1.62,4.52,1.27,6.87,2.29,3.5,1.51,4.47,2.83,5.34,2.29S168,44.44,167.08,42.88Z"/><path class="cls-10" d="M223.57,48.22c-.92,1.57-.85,3.67-.76,6.11a9.7,9.7,0,0,0,.76,3.82,6.4,6.4,0,0,0,1.53,2.29c1.1,1,2.31,1.19,4.58,1.52,2.68.39,4,.59,5.34,0a6.53,6.53,0,0,0,3-3.05c.41-.79.75-1.82.77-4.58,0-3.81,0-5.72-.77-6.87C235.46,43.67,226,44.07,223.57,48.22Z"/><path class="cls-4" d="M211.35,136c0,.11,0,.11,0,11.45,0,0,.05,16.44,2.29,22.9a21.14,21.14,0,0,0,1.53,3.81c.83,1.27,1.78,2.09,1.53,3.06-.15.58-.59.67-.77,1.52a7.73,7.73,0,0,0,0,1.53c0,1.24,0,1.13,0,1.53.16,1.34.9,1.63.77,2.29-.17.84-1.49.88-2.29,1.52-1.8,1.44-.61,5.54,0,8.4.22,1.07.4,5.29.76,13.74.12,2.84.21,7,0,12.22a10.36,10.36,0,0,1,5.34,0,10.68,10.68,0,0,1,6.11,4.58,26.27,26.27,0,0,0,2.29-6.11c1.6-6.73-.34-10.65,0-19.85.08-2,.12-.56.77-7.63.48-5.28.58-7.5,1.52-19.85.21-2.8,1.11-5.61.77-8.4a10.31,10.31,0,0,1,.76-6.1c.21-.39.47-.78.76-.77.7,0,1.14,2.25,1.53,4.58,1.32,7.91,2,11.86,1.53,14.51a15.24,15.24,0,0,0,0,5.34,14.42,14.42,0,0,0,.76,2.29,14.57,14.57,0,0,1,.76,1.53c.36,1.2-.16,1.67,0,3.05.13,1.17.56,1.27.77,2.29a5.92,5.92,0,0,1-.77,3.82c-1.84,3.91-1.07,11.7.77,16.79,1,2.87,1.85,3.38,2.29,6.11.53,3.35-.38,4.65.76,6.11,1.68,2.13,5.51,1.68,6.87,1.52s3-.35,3.82-1.52.38-2.57,0-4.58c0,0-.23-1.19-.77-7.64-.63-7.62,2.55-13.38,1.53-17.55-.69-2.82-.76-3.06-.76-3.06a11.78,11.78,0,0,1-.77-3.05c-.06-.88.08-.9,0-1.53-.19-1.5-1.08-2.2-1.52-3.05-.87-1.67.11-3.7.76-5.35,1.25-3.15,1.37-6.65,2.29-9.92,1.76-6.27,1.33-13.52.76-22.9-.82-13.66-1.31-20.56-5.34-23.66-3.52-2.71-7.77-2.49-11.45-2.29C226.29,118.27,214.25,125.54,211.35,136Z"/><path class="cls-10" d="M293,39.06c.19-.93.71-1.27,2.29-3.05a20.64,20.64,0,0,0,3.06-3.82c1.18-2.58.22-4.62,1.52-5.34a1.42,1.42,0,0,1,1.53,0c.42.44-.1,1.49,0,1.52A20.09,20.09,0,0,0,303,25.32c1.24-2.73,1.62-3.31,2.29-3.82.89-.68,2.05-1.05,2.29-.76s-.15.66,0,.76.93-.92,1.52-.76.76.92.77,1.53c0,.42-.13.6,0,.76.3.37,1.32-.25,1.52,0s-1.38,2.14-1.52,2.29c-1.7,1.79-3.21,2.78-3.06,3.05s1.19-.36,1.53,0-.48,1.85-.76,2.29A35.29,35.29,0,0,1,303,36.77c-4.63,4.47-6.95,6.71-8.4,6.11C293.36,42.39,292.76,40.45,293,39.06Z"/><path class="cls-3" d="M316.7,36.77c-.52-1.37.11-2.18.76-5.34.13-.63.34-3,.76-7.64.26-2.79.79-5.58.77-8.39s-.33-5.7.76-6.11c.55-.21,1.21.34,1.53,0s-.5-1.44,0-2.29c.12-.21.15-.11.76-.76s.57-.73.76-.77c.49-.09.69.64,1.53.77.42.06.51-.1.76,0,.62.23.67,1.39.77,2.29.26,2.49.67,2.11.76,3.81.13,2.28-.49,3.57,0,3.82s1-.35,1.53-.76c.89-.73.88-1.17,1.52-1.53s2-.47,2.29,0-.16.88-2.29,3.82a35.55,35.55,0,0,1-2.29,3c-1.46,1.66-1.7,1.45-2.29,2.29-.48.69-.85,1.61-.76,6.87a35.28,35.28,0,0,1,0,5.34c-.28,2.45-.46,4-1.53,4.58C321.08,40.83,317.6,39.17,316.7,36.77Z"/><path class="cls-6" d="M161.74,46.7c.23-.66.75-.54,2.29-2.29,2-2.33,2.05-3.59,3.05-3.82,1.31-.3,2.28,1.65,4.58,3.82,2.52,2.37,2.81,1.39,9.16,5.34,4.68,2.91,5.28,3.91,7.63,4.58a8.65,8.65,0,0,1,3.82,1.53c.88.72,1.43,1.6,2.29,1.52.65-.06.72-.6,1.53-.76a2.55,2.55,0,0,1,2.29.76c.65.75.17,1.35.76,2.29.23.37.42.46,2.29,1.53,2.36,1.34,2.55,1.46,3,1.53,1.23.15,1.57-.37,2.29,0,1,.49.56,1.54,1.53,2.29s1.85-.11,3.82.76c.79.35,1.52.76,1.52.76,1.06.6,1.22.82,1.53.77.88-.17.79-2.16,1.53-2.29.56-.11.89,1,2.29,2.29.8.73,2,1.84,3,1.52s1.4-1.52,1.53-2.29c.21-1.24-.35-1.92,0-2.29s1.64.33,3.05.77c2.67.82,5.56.18,9.93-.77,1.11-.24,2.63-.62,3,0,.3.45-.22,1,0,2.29a2.07,2.07,0,0,0,.76,1.53,2,2,0,0,0,1.53,0,6.78,6.78,0,0,0,1.53-.76c1.11-.56,2,0,3.05,0,1.6,0,1.88-1.23,4.58-3.06a23.79,23.79,0,0,1,6.87-3c2-.58,1.84-.31,3.05-.76,1.43-.54,2.79-1.37,6.11-4.58s3.27-3.66,5.34-5.35a39.33,39.33,0,0,1,4.58-3c7.82-4.74,8.15-3.87,10.69-6.11,3.31-2.91,4.17-5.63,6.11-5.34.28,0,.52.14,3.05,2.29,2.93,2.49,3,2.75,3,3.05,0,1.51-3,1.71-6.1,4.58-1.74,1.6-1.7,2.38-3.82,5.35-2.4,3.36-3.86,4.34-6.11,6.87a45.3,45.3,0,0,0-7.63,12.21c-2,5-2.16,9.22-2.29,14.5-.24,9.46,1.47,12.71,2.29,22.9a111.87,111.87,0,0,1,0,17.56,90.19,90.19,0,0,1-9.92,8.4,88.94,88.94,0,0,1-17.56,9.92,80.72,80.72,0,0,1-13-21.37,125,125,0,0,0-12.21,22.9,119.65,119.65,0,0,1-15.27-6.87c-13.18-7.08-11-9.11-20.61-13.74a7.37,7.37,0,0,1-3.82-3.06c-1.72-3.36,1.45-6.58,3.06-13.74.65-2.92-.07-1.5.76-11.45.66-7.85,1.22-10,.76-14.5a31.54,31.54,0,0,0-1.52-7.63c-.58-1.64-2.52-6.61-11.45-14.51C167.73,52.82,160.86,49.19,161.74,46.7Z"/><path class="cls-6" d="M228.91,39.06c-.12.29-.49.61-2.29.76s-2-.08-3.05,0a6.11,6.11,0,0,0-3.82,1.53,5.81,5.81,0,0,0-1.53,3.06,3.39,3.39,0,0,0,0,2.29,3.28,3.28,0,0,0,2.29,1.52c1.51.34,2.37-.56,4.59-1.52,2.4-1.05,4.1-1.79,6.1-1.53,1.62.21,2.09.9,5.35,1.53a3.66,3.66,0,0,0,2.29,0c.92-.42.92-1.16,2.29-3.06,1.11-1.54,1.59-1.7,1.52-2.29s-.39-.8-3.05-2.29a14.42,14.42,0,0,0-3-1.53c-2.11-.07-3.65,2.15-4.58,1.53l-.77-.76-.76-.77c-.51-.56-.56-.75-.76-.76s-.63.4-.77.76C228.66,38.23,229.11,38.6,228.91,39.06Z"/><path class="cls-9" d="M314.41,138.3a18.5,18.5,0,0,0,6.1,3.81A94,94,0,0,0,332,145.93c9.8,2.11,14.7,3.16,20.61,3,7.23-.13,16.57-.3,18.32-4.58,2.2-5.35-7.74-16.51-19.08-20.61,0,0-12.15-4.38-36.64,7.64-1.18.58-2.87,1.55-3.05,3S313.26,137.21,314.41,138.3Z"/><path class="cls-16" d="M212.12,232.19c.6-2,.25-1.93.76-3.05s1-1.64.76-2.29c-.14-.37-.38-.37-.76-.77a3,3,0,0,1-.76-3.05c.26-.61.72-.73,2.29-1.53,3.17-1.62,3.22-2.19,4.58-2.29a5.19,5.19,0,0,1,3,.77,5.55,5.55,0,0,1,2.29,3.05c.52,1.57,0,2.11,0,4.58,0,1.3.16,1.16.77,5.34.57,4,.53,4.76,0,5.35-.36.38-.85.6-3.06.76-3.39.24-3.75-.16-6.11,0-2.61.18-4.69.86-6.1,0a2.21,2.21,0,0,1-.77-3.05c.41-.54.84-.31,1.53-.77S211.6,233.89,212.12,232.19Z"/><path class="cls-4" d="M328.91,135.24c-1.07,4.82-2,11.92-2.29,13.74-1.22,8.89-1,10.8-2.29,22.14-.46,4-1.12,9.53-2.29,16.79-1.2,7.43-2.29,13.75-2.29,13.75-2,11.46-2.81,15.28-.76,16.79,1.35,1,3.38.57,6.1,0,3.69-.77,5.54-1.28,6.87-3,1.22-1.61.93-3.24.77-7.64-.12-3.3,0-6.61,0-9.92,0-2.78.3-3.68,3.81-17.56,1.43-5.62,3.56-11.08,4.58-16.79a30.19,30.19,0,0,1,4.58-10.69c.76-1.07,1.85-2.41,3.06-2.29s2,1.63,2.29,2.29c4.61,9.47,5.34,15.27,5.34,15.27.81,6.39,2.14,12.71,3.05,19.08.89,6.13,2.52,12.15,3.06,18.32.45,5.17.54,10.24,3.81,12.22a5.81,5.81,0,0,0,3.82.76c2.59-.43,4-2.89,4.58-3.82s2.32-4.2.77-13.74c-.8-4.91-1.49-5.35-2.29-9.92a58.37,58.37,0,0,1-.77-12.22c.14-7.86-.17-14.65-.76-27.48-.7-15.17-1.05-22.78-4.58-32.06-2.7-7.09-7.35-19.34-14.51-19.84C342.75,98.67,332.2,120.4,328.91,135.24Z"/><path class="cls-16" d="M242.65,237.53a6.5,6.5,0,0,1-.76-4.58c.15-.82.33-.81.76-2.29a23.16,23.16,0,0,0,.77-3.81c.41-3.13.09-4.23.76-4.58s1,.31,2.29.76c2.62.94,4-.46,8.4,0,.55.06,2.23.26,2.29.76,0,.35-.73.52-1.53,1.53a2.37,2.37,0,0,0-.76,1.53c0,1.06,1.53,1.32,1.52,2.29,0,.72-.84.93-.76,1.52s1.31.57,2.29,1.53.4,1.95,1.53,3.82c.82,1.36,1.7,1.74,1.52,2.29s-1.56.71-2.29.76c-7.56.5-7,1.17-9.92.76C245.65,239.4,243.74,239.13,242.65,237.53Z"/><path class="cls-3" d="M342.65,62c-.54.23-1.33.23-1.53.77-.13.37.21.75.77,1.52,1.2,1.66.91,1.57,1.52,2.29a8.13,8.13,0,0,0,3.06,2.29c.91.36,1.09.17,5.34,0,2.59-.1,3.49-.07,4.58-.76a3.68,3.68,0,0,0,1.53-1.53c.54-1.18,0-2.18.76-3.05.38-.42.8-.51.76-.76s-1-.27-1.52-.77c-.94-.86.33-2.66,0-4.58-.5-2.9-4.22-4.43-4.58-4.58a8.42,8.42,0,0,0-7.64.77C343,55.51,344.94,61,342.65,62Z"/><path class="cls-3" d="M422,78.76c1.15-.71,1.74-.38,5.34-.77,3-.32,2.93-.59,5.35-.76,1.73-.13,1.73,0,5.34,0,3.92,0,4.29-.18,6.11,0s5.32.74,5.34,1.53c0,.52-1.44,1-3,1.52a27.3,27.3,0,0,1-3.06.77c-3.1.66-2.79.48-3.81.76-2.5.68-2.62,1.26-4.58,1.53a11.84,11.84,0,0,1-3.06,0c-1.6-.23-1.84-.65-3-.77-1.39-.14-1.85.33-3.82.77-1.8.4-4.62,1-5.34,0S420.2,79.89,422,78.76Z"/><path class="cls-1" d="M344.94,45.93c-2.13.92-3.09,3-3.82,4.58-.43,1-3.42,7-.76,10.69.56.78,1.6,1.77,2.29,1.53s.57-1.76,1.53-5.35a9.84,9.84,0,0,1,.76-2.29A6.7,6.7,0,0,1,349.52,52c4.05-.7,8.14,2.71,8.4,5.34a14.48,14.48,0,0,1,0,1.53c-.06,2.76-.39,3.47,0,3.82.62.54,2.76-.06,3.81-1.53,2.53-3.54-2.43-10.57-3.05-11.45a11.47,11.47,0,0,0-3.05-3,8.75,8.75,0,0,0-3.82-1.53,10.24,10.24,0,0,0-2.29,0A14.44,14.44,0,0,0,344.94,45.93Z"/><path class="cls-6" d="M338.83,63.49A37.54,37.54,0,0,0,342.65,65c4.08,1.37,10.12,3.4,15.27.76A11.71,11.71,0,0,0,361,63.49V65c0,6.56,0,8.06.76,8.39.57.25.85-.45,2.29-.76.35-.08,1.68-.32,4.58.76,2.71,1,2.51,1.59,4.59,2.29s2.29.07,5.34.77,3,1.34,5.34,1.52c.47,0,.46,0,3.82,0h3.05c7.46,0,7.16.06,8.4,0a41.87,41.87,0,0,0,6.87-.76c3.42-.69,3.38-1.17,6.11-1.53a49.4,49.4,0,0,1,6.87,0c3.52.12,4.09.28,4.58.77.7.7.57,1.43.76,5.34.21,4.35.43,4.64,0,5.34-.79,1.27-2.83,1.63-6.87,2.29-2.67.44-4.79.61-6.87.77-3.43.26-5.14.39-6.72.38-3.3,0-4.18-.32-5.49.38-1.86,1-1.51,2.34-3.06,3.82-3.07,2.93-9.16,2.13-13.74,1.52-3.27-.43-5.11-1.08-6.1,0s-.43,2.85,0,4.58c1.2,5,1.95,11,1.52,15.27-.45,4.4-1.85,3.6-3.05,9.92a50,50,0,0,0-.76,10.69c.16,7.4,1.59,10.31,0,11.45-1.13.81-3.18-.07-7.27-1.82-.88-.38-1.53-.7-9.53-5.05,0,0-1.06-.57-3.3-1.81s-3.47-1.92-3.57-2c-2.1-1.92-.47-5.64,0-12.21.4-5.47-.17-10.64-.76-10.69s-.75,3.51-2.29,8.4c-1.84,5.85-3,9.61-6.11,12.21-4,3.36-9,3-18.32,2.29-4.94-.36-8.93-.7-9.92-3.05-.72-1.68.8-2.77,3.05-7.63,1.43-3.09,2.73-7.92,5.34-17.56.29-1.05.51-1.88.94-3.53,2.31-8.76,2.07-8.35,2.92-11.31,1.9-6.67,2.61-7,2.25-8.82-.51-2.6-2.35-2.45-6.11-6.87-2.84-3.35-4.49-5.3-5.34-8.4s-.31-5.44-2.29-7.63a5.1,5.1,0,0,1-1.53-2.29c-.34-1.42.34-2.44.77-3.82.5-1.62.19-2.22,0-6.11-.11-2.23,0-1,0-8.68,0-5.79-.09-6.82.72-7.35,1.64-1,3.69,2,7.63,1.53,2.81-.37,4.18-2.25,5.35-1.53.64.4.71,1.25.76,3.82.12,5.44.18,8.16,0,10.69s-.31,3.23,0,4.58a12,12,0,0,0,2.29,4.58c1.65,2.08,2.3,1.56,3,3.05,1.12,2.18.06,3.94,1.53,5.34a2.66,2.66,0,0,0,1.53.77C336.44,67.41,338,65.92,338.83,63.49Z"/><path class="cls-17" d="M318.22,218.45a26,26,0,0,0-1.52,3.82c-.63,1.75-.73,2.28-1.53,4.58a23.79,23.79,0,0,1-1.53,3.81,11.44,11.44,0,0,1-2.29,3.06c-1.5,1.39-2.26,1.22-3.05,2.29s-1.44,2.88-.76,3.81,2,.49,6.1,0c5.37-.63,8.06-.95,9.93-.76,2.17.22,3.16.66,3.81,0,1-1-.26-2.84-.76-6.11-.3-2,0-2.27.76-9.92.74-7.21.58-7.93,0-8.4C325.49,213.09,320.22,215.12,318.22,218.45Z"/><path class="cls-17" d="M366.31,216.16a3.3,3.3,0,0,0,.1.66,43,43,0,0,1,.67,7c.4,7.69.61,11.54,0,14.51a2.54,2.54,0,0,0,0,1.52c1.28,3.4,11.72,1.73,13,1.53,3-.49,3.71-1,3.81-1.53.19-1-1.66-1.73-3.05-3-2.92-2.78-2.16-6.42-3.05-12.21-.22-1.41-2.14-13.25-6.11-13.74C369.49,210.55,366.24,213.58,366.31,216.16Z"/><path class="cls-17" d="M470.89,220c-.07.29-.07.38,0,5.34,0,1.47,0,2.22,0,3.05-.09,2.39-.15,3.6-.76,4.58-.84,1.36-1.56.88-2.29,2.29a13.58,13.58,0,0,0-.76,3.82c-.07.53-.08.64,0,.76.5.88,2.83-.37,6.1,0,1.83.21,1.91.69,3.82.77,1.45,0,3,.12,3.82-.77s.33-2.47,0-5.34c-.46-3.92.37-3.6,0-7.63a26.26,26.26,0,0,0-2.29-8.4c-1.24-2.67-1.94-3-2.29-3C474.36,214.91,471.59,217.35,470.89,220Z"/><path class="cls-17" d="M504.48,220c-1,2.13-.92,4.05-.76,7.63.18,4.26.89,4.32.76,7.63s-.84,4.34,0,5.35c.66.79,1.37.43,6.11.76a38,38,0,0,0,6.87,0c1.29-.12,2.13-.28,2.29-.76.22-.69-1.13-1.38-2.29-3.06a10.82,10.82,0,0,1-1.53-3.81c-.8-3-2.38-9-3-11.45-1.75-6.3-2.55-6.75-3.06-6.87C508,215,505.56,217.67,504.48,220Z"/><path class="cls-3" d="M490,63.49c-.46,1.07-.24,2.32,0,3.82.12.76.21.89.76,3a26.64,26.64,0,0,0,.76,3,6.25,6.25,0,0,0,5.35,3.06,6.65,6.65,0,0,0,3-.77,8.67,8.67,0,0,0,3.82-3.81c.46-.87,2.2-4.13.76-6.87a6.58,6.58,0,0,0-2.29-2.29,10,10,0,0,0-5.34-2.29C494.55,60.27,491,61.05,490,63.49Z"/><path class="cls-6" d="M491.5,51.28a8,8,0,0,0-4.58,2.29,6.72,6.72,0,0,0-1.52,3c-.1.41-.8,3.4.76,5.34.67.84,1.29.91,2.29,2.29.32.44.46.72.76.77.74.11,1.24-1.3,2.29-2.29s2.55-1.28,4.58-1.53c2.7-.34,3.21.63,6.87.76,2.5.09,3.78.12,4.58-.76,1.31-1.43.39-4.19,0-5.34a9.22,9.22,0,0,0-3-4.58C501.52,49,498,49.83,491.5,51.28Z"/><path class="cls-18" d="M317.46,26.85v2.29l1.53-.77a2,2,0,0,0,1.52.77,2,2,0,0,0,1.53-.77h2.29V26.08l-2.29.77a1.9,1.9,0,0,0-3.05,0Z"/><path class="cls-8" d="M538.07,155.09a1,1,0,0,0,0,.76,1.17,1.17,0,0,0,.76.77c.81.18,1.74-1,1.53-1.53S538.43,154.43,538.07,155.09Z"/></svg>