<svg id="Layer_1" data-name="Layer 1" xmlns="http://www.w3.org/2000/svg" viewBox="0 0 65.56 65.98"><defs><style>.cls-1{fill:#231f20;}</style></defs><path class="cls-1" d="M32.65,1A31.94,31.94,0,1,1,.72,32.94,31.94,31.94,0,0,1,32.65,1Zm6.49,27.23c0-2.38-1.55-3.69-6.43-3.69s-6.54,1.49-6.54,4c0,2.88,3.09,3.73,3.09,10.93,0,4.06-2.94,5.26-2.94,8.53,0,2.28,1.81,3.74,6.53,3.74,4.44,0,5.88-1.9,5.88-4.22,0-2.65-2.47-4.47-2.47-10.26C36.26,33.23,39.14,30.48,39.14,28.23ZM37.81,17.8c0-2-2.31-3.66-5.16-3.66S27.5,15.79,27.5,17.8s2.31,3.66,5.15,3.66S37.81,19.83,37.81,17.8Z"/></svg>