<svg id="Layer_1" data-name="Layer 1" xmlns="http://www.w3.org/2000/svg" viewBox="0 0 70.1 65.98"><defs><style>.cls-1{fill:#fff;}</style></defs><path class="cls-1" d="M35.06,1.06A31.93,31.93,0,1,1,3.12,33,31.93,31.93,0,0,1,35.06,1.06Zm6.47,27.23c0-2.39-1.54-3.69-6.43-3.69s-6.53,1.49-6.53,4c0,2.88,3.08,3.74,3.08,10.93,0,4.06-2.93,5.26-2.93,8.54,0,2.28,1.8,3.73,6.54,3.73,4.42,0,5.86-1.9,5.86-4.21,0-2.65-2.46-4.48-2.46-10.25C38.66,33.28,41.53,30.53,41.53,28.29ZM40.21,17.85c0-2-2.31-3.65-5.15-3.65s-5.16,1.64-5.16,3.65,2.31,3.66,5.16,3.66S40.21,19.88,40.21,17.85Z"/></svg>