<svg id="Layer_1" data-name="Layer 1" xmlns="http://www.w3.org/2000/svg" viewBox="0 0 643.63 171.66"><defs><style>.cls-1{fill:#957059;}.cls-2{fill:#f9d1c7;}.cls-3{fill:#b47862;}.cls-4{fill:none;stroke:#fff;stroke-miterlimit:10;stroke-width:1.2px;}.cls-5{fill:#3e3237;}.cls-6{fill:#ece2e0;}.cls-7{fill:#e3826c;}.cls-8{fill:#e3ac79;}.cls-9{fill:#1f2b29;}.cls-10{fill:#f4dac1;}.cls-11{fill:#2c2b30;}.cls-12{fill:#6a93a1;}.cls-13{fill:#fdfbfd;}.cls-14{fill:#f0ede1;}.cls-15{fill:#fff;}.cls-16{fill:#bf886a;}.cls-17{fill:#f2be8f;}.cls-18{fill:#274148;}.cls-19{fill:#1f3238;}.cls-20{fill:#fed9bf;}.cls-21{fill:#bd696a;}.cls-22{fill:#fffefe;}.cls-23{fill:#b27260;}.cls-24{fill:#c16048;}.cls-25{fill:#e9ae76;}.cls-26{fill:#f8d4c3;}.cls-27{fill:#ee8669;}.cls-28{fill:#e27b5c;}.cls-29{fill:#232828;}</style></defs><path class="cls-1" d="M23.39,19.64c-2.17,1.94-3.21,4.75-4.39,8-1.95,5.33-2,9.13-2.39,12-1.36,9.9-7.15,9.9-11.16,20.72C4,64.24,5.09,63.35,3.06,86.2c-.92,10.39-1.27,11.93-1.2,16.74a62.46,62.46,0,0,0,2.79,19.52c2,6,4.38,13.08,10.76,15.94a14.29,14.29,0,0,0,4.79,1.2c-.42-1.37-1-3.43-1.6-6-1-4.26-1.46-6.4-.79-6.77.85-.48,3.44,1.7,4.78,4.38s1.1,5.52.8,8.37a18.24,18.24,0,0,1-2.4,8A14.87,14.87,0,0,1,17,152a91.64,91.64,0,0,0,10.36-10c9.49-10.69,11.57-18.51,13.55-17.93s2.11,9.72-.8,17.53C37.77,147.92,34,151.92,31,155.14A58.9,58.9,0,0,1,13,167.9l65.76.4A183,183,0,0,1,46.5,125.65C39.33,112.51,10.79,60.18,32.15,30A41.2,41.2,0,0,1,42.91,19.64C42,19.23,29.72,14,23.39,19.64Z"/><path class="cls-2" d="M36.94,18.05c-3.21,1.68-5.53,5-8.77,9.56-2.44,3.45-1.47,2.95-8,15.15a42.61,42.61,0,0,0-4.39,10.36A21.42,21.42,0,0,0,15,59.89c.06,1,.31,2.38.79,5.18.6,3.46.63,3.09.8,4.39a34,34,0,0,1,.4,7.17c-.11,1.69-.35,2.85.4,4,.55.84,1.08.82,1.59,1.59.95,1.41.31,3.19,0,4.78-.52,2.69-.13,4.79.4,7.58.29,1.53,1.39,4,3.59,8.76,1.14,2.5,1.65,3.54,2.79,6,.69,1.48,2.77,5.94,4,8.77a107.73,107.73,0,0,1,5.18,15.14,76.84,76.84,0,0,0,4,12c.87,2,1.5,3.23,2.79,4,3.08,1.82,7.43-.37,10-1.6,15.19-7.4,7.75-1.57,21.12-9.17,16.1-9.13,24.19-13.84,26.71-21.12a23.65,23.65,0,0,0,.79-11.16C97.2,81.19,93,47.4,66,27.21,62.4,24.5,46.84,12.85,36.94,18.05Z"/><path class="cls-3" d="M101.1,112.5c-6.46,4.56-11.9,8.36-15.94,11.16-23,16-25.95,17.33-28.3,18.33-7.42,3.16-14.59,4.89-14.34,6.78.09.71,1.19,1.14,4.38,2,9.88,2.64,10.92,1.6,14.74,3.19A22.71,22.71,0,0,1,72.8,164.71a20.53,20.53,0,0,1,1.6,4.78l57-.8q.6-24.9,1.19-49.81Z"/><path class="cls-4" d="M64.24,43a16.65,16.65,0,0,0-10.37,1.59"/><path class="cls-4" d="M37.33,40.37a12.48,12.48,0,0,0-3.18,5.18,16.37,16.37,0,0,0-.4,10c.64,2.32,1.52,5.46,4.38,7.17,3.54,2.13,8.1.86,10.76-.79,5.69-3.55,7-11.55,5.18-17.14-.48-1.52-1.78-5.58-5.58-7.17C44.39,35.85,39.8,38,37.33,40.37Z"/><path class="cls-1" d="M36.79,19.76a21.29,21.29,0,0,1,2.14,3,21.23,21.23,0,0,1,2.79,9.22C42,36,39.9,36.8,38.93,41.58c-.87,4.27.08,7.73,2,14.67,1.24,4.48,2.54,9.21,6,14.24a62.66,62.66,0,0,0,6.77,8c4.19,4.31,6.09,5.3,7.18,8.38.84,2.39.56,4.39,0,8.38a36.89,36.89,0,0,1-6.34,16.4,30.72,30.72,0,0,1-3.63,4.13,29,29,0,0,1-6.37,4.61c1.88-.5,16-4.47,20.72-17.6.64-1.77,3.89-10.75,0-17.18-1.43-2.37-2.53-2.24-7.17-7.12a53.24,53.24,0,0,1-7.18-8.8C48,65,47.07,61.06,45.3,53.73c-1.59-6.62-2.38-9.93-2-13.83.32-3.11,1.41-6.17,3.59-12.15,1.55-4.27,3-7.73,4-10.06a20,20,0,0,0,3.59,5.45c2.63,2.8,4.41,2.95,6,5.45,1.34,2.12,1.44,4.22,1.59,7.12.2,3.93-.51,6.91-1.59,11.32-1.3,5.26-1.93,5.63-2.39,9.22a23.42,23.42,0,0,0,0,8c.64,3.29,2,5.45,4.38,9.22C66.06,79.11,68,80,68.82,83.49a33.69,33.69,0,0,1,.81,5.84c0,.69,0,1.48,0,2.54a47.1,47.1,0,0,1-2.4,13.41,25.68,25.68,0,0,1-2.11,4.65c-.47.8-.9,1.43-1.06,1.66a26.81,26.81,0,0,1-2,2.49,27.79,27.79,0,0,1-8.37,5.45,11.69,11.69,0,0,0,5.58-.42c8.72-3,13.81-17.5,13.16-36A35.93,35.93,0,0,1,74,92.29a36.43,36.43,0,0,1-2.79,15.5A35.53,35.53,0,0,1,65.58,117a34.1,34.1,0,0,1-4.73,4.62c6.33-3.59,9.46-7.73,11.16-10.89,2.73-5.11,2.59-9.28,6.77-21.38.81-2.32,1.52-4.21,2-5.45a15.68,15.68,0,0,1,2.4,5.45,18,18,0,0,1-.8,9.64c-.17.54-1.93,6.08-5.58,9.64-5.63,5.48-15.66,6.16-25.11,1.68A21.23,21.23,0,0,0,64,118.69c1.92.41,6.22,1.32,10.36-.84,3-1.6,3.73-3.68,8.37-8.8a79.12,79.12,0,0,1,6.37-6.29,22,22,0,0,0,2,6.71c2.28,4.71,5,5.73,4.78,8.38-.24,3.07-4.18,5.81-5.58,5s-.42-4.56-.8-4.61-2,3.47-.79,5.87c1.48,2.91,6.73,3.2,10.36,2.09,3.21-1,5.47-3.15,9.16-6.7s4.72-5.43,6-5c1,.31,1.06,1.74,2.39,8s1.7,6.85,1.2,8.38a8.66,8.66,0,0,1-6.38,5.45c-1.1.21-2.49.2-12.35-4.19l-2.79-1.26c3.72,5.06,6.48,9.41,8.37,12.57,3.49,5.85,4.86,9,8,9.64,2.42.48,4.55-.86,7.17-2.51a25.69,25.69,0,0,0,7.57-8c.47-.76,1.18-1.92,2-3.36,5.43-9.61,13.1-27.43,11.79-63.53-1-26.54-1.45-39.81-8.21-49.2C118,5.66,89.55,4.11,80.29,3.6c-26.44-1.44-46.2,9.81-54.07,14.91Z"/><path class="cls-5" d="M51.68,102.94c-.3-.78-1.68-.08-4-1.2S45.4,99.42,43.31,99c-1.09-.25-1.26.48-2.79.4s-2.2-.78-2.79-.4c-.86.56-.1,2.31-1.19,3.19a2.22,2.22,0,0,1-1.2.4c-2.88.37-4.52-1-5.18-.4-.45.42.09,1.88,1.2,4.78a43.35,43.35,0,0,0,2,4.38c1.29,2.5,1.65,2.73,2,2.79s.88,0,3.59-2.39a24.09,24.09,0,0,1,2.79-2.39c1.68-1,2.57-.64,4.38-1.19C49.41,107.1,52.15,104.13,51.68,102.94Z"/><path class="cls-6" d="M33.75,97.36c-1.94.35-3,2.35-3.19,2.79s-1,1.93-.4,2.79c.32.45.71.29,1.2.79.86.9.4,2.34.79,2.39s.61-1,2-2.39a4.84,4.84,0,0,1,1.59-1.19,5.86,5.86,0,0,1,1.59-.4c2-.34,3.89-2.36,3.59-3.19-.18-.51-1.08-.24-3.59-.8C35,97.63,34.77,97.17,33.75,97.36Z"/><path class="cls-7" d="M34.54,93.37a7.36,7.36,0,0,0-4,.8,8.06,8.06,0,0,0-3.19,4.38,10.07,10.07,0,0,0-.8,4.39c.15,2.39,1.17,2.72,4,8,.12.22.89,3,2.43,4.07a1.69,1.69,0,0,0,.76.31c1.23.15,2.25-1.38,2.39-1.59a25.86,25.86,0,0,1-1.6-2.4,36.67,36.67,0,0,1-2-4.38c-1.67-3.84-2.18-4.06-2-5.18a4.26,4.26,0,0,1,4-3.59c1.87-.2,2.45.46,4.79.8,2.1.31,2.41-.12,4,.4a24.21,24.21,0,0,1,2.39,1.19,14,14,0,0,0,4.79,1.6,10.79,10.79,0,0,0,2,0A19.74,19.74,0,0,0,49.29,99a23.86,23.86,0,0,0-6.77-3.59C39.53,94.17,37.43,93.36,34.54,93.37Z"/><path class="cls-7" d="M31.36,118.88a3.08,3.08,0,0,0,1.19,2.79c1.18.69,2.77-.14,4-.8,1.69-.91,3-2.35,5.58-5.18,3.67-4,3.72-4.13,4.38-4.78a47.58,47.58,0,0,0,3.59-3.59,18.62,18.62,0,0,0,2.79-4.78,16.58,16.58,0,0,1-3.19,3.19c-1.74,1.3-2.62,1.4-6,3.18-1.1.59-2.33,1.32-4.78,2.79a28.06,28.06,0,0,0-5.18,3.59C31.6,117.28,31.39,118.32,31.36,118.88Z"/><path class="cls-5" d="M31,77.43a11.25,11.25,0,0,0-4,2c-.91.62-1.71,1.17-1.59,1.6s1.59.8,2.79.39,1.14-1.18,2.39-1.59a5.71,5.71,0,0,1,2.79,0c1.15.21,1.33.49,2,.4,1-.14,2.08-1,2-1.6C37.19,77.59,33.79,76.79,31,77.43Z"/><path class="cls-5" d="M25.78,87.39c-1.07-.63-1.34-2.3-.8-2.79s1.87.27,2.79.8c.56.32.75.54.8.8.08.5-.45,1-.8,1.19A2,2,0,0,1,25.78,87.39Z"/><path class="cls-4" d="M34.15,56.71a9.12,9.12,0,0,0-4.79,0c-4.38,1.21-6.14,5.39-6.37,6"/><path class="cls-4" d="M22,59.69c-1-2-3.12-4.11-5.58-4.38C12,54.82,8.47,60.5,7.24,63.68a16.36,16.36,0,0,0,0,10.76c.64,2.2,1.58,5.44,4.39,6.78,1.51.72,3.91,1,4.78,0,.29-.34.28-.68.4-1.6.17-1.34.53-2.66.8-4,.5-2.54.76-3.81,1.59-5.19,1.1-1.79,1.9-1.67,2.79-3.58a8.48,8.48,0,0,0,.8-3.19A8.34,8.34,0,0,0,22,59.69Z"/><path class="cls-8" d="M523.79,91.92A36.65,36.65,0,0,0,533.22,72c1-6.42-.22-8.26,0-13.57.09-2.37.51-12.73,8-21.2,2.83-3.2,9.72-11,19.79-10.17,5.36.42,7.41,3.36,17,11.87,20,17.84,29.66,21.48,33,33.5a64.28,64.28,0,0,1,1.41,7.21c.78,5.08,1.93,12.69.48,20.35-1.39,7.26-4.65,12.11-8.49,17.81-6.07,9-11.9,17.67-23.56,22.89-2.62,1.17-15.91,6.81-28.75,3.39C534.15,139.3,521,117.91,523.79,91.92Z"/><path class="cls-9" d="M486.75,160.08c4-.79,7.47-1.63,10.37-2.39,10.05-2.65,14.16-4.69,22.31-5.58,6.62-.72,9.05.06,10,.4,5.44,2,7,6.24,9.56,8.77,11.35,11.13,46.5-7.41,70.54-7.58a72.51,72.51,0,0,1,26.7,4.79c.83.31,1.52.59,2,.79V170l-150.65.8C487.28,167.25,487,163.67,486.75,160.08Z"/><path class="cls-10" d="M533,146.93c-3.86,3.84-1.69,13.38-1.19,15.54a31.12,31.12,0,0,0,2.39,6.78l74.52,1.19q-3.78-14.34-7.57-28.69c-26.51,9.28-42.84,8.16-53,5.18C545,146,536.72,143.22,533,146.93Z"/><path class="cls-11" d="M629,149.72c-.86-1-2.86.19-3.59-.8s1.16-2.68,1.6-6c.12-.95.59-4.47-1.6-6.37s-5.56-.93-6-.8a37.57,37.57,0,0,1-5.19-6c-2.62-3.76-4.69-6.72-4-9.56s3.31-2.31,6.77-6c2.71-2.86,1.59-3.68,6.38-14,1.88-4,2.63-5.16,2.79-7.57.19-3-.75-4.4-1.59-8-.55-2.32-.64-5.43-.8-11.56-.33-12.61.44-11.38,0-14.35-1.3-8.76-6.63-15.25-12.75-22.71-2.31-2.82-4.78-5.43-7.18-8-4.81-5.1-7.21-7.65-9.16-9.17-2.94-2.28-6.29-3.45-29.1-3.19-17.73.21-21.8,1-26.3,2.79a48.1,48.1,0,0,0-11.56,6.78,52.33,52.33,0,0,0-16.74,24.31S505,62,504.29,71.61a18.06,18.06,0,0,0,.8,8c.93,2.56,1.81,2.83,2.39,5.18.77,3.17-.5,4.11-.4,8a19.81,19.81,0,0,0,2.39,8.77c1.36,2.46,2.46,3.06,4.78,7.17a17.94,17.94,0,0,1,1.6,3.19c1.06,3.45-.4,6.58-1.6,9.56-4.39,10.9-2.24,12-5.58,15.94a19.51,19.51,0,0,1-9.56,6c2.65.39,4.82.64,6.37.8s2.58.24,2.79.8c.33.82-.93,2.5-2.39,2.79-1.07.21-1.67-.44-2.39,0a2.13,2.13,0,0,0-.8,2c.06.47.34,1.46,3.59,3.19a19.21,19.21,0,0,0,6.38,2.39c.59.1,1.71.26,6.37,0,6.21-.34,8.09-.84,10.37.4a8.06,8.06,0,0,1,2.39,2q2-6.18,4-12.35a33.74,33.74,0,0,0,6.38,10,30.33,30.33,0,0,0,14.75,9.16c7.47,1.92,13.54.11,17.93-1.19a44.17,44.17,0,0,0,25.11-19.93,44,44,0,0,0,1.19,7.57,25.05,25.05,0,0,0,2.79,7.58c1.24,2,2.55,4.21,5.18,5.58,4.56,2.35,9.42.38,10.37,0a15.18,15.18,0,0,0,6.37-5.18C627.49,156.78,630.7,151.75,629,149.72Zm-47-14.35c-.93,2.65-3.58,5.71-6.37,5.58-1.14,0-2.17-.62-7.18-6.77-2.51-3.09-3.88-4.56-4.38-5.58s-3.73-7.62-.4-11.16c2.57-2.74,7.79-2.38,10.36-.4a21.17,21.17,0,0,1,3.19,3.59,30.38,30.38,0,0,1,2,2.79,20.49,20.49,0,0,1,2.39,4.78C582.13,129.84,583,132.53,582,135.37Zm21.52-31.88c-.25,1.06-1.23,3.49-3.18,8.37-2.73,6.79-3.33,7.63-4,8.37-2.35,2.65-3.4,1.74-7.17,5.18-2.93,2.67-3.93,4.71-5.18,4.38-.78-.2-1.08-1.16-2-4-1.47-4.54-2.21-6.8-2.39-7.18-.66-1.34-2.84-3.17-7.17-6.77-4.66-3.87-5.74-4.42-7.18-4.39a7.76,7.76,0,0,0-4.78,2c-.89.82-.76,1.15-1.59,2-1.44,1.46-2.94,1.6-5.58,2.39-4.72,1.42-4.13,2.24-6.38,2.39s-3.87-.56-7.17-2a20.62,20.62,0,0,1-5.58-3.19,14.89,14.89,0,0,1-4-4.78c-1-1.9-1.19-3.49-1.59-6.38a33.81,33.81,0,0,1-.4-6.37c.33-4.84,3-6.23,5.58-11.56,2-4.16.61-3.7,4-16.74,2.15-8.33,2.42-7.32,2.79-10.36.57-4.79,0-8.13,2.39-11.16a9.85,9.85,0,0,1,3.58-2.79,124.88,124.88,0,0,1,.8,15.54,122.34,122.34,0,0,1-.8,12.76,56,56,0,0,0,2.79-8.77,57.7,57.7,0,0,0,1.2-18.34,47.18,47.18,0,0,1,1.19,9.57c0,.69,0,2-.05,3.53a48.53,48.53,0,0,1-1.94,11.22,24.77,24.77,0,0,0,4-8.77,30.89,30.89,0,0,0,0-12.36c-.82-4.16-1.84-4.95-1.2-6.77,1.25-3.56,7-6.08,10.36-4.39,1,.54,1.73,1.44,4.39,11.16,1.2,4.43,1.63,6.31,2.79,10,1.93,6.09,2.89,7.57,4,8.76a15,15,0,0,0,6.38,4c5.61,1.89,8.4-.63,12,2,1.19.88,1.82,1.85,3.59,2.39,2.09.64,3.1-.33,4.39.4s2.4,2.25,3.18,6.78c.66,3.8.48,6,.4,11.16C603.78,100,604.27,100.38,603.52,103.49Z"/><path class="cls-12" d="M537.37,128.2l-21.52-16.34-12,4.38-4.38,10.36L533,133.78Z"/><path class="cls-13" d="M523,125.41c4-2.49,3.94-2.67,5.18-3.19a17.17,17.17,0,0,1,8-1.2,16.86,16.86,0,0,1,3.19-2.39c3.12-1.79,8.95-3.78,12.75-1.59,6.37,3.65,5.35,18,0,21.12-3,1.78-5-1.45-12.75-.8-5.83.5-7,2.53-12.35,2-2-.2-5.81-.64-8.37-3.59-.47-.54-2.71-3.12-2-5.58C517,128.87,518,128.58,523,125.41Z"/><path class="cls-11" d="M537,70.41c1.36-1.19,2.27-2.53,4.38-3.19,1.66-.52,3.06-.31,5.18,0a57.49,57.49,0,0,1,6.78,1.6c1.81.53,2.57.83,3.19.4,1-.68,1-2.71.4-4-1.7-3.66-9.44-3.24-10.37-3.19-9.64.52-16.38,8.77-18.73,12C532.53,73.5,535.3,71.88,537,70.41Z"/><path class="cls-12" d="M542.15,117a11.16,11.16,0,0,1,9.17,1.19A10.89,10.89,0,0,1,555.7,129c-.86,5-5.42,9-11.16,9.56a36,36,0,0,0,10,.4c5.4-.54,13.87-1.39,17.94-8,2.71-4.39,3.29-11,.4-15.15C568.35,109.43,554.81,108,542.15,117Z"/><path class="cls-11" d="M576.82,69.22c-.44-1,1.44-2.93,3.19-4,2.09-1.26,4.57-1.59,9.57-.8a56.25,56.25,0,0,1,13.55,4,69.44,69.44,0,0,0-14.35,0C582.16,69.1,577.44,70.55,576.82,69.22Z"/><path class="cls-12" d="M486.75,108.67c1.82.37,4.74,1,8.37,1.59,7,1.24,8.22,1.25,10,2.4,4.5,3,6.58,9.78,4.78,11.55-1.53,1.51-4.95-1.47-12.36-2.39a34.18,34.18,0,0,0-10.76.4Z"/><path class="cls-11" d="M572.44,106.28c-1.24.63-3.25-.84-3.19-2s2.55-2.41,3.59-1.6A2.48,2.48,0,0,1,572.44,106.28Z"/><path class="cls-11" d="M563.27,105.88c.68-1.52-1-3.71-2.39-3.59-.8.08-1.38.95-1.59,1.6a2.57,2.57,0,0,0,1.19,3.19A2.34,2.34,0,0,0,563.27,105.88Z"/><path class="cls-14" d="M442.49,134.54c4.87,1.39,15.24,5.16,22.72,15.14a39.54,39.54,0,0,1,4.78,8.37v12.36H404.63Z"/><path class="cls-15" d="M417.78,169.21a45.87,45.87,0,0,0,5.58-5.58,49.68,49.68,0,0,0,10.76-23.91l-23.51,29.89Z"/><path class="cls-14" d="M317.35,163.23c5.6-4.14,10.29-5.3,13.55-5.58,3.41-.28,6.41.28,10-1.59a15.24,15.24,0,0,0,5.18-4.78c7.08-8.88,39.24-8.9,50.21,8.37a24.87,24.87,0,0,1,3.59,10l-82.9-.4Q317.16,166.23,317.35,163.23Z"/><path class="cls-15" d="M354.42,129.76c4.93-1.17,10.95,5.26,18.33,13.15,1.79,1.91,3.18,3.6,8,8.77,2.68,2.89,4.9,5.23,6.38,6.77l-12,10.76-33.08,1.2a97.27,97.27,0,0,1,3.59-23.91C348.2,137.43,350,130.79,354.42,129.76Z"/><path class="cls-16" d="M367.17,138.53c.32,1.41,2,3.1,4.78,6,4.51,4.61,6.92,4.94,11.56,10,2.09,2.27,2,2.61,3.59,4,3.34,2.85,5.51,2.8,7.57,5.18a10.71,10.71,0,0,1,2.39,6H413.8l14.34-64.16C378,124.67,366.11,133.85,367.17,138.53Z"/><path class="cls-17" d="M343.26,64.4a11.3,11.3,0,0,0-.8,4c0,2.7,1,3.66,1.2,6,.17,2.52-.89,3.73-1.6,6-.94,3-.54,5.6.8,11.16a161.62,161.62,0,0,0,6,20.72c4.05,11.11,3.7,7.11,8,18.33,1.17,3.08,2.1,5.76,4.78,8,3.69,3,8.23,3.16,10.36,3.18,4.71.06,8.45-1.26,25.11-11.16,10.19-6,11.78-7.33,13.55-9.16A40.86,40.86,0,0,0,419.38,107c5.1-13.22,3.37-25.24,2.39-31.48a73.73,73.73,0,0,0-14.35-33.08c-5.57-7.23-9.48-12.29-16.74-15.15-13-5.09-30-.55-37.86,9.57C347.12,44.25,347.15,53.47,343.26,64.4Z"/><path class="cls-18" d="M355.61,107a14.56,14.56,0,0,1,5.18,6.38c.68,1.73.61,2.72,1.6,3.58.46.41,2,1.51,7.57,0a27.75,27.75,0,0,0,11.56-5.58c3.27-2.7,7.54-6.23,6.77-9.16-1.16-4.4-12.88-4.39-18.33-4.39-8.43,0-10.83,1.94-12,3.19A10.34,10.34,0,0,0,355.61,107Z"/><path class="cls-19" d="M389.89,30.92c2.55,1.12,1.88,6.1,2.79,12.36.61,4.26,1.06,2.83,4.38,13.94,3.08,10.31,3.05,12.71,6,17.14,1.87,2.84,3.43,5.12,6.37,6.38,4,1.72,7,0,9.17,2,1.88,1.78,1.54,4.9,1.2,8-.64,5.79-2.67,6.86-5.58,16.34a41.19,41.19,0,0,0-1.2,9.17c-.1,2-.06,3.49.8,4,1.41.82,3.64-1.89,4.78-1.19s0,3.36-.8,8.37c-.91,6,0,6.59-1.19,10.36-1.09,3.49-2,3.44-2.79,6.77-.23.94-.39,1.92-.4,8,0,7.32.23,9.12,1.19,11.16.53,1.11,1.74,3.66,3.19,3.59,1.7-.08,2.85-3.66,4-7.17,1.49-4.64,2.12-8.81,2.39-8.77s-.78,4.09,1.2,8c.43.85,1.33,2.62,2.78,2.79,1.25.15,1.84-1,4-2.39,2.31-1.51,2.68-.87,5.58-2.39a47.72,47.72,0,0,0,5.58-4,39.73,39.73,0,0,0,4.38-3.59,16.48,16.48,0,0,0,3.59-6.77,20.7,20.7,0,0,0,.4-6.78c-.22-3.6-1-5.2,0-7.57.56-1.35,1.52-2.54,2-2.39s0,1.63.8,3.19c.69,1.39,2.32,2.72,3.19,2.39,1.32-.51.21-4.59.39-11.16.13-4.54.7-4,1.2-10a106.12,106.12,0,0,0,0-15.94,86.54,86.54,0,0,0-.8-8.77c-1-6.54-2.93-11.43-5.58-17.54-4.89-11.3-7.34-16.94-10-21.12C430,26.64,405.72,19.39,404.23,19c-18.05-5.15-40.21-3.28-53.4,7.17-7,5.55-12.5,14.33-12.75,14.74-3.21,5.19-4.81,7.78-4.79,11.56,0,4.85,2.66,7.14,1.2,11.16-1,2.78-2.51,2.39-4,6-1.23,3-.34,3.68-1.59,8-1.19,4.07-2.26,4.41-2,6.38.24,1.72,1.17,2.17,4.38,6s4.78,5.68,5.18,7.58c.15.7.12,1-.79,7.57-.72,5.13-.77,5.49-.8,6.37-.15,4-.24,6.43,1.19,8.37,2.23,3,5.95,2,6.78,4.39.48,1.41-.67,2.12-2.39,6.37a20.79,20.79,0,0,0-2,8.37c0,1.57.07,4.91,2,6,1.41.79,3-.07,3.58.8s-.92,2.19-.39,3.19c.43.82,2,1.08,3.18.79,2.86-.69,2.78-4.64,6.38-12,2.45-5,3.8-5.8,3.59-8.37-.23-2.73-2-3.43-4-6.78-2.71-4.49-1.1-5.68-3.58-13.55-1.29-4.06-1.65-3.55-5.19-12.75a56.13,56.13,0,0,1-2.39-6.77c-.78-4.39.82-5,1.2-14.35.11-2.8.59-5.58.8-8.37.23-3.17.25-4.32,1.19-5.18,1.7-1.56,4.94-.87,7.17-.4,3.48.73,4.81,2,6,1.2,1-.69,1.19-2.41.8-3.59-.62-1.88-2.72-2.53-3.59-2.79-3.28-1-5.62.62-6,0-.6-1,5.17-6.92,8.36-5.58,1.38.58,1.1,2,3.59,4.38,1.21,1.16,2.73,2.61,4.39,2.39,2.08-.27,2.93-3,3.58-2.79.43.15.61,1.54-.4,6.78a20.81,20.81,0,0,1,11.16-5.58,26.77,26.77,0,0,1,6.38,0c5.81.62,8.34,2.56,9.17,1.59,1.11-1.3-2.35-6.26-4.39-8.76-4.06-5-6.32-5.1-7.17-8.37-.81-3.1.08-7.31,2.79-8.77A3.86,3.86,0,0,1,389.89,30.92Z"/><path class="cls-20" d="M358.8,101.46c-.57,1.31.34,2.89.8,3.59a138.9,138.9,0,0,1,19.53-.8c2.47.07,4.86.21,7.17.4a3.23,3.23,0,0,0,1.59-2c.34-1.79-1.73-3.46-2.39-4-3.79-3-7.84-.91-22.32.8C361.91,99.62,359.48,99.89,358.8,101.46Z"/><path class="cls-19" d="M365.18,88.71a1.61,1.61,0,0,1-.8-1.6c.22-1.36,2.76-1.83,3.59-2,2-.38,4.32-.11,4.38.4,0,.33-.9.46-3.19,1.59S366,89.09,365.18,88.71Z"/><path class="cls-21" d="M369.16,113c-.51-1.33,1-3,1.2-3.19,3.62-3.86,12.16-.63,12.75-.4a11.19,11.19,0,0,1-6,4.78C374.12,115.14,369.86,114.85,369.16,113Z"/><path class="cls-19" d="M360,89.9c.17-.31-2-2-2-2h0s-2.69-.34-2.79,0S359.76,90.33,360,89.9Z"/><path class="cls-22" d="M362.8,113.83c0-.06-.35-.87,0-1.09s.87.23,1.33,0,.17-.44.44-.73c.47-.49,1.37-.09,3.09-.36a12.93,12.93,0,0,1,1.77-.36c.72,0,1,.09,1.77,0a6.81,6.81,0,0,0,1.32-.37c2.08-.74,2.38-1.22,3.1-1.09s.57.57,1.32.73,1-.24,2.21-.37c.42,0,1.76-.18,2.21.37.3.36.09.87,0,1.09-.84,2-4.87,3.36-5.74,3.64-2.78.9-5.34,1.72-8.4,1.09C367,116.34,363.53,115.59,362.8,113.83Z"/><path class="cls-23" d="M386.7,98.67c-2.94-1.87-6-1.93-8.77-2-1,0-2.68.12-6,.4-2.34.2-3.68.36-6,.4a27.79,27.79,0,0,0-2.79,0,9.5,9.5,0,0,0-6.37,3.58,8.84,8.84,0,0,0-1.6,4,5.52,5.52,0,0,0,0,2c.3,1.42,1.1,1.87,2.39,3.59a27.44,27.44,0,0,1,2.4,4,18.27,18.27,0,0,0,2,3.19,4.39,4.39,0,0,0,1.19,1.2c1.23.66,2.65,0,4-.4,3.41-1.14,3.27-.16,6.38-1.2a21.77,21.77,0,0,0,6.37-3.58,32.81,32.81,0,0,0,4.78-4.39,52.17,52.17,0,0,0,3.59-4.38c.84-1.12,1.51-2.08,2-2.79A12.11,12.11,0,0,0,386.7,98.67Zm.79,5.58c-.52,2-1.84,3.21-4.38,5.18-4.84,3.77-7.27,5.65-10,6.38a12.64,12.64,0,0,1-8,0,11.45,11.45,0,0,1-2.79-1.6A15,15,0,0,1,359.6,111a25.25,25.25,0,0,0-2-2.79c-1-1-1.47-1.26-1.59-2-.06-.35,0-.66.8-2.39a17.42,17.42,0,0,1,1.19-2.39c.23-.26,1.07-1.16,3.59-1.59a16.4,16.4,0,0,1,4.78,0c3.1.24,3-.59,8.77-1.2a34.62,34.62,0,0,1,7.57,0c2.81.32,3.79.79,4.39,1.6C388.17,101.71,387.63,103.73,387.49,104.25Z"/><path class="cls-19" d="M353.22,109.43c-1,.17-2.57-2.29-2.79-4.78-.18-2,.61-3.51,2-6,1.86-3.32,3.47-6.21,6.78-7.57,1.3-.54,2.59-.62,5.18-.8,4-.27,4.45.47,7.57,0,2.89-.43,3.41-1.19,5.18-.79,2,.45,2.05,1.59,4,2,2.45.5,3.33-1.14,5.58-.8,2.43.37,3.94,2.69,4.78,4,2.37,3.65,2.81,8.63,1.59,9.16-1,.44-2-2.6-6-5.18-4.13-2.69-8.5-3-12-3.19a31.94,31.94,0,0,0-9.56.8c-3.91,1-7.79,2-10,5.18C353.15,105.08,354.44,109.22,353.22,109.43Z"/><path class="cls-22" d="M359.2,102.66c-.35.21-.44.65-.4,3.19a9.12,9.12,0,0,0,.4,3.18c.17.5.41,1.17.8,1.2s.67-1,1.59-1.2c.32-.07.32,0,.8,0a4.14,4.14,0,0,0,2-.79c1-.68,1-1.08,1.59-1.2s1,.24,1.6.4,1.83.13,3.58-1.2a3.51,3.51,0,0,0,1.2.4,3.9,3.9,0,0,0,2.79-.79,1.9,1.9,0,0,0,.8,1.19,2.23,2.23,0,0,0,2,0c.67-.33.81-.86,1.2-.8s.3.43.79.8a1.9,1.9,0,0,0,1.2.4c.82-.07,1.07-.91,1.59-.8s.35.6.8.8c.64.28,1.52-.42,2-.8a4.58,4.58,0,0,0,1.6-2.39c0-.13.27-1,0-1.19s-1,1-1.6.79-.34-1-.8-1.19-1,.93-1.59.79-.41-1.65-1.2-2-1.23.63-2,.4c-1-.31-.82-2.22-1.59-2.39-1-.22-1.95,2.57-3.19,2.39-.76-.11-.94-1.24-1.59-1.2s-.91,1.55-1.6,1.6-1-1.84-2-2c-1.2-.19-1.87,2.4-3.59,2.39-.8,0-1.08-.57-2-.4s-.79.65-1.59.8-.89-.22-2.4-.4C359.73,102.58,359.4,102.54,359.2,102.66Z"/><path class="cls-24" d="M189.6,123.23c-.79,4.21.4,8,3.19,13.55A92.06,92.06,0,0,0,204,153.92a73.24,73.24,0,0,0-2-17.53c-1.69-7.06-5.79-19.5-9.16-19.13C190.67,117.49,189.71,122.65,189.6,123.23Z"/><path class="cls-25" d="M196.37,128.42c-.1-3.61,1.07-4.19.4-6-1.72-4.58-10.57-3.79-11.16-7.18-.26-1.51,1.3-2.94,2-3.58,3.22-3,7.63-2.43,12.35-2.39a78.67,78.67,0,0,0,20.33-2.79,57.18,57.18,0,0,0,13.55-4.79c5.75-3,10.63-5.49,13.15-10.76,1.72-3.61.8-5.3,3.19-8.76,2.09-3,6.15-6.59,8.36-5.58,3.26,1.47,1.56,12.27.4,17.13s-3.24,6-3.19,9.57c.07,4.46,2.87,8,5.19,10.36l-57,40.25a69,69,0,0,0-5.19-17.14A19.71,19.71,0,0,1,196.37,128.42Z"/><path class="cls-24" d="M194.78,169.07l-45.83.79c15.43-27.1,33.28-41.4,43.44-37.46,1.83.71,7.74,3.69,10.06,19.33a65.89,65.89,0,0,1,5.48-7.37c4.56-5.3,8.55-8.48,14.75-12.76,7.64-5.27,12.81-8.8,20.72-12.75,5-2.5,9.41-4.31,12.75-5.58A23.33,23.33,0,0,0,260.54,128a21.43,21.43,0,0,0,5.18,4.78c7.22,5,13,3.92,23.91,7.17a72.42,72.42,0,0,1,11.16,4.39v23.91Z"/><path class="cls-1" d="M189.2,17.22H174.45a9.11,9.11,0,0,0-2,3.59c-.47,1.72-.26,3.15.4,6.38,1,5.09,1.3,5.23,1.59,7.17.38,2.47.12,3.16,0,8.37-.16,7.34.32,7.31,0,10.36a29.2,29.2,0,0,1-3.18,10.76c-5,9-14.29,10.49-13.55,13.95.33,1.59,2.62,2.81,4.38,2.79,2.8,0,4-3.22,5.58-2.79,1.3.36,1.51,2.72,2.39,7.18,0,0,.76,3.85,2.39,10,1.37,5.13,1.85,5.13,3.59,11.16,2.08,7.24,1.23,6.71,2.39,9.16,2.15,4.57,4.55,5.25,9.17,11.16a58.27,58.27,0,0,1,4.78,7.18Q190.8,75.42,189.2,17.22Z"/><path class="cls-26" d="M190,19.22,185.21,24h0c-2.46,3.49-2,5.23-4.38,12.35s-3.62,7.38-3.59,10.76c0,2.33.59,3.32.8,8.37a42.63,42.63,0,0,1,0,5.18c-.25,3.59-.85,4.25-1.19,7.58-.17,1.57,0,1.5,0,7.17s-.1,5.65,0,8.37a70,70,0,0,0,.79,9.17,72.42,72.42,0,0,0,2.39,10c1.74,6,2.65,9,4.39,10,1.56.88,3.85.47,8.37-.4,5.35-1,6.88-2,11.16-2.79,3.09-.59,4.23-.46,9.56-.79,9.08-.56,13.62-.84,15.94-1.6C238,104.5,241.8,93.79,244.2,87c5.71-16.27,1.66-30.94-.4-38.26-3.56-12.66-6.66-23.72-17.48-30.2C212.07,10,194.11,15.19,190,19.22Z"/><path class="cls-1" d="M193.58,78.6c-.54-1.65.07-3.78,1.2-4.39,1.28-.69,3.11.65,5.18,2,9.27,6.05,12.11,5.14,13.15,8.37,1.31,4-2,9-2.79,8.76-.58-.14.91-3.14-.4-6C207.15,81.33,195.27,83.75,193.58,78.6Z"/><path class="cls-1" d="M190.79,77.8c-.32-1.17-3.09-1.69-5.18-1.19-2.26.53-3.66,2.62-6.37,6.77-3.05,4.67-2.93,6.08-2.79,6.78.4,2,2.15,3.86,3.18,3.58s.49-2.94,1.6-6C183.58,81.31,191.36,79.86,190.79,77.8Z"/><path class="cls-1" d="M209.92,39.94a19.45,19.45,0,0,1,5.58-.4c4.26.33,7.25,2,10,3.59a38.09,38.09,0,0,1,10,8.37,29.89,29.89,0,0,1-6-2.39c-4.09-2.18-5.51-4.17-8.37-6A21.86,21.86,0,0,0,209.92,39.94Z"/><path class="cls-1" d="M192,43.53c-.21-1.34-3.31-1.94-5.18-2a11.28,11.28,0,0,0-8.37,3.59c-1.53,1.76-2.42,4.05-2,4.39s2.37-3,6-3.59c2.87-.44,4.17,1.37,6.78.4C190.62,45.79,192.15,44.54,192,43.53Z"/><path class="cls-1" d="M211.12,18.42a16,16,0,0,0,.8,10c1.59,3.65,4.2,5.6,6.37,7.18A28.54,28.54,0,0,0,233,40.74a24.78,24.78,0,0,1-10-21.52,35.1,35.1,0,0,1,6.77,8.37,42,42,0,0,1,4,10,73.43,73.43,0,0,1,2.39,11.56c1.31,10.2-.49,11.28,1.59,16.34,1.59,3.86,3.29,4.83,3.19,8-.08,2.55-1.26,3.22-3.59,8a56.87,56.87,0,0,0-4,11.16c-1.11,4.63-1.69,7.22-.4,10,1.07,2.28,3.46,4.73,5.58,4.38,1.39-.22,1.79-1.52,4-4.78C246,97,247,97.28,249,93.74a25.94,25.94,0,0,0,2.79-8c-.06-2.62,1.11-4.57,2.39-4.78,1.49-.24,3,1.87,3.59,3.59.33,1,.48,2.41-1.6,8.37-1.59,4.56-2,4.63-2.39,6.77-.45,2.46-.18,3.76,0,7.57.25,5.26-.18,5.06,0,9.57.34,8.49,1.8,8.35,1.6,14.35-.19,5.25-1.36,6.72,0,9.16.86,1.56,2.83,2.63,6.77,4.78a52.41,52.41,0,0,0,9.17,4c3.53,1.15,5.3,1.72,6.37,1.19,2.42-1.18,1.28-4.32,4.79-9.16,1.25-1.73,2-2.09,2.39-3.59.7-2.4-.47-3.58-.8-6.37-.44-3.73,1.35-4.11,2.39-10.77a24.28,24.28,0,0,0,.4-7.17c-.47-4.1-1.78-4.53-2-8-.2-3.27.94-3.62,1.59-8.37.44-3.18,0-3.52,0-9.56,0-7,.61-6.51.4-10.76-.25-5.15-1.13-5.92-1.59-11.56-.42-5,.05-7.14,0-10-.07-4-3.25-13-7.58-19.13C262.62,14.6,235,8,235,8c-29.94-7.22-60.53,4.31-60.28,9.32.06,1.13,1.73,2.72,9.95,4.35Z"/><path class="cls-27" d="M182,91c-.1-.26,1.85-1.38,4.38-2.39A22.75,22.75,0,0,1,191.59,87,21,21,0,0,1,198,87c4.22.57,9.7,2.33,9.56,3.58-.06.54-1.12.67-6,1.6-8.94,1.7-11.83,2.5-13.55.8-.7-.71-.88-1.5-2-2C184.14,90.11,182.13,91.22,182,91Z"/><path class="cls-28" d="M182,88.56c.46-1.78,1.84-2.75,3.58-4a11.28,11.28,0,0,1,5.58-2.39,9.29,9.29,0,0,1,2,0,15.46,15.46,0,0,1,5.18,1.59c4.62,1.87,6.12.9,8,2.79a6.64,6.64,0,0,1,1.59,2.79,21.94,21.94,0,0,0-6-1.6C191.86,86.6,183.7,93.14,182,91,181.56,90.34,181.82,89.34,182,88.56Z"/><path class="cls-29" d="M196,71.82c-2.06-.06-2.58,0-2.78-.4-.39-.69.64-2.37,2-2.78,2.32-.72,5.14,2.41,4.78,3.18C199.84,72.09,199.41,71.93,196,71.82Z"/><path class="cls-29" d="M188.8,71.42c.31-1.28-1.49-2.69-2.39-2.39S185,72,186,72.62A2.12,2.12,0,0,0,188.8,71.42Z"/></svg>