<svg id="Layer_1" data-name="Layer 1" xmlns="http://www.w3.org/2000/svg" viewBox="0 0 232.99 97.32"><defs><style>.cls-1{fill:#fff;}</style></defs><path class="cls-1" d="M30.39,49.61c5.83,0,7.94,4.77,7.94,9.11A11.83,11.83,0,0,1,35.17,67c-1.93,1.92-4.72,1.86-4.72,3.16,0,1.67,3.54,1.49,6,4a10.91,10.91,0,0,1,3.35,7.68c0,5.09-4,12.77-11.47,12.77-4.47,0-7.26-3.59-10.42-3.59s-3.35,3.1-8.43,3.1a3.35,3.35,0,0,1-3.41-3.47c0-1.68.93-3.47,1.36-5,.44-1.74.93-6.14.93-17,0-6,0-9.36-.93-11a6.83,6.83,0,0,1-1-3.35,3,3,0,0,1,3.16-3c2.61,0,3.66,1.74,8.19,1.74C21.15,53,24.5,49.61,30.39,49.61Zm-9.55,9.3c-2.23,0-4.27,1.67-4.27,5.33,0,2,1,4.71,3.47,4.71,3,0,4.71-2.79,4.71-5.7C24.75,61,23.45,58.91,20.84,58.91Zm-.43,24.92c1.86,0,4-1.49,4-4.71,0-1.61-1.37-5.46-4-5.46-2.11,0-3.41,3-3.41,5.83C16.94,81.6,17.93,83.83,20.41,83.83Z"/><path class="cls-1" d="M72.74,64.49C72.74,82.16,56.62,76,56.62,81.1c0,1.92,2.23,2.73,3.72,2.73,3.22,0,6.88-2.48,7.68-3.29,1.55-1.55,2.36-3,3.72-3,.75,0,1.18.55,1.18,1.36,0,8.8-7.62,12.59-14.19,12.59-11.54,0-17.49-8.93-17.49-22.26,0-12.09,5-19.59,18-19.59C68.21,49.61,72.74,54.94,72.74,64.49ZM65.48,71.8c0-2-2-2.79-3.65-2.79-3.85,0-6,2-6,4,0,1.06.87,2,2.42,2C61.64,75,65.48,74.34,65.48,71.8Z"/><path class="cls-1" d="M102.37,54.51c0,2.23-1.24,4.58-1.24,7.19a29.15,29.15,0,0,0,2.11,9.42c2.54,7.25,9,12.09,9,16.74,0,3.1-3.47,6.2-7.25,6.2-3,0-7.81-1.24-7.81-5.09,0-1.17.37-2.35.37-3.53,0-2.85-2.79-4.9-6.88-4.9-3.48,0-6.39,1.62-6.39,4.72,0,1.54.62,2.6.62,3.71,0,3.17-3.35,5.09-7,5.09-4.21,0-6.75-2.11-6.75-5.39,0-7,10.35-18.11,10.35-26.48,0-2.29-1.3-4.89-1.3-7.31,0-3.29,2.54-6.45,11.47-6.45C99.52,48.43,102.37,51.28,102.37,54.51Zm-11.09,10c-2,0-4.53,2.66-4.53,6.32,0,1.92,1.24,4.46,4,4.46,2.36,0,4-2.29,4-5C94.75,68.52,93.82,64.49,91.28,64.49Z"/><path class="cls-1" d="M133,60.15c.93,0,2.17-.31,3.23-.31s1.92.37,1.92,1.79c0,3.85-10.11,2.55-10.11,12.78,0,3.41,1.49,4.71,2.92,4.71,1.73,0,3.34-2.11,4.71-2.11s2,2.29,2,3.84c0,7.38-5.7,9.61-11.84,9.61-9.23,0-12.4-3.47-12.4-8,0-5.46,4.16-12.09,4.16-15.38,0-3.1-4.34-.81-4.34-4s7.38.62,11.16-9.67a3.93,3.93,0,0,1,3.72-3C132.94,50.85,128.79,60.15,133,60.15Z"/><path class="cls-1" d="M151.42,48.43c3.9,0,6.51,2.17,6.51,6.7,0,7.56-10.05,12.64-10.05,22.31,0,2.79,1.43,4.41,4.34,4.41,6.14,0,9.12-4.53,12-4.53,1.92,0,3.65,2.42,3.65,4.53,0,7.25-10.66,12.15-25.1,12.15-3.17,0-4.16-1.55-4.16-3.47,0-10.85,5.52-14.88,5.52-33.61C144.1,52.46,146.27,48.43,151.42,48.43Z"/><path class="cls-1" d="M200.27,64.49c0,17.67-16.12,11.53-16.12,16.61,0,1.92,2.23,2.73,3.72,2.73,3.22,0,6.88-2.48,7.69-3.29,1.55-1.55,2.36-3,3.72-3,.74,0,1.18.55,1.18,1.36,0,8.8-7.63,12.59-14.2,12.59-11.53,0-17.48-8.93-17.48-22.26,0-12.09,5-19.59,18-19.59C195.75,49.61,200.27,54.94,200.27,64.49ZM193,71.8c0-2-2-2.79-3.66-2.79-3.84,0-6,2-6,4,0,1.06.87,2,2.42,2C189.17,75,193,74.34,193,71.8Z"/><path class="cls-1" d="M230.28,57.48a2.35,2.35,0,0,1-2.17,2.6c-2.85,0-1.55-4.58-8.06-4.58a2.91,2.91,0,0,0-3.1,2.66c0,5.89,14.2,4.53,14.2,17.67,0,12-7.63,16.24-15.19,16.24-9,0-14.14-4.83-14.14-11,0-2.11,1.12-4.77,3.1-4.77s1.43,3.59,6.7,3.59A3.19,3.19,0,0,0,215,76.58c0-6.82-10.17-3.35-10.17-15.87,0-6.08,4.53-11.16,12.65-11.16C224.26,49.55,230.28,51.9,230.28,57.48Z"/><path class="cls-1" d="M111.6,5.55c4.37,0,11.11,2.27,11.11,6.75a2,2,0,0,1-2,2.1,4.45,4.45,0,0,1-2.67-1.13,8.22,8.22,0,0,0-4.53-1.42c-6.07,0-9.93,6.35-9.93,13.44,0,5.79,2.44,11.63,7.88,11.63,1.82,0,5.17-1.65,5.17-4.2,0-1.7-1.48-3.46-2.39-4.37-1.3-1.24-1.87-2.27-1.87-3.23,0-2.32,3.18-3.86,7.09-3.86s7.15,1.54,7.15,4c0,1.93-2.38,3.69-2.38,5.22,0,1.81,2.09,3.8,2.09,6.18,0,6.41-8,9.87-15.14,9.87C99.52,46.56,90.27,40,90.27,27A21.51,21.51,0,0,1,111.6,5.55Z"/><path class="cls-1" d="M173,18.21c0,17.09-15.6,11.15-15.6,16.07,0,1.86,2.16,2.64,3.6,2.64,3.12,0,6.66-2.4,7.44-3.18,1.5-1.5,2.28-2.94,3.6-2.94.72,0,1.14.54,1.14,1.32,0,8.52-7.38,12.18-13.74,12.18-11.16,0-16.92-8.64-16.92-21.53,0-11.7,4.8-19,17.4-19C168.66,3.81,173,9,173,18.21Zm-7,7.07c0-1.91-1.92-2.69-3.54-2.69-3.72,0-5.76,1.92-5.76,3.89,0,1,.84,1.92,2.34,1.92C162.3,28.4,166,27.74,166,25.28Z"/><path class="cls-1" d="M29.3,3.81c5.64,0,7.68,4.62,7.68,8.82a11.41,11.41,0,0,1-3.06,8c-1.86,1.86-4.56,1.8-4.56,3.06,0,1.61,3.42,1.43,5.82,3.83a10.56,10.56,0,0,1,3.24,7.44c0,4.92-3.9,12.36-11.1,12.36-4.32,0-7-3.48-10.08-3.48s-3.24,3-8.16,3a3.24,3.24,0,0,1-3.3-3.36c0-1.62.9-3.36,1.32-4.86.42-1.68.9-5.94.9-16.43,0-5.82,0-9.06-.9-10.62a6.59,6.59,0,0,1-1-3.24A2.92,2.92,0,0,1,9.14,5.43c2.52,0,3.54,1.68,7.92,1.68C20.36,7.11,23.6,3.81,29.3,3.81Zm-9.24,9c-2.16,0-4.14,1.62-4.14,5.16,0,2,1,4.56,3.36,4.56,2.88,0,4.56-2.7,4.56-5.52C23.84,14.85,22.58,12.81,20.06,12.81Zm-.42,24.11c1.8,0,3.84-1.44,3.84-4.56,0-1.56-1.32-5.28-3.9-5.28-2,0-3.3,2.88-3.3,5.64C16.28,34.76,17.24,36.92,19.64,36.92Z"/><path class="cls-1" d="M63.44,33.86c0,4.74-3.66,11-12,11-9,0-11.76-5.1-11.76-10.08,0-8,4.14-11.51,12.9-11.51C59,23.31,63.44,27.14,63.44,33.86ZM50.66,37c0,1.74.9,3.42,2.94,3.42,2.76,0,4.08-1.74,4.08-3.54A3.47,3.47,0,0,0,54,33.26C51.68,33.26,50.66,35.12,50.66,37Z"/><path class="cls-1" d="M88.15,33.86c0,4.74-3.66,11-12,11-9,0-11.76-5.1-11.76-10.08,0-8,4.14-11.51,12.9-11.51C83.71,23.31,88.15,27.14,88.15,33.86ZM75.37,37c0,1.74.9,3.42,2.94,3.42,2.76,0,4.08-1.74,4.08-3.54a3.47,3.47,0,0,0-3.66-3.6C76.39,33.26,75.37,35.12,75.37,37Z"/><path class="cls-1" d="M141.29,20.39c0,2.25-2.89,5-2.89,9.07,0,5.8,2.48,7.64,2.48,10.3,0,2.32-1.45,4.23-5.9,4.23-4.75,0-6.56-1.46-6.56-3.75,0-3.29,2.94-4.49,2.94-8.57,0-7.23-3.1-8.09-3.1-11,0-2.51,1.6-4,6.57-4S141.29,18,141.29,20.39Z"/><ellipse class="cls-1" cx="134.11" cy="9.91" rx="5.18" ry="3.68"/><path class="cls-1" d="M187.33,22.59l-3.1-10.4h3.1l.88,3.4c.24.93.56,2.5.69,3.36.31-1.55.56-2.75.71-3.36l.89-3.4h2.65l.92,3.4c.39,1.6.58,2.5.73,3.36.18-1.08.37-2,.67-3.36l.82-3.4h3.16l-2.95,10.4h-2.92l-1-3.64c-.3-1.25-.5-2.13-.78-3.49-.3,1.45-.56,2.59-.77,3.49l-.86,3.64Z"/><path class="cls-1" d="M204.09,10.75H201V8.23h3.06Zm0,11.84H201V12.19h3.06Z"/><path class="cls-1" d="M212.05,14.47h-1.87v4c0,1.64.07,1.77.78,1.77h1.09v2.3h-1.87c-1.33,0-2-.19-2.45-.69s-.61-1.08-.61-2.69V14.47h-1.46V12.32h1.46V9h3.06v3.29h1.87Z"/><path class="cls-1" d="M217.18,13.07a3.74,3.74,0,0,1,2.76-1.16A3.56,3.56,0,0,1,222.61,13a4.3,4.3,0,0,1,.92,3.17v6.39h-3.06V16.76a2.72,2.72,0,0,0-.34-1.73,1.48,1.48,0,0,0-1.21-.54,1.92,1.92,0,0,0-1.33.52c-.35.37-.41.67-.41,1.75v5.83h-3.06V8.23h3.06Z"/><path class="cls-1" d="M195.35,33.74h-1.87v4c0,1.64.06,1.76.77,1.76h1.1v2.31h-1.87c-1.33,0-2-.2-2.45-.69s-.61-1.08-.61-2.69V33.74H189V31.59h1.46v-3.3h3.06v3.3h1.87Z"/><path class="cls-1" d="M200.48,32.34a3.7,3.7,0,0,1,2.75-1.16,3.53,3.53,0,0,1,2.67,1.12,4.23,4.23,0,0,1,.93,3.16v6.4h-3.06V36a2.69,2.69,0,0,0-.34-1.72,1.48,1.48,0,0,0-1.21-.54,1.92,1.92,0,0,0-1.33.52c-.35.37-.41.67-.41,1.74v5.84h-3.06V27.5h3.06Z"/><path class="cls-1" d="M212.09,37.55a2.24,2.24,0,0,0,2.34,2.2,2,2,0,0,0,1.81-.93h3.1a4.88,4.88,0,0,1-5,3.32A5.11,5.11,0,0,1,209,36.67a5.15,5.15,0,0,1,5.32-5.49A4.71,4.71,0,0,1,219,34.24a8.52,8.52,0,0,1,.51,3.31Zm4.24-2.15a1.88,1.88,0,0,0-2-1.89,2.09,2.09,0,0,0-2.19,1.89Z"/></svg>