<svg id="Layer_1" data-name="Layer 1" xmlns="http://www.w3.org/2000/svg" viewBox="0 0 232.99 97.32"><defs><style>.cls-1{font-size:62px;font-family:Synthemesc-Regular, Synthemesc;}.cls-1,.cls-3,.cls-4{fill:#fff;}.cls-2{letter-spacing:-0.05em;}.cls-4{font-size:21.54px;font-family:NimbusSan-Bol, Nimbus Sans;}.cls-5{letter-spacing:0.01em;}.cls-6{letter-spacing:0.01em;}.cls-7{letter-spacing:0em;}</style></defs><text class="cls-1" transform="translate(5.28 92.76)">B<tspan class="cls-2" x="35.28" y="0">e</tspan><tspan x="65.29" y="0">atles</tspan></text><path class="cls-3" d="M111.6,5.55c4.37,0,11.11,2.27,11.11,6.75a2,2,0,0,1-2,2.1,4.45,4.45,0,0,1-2.67-1.13,8.22,8.22,0,0,0-4.53-1.42c-6.07,0-9.93,6.35-9.93,13.44,0,5.79,2.44,11.63,7.88,11.63,1.82,0,5.17-1.65,5.17-4.2,0-1.7-1.48-3.46-2.39-4.37-1.3-1.24-1.87-2.27-1.87-3.23,0-2.32,3.18-3.86,7.09-3.86s7.15,1.54,7.15,4c0,1.93-2.38,3.69-2.38,5.22,0,1.81,2.09,3.8,2.09,6.18,0,6.41-8,9.87-15.14,9.87C99.52,46.56,90.27,40,90.27,27A21.51,21.51,0,0,1,111.6,5.55Z"/><path class="cls-3" d="M173,18.21c0,17.09-15.6,11.15-15.6,16.07,0,1.86,2.16,2.64,3.6,2.64,3.12,0,6.66-2.4,7.44-3.18,1.5-1.5,2.28-2.94,3.6-2.94.72,0,1.14.54,1.14,1.32,0,8.52-7.38,12.18-13.74,12.18-11.16,0-16.92-8.64-16.92-21.53,0-11.7,4.8-19,17.4-19C168.66,3.81,173,9,173,18.21Zm-7,7.07c0-1.91-1.92-2.69-3.54-2.69-3.72,0-5.76,1.92-5.76,3.89,0,1,.84,1.92,2.34,1.92C162.3,28.4,166,27.74,166,25.28Z"/><path class="cls-3" d="M29.3,3.81c5.64,0,7.68,4.62,7.68,8.82a11.41,11.41,0,0,1-3.06,8c-1.86,1.86-4.56,1.8-4.56,3.06,0,1.61,3.42,1.43,5.82,3.83a10.56,10.56,0,0,1,3.24,7.44c0,4.92-3.9,12.36-11.1,12.36-4.32,0-7-3.48-10.08-3.48s-3.24,3-8.16,3a3.24,3.24,0,0,1-3.3-3.36c0-1.62.9-3.36,1.32-4.86.42-1.68.9-5.94.9-16.43,0-5.82,0-9.06-.9-10.62a6.59,6.59,0,0,1-1-3.24A2.92,2.92,0,0,1,9.14,5.43c2.52,0,3.54,1.68,7.92,1.68C20.36,7.11,23.6,3.81,29.3,3.81Zm-9.24,9c-2.16,0-4.14,1.62-4.14,5.16,0,2,1,4.56,3.36,4.56,2.88,0,4.56-2.7,4.56-5.52C23.84,14.85,22.58,12.81,20.06,12.81Zm-.42,24.11c1.8,0,3.84-1.44,3.84-4.56,0-1.56-1.32-5.28-3.9-5.28-2,0-3.3,2.88-3.3,5.64C16.28,34.76,17.24,36.92,19.64,36.92Z"/><path class="cls-3" d="M63.44,33.86c0,4.74-3.66,11-12,11-9,0-11.76-5.1-11.76-10.08,0-8,4.14-11.51,12.9-11.51C59,23.31,63.44,27.14,63.44,33.86ZM50.66,37c0,1.74.9,3.42,2.94,3.42,2.76,0,4.08-1.74,4.08-3.54A3.47,3.47,0,0,0,54,33.26C51.68,33.26,50.66,35.12,50.66,37Z"/><path class="cls-3" d="M88.15,33.86c0,4.74-3.66,11-12,11-9,0-11.76-5.1-11.76-10.08,0-8,4.14-11.51,12.9-11.51C83.71,23.31,88.15,27.14,88.15,33.86ZM75.37,37c0,1.74.9,3.42,2.94,3.42,2.76,0,4.08-1.74,4.08-3.54a3.47,3.47,0,0,0-3.66-3.6C76.39,33.26,75.37,35.12,75.37,37Z"/><path class="cls-3" d="M141.29,20.39c0,2.25-2.89,5-2.89,9.07,0,5.8,2.48,7.64,2.48,10.3,0,2.32-1.45,4.23-5.9,4.23-4.75,0-6.56-1.46-6.56-3.75,0-3.29,2.94-4.49,2.94-8.57,0-7.23-3.1-8.09-3.1-11,0-2.51,1.6-4,6.57-4S141.29,18,141.29,20.39Z"/><ellipse class="cls-3" cx="134.11" cy="9.91" rx="5.18" ry="3.68"/><text class="cls-4" transform="translate(184.17 22.59)"><tspan class="cls-5">w</tspan><tspan x="15.51" y="0">i</tspan><tspan class="cls-6" x="21.26" y="0">t</tspan><tspan class="cls-7" x="28.6" y="0">h </tspan><tspan class="cls-6" x="4.55" y="19.27">t</tspan><tspan x="11.9" y="19.27">he </tspan></text></svg>