<svg id="Layer_1" data-name="Layer 1" xmlns="http://www.w3.org/2000/svg" viewBox="0 0 226.55 103.52"><defs><style>.cls-1{font-size:62px;font-family:Synthemesc-Regular, Synthemesc;}.cls-1,.cls-3,.cls-4{fill:#231f20;}.cls-2{letter-spacing:-0.05em;}.cls-4{font-size:21.54px;font-family:NimbusSan-Bol, Nimbus Sans;}.cls-5{letter-spacing:0.01em;}.cls-6{letter-spacing:0.01em;}.cls-7{letter-spacing:0em;}</style></defs><text class="cls-1" transform="translate(0 88.95)">B<tspan class="cls-2" x="35.28" y="0">e</tspan><tspan x="65.29" y="0">atles</tspan></text><path class="cls-3" d="M106.31,1.75c4.37,0,11.12,2.27,11.12,6.75a2,2,0,0,1-2,2.09,4.42,4.42,0,0,1-2.67-1.13A8.22,8.22,0,0,0,108.24,8c-6.07,0-9.92,6.35-9.92,13.44,0,5.79,2.44,11.63,7.88,11.63,1.82,0,5.16-1.64,5.16-4.2,0-1.7-1.47-3.46-2.38-4.36-1.3-1.25-1.87-2.27-1.87-3.24,0-2.32,3.17-3.85,7.09-3.85s7.14,1.53,7.14,4c0,1.93-2.38,3.69-2.38,5.22,0,1.82,2.1,3.8,2.1,6.18,0,6.41-8,9.87-15.14,9.87C94.23,42.75,85,36.23,85,23.19A21.5,21.5,0,0,1,106.31,1.75Z"/><path class="cls-3" d="M167.75,14.4c0,17.1-15.59,11.16-15.59,16.08,0,1.86,2.16,2.64,3.59,2.64,3.12,0,6.66-2.4,7.44-3.18,1.5-1.5,2.28-2.94,3.6-2.94.72,0,1.14.54,1.14,1.32,0,8.52-7.38,12.18-13.73,12.18C143,40.5,137.28,31.86,137.28,19c0-11.7,4.8-19,17.39-19C163.37,0,167.75,5.16,167.75,14.4Zm-7,7.08c0-1.92-1.92-2.7-3.54-2.7-3.71,0-5.75,1.92-5.75,3.9,0,1,.84,1.92,2.34,1.92C157,24.6,160.73,23.94,160.73,21.48Z"/><path class="cls-3" d="M24,0c5.64,0,7.68,4.62,7.68,8.82a11.41,11.41,0,0,1-3.06,8c-1.86,1.86-4.56,1.8-4.56,3.06,0,1.62,3.42,1.44,5.82,3.84a10.56,10.56,0,0,1,3.24,7.44c0,4.92-3.9,12.36-11.1,12.36C17.72,43.5,15,40,12,40S8.72,43,3.8,43A3.24,3.24,0,0,1,.5,39.66c0-1.62.9-3.36,1.32-4.86.42-1.68.9-5.94.9-16.44,0-5.82,0-9.06-.9-10.62A6.59,6.59,0,0,1,.8,4.5,2.92,2.92,0,0,1,3.86,1.62c2.52,0,3.54,1.68,7.92,1.68C15.08,3.3,18.32,0,24,0ZM14.78,9c-2.16,0-4.14,1.62-4.14,5.16,0,2,1,4.56,3.36,4.56,2.88,0,4.56-2.7,4.56-5.52C18.56,11,17.3,9,14.78,9Zm-.42,24.12c1.8,0,3.84-1.44,3.84-4.56,0-1.56-1.32-5.28-3.9-5.28-2,0-3.3,2.88-3.3,5.64C11,31,12,33.12,14.36,33.12Z"/><path class="cls-3" d="M58.15,30.06c0,4.74-3.66,11-12,11-9,0-11.76-5.1-11.76-10.08,0-8,4.14-11.52,12.9-11.52C53.71,19.5,58.15,23.34,58.15,30.06ZM45.37,33.18c0,1.74.9,3.42,2.94,3.42,2.76,0,4.08-1.74,4.08-3.54a3.47,3.47,0,0,0-3.66-3.6C46.39,29.46,45.37,31.32,45.37,33.18Z"/><path class="cls-3" d="M82.87,30.06c0,4.74-3.66,11-12,11-9,0-11.76-5.1-11.76-10.08,0-8,4.14-11.52,12.9-11.52C78.43,19.5,82.87,23.34,82.87,30.06ZM70.09,33.18c0,1.74.9,3.42,2.94,3.42,2.76,0,4.08-1.74,4.08-3.54a3.47,3.47,0,0,0-3.66-3.6C71.11,29.46,70.09,31.32,70.09,33.18Z"/><path class="cls-3" d="M136,16.58c0,2.25-2.9,5-2.9,9.07,0,5.81,2.48,7.64,2.48,10.3,0,2.32-1.44,4.23-5.89,4.23-4.76,0-6.57-1.46-6.57-3.74,0-3.3,3-4.5,3-8.58,0-7.23-3.1-8.09-3.1-11,0-2.51,1.6-4,6.56-4S136,14.19,136,16.58Z"/><ellipse class="cls-3" cx="128.82" cy="6.11" rx="5.18" ry="3.68"/><text class="cls-4" transform="translate(178.88 18.78)"><tspan class="cls-5">w</tspan><tspan x="15.51" y="0">i</tspan><tspan class="cls-6" x="21.26" y="0">t</tspan><tspan class="cls-7" x="28.6" y="0">h </tspan><tspan class="cls-6" x="4.55" y="19.27">t</tspan><tspan x="11.9" y="19.27">he </tspan></text></svg>