<svg id="Layer_1" data-name="Layer 1" xmlns="http://www.w3.org/2000/svg" viewBox="0 0 589.94 229.94"><defs><style>.cls-1{fill:#ede5da;}.cls-2{fill:#e35126;}.cls-3{fill:#e25c29;}.cls-4{fill:#db5426;}.cls-5{fill:#facca6;}.cls-6{fill:#4c3e3e;}.cls-7{fill:#f0b786;}.cls-8{fill:#f9da0a;}.cls-9{fill:#42c6e8;}.cls-10{fill:#ecead3;}.cls-11{fill:#29221b;}.cls-12{fill:#65cbe6;}.cls-13{fill:#e1ba96;}.cls-14{fill:#453939;}.cls-15{fill:#ae3574;}.cls-16{fill:#e9b181;}.cls-17{fill:#f6c514;}.cls-18{fill:#e01075;}.cls-19{fill:#209fd3;}.cls-20{fill:#4e3636;}.cls-21{fill:#e0aa7d;}.cls-22{fill:#cb1b6b;}.cls-23{fill:#f9e400;}.cls-24{fill:#633e38;}.cls-25{fill:#deac26;}.cls-26{fill:#e34026;}.cls-27{fill:#dca67a;}.cls-28{fill:#cea02b;}.cls-29{fill:#e8d51a;}.cls-30{fill:#30b4bb;}</style></defs><path class="cls-1" d="M575.41,138.27c7.08,8.41,7.18,18.26,7.1,21.32a7.19,7.19,0,0,1-.7.24c-3.41-19.75-8.8-25.16-12.41-25.66a6.81,6.81,0,0,0-1.51,0,7.85,7.85,0,0,0-.38-2.47A30.05,30.05,0,0,1,575.41,138.27Z"/><path class="cls-1" d="M567.51,131.69a7.85,7.85,0,0,1,.38,2.47,21.79,21.79,0,0,0-5.19,1,18.18,18.18,0,0,0,3.82-4C566.82,131.33,567.16,131.5,567.51,131.69Z"/><path class="cls-1" d="M567.89,134.16a9.9,9.9,0,0,1-3.56,7.65c-3.31,2.44-7.4.8-11.56-.28a24.67,24.67,0,0,1,5.6-4.5,10.28,10.28,0,0,0,4.31-1.87h0A21.79,21.79,0,0,1,567.89,134.16Z"/><path class="cls-2" d="M562.68,135.16a10.28,10.28,0,0,1-4.31,1.87,23.2,23.2,0,0,1,3.4-1.58C562.07,135.34,562.38,135.24,562.68,135.16Z"/><path class="cls-1" d="M569.4,134.17c3.61.5,9,5.91,12.41,25.66-19.43,7.13-36.7,6.43-42.95-1,3-4,6.75-8.65,11.46-14.49.7-.85,1.5-1.83,2.45-2.84,4.16,1.08,8.25,2.72,11.56.28a9.9,9.9,0,0,0,3.56-7.65A6.81,6.81,0,0,1,569.4,134.17Z"/><path class="cls-1" d="M544,141.81c2.79-1.55,5.82-1.07,8.8-.28-.95,1-1.75,2-2.45,2.84-4.71,5.84-8.47,10.48-11.46,14.49a11.82,11.82,0,0,1-.77-1.05,4.5,4.5,0,0,1-.46-.8C539.34,148.35,540.21,143.91,544,141.81Z"/><path class="cls-2" d="M538.86,158.86c6.25,7.4,23.52,8.1,42.95,1a232.4,232.4,0,0,1,2.86,29,222.24,222.24,0,0,1-1,34.34H531.75a1.35,1.35,0,0,0,0-.18,152.2,152.2,0,0,1-1-31.35c.2-2.64.1-.51,5.95-29.79C537.33,160.91,538.06,159.91,538.86,158.86Z"/><path class="cls-1" d="M538.91,127.82c5.06-1.83,10.58,10.38,19.15,9.28.1,0,.21,0,.31-.07a24.67,24.67,0,0,0-5.6,4.5c-3-.79-6-1.27-8.8.28-3.76,2.1-4.63,6.54-6.34,15.2-1.68-3-2.23-7-2.55-9.31-.05-.35-.08-.72-.13-1.08,1.56-.63,2.59-1.37,2.66-2.25.08-1.06-1.21-2.13-3-3.08C534.6,135.39,535.6,129,538.91,127.82Z"/><path class="cls-1" d="M534.63,141.29c1.77,1,3.06,2,3,3.08-.07.88-1.1,1.62-2.66,2.25A48.34,48.34,0,0,1,534.63,141.29Z"/><path class="cls-3" d="M537.63,157a.1.1,0,0,0,0,.07c-.35,1.68-.65,3.3-1,4.81A54.58,54.58,0,0,0,530,173.6c-3.92,10.15-2.72,25,1.75,49.43a1.35,1.35,0,0,1,0,.18h-41.2c-6.77-1.36-12.46-2.11-16.52-2.55.36-4.3.71-8.63,1.08-13,.07-.74.13-1.53.2-2.31a95.61,95.61,0,0,1,10.81.52c8.84,1,11.9,2.56,15.89.76s7.29-6.2,6.35-8.88c-1-2.95-7.07-3.29-16.53-3.84a130.69,130.69,0,0,0-14,0c1.71-5.51,3.39-11,5.11-16.52,2,0,5.19.15,9.09.5,7,.63,9.4,1.41,13.78.76,3.54-.5,6.87-1,8.92-3.81s2.23-7.7,0-10.16-5.56-1.65-14-1.28c-4.06.18-9.7.3-16.56,0,.39-2.33.8-4.68,1.17-7,.48-2.74.93-5.52,1.38-8.27a118.33,118.33,0,0,0,33.07,1.29c3.24-.35,11-1.17,15.14-2.83,0,.36.08.73.13,1.08C535.4,150,536,154,537.63,157Z"/><path class="cls-3" d="M566.87,130.36a4.31,4.31,0,0,1,.64,1.33c-.35-.19-.69-.36-1-.54a18.18,18.18,0,0,1-3.82,4h0c-.3.08-.61.18-.91.29a23.2,23.2,0,0,0-3.4,1.58c-.1,0-.21,0-.31.07-8.57,1.1-14.09-11.11-19.15-9.28-3.31,1.2-4.31,7.57-4.28,13.47a53.08,53.08,0,0,0-8.46-3.29c-2.17-.68-10.45-3.14-28-3.83-5.54-.18-8.58-.1-8.88-1.24-.45-1.67,5.14-4.46,11.45-7.64s15.35-7.87,26.7-14l2.74-1.78a26.24,26.24,0,0,0,3.61,5.59c3.49,4.14,11.18,10.93,21.61,12.71C561.32,128.83,565,127.72,566.87,130.36Z"/><path class="cls-2" d="M530,173.6a54.58,54.58,0,0,1,6.69-11.71c-5.85,29.28-5.75,27.15-5.95,29.79a152.2,152.2,0,0,0,1,31.35C527.25,198.6,526.05,183.75,530,173.6Z"/><path class="cls-3" d="M525.28,97.47a3.66,3.66,0,0,1,1,.7c-.29.15-.55.25-.84.39C525.4,98.19,525.33,97.84,525.28,97.47Z"/><path class="cls-1" d="M524.9,97.31a2.39,2.39,0,0,1,.38.16c.05.37.12.72.15,1.09-3.89,1.64-8.16,2.37-11,1.43C518.45,97.61,522.12,96.23,524.9,97.31Z"/><path class="cls-4" d="M518.53,55.35A16.69,16.69,0,0,1,525,59.93c-2.2-.72-4-1.37-5.48-1.9A19.15,19.15,0,0,0,518.53,55.35Z"/><path class="cls-5" d="M526.17,61.71a15.25,15.25,0,0,1,1.18,2.76,4.47,4.47,0,0,0-2.45-.23c-2.59.64-1.58,5.32-5.09,11.46a14.22,14.22,0,0,1-2.36,3.16,30.63,30.63,0,0,0,2-20.83c1.45.53,3.28,1.18,5.48,1.9A13.16,13.16,0,0,1,526.17,61.71Z"/><path class="cls-5" d="M527.35,64.47a8.77,8.77,0,0,1,.1,4.87c-.87,2.88-2.73,2.58-5.11,6.36-2.6,4.12-1.53,6.34-3.81,7.62-1.4.8-2.65.43-3.91.45a30.7,30.7,0,0,0,2.83-4.91,14.22,14.22,0,0,0,2.36-3.16c3.51-6.14,2.5-10.82,5.09-11.46A4.47,4.47,0,0,1,527.35,64.47Z"/><path class="cls-6" d="M530,66.78c1.39,3-2.69,6-1.28,8.92,1,1.84,3.63,2.46,5.11,2.53,3,.15,4.26-1.8,5.09-1.28,1.75,1.14-.28,13-8.92,19.08a22.22,22.22,0,0,1-3.7,2.14,3.66,3.66,0,0,0-1-.7c-.13-.89-.26-1.79-.38-2.69-3.93,1.53-7.4,3-10.36,4.23.66-3.83-.22-7.91-1.08-11.87-.09-.43-.2-.86-.29-1.28.12-.23.22-.45.34-.7.36-.4.73-.88,1.11-1.39,1.26,0,2.51.35,3.91-.45,2.28-1.28,1.21-3.5,3.81-7.62,2.38-3.78,4.24-3.48,5.11-6.36a8.77,8.77,0,0,0-.1-4.87A4.72,4.72,0,0,1,530,66.78Z"/><path class="cls-6" d="M517.45,78.86a30.7,30.7,0,0,1-2.83,4.91h-.42c.6-1.11,1.2-2.13,1.78-3A21.56,21.56,0,0,1,517.45,78.86Z"/><path class="cls-1" d="M525.28,97.47a2.39,2.39,0,0,0-.38-.16c-2.78-1.08-6.45.3-10.51,2.68l-.07,0c.08-.33.15-.63.22-1,3-1.27,6.43-2.7,10.36-4.23C525,95.68,525.15,96.58,525.28,97.47Z"/><path class="cls-1" d="M514.39,100a.08.08,0,0,0-.07.05V100Z"/><path class="cls-6" d="M514.62,83.77c-.38.51-.75,1-1.11,1.39.23-.46.46-.94.69-1.38Z"/><path class="cls-1" d="M514.54,99c-.07.33-.14.63-.22,1a5.88,5.88,0,0,1-1-.47C513.74,99.35,514.12,99.19,514.54,99Z"/><path class="cls-6" d="M514.2,83.78c-.23.44-.46.92-.69,1.38a4.48,4.48,0,0,1-.4.44c-.1-.49-.22-.95-.32-1.4A3.21,3.21,0,0,1,514.2,83.78Z"/><path class="cls-7" d="M513.46,87.14c.86,4,1.74,8,1.08,11.87-.42.18-.8.34-1.2.49a3.88,3.88,0,0,1-1.17-.93c-2.34-2.68-1-8.1,1-12.71C513.26,86.28,513.37,86.71,513.46,87.14Z"/><path class="cls-6" d="M512.79,84.2c.1.45.22.91.32,1.4-1,1.14-1.87,1.71-2.2,1.54s-.2-.35-.12-.73a12,12,0,0,1,1.38-1.83A2.59,2.59,0,0,1,512.79,84.2Z"/><path class="cls-6" d="M512.31,82.3c.16.58.33,1.2.48,1.9a2.59,2.59,0,0,0-.62.38,12,12,0,0,0-1.38,1.83A28.55,28.55,0,0,1,512.31,82.3Z"/><path class="cls-1" d="M514.74,164.72c2.23,2.46,2.09,7.22,0,10.16s-5.38,3.31-8.92,3.81c-4.38.65-6.79-.13-13.78-.76-3.9-.35-7.12-.45-9.09-.5-1.72,5.52-3.4,11-5.11,16.52a130.69,130.69,0,0,1,14,0c9.46.55,15.5.89,16.53,3.84.94,2.68-2.41,7.1-6.35,8.88s-7.05.2-15.89-.76a95.61,95.61,0,0,0-10.81-.52c-.07.78-.13,1.57-.2,2.31l-6.21-.51c.1-1.88-.16-3.48-1.23-4.33-1.63-1.31-3.69.17-7.63,0-6.79-.3-13.24-5.29-12.71-7.63.11-.63.83-1.45,7.62-2.55a98.32,98.32,0,0,1,16.53-1.26q1.9-7,3.83-14c-3.71,1.19-14.19,4.09-21.63-1.27-1.86-1.36-5.22-4.46-5.22-6.87a2.38,2.38,0,0,1,.13-.76c.58-1.65,3.06-2.15,5.09-2.57,15.52-3,19.92-2.39,22.89-5.07a9.1,9.1,0,0,0,2.72-5.47l6.07,1c-.37,2.33-.78,4.68-1.17,7,6.86.3,12.5.18,16.56,0C509.18,163.07,512.57,162.34,514.74,164.72Z"/><path class="cls-4" d="M516,21c2.9,1.18,5.21,2.53,6.77,3.31a58.85,58.85,0,0,0,11,13.23c1,.89,9.13,8.38,20.33,17.81,4.53,3.78,8.42,7,7.64,8.89S556.08,66,551.6,65.52A129,129,0,0,1,525,59.93a16.69,16.69,0,0,0-6.44-4.58C512,40.61,486.56,34.12,469,42.63c-7.88,3.79-16.65,11.74-18.78,20.57a19.16,19.16,0,0,1-7.93,6.14c-5,2.17-13.11,3.78-16.54,0-2.28-2.53-1.68-6.5-1.26-8.91,2-12.18,13.59-20.73,21.61-26.7,5.35-4,7.57-4.76,11.46-8.92a89.53,89.53,0,0,0,6.29-7.89,9.81,9.81,0,0,0,.06,7.89c1.85,3.68,6.44,5.39,10.17,5.11,5.67-.44,6.12-5.24,12.71-8.92C498.7,14.33,514.6,20.45,516,21Z"/><path class="cls-6" d="M499.46,60.43c1.19.56,4,2,3.81,2.56-.41,1.11-15.45-2.6-15.25-3.83C488.14,58.4,494.09,57.91,499.46,60.43Z"/><path class="cls-5" d="M490.55,89.67c4.16,1.3,5.47,5.51,6.35,5.11s.55-3.78-1.25-6.37c-2.67-3.86-8.48-5.49-10.18-3.83a3.16,3.16,0,0,0,0,3.83C486.51,89.69,488.15,88.94,490.55,89.67Zm21.76-7.37a28.55,28.55,0,0,0-1.52,4.11c-.3.4-.63.88-1,1.47-.56.78-1.18,1.71-1.84,2.74-2.33,3.68-3.1,5.69-5.91,9.23-1.25,1.57-6.19,7.72-14,8.89-6.66,1-12.28-2.1-15.37-4.36a35.66,35.66,0,0,1-.55-5.19A27.64,27.64,0,0,1,474,96c2.71-3.75,4.47-4,5.09-6.36.53-2.08-.1-4.69-1.28-5.09s-2.95,1.62-4.23,3.6A22.3,22.3,0,0,1,481.66,77c8.64-6.21,22.35-6.33,28,0A12.91,12.91,0,0,1,512.31,82.3Z"/><path class="cls-4" d="M491.46,43.59c6.66,2.41,15.21,6.49,27.07,11.76a19.15,19.15,0,0,1,1,2.68c-2-.78-3.24-1.31-3.51-1.43-15.5-6.9-19.41-11.11-24.53-13Z"/><path class="cls-6" d="M495.65,88.41c1.8,2.59,2,6,1.25,6.37s-2.19-3.81-6.35-5.11c-2.4-.73-4,0-5.08-1.26a3.16,3.16,0,0,1,0-3.83C487.17,82.92,493,84.55,495.65,88.41Z"/><path class="cls-1" d="M514.32,100V100c-9.22,5.4-20.41,15.93-27.58,15.07a.71.71,0,0,1-.23,0c2.24-3.73,8-7.3,23.12-13.93l3.71-1.63A5.88,5.88,0,0,0,514.32,100Z"/><path class="cls-1" d="M514.39,100c2.88.94,7.15.21,11-1.43.24,1.71.5,3.39.74,5.1q-20.34,9.54-40.7,19.08c0-.33.1-.78.14-1.34a18.84,18.84,0,0,0,4.9-2.07c5.05-2.69,7.74-5.52,11.5-8,8.48-5.67,10-6,11.45-8.92a15,15,0,0,0,.86-2.34A.08.08,0,0,1,514.39,100Z"/><path class="cls-1" d="M514.32,100a15,15,0,0,1-.86,2.34c-1.42,3-3,3.25-11.45,8.92-3.76,2.51-6.45,5.34-11.5,8a18.84,18.84,0,0,1-4.9,2.07,13.3,13.3,0,0,0-.25-3.16c0-.2.06-.39.11-.59a9.63,9.63,0,0,1,1-2.59.71.71,0,0,0,.23,0C493.91,116,505.1,105.44,514.32,100Z"/><path class="cls-1" d="M485.36,118.24a13.3,13.3,0,0,1,.25,3.16c-.14,0-.25,0-.35,0A11.45,11.45,0,0,1,485.36,118.24Z"/><path class="cls-1" d="M485.61,121.4c0,.56-.1,1-.14,1.34-.06-.34-.15-.78-.21-1.29C485.36,121.45,485.47,121.41,485.61,121.4Z"/><path class="cls-1" d="M485.26,121.45c.06.51.15,1,.21,1.29-.71-.48-1.44-1-2.16-1.46a3.07,3.07,0,0,0,.88.18A5.51,5.51,0,0,0,485.26,121.45Z"/><path class="cls-3" d="M486.51,115.06a9.63,9.63,0,0,0-1,2.59c-.05.2-.08.39-.11.59a11.72,11.72,0,0,0-1.17-3.13,4.86,4.86,0,0,0-.31-.53A18.14,18.14,0,0,0,486.51,115.06Z"/><path class="cls-3" d="M483.28,121.28a8.91,8.91,0,0,1-4.34-2.89C480.38,119.37,481.83,120.32,483.28,121.28Z"/><path class="cls-4" d="M491.46,43.59v0a19.83,19.83,0,0,0-6-1c-8.51-.3-15.93,2.84-20.24,5.19A29.06,29.06,0,0,1,472,43c.31-.16.58-.26.75-.36C478,40.08,483.39,40.65,491.46,43.59Z"/><path class="cls-1" d="M474.66,108.84c1.73.28,6.55,1.38,9.22,5.74a17.65,17.65,0,0,1-2.22-.74C477.79,112.15,475.84,109.42,474.66,108.84Z"/><path class="cls-3" d="M474.13,108.74c.15-.09.33,0,.53.1A4.34,4.34,0,0,0,474.13,108.74Z"/><path class="cls-1" d="M478.94,118.39,474,115.11a9.53,9.53,0,0,0,0-3.73v-1.81a23.87,23.87,0,0,0,1.28,3A25.6,25.6,0,0,0,478.94,118.39Z"/><path class="cls-1" d="M474,111.38a9.53,9.53,0,0,1,0,3.73Z"/><path class="cls-1" d="M485.36,118.24a11.45,11.45,0,0,0-.1,3.21,5.51,5.51,0,0,1-1.07,0,3.07,3.07,0,0,1-.88-.18h0c-1.45-1-2.9-1.91-4.34-2.89a25.6,25.6,0,0,1-3.63-5.81,23.87,23.87,0,0,1-1.28-3v-.83a0,0,0,0,1,.06,0h0a4.34,4.34,0,0,1,.53.1c1.18.58,3.13,3.31,7,5a17.65,17.65,0,0,0,2.22.74,4.86,4.86,0,0,1,.31.53A11.72,11.72,0,0,1,485.36,118.24Z"/><path class="cls-3" d="M474,108.74v.83c-.07-.2-.15-.4-.22-.62A.72.72,0,0,1,474,108.74Z"/><path class="cls-7" d="M513.17,85.86c-2,4.61-3.34,10-1,12.71a3.88,3.88,0,0,0,1.17.93l-3.71,1.63c-15.11,6.63-20.88,10.2-23.12,13.93a18.14,18.14,0,0,1-2.63-.48c-2.67-4.36-7.49-5.46-9.22-5.74-.2-.12-.38-.19-.53-.1h0a0,0,0,0,0-.06,0,.72.72,0,0,0-.22.21,31.81,31.81,0,0,1-1.16-4.57c3.09,2.26,8.71,5.39,15.37,4.36,7.8-1.17,12.74-7.32,14-8.89,2.81-3.54,3.58-5.55,5.91-9.23.66-1,1.28-2,1.84-2.74.4-.59.73-1.07,1-1.47-.08.38-.06.65.12.73s1.16-.4,2.2-1.54C513.12,85.7,513.16,85.78,513.17,85.86Z"/><path class="cls-3" d="M474,109.57v1.81a5.52,5.52,0,0,1-.22-2.43C473.88,109.17,474,109.37,474,109.57Z"/><path class="cls-6" d="M477.84,84.58c1.18.4,1.81,3,1.28,5.09-.62,2.41-2.38,2.61-5.09,6.36a27.64,27.64,0,0,0-1.93,3.16,30.54,30.54,0,0,1,1.51-11C474.89,86.2,476.67,84.2,477.84,84.58Z"/><path class="cls-6" d="M471.48,99.85c-.86-.21-1.11-5.57,1.27-10.18.25-.48.55-1,.86-1.49a30.54,30.54,0,0,0-1.51,11C471.82,99.65,471.67,99.9,471.48,99.85Z"/><path class="cls-6" d="M471.05,58.2a2.7,2.7,0,0,1-.83,1,3.32,3.32,0,0,1-2.61.45A12.37,12.37,0,0,1,471.05,58.2Z"/><path class="cls-3" d="M468.9,207.19a27.45,27.45,0,0,1-1.23,5.84v6.35c-1-.35-8.21-2.83-14,1.28a15.34,15.34,0,0,0-2.74,2.55H436q1.13-7.34,1.75-13.84a194.25,194.25,0,0,0,4.49-33.21c.08-2.34.06-4.64,0-6.83l6.22,0c0,2.41,3.36,5.51,5.22,6.87,7.44,5.36,17.92,2.46,21.63,1.27q-1.92,7-3.83,14A98.32,98.32,0,0,0,455,192.68c-6.79,1.1-7.51,1.92-7.62,2.55-.53,2.34,5.92,7.33,12.71,7.63,3.94.17,6-1.31,7.63,0C468.74,203.71,469,205.31,468.9,207.19Z"/><path class="cls-8" d="M513.46,14.64c5.35,3.18,7,5.93,9.29,9.67-1.56-.78-3.87-2.13-6.77-3.31-1.38-.55-17.28-6.67-29.24,0-6.59,3.68-7,8.48-12.71,8.92-3.73.28-8.32-1.43-10.17-5.11a9.81,9.81,0,0,1-.06-7.89c1.19-1.58,2-2.51,2.59-2.28,1.5.62-1.66,7.62,1.28,10.17,2.33,2.06,7.37.26,10.17-1.25,7.13-3.88,6.35-9.51,11.46-12.73C497.58,5.61,511.09,13.26,513.46,14.64Z"/><path class="cls-8" d="M517.27,14.64c4.79,3.75,8.46,9.2,7.63,10.17-.28.35-1,.07-2.15-.5-2.32-3.74-3.94-6.49-9.29-9.67-2.37-1.38-15.88-9-24.16-3.81-5.11,3.22-4.33,8.85-11.46,12.73-2.8,1.51-7.84,3.31-10.17,1.25-2.94-2.55.22-9.55-1.28-10.17-.58-.23-1.4.7-2.59,2.28,1.31-3.57,3.94-6.34,5.15-6.09,2.28.47.55,11.9,3.8,12.73,1.18.28,2.28-.93,6.37-5.11,4.69-4.75,7-7.13,7.62-7.62C494,4.91,508.63,7.92,517.27,14.64Z"/><path class="cls-6" d="M471.05,58.2c3.28-.8,6.29-.24,6.49.58.4,1.86-13.29,7.47-14.38,5.81-.51-.84,1.95-3.45,4.16-4.83a.73.73,0,0,1,.29-.15,3.32,3.32,0,0,0,2.61-.45A2.7,2.7,0,0,0,471.05,58.2Z"/><path class="cls-5" d="M488,59.16c-.2,1.23,14.84,4.94,15.25,3.83.19-.53-2.62-2-3.81-2.56C494.09,57.91,488.14,58.4,488,59.16Zm25.44,5.08c3.52,5.39.79,13.09-1.15,18.06A12.91,12.91,0,0,0,509.63,77c-5.62-6.33-19.33-6.21-28,0a22.3,22.3,0,0,0-8.05,11.23c-.31.49-.61,1-.86,1.49-2.38,4.61-2.13,10-1.27,10.18.19.05.34-.2.62-.66a35.66,35.66,0,0,0,.55,5.19,29.86,29.86,0,0,1-2.43-2c-1.12-1-4.06-3.81-7.64-12.71-1.08-2.68-2.09-5.17-3-7.5a2.32,2.32,0,0,0,.42-.12c3.46-1.48-3-20.13,2.54-22.89,1.62-.81,3.35.15,5,.45a.73.73,0,0,0-.29.15c-2.21,1.38-4.67,4-4.16,4.83,1.09,1.66,14.78-4,14.38-5.81-.2-.82-3.21-1.38-6.49-.58,1.2-2.27-.68-6.29,1.7-9.2,2.58-3.16,9-3.71,12.72-1.28,3.35,2.16,2.57,5.42,6.36,7.63,2.44,1.4,3.41.45,7.63,1.25C503.31,57.37,510.69,60,513.46,64.24Z"/><path class="cls-1" d="M474,220.66c4.06.44,9.75,1.19,16.52,2.55H450.94a15.34,15.34,0,0,1,2.74-2.55c5.78-4.11,13-1.63,14-1.28V213a27.45,27.45,0,0,0,1.23-5.84l6.21.51C474.74,212,474.39,216.36,474,220.66Z"/><path class="cls-6" d="M519.49,58a30.63,30.63,0,0,1-2,20.83A21.56,21.56,0,0,0,516,80.79c-.58.86-1.18,1.88-1.78,3a3.21,3.21,0,0,0-1.41.42c-.15-.7-.32-1.32-.48-1.9,1.94-5,4.67-12.67,1.15-18.06-2.77-4.2-10.15-6.87-14-7.64-4.22-.8-5.19.15-7.63-1.25-3.79-2.21-3-5.47-6.36-7.63-3.74-2.43-10.14-1.88-12.72,1.28-2.38,2.91-.5,6.93-1.7,9.2a12.37,12.37,0,0,0-3.44,1.41c-1.68-.3-3.41-1.26-5-.45-5.49,2.76.92,21.41-2.54,22.89a2.32,2.32,0,0,1-.42.12c-3.38-9-4.91-15.7-2.11-23a30.88,30.88,0,0,1,7.72-11.34c4.31-2.35,11.73-5.49,20.24-5.19a19.83,19.83,0,0,1,6,1c5.12,1.85,9,6.06,24.53,13C516.25,56.72,517.48,57.25,519.49,58Z"/><path class="cls-1" d="M458.76,125.29a87.17,87.17,0,0,0-12.71,7.64,12.32,12.32,0,0,0-3.38,4.3c.27-1.11.57-2.16.85-3.06,1.31-4.14,2.24-7.07,5.07-8.88C452.4,122.84,458.07,123.43,458.76,125.29Z"/><path class="cls-1" d="M535,146.62c-4.11,1.66-11.9,2.48-15.14,2.83a118.33,118.33,0,0,1-33.07-1.29c-.45,2.75-.9,5.53-1.38,8.27l-6.07-1a27.19,27.19,0,0,0-.17-8.52c-21.1,1.73-26.95-.83-28-3.81a5.55,5.55,0,0,1,1-4.67,7.32,7.32,0,0,1,1.54-1.68c4-3.22,8.74,1,20.35,0,4.66-.42,7.8-1.45,10.16-3.81a11.59,11.59,0,0,0,2.55-3.83q20.36-8.88,40.71-17.8c-11.35,6.12-20.48,10.81-26.7,14s-11.9,6-11.45,7.64c.3,1.14,3.34,1.06,8.88,1.24,17.54.69,25.82,3.15,28,3.83a53.08,53.08,0,0,1,8.46,3.29A48.34,48.34,0,0,0,535,146.62Z"/><path class="cls-6" d="M461.32,50.25a32.5,32.5,0,0,1,3.91-2.43,30.88,30.88,0,0,0-7.72,11.34c-2.8,7.31-1.27,14,2.11,23-2.56.17-8.72-5.67-9.75-12.83a16.67,16.67,0,0,1,.3-6.14C453.25,59.34,455.26,54.79,461.32,50.25Z"/><path class="cls-4" d="M518.53,55.35c-11.86-5.27-20.41-9.35-27.07-11.76-8.07-2.94-13.42-3.51-18.71-1-.17.1-.44.2-.75.36a29.06,29.06,0,0,0-6.77,4.83,32.5,32.5,0,0,0-3.91,2.43c-6.06,4.54-8.07,9.09-11.15,13,2.13-8.83,10.9-16.78,18.78-20.57C486.56,34.12,512,40.61,518.53,55.35Z"/><path class="cls-3" d="M526.27,98.17c2,2,1.48,6.08,3.92,11.35l-2.74,1.78q-20.37,8.88-40.71,17.8a11.59,11.59,0,0,1-2.55,3.83c-2.36,2.36-5.5,3.39-10.16,3.81-11.61,1-16.35-3.22-20.35,0a7.32,7.32,0,0,0-1.54,1.68l-3.27-1.22a71.25,71.25,0,0,1,4.81-5.56c3.46-3.62,5.58-5,5.08-6.35,8.43-4.26,14.14-5.67,15.27-10.18l4.91,3.28a8.91,8.91,0,0,0,4.34,2.89h0c.72.5,1.45,1,2.16,1.46q20.34-9.55,40.7-19.08c-.24-1.71-.5-3.39-.74-5.1C525.72,98.42,526,98.32,526.27,98.17Z"/><path class="cls-3" d="M479.12,146.9a27.19,27.19,0,0,1,.17,8.52,9.1,9.1,0,0,1-2.72,5.47c-3,2.68-7.37,2.11-22.89,5.07-2,.42-4.51.92-5.09,2.57a2.38,2.38,0,0,0-.13.76l-6.22,0c-.45-13.55-3.1-24.79.43-32.1-.93,3.7-1.56,7.94-.43,8.41s2.51-3,6.63-8.44l3.27,1.22a5.55,5.55,0,0,0-1,4.67C452.17,146.07,458,148.63,479.12,146.9Z"/><path class="cls-1" d="M458.76,125.29c.5,1.3-1.62,2.73-5.08,6.35a71.25,71.25,0,0,0-4.81,5.56c-4.12,5.39-5.57,8.87-6.63,8.44s-.5-4.71.43-8.41a12.32,12.32,0,0,1,3.38-4.3A87.17,87.17,0,0,1,458.76,125.29Z"/><path class="cls-3" d="M437.75,209.37q-.63,6.51-1.75,13.84h-1.58C435.58,218.78,436.71,214.14,437.75,209.37Z"/><path class="cls-9" d="M422.34,132.08c3.08,1.41,5.71,6.32,7.79,11.69-3.12,1-7.44.7-11.52-.86C419.89,138.91,421.18,135.29,422.34,132.08Z"/><path class="cls-9" d="M412.62,139.41c2.45-4.72,5.16-7.8,8-7.77a3.8,3.8,0,0,1,1.73.44c-1.16,3.21-2.45,6.83-3.73,10.83A20.69,20.69,0,0,1,412.62,139.41Z"/><path class="cls-9" d="M418.61,142.91c4.08,1.56,8.4,1.86,11.52.86a134.27,134.27,0,0,1,4.47,14.59c2.73,10.57,5.49,26.42,3.15,51-1,4.77-2.17,9.41-3.33,13.84h-29a314.27,314.27,0,0,1,10.1-70C416.55,149.58,417.6,146.12,418.61,142.91Z"/><path class="cls-9" d="M412.62,139.41a20.69,20.69,0,0,0,6,3.5c-1,3.21-2.06,6.67-3.07,10.35a314.27,314.27,0,0,0-10.1,70H399.5c-.22-12.44-2-25.25,2-47.05.56-3.07,1.33-6.67,2.23-10.44C406,156.57,409,146.27,412.62,139.41Z"/><path class="cls-10" d="M420.61,131.64c-2.83,0-5.54,3.05-8,7.77a16.85,16.85,0,0,1-3.46-4,19.1,19.1,0,0,1-1.51-3.19c-1.66-4.66-1.6-10.21,1.18-13,5.21,2.42,10.4,4.86,15.61,7.29-.65,1.66-1.37,3.49-2.1,5.51A3.8,3.8,0,0,0,420.61,131.64Z"/><path class="cls-10" d="M432.06,127.82c2.17,3.74,4.29,10.53,1.26,14a6.87,6.87,0,0,1-3.19,2c-2.08-5.37-4.71-10.28-7.79-11.69.73-2,1.45-3.85,2.1-5.51-5.21-2.43-10.4-4.87-15.61-7.29a2.14,2.14,0,0,1,.33-.34C414.34,114.49,427,119.23,432.06,127.82Z"/><path class="cls-10" d="M399.55,164.7a9.22,9.22,0,0,1-1.81,3.83c-2.27,2.66-6,3.17-19.09,2.54-1.86-.08-4-.21-6.35-.36.3-3.41.53-6.79.73-10.12a99.74,99.74,0,0,0,15.79-1c3-.42,8.33-1.35,10.18,1.28A5,5,0,0,1,399.55,164.7Z"/><path class="cls-10" d="M405.16,133.23a2.79,2.79,0,0,1,.21.94c0,4.25-13.54,7.26-15.27,7.64a59.29,59.29,0,0,1-16.5,1.3c0-3.6.13-7.94.43-12.85a43,43,0,0,0,11-1.16c2.43-.58,8-2.16,14,0C400,129.47,404.12,131.06,405.16,133.23Z"/><path class="cls-11" d="M388.82,73.15c.55.29-3.16,8.12-5.08,12.71a119.66,119.66,0,0,0-6.1,18.87c-1.6-.77-3.23-1.52-4.83-2.26.59-1.67,1.25-3.37,2-5.16C380.3,84.33,388.15,72.8,388.82,73.15Z"/><path class="cls-10" d="M391.36,194c.77,2.14-4.14,7.2-10.18,8.91-5.25,1.5-9.38-.13-12.67-.8.2-1.21.36-2.42.55-3.61a14.93,14.93,0,0,0,2.54-5,56,56,0,0,1,5.77-.78C381.8,192.28,390.48,191.48,391.36,194Z"/><path class="cls-10" d="M368.94,223.21a25.65,25.65,0,0,1,12.24,0Z"/><path class="cls-12" d="M407.65,132.26l-2.49,1c-1-2.17-5.16-3.76-6.16-4.13-6-2.16-11.56-.58-14,0a43,43,0,0,1-11,1.16,149.69,149.69,0,0,1,3.61-25.53q15.6,7.26,31.19,14.55C406.05,122.05,406,127.6,407.65,132.26Z"/><path class="cls-12" d="M412.62,139.41c-3.61,6.86-6.67,17.16-8.86,26.31l-4.21-1a5,5,0,0,0-.55-3.81c-1.85-2.63-7.22-1.7-10.18-1.28a99.74,99.74,0,0,1-15.79,1c.3-4.67.48-9.26.55-13.69,0-1.15,0-2.41,0-3.79a59.29,59.29,0,0,0,16.5-1.3c1.73-.38,15.24-3.39,15.27-7.64a2.79,2.79,0,0,0-.21-.94l2.49-1a19.1,19.1,0,0,0,1.51,3.19A16.85,16.85,0,0,0,412.62,139.41Z"/><path class="cls-11" d="M377.64,104.73A149.69,149.69,0,0,0,374,130.26a60.29,60.29,0,0,1-6.72-.54c1.33-10.6,2.26-18.07,5.5-27.25C374.41,103.21,376,104,377.64,104.73Z"/><path class="cls-11" d="M374,130.26c-.3,4.91-.4,9.25-.43,12.85a70,70,0,0,1-8-.93c.69-4.68,1.24-8.76,1.72-12.46A60.29,60.29,0,0,0,374,130.26Z"/><path class="cls-12" d="M397.74,168.53a9.22,9.22,0,0,0,1.81-3.83l4.21,1c-.9,3.77-1.67,7.37-2.23,10.44-4,21.8-2.25,34.61-2,47.05H381.18a25.65,25.65,0,0,0-12.24,0H365c1.25-7,2.43-14.07,3.48-21.15,3.29.67,7.42,2.3,12.67.8,6-1.71,10.95-6.77,10.18-8.91-.88-2.47-9.56-1.67-14-1.27a56,56,0,0,0-5.77.78c.22-.63.47-1.33.7-2a17.43,17.43,0,0,0,1.28-6.36,14.25,14.25,0,0,0-2-6.63c.25-2.6.51-5.18.73-7.72,2.36.15,4.49.28,6.35.36C391.78,171.7,395.47,171.19,397.74,168.53Z"/><path class="cls-10" d="M372.3,93.5c1.6.93,1.33,4.11,1.28,5.07a10,10,0,0,1-1.06,3.75c-1.7-.77-3.36-1.55-5-2.35a9.53,9.53,0,0,0,1-1.4,9,9,0,0,0,1.27-5.22A3.39,3.39,0,0,1,372.3,93.5Z"/><path class="cls-13" d="M371.57,178.43a14.25,14.25,0,0,1,2,6.63,17.43,17.43,0,0,1-1.28,6.36c-.23.71-.48,1.41-.7,2-.68.12-1.31.25-1.91.37Q370.74,186.08,371.57,178.43Z"/><path class="cls-12" d="M372.52,102.32l.29.15c-3.24,9.18-4.17,16.65-5.5,27.25a74.07,74.07,0,0,1-9-1.9,28.59,28.59,0,0,1,3.81-12.71C365.63,109.15,370.42,106.54,372.52,102.32Z"/><path class="cls-13" d="M371.6,193.46a14.93,14.93,0,0,1-2.54,5c.21-1.56.43-3.09.63-4.62C370.29,193.71,370.92,193.58,371.6,193.46Z"/><path class="cls-11" d="M373.58,146.9c-.07,4.43-.25,9-.55,13.69-3.19,0-6.72-.2-10.58-.55.83-4,1.55-7.78,2.21-11.88.35-2.09.65-4.1.93-6a70,70,0,0,0,8,.93C373.6,144.49,373.6,145.75,373.58,146.9Z"/><path class="cls-10" d="M367.21,99.85l.26.12a8.94,8.94,0,0,1-.79.82C366.84,100.49,367,100.15,367.21,99.85Z"/><path class="cls-11" d="M368.51,202.06c-1.05,7.08-2.23,14.16-3.48,21.15h-4.18c-.88-1-.58-3.61,0-8.9.74-6.82,1.13-10.22,2.53-11.45S366.53,201.65,368.51,202.06Z"/><path class="cls-12" d="M365.59,142.18c-.28,1.88-.58,3.89-.93,6-.66,4.1-1.38,7.91-2.21,11.88-1.33-.13-2.71-.26-4.14-.43V140.53A70.49,70.49,0,0,0,365.59,142.18Z"/><path class="cls-13" d="M371.57,178.43q-.82,7.63-1.88,15.4c-4.1.87-6,1.51-7.57.12-2-1.82-.68-4.81-.78-14.86,0-2.13-.12-4.06-.2-5.71,3.32-.06,6.43.74,8.6,2.78A10.7,10.7,0,0,1,371.57,178.43Z"/><path class="cls-11" d="M372.3,170.71c-.22,2.54-.48,5.12-.73,7.72a10.7,10.7,0,0,0-1.83-2.27c-2.17-2-5.28-2.84-8.6-2.78-.09-1.43-.2-2.61-.29-3.59C365.08,170.19,368.92,170.49,372.3,170.71Z"/><path class="cls-11" d="M373,160.59c-.2,3.33-.43,6.71-.73,10.12-3.38-.22-7.22-.52-11.45-.92.09,1,.2,2.16.29,3.59a13.31,13.31,0,0,0-1.68.09c1.18-5,2.16-9.32,3-13.43C366.31,160.39,369.84,160.56,373,160.59Z"/><path class="cls-11" d="M369.06,198.45c-.19,1.19-.35,2.4-.55,3.61-2-.41-3.7-.44-5.13.8s-1.79,4.63-2.53,11.45c-.58,5.29-.88,7.95,0,8.9h-15c1.78-5.09,3.84-11.3,6.44-20.91a5.38,5.38,0,0,1,.88-.72c4.91-3.27,10.86,1.43,15.25-2.54C368.69,198.84,368.87,198.65,369.06,198.45Z"/><path class="cls-13" d="M369.69,193.83c-.2,1.53-.42,3.06-.63,4.62-.19.2-.37.39-.59.59-4.39,4-10.34-.73-15.25,2.54a5.38,5.38,0,0,0-.88.72c1-3.86,2.18-8.3,3.41-13.43,1.44-5.92,2.66-10.94,3.71-15.4a13.31,13.31,0,0,1,1.68-.09c.08,1.65.16,3.58.2,5.71.1,10-1.22,13,.78,14.86C363.65,195.34,365.59,194.7,369.69,193.83Z"/><path class="cls-10" d="M369.74,93.35a9,9,0,0,1-1.27,5.22,9.53,9.53,0,0,1-1,1.4l-.26-.12c-.17.3-.37.64-.53.94a24.18,24.18,0,0,1-2,1.59c-3.66,2.78-8.2,8-11.44,19.08a46,46,0,0,0-3-6.28c1.28,1.76,2.16,2.71,3,2.47,1.64-.45.48-4.59,2.53-10.16C358.54,100,365.48,94.31,369.74,93.35Z"/><path class="cls-14" d="M365.88,50c-.19.5-3.94-1.37-10.13-1-5.58.25-8.9,2.1-9.12,1.58s3.41-3.73,8.13-4.27C360.77,45.55,366.06,49.38,365.88,50Z"/><path class="cls-14" d="M355.75,77c2,2.29,3.31,5.82,2.56,6.37S355,82.09,346.86,73.15A11.7,11.7,0,0,1,355.75,77Z"/><path class="cls-10" d="M348.14,214.31c2.57-5.26,1.43-9.37,4.2-12-2.6,9.61-4.66,15.82-6.44,20.91h-5.82A23.66,23.66,0,0,0,348.14,214.31Z"/><path class="cls-15" d="M342.3,158.21c4.91.1,9.95,4.33,9.65,6.51-.28,1.93-4.7,1.66-9.33,4.71-1.16-.87-3.26-.6-9.6.19,2-5.42,3.26-9.81,6.72-11A25.18,25.18,0,0,0,342.3,158.21Z"/><path class="cls-10" d="M343,114.69l-.11.14A208,208,0,0,0,322.76,99.9l2.48-1.33Z"/><path class="cls-15" d="M342.3,158.21a25.18,25.18,0,0,1-2.56.37,6.23,6.23,0,0,1,.77-.22A6.67,6.67,0,0,1,342.3,158.21Z"/><path class="cls-13" d="M339.23,201.58c3.39,2.91,1,9.37-.52,20.9a5.36,5.36,0,0,0,0,.73h-4.53c-3.46-11-2.73-17.9-4.47-21.13.16-.21.36-.43.53-.66C335,201,337.21,199.89,339.23,201.58Z"/><path class="cls-14" d="M372.28,58a105.73,105.73,0,0,1-1.08,11c-1.13,1.34-2.11,2.31-2.73,2.94.35-.81,7.06-17.75-1.26-26.72-4.43-4.75-12-6.07-14-6.35-8.1-1.16-12.78,2-16.54-1.26-3.11-2.67-3.24-7.62-3.79-7.62l.28-3.65c20.71,1.58,31.09,2.4,35,7.52C373.25,40.43,372.77,49,372.28,58Z"/><path class="cls-14" d="M332.74,81.65a63.91,63.91,0,0,1,9.81-7.05c-1,1.16-2.54,2.84-4.65,5.16-2.67,2.88-3.51,3.66-4.21,3.42A2.06,2.06,0,0,1,332.74,81.65Z"/><path class="cls-14" d="M343.74,72.72c.11.22-.27.82-1.19,1.88a63.91,63.91,0,0,0-9.81,7.05A6.7,6.7,0,0,1,333,78C334.69,73.05,343,71.44,343.74,72.72Z"/><path class="cls-7" d="M346.86,73.15c8.09,8.94,10.75,10.67,11.45,10.17s-.57-4.08-2.56-6.37A11.7,11.7,0,0,0,346.86,73.15Zm21.31,7.61c-2.38,6.25-6.17,12-12.27,15-11.12,5.39-22.94-2-24.53-3A25.76,25.76,0,0,1,327,88.79a22.67,22.67,0,0,1,5.71-7.14,2.06,2.06,0,0,0,.95,1.53c.7.24,1.54-.54,4.21-3.42,2.11-2.32,3.69-4,4.65-5.16a77.7,77.7,0,0,1,10.67-5.26c9-3.57,11.74-2,12.72-1.28C368,69.69,367.21,71.81,368.17,80.76Z"/><path class="cls-12" d="M343,169.79c3.11,3.58-1.07,15.62-8.89,19.08a11,11,0,0,1-5.45.85,91.75,91.75,0,0,0,6.72-11,21.91,21.91,0,0,1,5.09-7.62,14.16,14.16,0,0,1,2.11-1.64A1.72,1.72,0,0,1,343,169.79Z"/><path class="cls-13" d="M359.46,173.47c-1,4.46-2.27,9.48-3.71,15.4-1.23,5.13-2.38,9.57-3.41,13.43-2.77,2.64-1.63,6.75-4.2,12a23.66,23.66,0,0,1-8.06,8.9h-1.4a5.36,5.36,0,0,1,0-.73c1.5-11.53,3.91-18,.52-20.9-2-1.69-4.21-.61-9-.16,1.1-1.3,2.38-2.88,3.94-4.91,9.85-12.94,8.45-15.51,14-19.08A26.44,26.44,0,0,1,359.46,173.47Z"/><path class="cls-14" d="M333.17,26.27l-.28,3.65h0c-.71.13,1.13,7.58-1.28,8.88-1.73,1-4.12-2.18-6.35-1.26-2,.83-2.33,4.4-2.55,6.35a71.29,71.29,0,0,1-1.11,7.42c-.07.08-.1.17-.15.22a1.13,1.13,0,0,0,.13-.1c-1.43,6.8-3.08,7.32-2.68,14.09A43.53,43.53,0,0,0,324,83.32q-1.43-1.53-3.1-3.6c-4.37-8.58-7.75-21.92-4.49-41.39.6-3.57,1.71-6.77,4.09-9.06,3.71-3.6,8.82-3.3,12.28-3Z"/><path class="cls-12" d="M329.3,201.5a8.11,8.11,0,0,0,.91-.08c-.17.23-.37.45-.53.66A2.42,2.42,0,0,0,329.3,201.5Z"/><path class="cls-9" d="M329.68,202.08c1.74,3.23,1,10.1,4.47,21.13h-14c0-4.53,2.93-10.85,3.8-12.71C325.67,206.84,327.13,205.14,329.68,202.08Z"/><path class="cls-10" d="M340.51,102.38c1.83,2,3.39,3.88,4.71,5.63a40,40,0,0,0-6-5.63c-7.06-5.34-11.61-5-12.71-8.88C330.69,91.85,336.76,98.41,340.51,102.38Z"/><path class="cls-16" d="M369.74,93.35c-4.26,1-11.2,6.69-14,14.14-2.05,5.57-.89,9.71-2.53,10.16-.87.24-1.75-.71-3-2.47a43.16,43.16,0,0,0-5-7.17c-1.32-1.75-2.88-3.65-4.71-5.63-3.75-4-9.82-10.53-14-8.88a6.94,6.94,0,0,1,.51-4.71,25.76,25.76,0,0,0,4.34,3.91c1.59,1,13.41,8.42,24.53,3,6.1-3,9.89-8.72,12.27-15,.09.79.19,1.64.3,2.56C369.06,87.79,369.69,90.85,369.74,93.35Z"/><path class="cls-9" d="M329.3,201.5a40.22,40.22,0,0,1-4.06.08c-1,0-2-.08-3-.18,2-1.21,3.78-1.8,5.51-1.08A3.28,3.28,0,0,1,329.3,201.5Z"/><path class="cls-10" d="M364.66,102.38a24.18,24.18,0,0,0,2-1.59q-6.76,11.59-13.46,23.22-5.12-4.67-10.27-9.32L325.24,98.57l-2.48,1.33-.07-.05c.5-2.46,1.53-5.47,3.83-6.35,1.1,3.89,5.65,3.54,12.71,8.88a40,40,0,0,1,6,5.63c2.21,2.92,3.76,5.44,5,7.17a46,46,0,0,1,3,6.28C356.46,110.42,361,105.16,364.66,102.38Z"/><path class="cls-7" d="M355.75,48.93c6.19-.32,9.94,1.55,10.13,1s-5.11-4.43-11.12-3.74c-4.72.54-8.38,3.71-8.13,4.27S350.17,49.18,355.75,48.93Zm11.46-3.78c8.32,9,1.61,25.91,1.26,26.72.62-.63,1.6-1.6,2.73-2.94a62.59,62.59,0,0,1-3,11.83c-1-9-.13-11.07-2.23-12.7-1-.75-3.71-2.29-12.72,1.28a77.7,77.7,0,0,0-10.67,5.26c.92-1.06,1.3-1.66,1.19-1.88-.79-1.28-9.05.33-10.78,5.27a6.7,6.7,0,0,0-.22,3.66A22.67,22.67,0,0,0,327,88.79a42.32,42.32,0,0,1-6.17-9.07q1.68,2.07,3.1,3.6a43.53,43.53,0,0,1-5.08-17.8c-.4-6.77,1.25-7.29,2.68-14.09a17.55,17.55,0,0,1,7.5-2.43c5.06-.42,8.67,1.76,8.89,1.25s-3.26-3.81-7.62-3.81c-4.68,0-7.89,3.74-8.75,4.87a71.29,71.29,0,0,0,1.11-7.42c.22-2,.52-5.52,2.55-6.35,2.23-.92,4.62,2.21,6.35,1.26,2.41-1.3.57-8.75,1.28-8.88h0c.55,0,.68,4.95,3.79,7.62,3.76,3.24,8.44.1,16.54,1.26C355.2,39.08,362.78,40.4,367.21,45.15Z"/><path class="cls-14" d="M330.33,46.44c4.36,0,7.87,3.29,7.62,3.81s-3.83-1.67-8.89-1.25a17.55,17.55,0,0,0-7.5,2.43.27.27,0,0,0,0-.12C322.44,50.18,325.65,46.44,330.33,46.44Z"/><path class="cls-14" d="M321.56,51.43a1.13,1.13,0,0,1-.13.1c.05-.05.08-.14.15-.22A.27.27,0,0,1,321.56,51.43Z"/><path class="cls-15" d="M342.62,169.43a14.16,14.16,0,0,0-2.11,1.64,21.91,21.91,0,0,0-5.09,7.62,91.75,91.75,0,0,1-6.72,11c-2.62-.15-5.51-.75-10.09,0,1.8-1.33,3.23-2.63,4.08-3.39,5.81-5.26,8.39-11.46,10.33-16.71C339.36,168.83,341.46,168.56,342.62,169.43Z"/><path class="cls-14" d="M316.37,38.33c-3.26,19.47.12,32.81,4.49,41.39A57.4,57.4,0,0,1,310,57.88c-1.16-4.76-5.29-21.39,3.83-36.88,1.76-3,7.67-13,19.08-16.52A32,32,0,0,1,343,3.2c3.34,0,12.92.55,21.62,6.37,11.62,7.75,17.5,22.21,16.52,35.58a41.4,41.4,0,0,1-10,23.78,105.73,105.73,0,0,0,1.08-11c.49-8.93,1-17.53-4.09-24.17-3.93-5.12-14.31-5.94-35-7.52l-.43,0c-3.46-.27-8.57-.57-12.28,3C318.08,31.56,317,34.76,316.37,38.33Z"/><path class="cls-10" d="M332.07,158.83c3.25,0,5.73-.09,7.67-.25-3.46,1.23-4.76,5.62-6.72,11-.45,0-.93.1-1.43.17-19.16,2.38-22.84,2.28-25.44,0-2.84-2.49-4.29-7.58-2.54-10.18C306.05,156.07,313.42,158.83,332.07,158.83Z"/><path class="cls-10" d="M316.32,190.15a18.18,18.18,0,0,1,2.29-.43c-3.19,2.33-7.56,4.73-12,4.44C308.45,192,315.45,190.37,316.32,190.15Z"/><path class="cls-15" d="M318.61,189.72c4.58-.75,7.47-.15,10.09,0a58.48,58.48,0,0,1-9.94,11.21c-6.82-1.11-12.57-3.56-12.61-5.7a1.91,1.91,0,0,1,.44-1.07C311.05,194.45,315.42,192.05,318.61,189.72Z"/><path class="cls-12" d="M342.84,114.83c5.52,4.85,9,9.15,7.83,11.74-.76,1.7-3.29,2.16-7.63,2.53-26.17,2.3-40.66-4.79-45.79,1.26-2.51,3-2.27,8.6,0,11.45,5.56,7,27.5,3,38.17,0,2.36-.67,6-1.81,8.9,0,4,2.53,5.44,10.06,2.54,14-.86,1.15-2,1.93-4.56,2.41a6.67,6.67,0,0,0-1.79.15,6.23,6.23,0,0,0-.77.22c-1.94.16-4.42.25-7.67.25-18.65,0-26-2.76-28.46.78-1.75,2.6-.3,7.69,2.54,10.18,2.6,2.28,6.28,2.38,25.44,0,.5-.07,1-.12,1.43-.17-1.94,5.25-4.52,11.45-10.33,16.71-.85.76-2.28,2.06-4.08,3.39a18.18,18.18,0,0,0-2.29.43c-.87.22-7.87,1.82-9.73,4a8.49,8.49,0,0,1-1.7-.21c-12.58-2.83-19.5-28.92-20.36-47-.19-4.39,0-8.28,0-11.51a5,5,0,0,0,1.28-1.22c2.71-3.54,2.86-9.48.66-13.87,3.17-1.93,7.46-4.39,13.33-7.72,9.17-5.19,17-9.48,23-12.68A208,208,0,0,1,342.84,114.83Z"/><path class="cls-10" d="M367.47,100c1.69.8,3.35,1.58,5,2.35-2.1,4.22-6.89,6.83-10.4,12.79a28.59,28.59,0,0,0-3.81,12.71,74.07,74.07,0,0,0,9,1.9c-.48,3.7-1,7.78-1.72,12.46a70.49,70.49,0,0,1-7.28-1.65v19.08c1.43.17,2.81.3,4.14.43-.83,4.11-1.81,8.42-3,13.43a26.44,26.44,0,0,0-11.32,4c-5.54,3.57-4.14,6.14-14,19.08-1.56,2-2.84,3.61-3.94,4.91a8.11,8.11,0,0,1-.91.08,3.28,3.28,0,0,0-1.52-1.18c-1.73-.72-3.56-.13-5.51,1.08-1.19-.12-2.36-.27-3.51-.47a58.48,58.48,0,0,0,9.94-11.21,11,11,0,0,0,5.45-.85c7.82-3.46,12-15.5,8.89-19.08a1.72,1.72,0,0,0-.42-.36c4.63-3.05,9.05-2.78,9.33-4.71.3-2.18-4.74-6.41-9.65-6.51,2.53-.48,3.7-1.26,4.56-2.41,2.9-3.93,1.45-11.46-2.54-14-2.88-1.81-6.54-.67-8.9,0-10.67,3-32.61,7-38.17,0-2.27-2.85-2.51-8.45,0-11.45,5.13-6.05,19.62,1,45.79-1.26,4.34-.37,6.87-.83,7.63-2.53,1.13-2.59-2.31-6.89-7.83-11.74l.11-.14q5.15,4.65,10.27,9.32,6.7-11.61,13.46-23.22A8.94,8.94,0,0,0,367.47,100Z"/><path class="cls-15" d="M296,220.66a2.08,2.08,0,0,0-.3-.38,3,3,0,0,1,.48.22Z"/><path class="cls-9" d="M301.91,223.21H262.52c-1.15-22.93-.8-29.85-.65-38.21,1.45,5.69,3.39,7.12,4.87,7.68,4.23,1.62,9.4-2.14,11.43-3.81,1.42,3.63,3.1,7.46,5.11,11.45a127.38,127.38,0,0,0,8.12,13.87c-.17,1.38-.33,2.68-.5,3.93,1.68.73,3.28,1.46,4.79,2.16a2.08,2.08,0,0,1,.3.38l.18-.16C298.22,221.43,300.13,222.34,301.91,223.21Z"/><path class="cls-15" d="M292.06,204a116.61,116.61,0,0,0,7.74,12.84c-1.21,1.2-2.45,2.43-3.63,3.65a3,3,0,0,0-.48-.22c-1.4-1.9-2.84-3.92-4.29-6.09C291.73,211.15,292,207.74,292.06,204Z"/><path class="cls-9" d="M291.4,214.19c1.45,2.17,2.89,4.19,4.29,6.09-1.51-.7-3.11-1.43-4.79-2.16C291.07,216.87,291.23,215.57,291.4,214.19Z"/><path class="cls-9" d="M329.3,201.5a2.42,2.42,0,0,1,.38.58c-2.55,3.06-4,4.76-5.72,8.42-.87,1.86-3.8,8.18-3.8,12.71H301.91c-1.78-.87-3.69-1.78-5.74-2.71,1.18-1.22,2.42-2.45,3.63-3.65A116.61,116.61,0,0,1,292.06,204v0a100.68,100.68,0,0,0-.33-11.06c4.74,15.39,8.85,18.2,11.88,18.82,6.84,1.44,13.14-7,18.66-10.35,1,.1,2,.17,3,.18A40.22,40.22,0,0,0,329.3,201.5Z"/><path class="cls-12" d="M322.27,201.4c-5.52,3.39-11.82,11.79-18.66,10.35-3-.62-7.14-3.43-11.88-18.82-.15-2-.36-4-.66-6.12,4.09,8.68,10.11,18.45,17.65,18.58,3.27.07,6.72-1.71,10-4.46C319.91,201.13,321.08,201.28,322.27,201.4Z"/><path class="cls-15" d="M289.64,178.69c.61,2.78,1.08,5.49,1.43,8.12-.89-1.9-1.68-3.73-2.38-5.42-1.23-5.48-2.05-10.58-2.65-15.31A107.81,107.81,0,0,1,289.64,178.69Z"/><path class="cls-10" d="M286.47,120.3c2.2,4.39,2,10.33-.66,13.87a5,5,0,0,1-1.28,1.22c.11-5.34,0-8.92-2.53-10.1a4.59,4.59,0,0,0-2.53-.37A71.41,71.41,0,0,1,286.47,120.3Z"/><path class="cls-15" d="M318.76,200.93c-3.32,2.75-6.77,4.53-10,4.46-7.54-.13-13.56-9.9-17.65-18.58-.35-2.63-.82-5.34-1.43-8.12a107.81,107.81,0,0,0-3.6-12.61c-1.61-13.06-1.48-23.26-2.78-29.93a9.47,9.47,0,0,0,1.27-.76c0,3.23-.19,7.12,0,11.51.86,18.13,7.78,44.22,20.36,47a8.49,8.49,0,0,0,1.7.21,1.91,1.91,0,0,0-.44,1.07C306.19,197.37,311.94,199.82,318.76,200.93Z"/><path class="cls-15" d="M286,166.08c.6,4.73,1.42,9.83,2.65,15.31-.6-1.47-1.15-2.82-1.6-4a107.57,107.57,0,0,1-6.32-24.66C282.47,156.72,284.34,161.11,286,166.08Z"/><path class="cls-10" d="M282,125.29c2.48,1.18,2.64,4.76,2.53,10.1a9.47,9.47,0,0,1-1.27.76c-.84-4.27-2.24-7.1-5.09-8.33a6.55,6.55,0,0,0-1.05-.37,9,9,0,0,1,2.35-2.53A4.59,4.59,0,0,1,282,125.29Z"/><path class="cls-9" d="M279.45,144.37c.42,0,.59,3.21,1.32,8.4-.6-1.44-1.22-2.81-1.75-4.12C279,146.15,279.15,144.39,279.45,144.37Z"/><path class="cls-9" d="M291.73,192.93a100.68,100.68,0,0,1,.33,11.06c-.93-1.78-1.73-3.44-2.42-5a116.05,116.05,0,0,1-9.05-29.78c-.17-.88-.75-4.63-1.14-9.65-.26-3.53-.43-7.84-.43-11,.53,1.31,1.15,2.68,1.75,4.12a107.57,107.57,0,0,0,6.32,24.66c.45,1.14,1,2.49,1.6,4,.6,2.81,1.34,5.75,2.21,8.76C291.18,191.12,291.45,192.05,291.73,192.93Z"/><path class="cls-15" d="M283.26,136.15c1.3,6.67,1.17,16.87,2.78,29.93-1.7-5-3.57-9.36-5.27-13.31-.73-5.19-.9-8.4-1.32-8.4s-.43,1.78-.43,4.28a56.12,56.12,0,0,1-3.38-10A39.26,39.26,0,0,0,283.26,136.15Z"/><path class="cls-10" d="M278.17,127.82c2.85,1.23,4.25,4.06,5.09,8.33a39.26,39.26,0,0,1-7.62,2.47,15.73,15.73,0,0,1,1.29-10.8c.06-.13.13-.23.19-.37A6.55,6.55,0,0,1,278.17,127.82Z"/><path class="cls-10" d="M276.93,127.82a15.73,15.73,0,0,0-1.29,10.8l-2.54.66c-2.66.67-4.84,1.22-6.62,1.56a15,15,0,0,1,1.53-6.67,19.66,19.66,0,0,1,5.92-6.87,8.77,8.77,0,0,1,3.19.15C277.06,127.59,277,127.69,276.93,127.82Z"/><path class="cls-10" d="M279.47,124.92a9,9,0,0,0-2.35,2.53,8.77,8.77,0,0,0-3.19-.15A12.1,12.1,0,0,1,279.47,124.92Z"/><path class="cls-17" d="M260.22,57.8c4.24-3.45,15.22-1.2,15.42-2.45C275.64,56.15,271.65,56.78,260.22,57.8Z"/><path class="cls-9" d="M268,150.73c2.08,8.83,5,20,8.92,33.05-4.66,5.09-7.32,5.59-8.92,5.09-6.14-1.88-5.66-21.36-5.38-33.47.12-5.41.47-10.2.9-14.17a22.29,22.29,0,0,0,3-.39A44,44,0,0,0,268,150.73Z"/><path class="cls-10" d="M262.85,141.24c.38-1.88.83-3.79,1.35-5.79-.22,1.67-.45,3.6-.67,5.78A3.1,3.1,0,0,1,262.85,141.24Z"/><path class="cls-10" d="M273.93,127.3a19.66,19.66,0,0,0-5.92,6.87,15,15,0,0,0-1.53,6.67,22.29,22.29,0,0,1-3,.39c.22-2.18.45-4.11.67-5.78-.52,2-1,3.91-1.35,5.79a5.31,5.31,0,0,1-1.41-.18c.63-4.81,2.11-8.33,5.3-10.7A17.16,17.16,0,0,1,273.93,127.3Z"/><path class="cls-15" d="M292.06,204c-.08,3.73-.33,7.14-.66,10.18a127.38,127.38,0,0,1-8.12-13.87c-2-4-3.69-7.82-5.11-11.45-2,1.67-7.2,5.43-11.43,3.81-1.48-.56-3.42-2-4.87-7.68.13-5,.17-10.53-.22-20.28-.2-5.13-.45-9.7-.53-13.71.4-3.08,1-6.34,1.73-9.77a3.1,3.1,0,0,0,.68,0c-.43,4-.78,8.76-.9,14.17-.28,12.11-.76,31.59,5.38,33.47,1.6.5,4.26,0,8.92-5.09-4-13-6.84-24.22-8.92-33.05a44,44,0,0,1-1.53-9.89c1.78-.34,4-.89,6.62-1.56l2.54-.66a56.12,56.12,0,0,0,3.38,10c0,3.12.17,7.43.43,11,.39,5,1,8.77,1.14,9.65A116.05,116.05,0,0,0,289.64,199c.69,1.51,1.49,3.17,2.42,5Z"/><path class="cls-9" d="M262.85,141.24c-.76,3.43-1.33,6.69-1.73,9.77a65.85,65.85,0,0,1,.32-9.95A5.31,5.31,0,0,0,262.85,141.24Z"/><path class="cls-10" d="M286.47,120.3a71.41,71.41,0,0,0-7,4.62,12.1,12.1,0,0,0-5.54,2.38,17.16,17.16,0,0,0-7.19,3.06c-3.19,2.37-4.67,5.89-5.3,10.7a3,3,0,0,1-1.07-.53c-3.47-2.76-2.28-11.15,1.28-16.52,4.46-6.71,15.09-12.36,21.63-7.64A10.28,10.28,0,0,1,286.47,120.3Z"/><path class="cls-15" d="M261.65,164.72c.39,9.75.35,15.29.22,20.28a61.94,61.94,0,0,1-1.5-10.12,111.31,111.31,0,0,1,.75-23.87C261.2,155,261.45,159.59,261.65,164.72Z"/><path class="cls-17" d="M259.07,63l1.3,8.88h-.81c-.14-1-.34-2.3-.45-3.8-.18-2.09-.35-3.76-.42-5.07Z"/><path class="cls-18" d="M252.74,166a210.49,210.49,0,0,1,6.37,35.62c.21,2.85.4,5.54.58,8.14l-2.86.21a89.12,89.12,0,0,0-5.34-21.06c-1.78-4.71-5-12.11-6.87-13.69-.13-6.35-1.4-15.5-5.16-21.58a2.77,2.77,0,0,0,.57-.34,8,8,0,0,0,1.53-1.44,10.28,10.28,0,0,1,3.57,1.44C250,156.27,251.62,161.77,252.74,166Z"/><path class="cls-18" d="M259.56,71.86c.26,2,.35,3.17-.45,3.84-1.08.88-3.06.15-4.09-.22a5,5,0,0,0-.67-.06,16.66,16.66,0,0,0-6.6-3.78Z"/><path class="cls-18" d="M259.69,209.72c.33,4.77.62,9.2.82,13.49H238.86c4.24-9.6,5.84-16.82,7.52-16.54,2.16.35,1.93,12.71,2.56,12.71s.19-13.57,2.55-14c1.86-.3,4.16,7.9,5.09,7.64.32-.09.4-1.23.25-3.1Z"/><path class="cls-19" d="M244.62,175.18c.08,4.18-.28,7.15-.75,7.3-.27-4.25-1-7.35,0-7.6A.86.86,0,0,1,244.62,175.18Z"/><path class="cls-20" d="M246.38,104.94c2.3,3.21,3.28,7.26,2.56,7.64s-1.84-3.53-6.37-6.37c-1-.67-2.33-1.32-2.54-2.55a2.42,2.42,0,0,1,1.28-2.53C243.2,100.44,246,104.41,246.38,104.94Z"/><path class="cls-21" d="M242.57,129.1a111.58,111.58,0,0,1-3.11,12.11c.18-1,.37-2.08.57-3.21,1.43-7.6,2.11-11.43,2.54-11.43.12,0,.27.17.42.5C242.85,127.72,242.71,128.38,242.57,129.1Z"/><path class="cls-17" d="M247.75,71.64q-24.88-.48-49.78-1c5.31-4.62,14.07-3.86,26.82-2.61C235,69.06,242.39,69.79,247.75,71.64Z"/><path class="cls-20" d="M256.58,78.23c4.76,8,1.11,19.38,0,22.9-1.48,4.58-4.38,10.4-5.09,10.17-.23-.07-.22-.73-.15-1.48,1.43-3.13,2.68-6.54,4-10,4-10.79,2.24-14.87,1.28-16.53s-2.5-3.23-6.37-5.09a42.8,42.8,0,0,0-11.28-3.38h.36c8.37.27,13.33.43,15.06.57A12.78,12.78,0,0,1,256.58,78.23Z"/><path class="cls-18" d="M238.93,74.85c-4.11-.15-7.87-.23-11.18-.28A38.44,38.44,0,0,1,238.93,74.85Z"/><path class="cls-18" d="M241.56,151.82a8,8,0,0,1-1.53,1.44,2.77,2.77,0,0,1-.57.34,16.32,16.32,0,0,0-1.45-2A14,14,0,0,1,241.56,151.82Z"/><path class="cls-20" d="M230.36,103.21c2.91-1.23,5.56-1.39,5.86-.83.06.12.05.3-2.32,2.46A38.39,38.39,0,0,0,230.36,103.21Z"/><path class="cls-21" d="M238.28,144.8c-.28.74-.55,1.45-.78,2.1q-1.17-2.78-2.36-5.22c-1.35-2.78-2.72-5.24-4.06-7.42,0,0,0,0,.06-.09s0-.08,0-.11A99.86,99.86,0,0,1,238.28,144.8Z"/><path class="cls-17" d="M231.14,134.17c0,.05,0,.07-.06.09l-.35-.55a1.48,1.48,0,0,1,.3.21c.05,0,.06,0,.05.07s0,0,0,.07S231.16,134.14,231.14,134.17Z"/><path class="cls-17" d="M233.67,199c2.66.53,6.47,1.81,6.36,2.54-.29,1.95-28-.08-28-1.26,0-.22,3.81-.58,11.45-1.28C228.56,198.59,230.78,198.45,233.67,199Z"/><path class="cls-21" d="M230,132.56c.36.45.73.9,1.05,1.36a1.48,1.48,0,0,0-.3-.21C230.46,133.31,230.23,132.93,230,132.56Z"/><path class="cls-7" d="M243.85,115.11a12.9,12.9,0,0,1,.22,5.57A14.09,14.09,0,0,1,237.5,124c-7.64,1.6-14.14-2.68-17.8-5.07a46.52,46.52,0,0,1-6.77-5.54c.13-.57.26-1.25.41-2.1a16.14,16.14,0,0,0,0-6.36,7.25,7.25,0,0,0-2.79-4c5.25-1.38,13-.44,19.81,2.28a14,14,0,0,0-6.85,5.53c-1.08,1.83-2,4.54-1.28,5.1s4-2.11,10.18-7.63c.6-.52,1.08-1,1.49-1.37C238.68,107.39,242.52,110.87,243.85,115.11Z"/><path class="cls-20" d="M233.9,104.84c-.41.4-.89.85-1.49,1.37-6.22,5.52-9.34,8.25-10.18,7.63s.2-3.27,1.28-5.1a14,14,0,0,1,6.85-5.53A38.39,38.39,0,0,1,233.9,104.84Z"/><path class="cls-17" d="M233.67,148.16a12.36,12.36,0,0,1,4.34,3.43c-2.39,0-5,.45-8.15.4-7.35-.1-11.53-2.53-15.37-5.09a29.64,29.64,0,0,0,5.21,1.26C227.63,149.36,229.13,146.12,233.67,148.16Z"/><path class="cls-19" d="M256.83,209.93c.15,1.87.07,3-.25,3.1-.93.26-3.23-7.94-5.09-7.64-2.36.42-2,14-2.55,14s-.4-12.36-2.56-12.71c-1.68-.28-3.28,6.94-7.52,16.54H201.08c.1-2.46.09-5-.06-7.52,4.69,3.29,10.41,5.42,16.13,5,14.14-1.13,25.37-18,26.7-31.79a34.58,34.58,0,0,0,0-6.35v0c.47-.15.83-3.12.75-7.3,1.84,1.58,5.09,9,6.87,13.69A89.12,89.12,0,0,1,256.83,209.93Z"/><path class="cls-21" d="M237.5,124a14.09,14.09,0,0,0,6.57-3.33c-.2,1.73-.58,3.81-1.08,6.39-.15-.33-.3-.5-.42-.5-.43,0-1.11,3.83-2.54,11.43-.2,1.13-.39,2.21-.57,3.21a.51.51,0,0,0,0,.17c-.4,1.23-.78,2.36-1.15,3.42a99.86,99.86,0,0,0-7.15-10.74s0-.05,0-.07,0,0-.05-.07c-.32-.46-.69-.91-1.05-1.36,0-.05-.07-.08-.1-.13a43.42,43.42,0,0,0-7.52-8.74,77.35,77.35,0,0,0-9.72-9.33,5,5,0,0,0,.29-1,46.52,46.52,0,0,0,6.77,5.54C223.36,121.33,229.86,125.61,237.5,124Z"/><path class="cls-20" d="M256.58,83.32c1,1.66,2.74,5.74-1.28,16.53-1.28,3.43-2.53,6.84-4,10,0-.37.1-.75.15-1.08,1.9-12.95,6.29-20.28,3.81-25.42-2-4.08-7.49-5.11-14-6.37-5.78-1.1-13.28-1-14,1.28-.64,2.08,4.56,5.09,3.82,6.35-.43.75-2.44.33-3.82,0-9.5-2.13-11.23-4.42-14-3.79a6.09,6.09,0,0,0-2.79,1.55l-.25-.29a27.27,27.27,0,0,1,5.57-3.82,33.5,33.5,0,0,1,11.88-3.66c3.31.05,7.07.13,11.18.28a42.8,42.8,0,0,1,11.28,3.38C254.08,80.09,255.65,81.74,256.58,83.32Z"/><path class="cls-7" d="M248.94,112.58c.72-.38-.26-4.43-2.56-7.64-.36-.53-3.18-4.5-5.07-3.81a2.42,2.42,0,0,0-1.28,2.53c.21,1.23,1.49,1.88,2.54,2.55C247.1,109.05,248.23,113,248.94,112.58Zm6.36-29.26c2.48,5.14-1.91,12.47-3.81,25.42-.05.33-.1.71-.15,1.08-2,4.37-4.24,8.22-7.27,10.86a12.9,12.9,0,0,0-.22-5.57c-1.33-4.24-5.17-7.72-9.95-10.27,2.37-2.16,2.38-2.34,2.32-2.46-.3-.56-2.95-.4-5.86.83-6.79-2.72-14.56-3.66-19.81-2.28-1.3-1-2.68-1.87-3.6-3.62-2.22-4.36,0-11.68,3.6-15a6.09,6.09,0,0,1,2.79-1.55c2.75-.63,4.48,1.66,14,3.79,1.38.33,3.39.75,3.82,0,.74-1.26-4.46-4.27-3.82-6.35.71-2.32,8.21-2.38,14-1.28C247.81,78.21,253.3,79.24,255.3,83.32Z"/><path class="cls-20" d="M213.34,104.94a16.14,16.14,0,0,1,0,6.36c-.15.85-.28,1.53-.41,2.1a34.81,34.81,0,0,1-7.14-9.82,9,9,0,0,1,4.76-2.65A7.25,7.25,0,0,1,213.34,104.94Z"/><path class="cls-17" d="M230.73,133.71l.35.55c-.45.43-2.86.06-3.76-.09-11.35-1.73-21.11-10-20.37-11.43.25-.39,1.27-.21,2.57,0a16.11,16.11,0,0,1,7.63,3.83C222.89,131.3,229.13,132.81,230.73,133.71Z"/><path class="cls-20" d="M212.93,113.4a5,5,0,0,1-.29,1c-2.61-2-5.12-3.28-7.35-3.39-.4-.4-.8-.84-1.21-1.3a8.26,8.26,0,0,1,1.63-6,.59.59,0,0,1,.08-.08A34.81,34.81,0,0,0,212.93,113.4Z"/><path class="cls-20" d="M205.29,111c2.23.11,4.74,1.43,7.35,3.39a1.24,1.24,0,0,1-.58.75C210.76,115.77,208.1,114,205.29,111Z"/><path class="cls-20" d="M210.3,82.05l.25.29c-3.6,3.29-5.82,10.61-3.6,15,.92,1.75,2.3,2.59,3.6,3.62a9,9,0,0,0-4.76,2.65A17.86,17.86,0,0,1,204.43,91,18.57,18.57,0,0,1,210.3,82.05Z"/><path class="cls-20" d="M227.75,74.57a33.5,33.5,0,0,0-11.88,3.66,27.27,27.27,0,0,0-5.57,3.82,18.57,18.57,0,0,0-5.87,8.9,17.86,17.86,0,0,0,1.36,12.63.59.59,0,0,0-.08.08,8.26,8.26,0,0,0-1.63,6,56.28,56.28,0,0,1-5.71-7.89c-2.4-4.07-5.27-8.93-5.37-15.92-.05-2.33-.14-7.23,2.09-11.46,10.25-.13,18.72-.07,24.61,0C221.91,74.45,224.61,74.48,227.75,74.57Z"/><path class="cls-18" d="M204.11,141.34c4.29,1.18,7.22,3.41,10.38,5.56A42.7,42.7,0,0,1,204.11,141.34Z"/><path class="cls-21" d="M212.64,114.36a77.35,77.35,0,0,1,9.72,9.33,24.59,24.59,0,0,0-7.77-4.75c-2.35-.9-8.6-2.78-10.16-7.64a1.19,1.19,0,0,1-.07-.27,3.64,3.64,0,0,1,.93-.06c2.81,3,5.47,4.8,6.77,4.14A1.24,1.24,0,0,0,212.64,114.36Z"/><path class="cls-21" d="M204.08,109.67c.41.46.81.9,1.21,1.3a3.64,3.64,0,0,0-.93.06A9.34,9.34,0,0,1,204.08,109.67Z"/><path class="cls-19" d="M201,215.69c.15,2.55.16,5.06.06,7.52h-1.3a23.45,23.45,0,0,0-4.74-3c.39-3.55.65-6.56.8-9.15A32.85,32.85,0,0,0,201,215.69Z"/><path class="cls-17" d="M232.39,143a.18.18,0,0,1,0,.12c-.44,1.66-29.3-.55-33.06-11.45a6.23,6.23,0,0,1-.38-3.21,1.27,1.27,0,0,1,.38-.61c1.6-1.37,6.57,2.68,12.71,6.35C223.84,141.26,231.89,142.14,232.39,143Z"/><path class="cls-18" d="M231.08,134.26c1.34,2.18,2.71,4.64,4.06,7.42L232.39,143c-.5-.83-8.55-1.71-20.33-8.8-6.14-3.67-11.11-7.72-12.71-6.35a1.27,1.27,0,0,0-.38.61l-2.58-.84c4.92-14.93,5.46-15.79,6.77-16.29a4.28,4.28,0,0,1,1.2-.27,1.19,1.19,0,0,0,.07.27c1.56,4.86,7.81,6.74,10.16,7.64a24.59,24.59,0,0,1,7.77,4.75c1.28,1.4,2.53,2.81,3.69,4.13,1.37,1.56,2.65,3.09,3.83,4.61,0,0,.07.08.1.13.25.37.48.75.75,1.15-1.6-.9-7.84-2.41-13.58-7.14a16.11,16.11,0,0,0-7.63-3.83c-1.3-.21-2.32-.39-2.57,0-.74,1.42,9,9.7,20.37,11.43C228.22,134.32,230.63,134.69,231.08,134.26Z"/><path class="cls-17" d="M259.11,68.06c.11,1.5.31,2.75.45,3.8l-11.81-.22c-5.36-1.85-12.8-2.58-23-3.58-12.75-1.25-21.51-2-26.82,2.61l-3.81,0L196.51,63h62.18C258.76,64.3,258.93,66,259.11,68.06Z"/><path class="cls-18" d="M259.11,59.16a8,8,0,0,0-.42,3.83H196.51l.31-1.05c9.8.07,24.61-1,47-2.78,6.67-.55,12.05-1,16.37-1.36A4.58,4.58,0,0,0,259.11,59.16Z"/><path class="cls-18" d="M247.75,71.64a16.66,16.66,0,0,1,6.6,3.78c-1.73-.14-6.69-.3-15.06-.57h-.36a38.44,38.44,0,0,0-11.18-.28c-3.14-.09-5.84-.12-8.05-.15-5.89-.09-14.36-.15-24.61,0a13.19,13.19,0,0,1,1.7-2.53,16.7,16.7,0,0,1,1.18-1.2Q222.87,71.18,247.75,71.64Z"/><path class="cls-17" d="M238,151.59a16.32,16.32,0,0,1,1.45,2c-1.51.8-4.89,1.15-18.51-1.61-12.88-2.59-21.73-4.44-25.74-8,1.3-1.4,1.93-2.61,1.58-3.46,0,0,0,0,0,0,.85,0,1.68,0,2.58,0a23.11,23.11,0,0,1,4.76.81,42.7,42.7,0,0,0,10.38,5.56c3.84,2.56,8,5,15.37,5.09C233,152,235.62,151.62,238,151.59Z"/><path class="cls-17" d="M195.59,63h.92l-2.35,7.63c-.4,0-.78,0-1.16,0Z"/><path class="cls-19" d="M195,220.25a23.45,23.45,0,0,1,4.74,3h-2.06c-.95-.7-1.86-1.43-2.76-2.16C195,220.76,195,220.51,195,220.25Z"/><path class="cls-22" d="M194.24,194c1.39,3.71,2.18,7.6,1.6,17.15-.58-.6-1.1-1.25-1.6-1.88-7.18-9.38-6.17-20.78-8.73-29.6A46.19,46.19,0,0,1,194.24,194Z"/><path class="cls-18" d="M240,201.58c.11-.73-3.7-2-6.36-2.54-2.89-.59-5.11-.45-10.16,0-7.64.7-11.45,1.06-11.45,1.28C212,201.5,239.74,203.53,240,201.58Zm-1.25-29.26c4.86,3.59,4.39,10.33,5.07,10.2h0a34.58,34.58,0,0,1,0,6.35c-1.33,13.79-12.56,30.66-26.7,31.79-5.72.45-11.44-1.68-16.13-5a80.33,80.33,0,0,0-1.67-12.83c-1.41-6.62-5.11-23.89-14.75-32.45.71-.2,1.41-.42,2-.62,2.59-6.67,2-12.88-1.27-15.25a6.51,6.51,0,0,0-3-1.14c4.69-2.64,10-6.32,12.72-9.24,3.76,3.47,11.63,5.5,15.69,6.57,10.13,2.61,13.73,1.21,19.08,5.07.67.48,7.36,5.32,6.36,8.92-2.17,7.7-38,3.49-38.15,5.07,0,.68,6.12,2.23,14,2.53C227.07,172.92,233.22,168.28,238.78,172.32Z"/><path class="cls-17" d="M196.79,140.53c.35.85-.28,2.06-1.58,3.46a6.55,6.55,0,0,1-2.11-3.11,23.66,23.66,0,0,1,3.67-.38S196.79,140.51,196.79,140.53Z"/><path class="cls-17" d="M239.46,153.6c3.76,6.08,5,15.23,5.16,21.58a.86.86,0,0,0-.77-.3c-.93.25-.25,3.35,0,7.6v0h0c-.68.13-.21-6.61-5.07-10.2-5.56-4-11.71.6-26.72,0-7.87-.3-14-1.85-14-2.53.12-1.58,36,2.63,38.15-5.07,1-3.6-5.69-8.44-6.36-8.92-5.35-3.86-9-2.46-19.08-5.07-4.06-1.07-11.93-3.1-15.69-6.57a.74.74,0,0,0,.12-.17c4,3.56,12.86,5.41,25.74,8C234.57,154.75,238,154.4,239.46,153.6Z"/><path class="cls-19" d="M195.84,211.1c-.15,2.59-.41,5.6-.8,9.15-.65-.32-1.34-.6-2-.87h0a62.75,62.75,0,0,1-11.43-14c-6.53-10.69-9.18-24.39-8.48-31.74q2-.53,4-1.05a34.31,34.31,0,0,1,8.5,7c2.56,8.82,1.55,20.22,8.73,29.6C194.74,209.85,195.26,210.5,195.84,211.1Z"/><path class="cls-22" d="M195,221.05c.9.73,1.81,1.46,2.76,2.16h-3C194.79,222.46,194.88,221.75,195,221.05Z"/><path class="cls-19" d="M195,220.25c0,.26-.06.51-.08.8-.4-.32-.78-.62-1.15-1s-.51-.43-.81-.72C193.7,219.65,194.39,219.93,195,220.25Z"/><path class="cls-18" d="M196.79,71.87a13.19,13.19,0,0,0-1.7,2.53h-1.51l-.58,0,1.16-3.8,3.81,0A16.7,16.7,0,0,0,196.79,71.87Z"/><path class="cls-17" d="M196.77,140.5a23.66,23.66,0,0,0-3.67.38,1,1,0,0,1-.1-.35,5,5,0,0,1,.05-1.67C194.76,139.06,196.32,139.5,196.77,140.5Z"/><path class="cls-17" d="M194.24,136.74c2.08-1.44,5.21,1.38,9.87,4.6a23.11,23.11,0,0,0-4.76-.81c-.9-.05-1.73-.05-2.58,0-.45-1-2-1.44-3.72-1.64A3.1,3.1,0,0,1,194.24,136.74Z"/><path class="cls-18" d="M243,127.07c1.5,2.93,4.24,18.13-1.43,24.75a14,14,0,0,0-3.55-.23,12.36,12.36,0,0,0-4.34-3.43c-4.54-2-6,1.2-14,0a29.64,29.64,0,0,1-5.21-1.26c-3.16-2.15-6.09-4.38-10.38-5.56-4.66-3.22-7.79-6-9.87-4.6a3.1,3.1,0,0,0-1.19,2.12H193a34.63,34.63,0,0,1,1.29-4.69c.8-2.46,1.52-4.64,2.15-6.58l2.58.84a6.23,6.23,0,0,0,.38,3.21c3.76,10.9,32.62,13.11,33.06,11.45a.18.18,0,0,0,0-.12l2.75-1.29q1.19,2.44,2.36,5.22c.23-.65.5-1.36.78-2.1.17.27.35.55.5.84.17-1.24.38-2.67.65-4.26a.51.51,0,0,1,0-.17,111.58,111.58,0,0,0,3.11-12.11C242.71,128.38,242.85,127.72,243,127.07Z"/><path class="cls-17" d="M193.1,140.88a6.55,6.55,0,0,0,2.11,3.11.74.74,0,0,1-.12.17,6,6,0,0,1-2-3.28Z"/><path class="cls-17" d="M193.05,140.88a1.34,1.34,0,0,1-.05-.35,1,1,0,0,0,.1.35Z"/><path class="cls-18" d="M193,140.53a4,4,0,0,1-.05-1.67h.1A5,5,0,0,0,193,140.53Z"/><path class="cls-22" d="M193.81,220.1c.37.33.75.63,1.15,1-.08.7-.17,1.41-.25,2.16H170.65c0-.42,0-.83,0-1.25,7.2-4,15.24-5.09,22.29-2.58h0C193.3,219.67,193.58,219.9,193.81,220.1Z"/><path class="cls-22" d="M199.35,202.86A80.33,80.33,0,0,1,201,215.69a32.85,32.85,0,0,1-5.18-4.59c.58-9.55-.21-13.44-1.6-17.15a46.19,46.19,0,0,0-8.73-14.33,18.2,18.2,0,0,0-4.51-8.13c1.28-.37,2.5-.73,3.6-1.08C194.24,179,197.94,196.24,199.35,202.86Z"/><path class="cls-19" d="M181,171.49a18.2,18.2,0,0,1,4.51,8.13,34.31,34.31,0,0,0-8.5-7C178.41,172.22,179.75,171.85,181,171.49Z"/><path class="cls-17" d="M185.36,154.54c3.26,2.37,3.86,8.58,1.27,15.25-.62.2-1.32.42-2,.62a19.42,19.42,0,0,0-8.16-4.45,19.69,19.69,0,0,0-7-.38,54.82,54.82,0,0,0-1.81-6.27,61.18,61.18,0,0,0,12.61-4.77c.67-.35,1.38-.75,2.1-1.14A6.51,6.51,0,0,1,185.36,154.54Z"/><path class="cls-17" d="M198.07,57.88l-1.25,4.06c-11.31-.08-15.92-1.66-17.83-5.34-1.08-2.05-1.46-5.14-.6-6.84,1.35.85,5,2.27,13.33,5.59Z"/><path class="cls-17" d="M275.64,55.35c-.2,1.25-11.18-1-15.42,2.45-4.32.38-9.7.81-16.37,1.36-22.42,1.78-37.23,2.85-47,2.78l1.25-4.06-6.35-2.53c-8.31-3.32-12-4.74-13.33-5.59A2,2,0,0,1,179,49c2.28-1.8,7.62,2.39,12.73,5.07,11.52,6,23.17,5,35.6,3.81,15.14-1.38,18-5.56,33.05-5.09,6.41.2,13.76,1.21,15.07,2.23a.34.34,0,0,1,.12.12.46.46,0,0,0,.07.1A.41.41,0,0,1,275.64,55.35Z"/><path class="cls-18" d="M254,49c10.43,2,20,4.62,21.42,6-1.31-1-8.66-2-15.07-2.23-15.1-.47-17.91,3.71-33.05,5.09-12.43,1.15-24.08,2.23-35.6-3.81C186.61,51.39,181.27,47.2,179,49a2,2,0,0,0-.6.76c-.53-.31-.71-.55-.67-.76.15-1,4.58-1,10.17-1.28,13.86-.65,12.68-2,24.17-2.57,13.21-.54,10.4,1.47,26.72,1.29C245.08,46.37,249.59,48.1,254,49Z"/><path class="cls-17" d="M179,169.79a14,14,0,0,1,2,1.7c-1.25.36-2.59.73-4,1.11a16,16,0,0,0-3.53-1.44c.37-1.39.93-2.32,1.68-2.63C175.58,168.34,176.59,168.09,179,169.79Z"/><path class="cls-17" d="M173.48,171.16A16,16,0,0,1,177,172.6q-1.92.53-4,1.05A12.32,12.32,0,0,1,173.48,171.16Z"/><path class="cls-22" d="M181.53,205.39a62.75,62.75,0,0,0,11.43,14c-7.05-2.51-15.09-1.46-22.29,2.58.22-11.88.43-24.59.7-38.18a75.76,75.76,0,0,0-.42-9.6l2.1-.53C172.35,181,175,194.7,181.53,205.39Z"/><path class="cls-22" d="M171.37,183.78c-.27,13.59-.48,26.3-.7,38.18-.7.38-1.38.8-2.06,1.25h-9.5a74.19,74.19,0,0,0,3.34-8.9c4.53-15,3.73-30.91,1.53-38.58,2.37-.47,4.7-1,7-1.55A75.76,75.76,0,0,1,171.37,183.78Z"/><path class="cls-22" d="M170.67,222c0,.42,0,.83,0,1.25h-2C169.29,222.76,170,222.34,170.67,222Z"/><path class="cls-17" d="M170.52,170.79a8.42,8.42,0,0,1,3,.37,12.32,12.32,0,0,0-.43,2.49l-2.1.53C170.84,173.13,170.69,172,170.52,170.79Z"/><path class="cls-17" d="M170.52,170.79c.17,1.2.32,2.34.43,3.39-2.27.55-4.6,1.08-7,1.55a.76.76,0,0,0-.06-.2c1.23-1.75,2.63-3.73,4.89-4.46A6.8,6.8,0,0,1,170.52,170.79Z"/><path class="cls-17" d="M180.27,153.26a13.31,13.31,0,0,1,2.1.14c-.72.39-1.43.79-2.1,1.14a61.18,61.18,0,0,1-12.61,4.77c-.1-.35-.22-.66-.35-1a16.14,16.14,0,0,0,2.78-1.22C172.92,155.57,175.75,153.24,180.27,153.26Z"/><path class="cls-17" d="M184.6,170.41c-1.1.35-2.32.71-3.6,1.08a14,14,0,0,0-2-1.7c-2.4-1.7-3.41-1.45-3.83-1.26-.75.31-1.31,1.24-1.68,2.63a8.42,8.42,0,0,0-3-.37c-.28-1.65-.61-3.39-1.05-5.21a19.69,19.69,0,0,1,7,.38A19.42,19.42,0,0,1,184.6,170.41Z"/><path class="cls-18" d="M193.05,140.88a6,6,0,0,0,2,3.28c-2.71,2.92-8,6.6-12.72,9.24a13.31,13.31,0,0,0-2.1-.14c-4.52,0-7.35,2.31-10.18,3.82a16.14,16.14,0,0,1-2.78,1.22q-.57-1.61-1.26-3.18c.86-.62,1.76-1.22,2.76-1.86C179.31,146.5,186,142.18,193.05,140.88Z"/><path class="cls-18" d="M193,138.86a4,4,0,0,0,.05,1.67,1.34,1.34,0,0,0,.05.35c-7,1.3-13.74,5.62-24.24,12.38-1,.64-1.9,1.24-2.76,1.86-.27-.65-.57-1.28-.87-1.93,1.4-1.81,1.95-3.46,4.91-6.29,1.15-1.08,8.23-7.67,18.38-8.07A35.63,35.63,0,0,1,193,138.86Z"/><path class="cls-17" d="M167.31,158.3c.13.35.25.66.35,1a62.93,62.93,0,0,1-8.62,1.6c.52-.53,1.1-1.1,1.77-1.68A17.72,17.72,0,0,0,167.31,158.3Z"/><path class="cls-17" d="M163.75,175.78c.07-.08.1-.17.17-.25a.76.76,0,0,1,.06.2Z"/><path class="cls-23" d="M166.05,155.12q.69,1.57,1.26,3.18a17.72,17.72,0,0,1-6.5.93A49.4,49.4,0,0,1,166.05,155.12Z"/><path class="cls-23" d="M166.05,155.12a49.4,49.4,0,0,0-5.24,4.11c-1.38,0-2.67-.19-3.9-.27a22.69,22.69,0,0,0,5.54-3.16,14.75,14.75,0,0,0,2.73-2.61C165.48,153.84,165.78,154.47,166.05,155.12Z"/><path class="cls-17" d="M158.64,173.6c1.15-2.15,2-2.59,2.57-2.53.94.09,1.91,1.73,2.71,4.46-.07.08-.1.17-.17.25-1.86.38-3.73.72-5.56,1C158.33,175.76,158.48,174.68,158.64,173.6Z"/><path class="cls-22" d="M159.11,223.21h-4.92c1.83-8,1.43-13.71,1.91-24.17.25-5.19.78-12.46,2-21.28a3.36,3.36,0,0,0,1.86.93c1.6.18,2.67-1.21,3.83-2.91l.23-.05c2.2,7.67,3,23.61-1.53,38.58A74.19,74.19,0,0,1,159.11,223.21Z"/><path class="cls-22" d="M159.92,178.69a3.36,3.36,0,0,1-1.86-.93c.05-.3.08-.63.13-.95,1.83-.31,3.7-.65,5.56-1C162.59,177.48,161.52,178.87,159.92,178.69Z"/><path class="cls-17" d="M155,171.87c.35-.28.7-.53,1.07-.8a30.7,30.7,0,0,1,13.37-5.49c.44,1.82.77,3.56,1.05,5.21a6.8,6.8,0,0,0-1.71.28c-2.26.73-3.66,2.71-4.89,4.46-.8-2.73-1.77-4.37-2.71-4.46-.6-.06-1.42.38-2.57,2.53-.16,1.08-.31,2.16-.45,3.21-.33,0-.63.08-.93.12A12.07,12.07,0,0,1,155,171.87Z"/><path class="cls-24" d="M157.83,70c.51.2.81.41.81.58s-.13.22-.35.3A6.82,6.82,0,0,0,157.83,70Z"/><path class="cls-22" d="M157.26,176.93c.3,0,.6-.09.93-.12-.05.32-.08.65-.13.95A5.31,5.31,0,0,1,157.26,176.93Z"/><path class="cls-17" d="M156.1,171.07c-.37.27-.72.52-1.07.8a13.43,13.43,0,0,1-.2-3.34c.1-1.4.57-3.88,4.21-7.62a62.93,62.93,0,0,0,8.62-1.6,54.82,54.82,0,0,1,1.81,6.27A30.7,30.7,0,0,0,156.1,171.07Z"/><path class="cls-17" d="M150.26,177.48a17.31,17.31,0,0,1,4.77-5.61,12.07,12.07,0,0,0,2.23,5.06c-1.24.2-2.49.36-3.69.5A13.29,13.29,0,0,1,150.26,177.48Z"/><path class="cls-25" d="M143.72,218.92c.58-7.32,1.08-13.41,1.63-18.54,4.73,7.92,8,16,8.44,22.83h-8.06A11.76,11.76,0,0,0,143.72,218.92Z"/><path class="cls-22" d="M150.26,177.48a13.29,13.29,0,0,0,3.31,0c1.2-.14,2.45-.3,3.69-.5a5.31,5.31,0,0,0,.8.83c-1.18,8.82-1.71,16.09-2,21.28-.48,10.46-.08,16.18-1.91,24.17h-.4c-.49-6.85-3.71-14.91-8.44-22.83C146.55,188.57,147.85,182,150.26,177.48Z"/><path class="cls-17" d="M156.91,159a39.78,39.78,0,0,1-7,1.8C152.14,158.88,154.38,158.76,156.91,159Z"/><path class="cls-17" d="M147.2,176.16c-3-3-2-11.31,2.54-15.27,0,.3,3.73.67,9.3,0-3.64,3.74-4.11,6.22-4.21,7.62a13.43,13.43,0,0,0,.2,3.34,17.31,17.31,0,0,0-4.77,5.61A5.14,5.14,0,0,1,147.2,176.16Z"/><path class="cls-17" d="M149.89,160.76a39.78,39.78,0,0,0,7-1.8c1.23.08,2.52.22,3.9.27-.67.58-1.25,1.15-1.77,1.68-5.57.65-9.26.28-9.3,0C149.78,160.84,149.84,160.81,149.89,160.76Z"/><path class="cls-23" d="M149.89,160.76c0,.05-.11.08-.15.13S149.78,160.81,149.89,160.76Z"/><path class="cls-24" d="M146.3,53.34A24,24,0,0,1,157.36,63a19.11,19.11,0,0,1,2.48,11.39c-.8-.28-.71-1.73-1.55-3.49.22-.08.35-.18.35-.3s-.3-.38-.81-.58a5.93,5.93,0,0,0-.47-.67c-1.51-2-2.53-1.48-5.07-3.82a17.81,17.81,0,0,1-3.81-5.09c-1.76-3.6-1-5.51-2.55-6.36Z"/><path class="cls-24" d="M151,71.87c-3.43.3-7.49.65-7.64,0s3.06-2.06,6.37-2.53a17.61,17.61,0,0,1,8.09.67,6.82,6.82,0,0,1,.46.88C157.31,71.32,154.3,71.59,151,71.87Z"/><path class="cls-25" d="M143.72,218.92a11.76,11.76,0,0,1,2,4.29h-2.34C143.5,221.73,143.6,220.3,143.72,218.92Z"/><path class="cls-23" d="M131.94,149.45c-1.69-4,8.22-9.79,9.95-19.34,6.12,1,13.53,8.14,18,14.26a49,49,0,0,1,3.61,5.62l-1.13.62C161,148.91,134.49,155.45,131.94,149.45Z"/><path class="cls-26" d="M139.58,120.2a.7.7,0,0,1,.36.12,10.76,10.76,0,0,1-1.28.61C139,120.42,139.25,120.18,139.58,120.2Z"/><path class="cls-25" d="M136.55,223.21c.13-3.94.18-7.59.22-10.93a27.09,27.09,0,0,1,6.95,6.64c-.12,1.38-.22,2.81-.33,4.29Z"/><path class="cls-25" d="M135.85,187.77c0-.34-.06-.68-.08-1a111.47,111.47,0,0,1,9.58,13.6c-.55,5.13-1,11.22-1.63,18.54a27.09,27.09,0,0,0-6.95-6.64C136.8,199.49,136.15,191.12,135.85,187.77Z"/><path class="cls-26" d="M135.77,126.57a21,21,0,0,1-1.5,2.66C134.75,128.42,135.22,127.54,135.77,126.57Z"/><path class="cls-23" d="M131.18,156.63c2.23-2.93,8.23.72,18.56-.83,7.16-1.05,12.95-4.13,12.71-5.07a.16.16,0,0,0,0-.12l1.13-.62c.59,1,1.15,2.12,1.65,3.2a14.75,14.75,0,0,1-2.73,2.61,22.69,22.69,0,0,1-5.54,3.16c-2.53-.2-4.77-.08-7,1.8-.11.05-.15.08-.15.13-4.51,4-5.59,12.26-2.54,15.27a5.14,5.14,0,0,0,3.06,1.32c-2.41,4.47-3.71,11.09-4.91,22.9a111.47,111.47,0,0,0-9.58-13.6c-.92-10.45-1.43-15.79-2.56-19.53C131.48,161.56,129.66,158.61,131.18,156.63Z"/><path class="cls-26" d="M125.57,136.74a21.19,21.19,0,0,0-1.91-7.07c.18.21.4.44.65.69,2.44,2.6,3.69,3.9,5.1,3.81a1.73,1.73,0,0,0,.32,0A20.59,20.59,0,0,1,125.57,136.74Z"/><path class="cls-24" d="M130.18,102.38a29.56,29.56,0,0,0-4.41-3.09c1,.13,2.15.35,3.64.56,11.2,1.63,14.39-.25,16.52,2.53,1.8,2.38,1.67,6.56,0,7.64a2.65,2.65,0,0,1-2.56,0c-1.83-.9-1.3-3.26-2.53-5.08C139.16,102.45,134.55,101.55,130.18,102.38Z"/><path class="cls-24" d="M123.38,64.72a13.09,13.09,0,0,1,2,.73c-.43.5-.81,1-1.11,1.33A9.1,9.1,0,0,1,123.38,64.72Z"/><path class="cls-25" d="M136.77,212.28a59.82,59.82,0,0,0-15-7.27c-.84-7.34-1.46-13.39,0-23.77.4-2.91.86-5.41,1.25-7.64h0a106.07,106.07,0,0,1,12.73,13.18c0,.31.07.65.08,1C136.15,191.12,136.8,199.49,136.77,212.28Z"/><path class="cls-25" d="M123.26,223.21a177.5,177.5,0,0,0-1.47-18.2,59.82,59.82,0,0,1,15,7.27c0,3.34-.09,7-.22,10.93Z"/><path class="cls-24" d="M120.5,108.74c-1.32-.4-1.68-6.64,1.28-8.89,1-.79,2.16-.81,4-.56a29.56,29.56,0,0,1,4.41,3.09,14,14,0,0,0-5.87,2.56C121.88,106.84,121.31,109,120.5,108.74Z"/><path class="cls-24" d="M121.78,66.78c-4.88-2.09-5.13-2.38-5.09-2.54.11-.5,3.24-.57,6.69.48a9.1,9.1,0,0,0,.93,2.06c.3-.38.68-.83,1.11-1.33,0,0,.12,0,.15.07,3.74,1.64,6.71,4.54,6.37,5.07S128.37,69.63,121.78,66.78Z"/><path class="cls-7" d="M107.79,97.31c4.81-2.56,11.91-1.48,18,2-1.83-.25-3-.23-4,.56-3,2.25-2.6,8.49-1.28,8.89.81.28,1.38-1.9,3.81-3.8a14,14,0,0,1,5.87-2.56,21.62,21.62,0,0,1,6.84,10.2,19.2,19.2,0,0,1,.35,8.77,1.28,1.28,0,0,1-.35.11c-6.36,1.67-12.68-1.73-16.52-3.81a31.74,31.74,0,0,1-12.71-12.71,2.06,2.06,0,0,1-.17-.33c.22-2.09.17-3.82-1.11-4.76a1.75,1.75,0,0,0-.35-.2c-.07-.4-.1-.79-.14-1.19A10.92,10.92,0,0,1,107.79,97.31Z"/><path class="cls-26" d="M112.21,119.77c2.07.78,4.34,1.21,7,4.24C117.2,122.46,115,121.6,112.21,119.77Z"/><path class="cls-27" d="M108.6,117.09c-2.79-3.71-1.38-8.69-1-12.48a2.06,2.06,0,0,0,.17.33,31.74,31.74,0,0,0,12.71,12.71c3.84,2.08,10.16,5.48,16.52,3.81a1.28,1.28,0,0,0,.35-.11,22.34,22.34,0,0,1-1.52,5c0,.06-.06.11-.08.18-.55,1-1,1.85-1.5,2.66a20.78,20.78,0,0,1-4.54,4.91,1.73,1.73,0,0,1-.32,0c-1.41.09-2.66-1.21-5.1-3.81-.25-.25-.47-.48-.65-.69a15.61,15.61,0,0,0-1.88-3.1,13.46,13.46,0,0,0-2.56-2.56c-2.67-3-4.94-3.46-7-4.24,0,0,0,0,0,0A36.28,36.28,0,0,1,108.6,117.09Z"/><path class="cls-26" d="M106.16,99.65a1.75,1.75,0,0,1,.35.2c1.28.94,1.33,2.67,1.11,4.76A15,15,0,0,1,106.16,99.65Z"/><path class="cls-26" d="M107.79,116.37c-3.65-3.24-6.12-5.5-6.37-8.88-.22-3,1.41-6.06,3.66-8.22a3.29,3.29,0,0,1,1.08.38,15,15,0,0,0,1.46,5c-.4,3.79-1.81,8.77,1,12.48C108.34,116.86,108.05,116.64,107.79,116.37Z"/><path class="cls-27" d="M106,98.46c0,.4.07.79.14,1.19a3.29,3.29,0,0,0-1.08-.38C105.38,99,105.71,98.71,106,98.46Z"/><path class="cls-24" d="M101.85,79.39c1.15-.68,2-4.61,5.94-12.61,4.27-8.77,7-11.91,10.16-14A23.78,23.78,0,0,1,123,50.25c8.55-1.07,16.75.06,23.26,3.09l-.37.73c-1.66-.91-4,.45-5.09,1.28-.1.09-2.76,2.23-2.54,5.08.3,3.74,5.34,6,5.07,6.35s-2.53-.68-5.07-2.54c-3.11-2.27-3.38-3.63-5.09-3.81s-2.9.84-5.08,2.56a21.05,21.05,0,0,0-2.71,2.46,13.09,13.09,0,0,0-2-.73,7.35,7.35,0,0,1-.34-3c.57-5.13,7-7.64,6.37-8.92-.46-.9-4.29-.8-6.37,1.28-1.59,1.58-1.59,3.76-2.54,3.81s-1.37-2.39-2.55-2.53-2.44,2.53-3.81,5.08c-3.67,6.88-5.44,6.3-7.63,11.44-2.4,5.61-1.37,8.65-2.53,8.92C103.43,80.89,102.7,80.39,101.85,79.39Z"/><path class="cls-7" d="M101.42,91c-4.23-1-4.85-14.77-4.48-21.62a41.4,41.4,0,0,0,2.41,6c.47,2.26,1.12,4.06,2.07,4.13a.71.71,0,0,0,.43-.12c.85,1,1.58,1.5,2.13,1.4,1.16-.27.13-3.31,2.53-8.92,2.19-5.14,4-4.56,7.63-11.44,1.37-2.55,2.53-5.23,3.81-5.08s1.53,2.6,2.55,2.53,1-2.23,2.54-3.81c2.08-2.08,5.91-2.18,6.37-1.28.62,1.28-5.8,3.79-6.37,8.92a7.35,7.35,0,0,0,.34,3c-3.45-1-6.58-1-6.69-.48,0,.16.21.45,5.09,2.54,6.59,2.85,9.9,4.28,10.16,3.81s-2.63-3.43-6.37-5.07c0,0-.1,0-.15-.07A21.05,21.05,0,0,1,128.13,63c2.18-1.72,3.48-2.73,5.08-2.56s2,1.54,5.09,3.81c2.54,1.86,4.92,2.79,5.07,2.54s-4.77-2.61-5.07-6.35c-.22-2.85,2.44-5,2.54-5.08,1-.83,3.43-2.19,5.09-1.28s.79,2.76,2.55,6.36a17.81,17.81,0,0,0,3.81,5.09c2.54,2.34,3.56,1.83,5.07,3.82a5.93,5.93,0,0,1,.47.67,17.61,17.61,0,0,0-8.09-.67c-3.31.47-6.47,2-6.37,2.53s4.21.3,7.64,0,6.3-.55,7.28-1c.84,1.76.75,3.21,1.55,3.49-.41,6.21-3,13.5-6.27,22.93-3.49,9.86-6.8,19.33-13.63,23a.7.7,0,0,0-.36-.12c-.33,0-.63.22-.92.73v0h0a10,10,0,0,1-1.24.4,19.2,19.2,0,0,0-.35-8.77,21.62,21.62,0,0,0-6.84-10.2c4.37-.83,9,.07,10.66,2.56,1.23,1.82.7,4.18,2.53,5.08a2.65,2.65,0,0,0,2.56,0c1.67-1.08,1.8-5.26,0-7.64-2.13-2.78-5.32-.9-16.52-2.53-1.49-.21-2.66-.43-3.64-.56-6.07-3.46-13.17-4.54-18-2A10.92,10.92,0,0,0,106,98.46c-.36-3.66-.08-6.76-2-7.51C102.91,90.55,102.41,91.2,101.42,91Z"/><path class="cls-24" d="M96.94,69.33c.15-2.28.42-3.8.68-3.81.49,0,.82,5.72,1.73,9.86A41.4,41.4,0,0,1,96.94,69.33Z"/><path class="cls-24" d="M96.94,69.33A43.27,43.27,0,0,1,95.06,56.6c0-4.14.12-11.4,5.09-17.8,5.56-7.15,13.79-8.87,20.35-10.17,3.81-.74,9.66-1.91,14,0a16.55,16.55,0,0,0,3.81,1.29c2.84.53,4.64,0,6.35,0,3.25-.09,5.63,1.56,8.92,3.81A31.81,31.81,0,0,1,165,49c2.59,7.68,1.88,15.88-1.27,21.59-.26.5-2.34,4.18-3.81,3.83a.2.2,0,0,1-.08,0A19.11,19.11,0,0,0,157.36,63a24,24,0,0,0-11.06-9.65c-6.51-3-14.71-4.16-23.26-3.09A23.78,23.78,0,0,0,118,52.79c-3.13,2.08-5.89,5.22-10.16,14-3.9,8-4.79,11.93-5.94,12.61a19.34,19.34,0,0,1-2.5-4c-.91-4.14-1.24-9.86-1.73-9.86C97.36,65.53,97.09,67.05,96.94,69.33Z"/><path class="cls-26" d="M87.77,154.94a49.26,49.26,0,0,1-10.51-.4c-5.51-.77-12.83-2.52-12.71-3.81.15-2.22,21.28-2.53,22.87-2.57,9-.1,13.48-.16,15.28,0,4.41.47,5.85,1,7.63,0,4.33-2.44,5.78-11.54,2.53-17.8-1.31-2.54-2.58-3-14-11.42-5.39-4-7.5-6-8.35-7.29,3.21-1.85,4.59-1.85,5.82-1.63,3.13.55,8.07,5.89,17.8,16.55,8.19,9,11.41,13.38,15.27,12.71,4.38-.78,4.16-7.22,8.89-8.92a7.42,7.42,0,0,1,3.59-.25c-1.73,9.55-11.64,15.38-9.95,19.34,2.55,6,29.1-.54,30.46,1.16a.16.16,0,0,1,0,.12c.24.94-5.55,4-12.71,5.07-10.33,1.55-16.33-2.1-18.56.83-1.52,2,.3,4.93,2,10.62,1.13,3.74,1.64,9.08,2.56,19.53A106.07,106.07,0,0,0,123,173.6h0v0c.93-5.55,1.31-9.3-1.25-12.69-3.79-5-11.23-5.66-19.08-6.35C96.11,153.94,92.27,154.64,87.77,154.94Z"/><path class="cls-25" d="M94.25,223.21H89.17l.9-5.81C91.47,219.33,92.85,221.28,94.25,223.21Z"/><path class="cls-26" d="M90,110c-.27-5.48,10.13-11.7,15.09-10.75-2.25,2.16-3.88,5.19-3.66,8.22.25,3.38,2.72,5.64,6.37,8.88.26.27.55.49.81.72a4.24,4.24,0,0,0,.45.56,8.13,8.13,0,0,0,3.11,2.1s0,0,0,0c2.8,1.83,5,2.69,7,4.24,1.49,1.7,2.08,3,4.44,5.66a21.19,21.19,0,0,1,1.91,7.07,20.59,20.59,0,0,0,4.16-2.6c1.6-.28,2.93-2.1,4.54-4.91a21,21,0,0,0,1.5-2.66c0-.07.07-.12.08-.18,1.45-2.66,2.18-4.49,2.76-5.44h0v0a10.76,10.76,0,0,0,1.28-.61c1.05.59,2.05,3.46,2.18,6.25a16.43,16.43,0,0,1-.23,3.54,7.42,7.42,0,0,0-3.59.25c-4.73,1.7-4.51,8.14-8.89,8.92-3.86.67-7.08-3.74-15.27-12.71-9.73-10.66-14.67-16-17.8-16.55-1.23-.22-2.61-.22-5.82,1.63A2.86,2.86,0,0,1,90,110Z"/><path class="cls-23" d="M88,156.73l-.24-1.79c4.5-.3,8.34-1,14.93-.4,7.85.69,15.29,1.34,19.08,6.35,2.56,3.39,2.18,7.14,1.25,12.69C117.84,169.13,101.75,155.28,88,156.73Z"/><path class="cls-25" d="M86.48,223.21a67,67,0,0,1-5.18-5.72c1.15,1.06,2.35,2.11,3.58,3.17-1.38-3.32-3-7.28-4.94-11.76a11,11,0,0,1,2.41-2.23c9.9-7,26-6.19,39.44-1.66a177.5,177.5,0,0,1,1.47,18.2h-29c-1.4-1.93-2.78-3.88-4.18-5.81l-.9,5.81Z"/><path class="cls-25" d="M79.94,208.9c1.9,4.48,3.56,8.44,4.94,11.76-1.23-1.06-2.43-2.11-3.58-3.17a55.35,55.35,0,0,1-3.69-5.09A35.35,35.35,0,0,1,79.94,208.9Z"/><path class="cls-25" d="M88,156.73c13.74-1.45,29.83,12.4,35,16.85v0c-.39,2.23-.85,4.73-1.25,7.64-1.45,10.38-.83,16.43,0,23.77-13.49-4.53-29.54-5.34-39.44,1.66a11,11,0,0,0-2.41,2.23c-1.6-3.79-3.35-7.92-5.22-12.39-2.1-5-3.86-9.1-5.33-12.56,0-.92.13-1.83.23-2.71.4-3.08,2.3-17.79,12.73-22.88A16.84,16.84,0,0,1,88,156.73Z"/><path class="cls-28" d="M76.94,213.46c1.39,1.31,2.83,2.68,4.36,4a67,67,0,0,0,5.18,5.72H70.22C73.53,218.7,75.56,215.66,76.94,213.46Z"/><path class="cls-28" d="M77.61,212.4a55.35,55.35,0,0,0,3.69,5.09c-1.53-1.35-3-2.72-4.36-4C77.18,213.08,77.41,212.73,77.61,212.4Z"/><path class="cls-25" d="M74.72,196.51c1.87,4.47,3.62,8.6,5.22,12.39a35.35,35.35,0,0,0-2.33,3.5c-5.56-8.59-8.82-18.47-8.22-28.45C70.86,187.41,72.62,191.55,74.72,196.51Z"/><path class="cls-23" d="M77.26,154.54a49.26,49.26,0,0,0,10.51.4l.24,1.79a16.84,16.84,0,0,0-5.66,1.63c-10.43,5.09-12.33,19.8-12.73,22.88-.1.88-.18,1.79-.23,2.71-7.15-16.85-7.67-18-8.67-21.79-3.06-11.52-2.81-17.91-4.52-21.81,2.36-2.5,6.07-5.93,12.16-11.25,11.89-10.41,18.33-15.26,22.16-17.45.85,1.25,3,3.28,8.35,7.29,11.41,8.46,12.68,8.88,14,11.42,3.25,6.26,1.8,15.36-2.53,17.8-1.78,1-3.22.47-7.63,0-1.8-.16-6.29-.1-15.28,0-1.59,0-22.72.35-22.87,2.57C64.43,152,71.75,153.77,77.26,154.54Z"/><path class="cls-23" d="M56.18,188.22c4,7.09,10.48,15.44,20.76,25.24-1.38,2.2-3.41,5.24-6.72,9.75H46.45C50.14,208.39,54.05,197.42,56.18,188.22Z"/><path class="cls-26" d="M77.61,212.4c-.2.33-.43.68-.67,1.06-10.28-9.8-16.78-18.15-20.76-25.24,2.25-9.86,2.46-17.68-1.81-26.06-.2-.39-.42-.77-.65-1.19-1.93-4.69-3.71-8.63-1.9-14.07.62-1.85,1.42-3.44,4.38-6.55,1.71,3.9,1.46,10.29,4.52,21.81,1,3.8,1.52,4.94,8.67,21.79C68.79,193.93,72.05,203.81,77.61,212.4Z"/><path class="cls-29" d="M56.18,188.22c-2.13,9.2-6,20.17-9.73,35h-7.2c1.73-8.68,4-15.44,7.48-21.63,2.7-4.76,6.13-9.68,8.24-15.6C55.33,186.71,55.72,187.46,56.18,188.22Z"/><path class="cls-26" d="M54.37,162.16c4.27,8.38,4.06,16.2,1.81,26.06-.46-.76-.85-1.51-1.21-2.24a32.19,32.19,0,0,0,1.94-12.38A34.83,34.83,0,0,0,53.72,161C54,161.39,54.17,161.77,54.37,162.16Z"/><path class="cls-29" d="M35.29,163.44c3.39-4.46,9.4-9.22,12.71-7.64,3.51,1.7,2.66,9.8,2.56,12.73-.2,4.64.81,10.38,4.41,17.45-2.11,5.92-5.54,10.84-8.24,15.6-3.49,6.19-5.75,12.95-7.48,21.63H25.79a62.19,62.19,0,0,1-1.95-21.63c.57-5.42,1.28-3.49,5.09-19.06C31.68,171.31,31.91,167.88,35.29,163.44Z"/><path class="cls-30" d="M26.4,227c-.25.08-.69-.65-2.19-3.81h1.58C26.35,225.55,26.72,226.92,26.4,227Z"/><path class="cls-26" d="M22.58,157.08c-.43-7.8,6.05-13.89,7.62-15.27,5.82-5.11,16.35-9.12,22.89-5.07a7.54,7.54,0,0,1,3.11,3.61c-3,3.11-3.76,4.7-4.38,6.55-1.81,5.44,0,9.38,1.9,14.07-4.09-7.3-11.56-14.85-18.43-14.07-3.26.38-6.54,2.68-11.63,14.24A9.8,9.8,0,0,1,22.58,157.08Z"/><path class="cls-29" d="M17.49,219.38c-1.32-5.75-2.15-12.47-1.28-12.71.48-.13,1.28,1.75,5.09,10.18,1.26,2.8,2.21,4.86,2.91,6.36H18.47C18.14,222,17.8,220.76,17.49,219.38Z"/><path class="cls-26" d="M12.41,216.85c-1.86-8.78,1.1-16.43,5.08-26.7,5-12.87,9.8-17.85,7.63-25.43a20.22,20.22,0,0,0-1.46-3.58c5.09-11.56,8.37-13.86,11.63-14.24,6.87-.78,14.34,6.77,18.43,14.07a34.83,34.83,0,0,1,3.19,12.63A32.19,32.19,0,0,1,55,186c-3.6-7.07-4.61-12.81-4.41-17.45.1-2.93.95-11-2.56-12.73-3.31-1.58-9.32,3.18-12.71,7.64s-3.61,7.87-6.36,19.08c-3.81,15.57-4.52,13.64-5.09,19.06a62.19,62.19,0,0,0,1.95,21.63H24.21c-.7-1.5-1.65-3.56-2.91-6.36-3.81-8.43-4.61-10.31-5.09-10.18-.87.24,0,7,1.28,12.71.31,1.38.65,2.66,1,3.83H14.56A29.88,29.88,0,0,1,12.41,216.85Z"/><path class="cls-29" d="M11.13,196.51c5.26-16.84,9.25-28,12.53-35.37a20.22,20.22,0,0,1,1.46,3.58c2.17,7.58-2.66,12.56-7.63,25.43-4,10.27-6.94,17.92-5.08,26.7a29.88,29.88,0,0,0,2.15,6.36H2.91C5.06,215.91,7.81,207.14,11.13,196.51Z"/></svg>