<svg id="Layer_1" data-name="Layer 1" xmlns="http://www.w3.org/2000/svg" viewBox="0 0 542.27 156.19"><defs><style>.cls-1{fill:#b8866a;}.cls-2{fill:#d87f73;}.cls-3{fill:#0d0a0a;}.cls-4{fill:#383227;}.cls-5{fill:#5f4f42;}.cls-6{fill:#e7a985;}.cls-7{fill:#c28d6f;}.cls-8{fill:#292923;}.cls-9{fill:#2b2412;}.cls-10{fill:#77584a;}.cls-11{fill:#634f45;}.cls-12{fill:#9f694b;}.cls-13{fill:#c37950;}.cls-14{fill:#53423a;}.cls-15{fill:#836853;}.cls-16{fill:#4b3e34;}.cls-17{fill:#473f32;}.cls-18{fill:#393a32;}.cls-19{fill:#363930;}</style></defs><path class="cls-1" d="M399.09,56.76c-.26.89-.17,1.73,4.2,10.06,4.81,9.17,7.22,13.76,8.8,15,8,6.33,23.66,4.58,28.41-3.1,1.72-2.8,1.78-6,1.83-8.94,0-.36.09-8.31-3.24-13.26C431,44.43,401.49,48.66,399.09,56.76Z"/><path class="cls-2" d="M407.25,77.18c.52-.6,2.6,1.12,8.53,3,4,1.27,6.38,2,9.49,1.76a18.76,18.76,0,0,0,8-2.79,28.15,28.15,0,0,0,9-8,16.36,16.36,0,0,1,2.87,8.56c.09,4.11-1.66,7.22-.58,7.92.86.56,2.22-1.3,6.12-2.25,1.93-.47,3-.73,4.16-.3,2.46.94,1.82,3.78,4.68,7.47,2.28,3,3.55,2.27,5.78,5.36.88,1.22,2.78,3.85,2.64,6.91-.21,4.75-5.17,7.85-6.62,8.76-6.7,4.19-16.67,4.09-23.06-.72-3.51-2.64-2.35-4-7.88-10.38-4.35-5-5.88-5.11-11.88-11S406.25,78.34,407.25,77.18Z"/><path class="cls-3" d="M424.93,87.61c0-3.48-.54-4.42.34-5.65,1.36-1.92,4.72-2.54,6-1.39.92.85.09,2.12,1.16,4.32a8.19,8.19,0,0,0,2,2.52c2.25,2,3.73,1.57,5.72,2.84,2.54,1.64,3.42,4.48,4.44,7.79a24.19,24.19,0,0,1,1,7.14,20.83,20.83,0,0,1-.57,5.95c-.74,2.81-1.48,5.62-3.09,6-2.86.74-4.49-7.21-13.35-15.5-1.71-1.6-3.46-3-4.13-5.59S424.92,92.66,424.93,87.61Z"/><path class="cls-4" d="M308.12,56.79c-.11-.7-.15-.67-2.41-7.22C302.43,40,302.54,40.1,302,38.89c-1.39-3-3.52-7.69-8.27-11.17-6.46-4.74-13.73-4.37-16-4.22a23.07,23.07,0,0,0-12.57,4.26c-3.21,2.4-4.8,5.33-8,11.19s-5.67,10.61-6.27,17.38A33.53,33.53,0,0,0,251.3,65c1.87,10.73,7.4,10.85,11,22.55.61,2,1.22,4.52,3.27,5.43,1.09.48,2.76.58,7.31-1.85,6-3.23,6.38-5.17,11.48-8a31.22,31.22,0,0,1,9.82-3.88c4.1-.81,6.15-.25,8.4-2,1.52-1.19,2.14-2.92,3.31-6.34C307.49,66.09,308.92,61.94,308.12,56.79Z"/><path class="cls-1" d="M269.21,97.19c-1.33-2-.52-2.74-2.48-7.78-2.41-6.19-5.35-9.43-4.74-10s3.05,2.5,7.35,4.57C275,86.75,280.6,86.23,283.61,86c10.76-1,15.06-6.57,17-4.87,2.48,2.21-1.17,14.9-10.74,19.41C282.55,103.91,272.63,102.24,269.21,97.19Z"/><path class="cls-5" d="M241.74,143.28c-.43-1.92,2.42-4.64,8.12-10.09s6.68-5,10.23-9c4.86-5.44,4-7.44,8-10.63,4.6-3.67,11.26-5.49,12.95-3.48,1.32,1.55-1.14,4.51-3.09,10-4.46,12.38.78,18-2.92,23.36C268.56,152.89,243.07,149.11,241.74,143.28Z"/><path class="cls-5" d="M336.92,72.67c.45,1.09-3.72,2.27-5,6.57-1.07,3.65.28,8.41,2.81,9.44,1.15.48,2,0,2.35.47.72,1.22-4.74,3.71-5.47,8-.28,1.68.58,2.43,2.25,5.78,1.22,2.46,1.09,3,2.41,5.61,2.85,5.57,7.21,5.82,7.39,8.29.22,3.19-6.74,6.88-14,8.86-12,3.29-18.7.5-32.16.27a82.16,82.16,0,0,0-24.72,3.43c-.12-2.64-.28-6.48-.43-11.14-.25-8.09-.16-9.33,0-10.35a30.9,30.9,0,0,1,5.86-14.25c5.37-7.59,12.41-10.87,17.22-13,3-1.34,4.18-1.56,20.57-5.1C330,72.55,336.29,71.17,336.92,72.67Z"/><path class="cls-6" d="M255.26,135.8c2.44-2.73,4.93-4.25,8.65-6.24,10.91-5.84,16.44-8.73,20-7,3.35,1.63,4.82,5.61,5.07,6.29a12.07,12.07,0,0,1,.44,7.22c-1.73,6.29-9,8.7-9.68,8.9-6.78,2.13-9-2.27-19.21-1.25-5.43.54-8.4,2.16-9.41.75C249.85,142.69,253.26,138,255.26,135.8Z"/><path class="cls-2" d="M281.28,119.59c-.49.38-.67,1-.64,3.45a49.71,49.71,0,0,0,1.06,9.65c.87,4,1.62,7.23,2.16,9.5L292.1,141c.52-1.54,3.46-10.71-1.5-16.87C288,121,283,118.26,281.28,119.59Z"/><path class="cls-7" d="M227.93,106.83c.87,4.29-5,6.83-8.09,16.75-1.17,3.76-.69,4.58-1.85,5.47-4.65,3.59-19.21-4.4-26.94-15.8a39.31,39.31,0,0,1-5.78-13.52A17.61,17.61,0,0,1,191.13,95c8.85-4.35,18.92.76,28.07,5.22C227.24,104.14,227.8,106.15,227.93,106.83Z"/><path class="cls-8" d="M283.88,118.11q3.19,13,6.4,26l15.06-.41q-.37-12.83-.76-25.65Z"/><path class="cls-9" d="M209.16,56a31.47,31.47,0,0,0-18.64,6.49c-2.91,2.23-7.87,6-9.9,13.1-.41,1.44-2.28,7.94.67,14.23,4.1,8.74,14.57,10.87,22.58,12.5,5.65,1.15,21.9,4.45,28.11-3.91,1.92-2.58,2.19-5.36,2.59-9.47a34.52,34.52,0,0,0-3.94-19c-2-4.19-3.84-7.82-8-10.62C217.61,56,212.35,56,209.16,56Z"/><path class="cls-10" d="M186,104.84c-6.25-2.24-14.64-1.59-20.06-3.73-6.59-2.6-5.7-4.52-9.83-5.14-7.69-1.16-15.45,4.82-19.38,10.5a26.52,26.52,0,0,0-4.44,14.94c0,1.85-.15,8.83,3.23,13.88,3,4.43,7.85,6.23,32.45,8.52a424.78,424.78,0,0,0,44.51,1.64c13.68.15,24.73.39,31.59.57-7.14-5-13-9.06-16.91-11.75-24-16.43-24.72-16.06-31-21.62C190.61,107.8,189.65,106.16,186,104.84Z"/><path class="cls-6" d="M107.46,121c2.5-2,5.39-2.24,8.77-2.52a31.46,31.46,0,0,1,10.58,1.14c8.35,2,12.53,3,16.4,5.54,7.93,5.14,13.74,14.58,11.6,17.92a4.81,4.81,0,0,1-3.65,1.81c-2.44.1-3.33-1.86-5.47-1.84s-3.09,1.8-4.76,3.26c-4.56,4-11.34,3.44-13.88,3.23-4.21-.35-7.42-2.2-13.84-5.89-5-2.87-7.47-4.31-8.73-6.6C101.77,132,103,124.5,107.46,121Z"/><path class="cls-11" d="M132.31,112.29c-3.92-6-8.18-6.63-16-12.1-9.65-6.75-12.32-12.13-14.55-11s-.06,6-.43,15.69c-.47,12.44-4.55,19.9-2.27,21.16,1.23.67,2.57-1.39,7.31-3.62a36.8,36.8,0,0,1,13.88-3.23c8.57-.12,13,3.85,14.59,1.88C136.63,118.86,132.81,113.05,132.31,112.29Z"/><path class="cls-2" d="M104.55,118.75c2.11.44,5.3,1.91,5.82,4.4.38,1.77-1,2.25-1.84,5.47a21.22,21.22,0,0,0,0,9.12c.56,3.37,1.33,4.16.71,5.11-1.2,1.86-5.93,1.72-9.12,0-6.75-3.72-9.5-16.29-4.3-21.55A10,10,0,0,1,104.55,118.75Z"/><path class="cls-12" d="M101.68,13.65a48.88,48.88,0,0,0-6.21,2.17c-5.39,2-8.08,3-9.87,4-3.21,1.66-5.31,3.29-9.51,6.53-3.94,3-5.91,4.56-7,6.18a16.29,16.29,0,0,0-2.24,12A16,16,0,0,0,73.43,54c6.8,4.41,12-.68,22.61,3.38,3.72,1.42,3.48,2.21,8.37,4,5.75,2.16,11.39,4.27,14.59,1.88,2.55-1.9,1-4.74,3.34-13.48,2-7.43,3.63-7.2,3.69-10.94.1-6.39-4.6-11.17-10.15-16.82C111.55,17.7,107.07,13.14,101.68,13.65Z"/><path class="cls-4" d="M443,50.66c5.23-6,4.86-14.73,4.7-18.57a33,33,0,0,0-3.95-14.29A31.43,31.43,0,0,0,436.69,9c-.95-.81-9.68-8-21.7-7.07-3.05.23-6.83.51-10.2,3.1a35.47,35.47,0,0,0-5.6,6.1c-.75.94-.94,1.22-3.31,4.37-4.1,5.46-3.94,5.14-4.25,5.63-.64,1-1.6,2.81-1.94,14.27-.26,8.64.19,10.8.58,12.24.78,2.91,1.63,6.09,4.2,8.09,3.72,2.91,9,1.75,12.47,1.07C431.76,51.94,437.15,57.37,443,50.66Z"/><path class="cls-10" d="M99.58,83c1.54-.15,3,3.46,5.08,8.41,1.92,4.65,3.54,8.57,3.23,13.88a24.21,24.21,0,0,1-2.59,9.48A27.08,27.08,0,0,1,97,101.57C94.68,93,97.13,83.21,99.58,83Z"/><path class="cls-13" d="M65,68.24c.31-1.91,1.35-1.74,4.69-7.88,2.62-4.81,2.61-6.09,3.76-6.32C76,53.52,78,59.46,85.78,68c5.31,5.77,7.48,6.4,8.73,6.6,5,.82,8.6-3,10.22-1.42s-.64,6.21-1.49,8c-1.06,2.25-1.74,3.71-3.3,4.37-1.85.79-3.07-.34-6.57-.39a18.82,18.82,0,0,0-5.11.71C80.72,87.39,63.66,76.3,65,68.24Z"/><path class="cls-6" d="M71.22,57c-1-.31-1.78.22-2.55.36-2.06.38-4.84-1.91-5.82-4.4s0-4.6,1.49-8c1-2.38,1.82-4.14,3.3-4.36,2.1-.31,4,2.73,4.37,3.3a9.45,9.45,0,0,1,1.35,5.08c0,1.55-.42,2.55-.29,2.59s1.4-3.12,3-6.92C77.48,41,78.21,39.15,79,37.64c2.16-4.32,3.91-7.82,7.71-10.18a13.13,13.13,0,0,1,6.21-2.17c2.42-.15,3.78.55,12.39,4.79,5.09,2.52,7.66,3.78,8.37,4.05,4.55,1.7,5.91,1.44,6.92,2.95,1.2,1.79.33,3.69-1.13,10.58-1.29,6.06-.77,5.34-1.49,8s-3.31,12.23-11.75,18.56c-2.41,1.81-4.36,3.26-7.32,3.62C93.14,78.56,88.25,74.59,85,72c-2.66-2.16-5.61-4.56-7.63-8.06-1.25-2.17-3.2-3.87-4.72-5.86A3,3,0,0,0,71.22,57Z"/><path class="cls-2" d="M98.84,87c.22,1.65-1,2.13-1.85,5.47-.66,2.73-.14,3.69-.74,4-1.79.94-9.79-5.85-8-10.61A5.53,5.53,0,0,1,93,82.58C95.94,82.43,98.55,84.81,98.84,87Z"/><path class="cls-10" d="M55.46,74.77c.12-1.21,1.18-2.26,3.31-4.36a21,21,0,0,1,8.41-5.08c1.35,1,3.36,2.58,5.82,4.4,8.09,6,9.44,6.54,11.64,8.8,4.49,4.64,2.34,5.75,6.89,12.07,5.24,7.3,9.91,7.45,12.35,13.92a18.21,18.21,0,0,1,1.06,7.67A74,74,0,0,0,88.23,95C72.62,83.48,54.92,80.32,55.46,74.77Z"/><path class="cls-11" d="M59.12,73a56.29,56.29,0,0,0-17.85-6.64C40.11,66.09,24.19,63,23,66.25c-.73,2.07,5.09,4.8,10.54,10.26C37,79.92,47.6,91,46.23,102.1,45,112.42,34,117,35.94,121.77c1.27,3.06,6.89,3.63,10.93,3.69.84,2.26,2,4.84,3.27,4.75.62,0,.9-.74,2.2-2.91,2-3.35,3-5,4.4-5.82a8.68,8.68,0,0,1,4.32-.88,2.81,2.81,0,0,1,.79.17,11,11,0,0,1,4.37,3.3c2,2.27,4.09,4.7,5.82,4.41,1.91-.32,1.35-3.63,4.4-5.82,1.94-1.4,3-.5,6.21-2.17,1.28-.67,1.43-1.08,2-1.16,1.35-.21,2,2,3.5,3,3.3,2,7.58-4,14.61-3.61,4.23.24,6.7,2.65,7.29,1.87s-1.64-3.07-6.53-9.52-4.94-7-8-10.61a54.08,54.08,0,0,0-7.63-8.06c-7.72-6.18-10.85-6.31-20-12.85C62.16,75.51,63,75.3,59.12,73Z"/><path class="cls-10" d="M8.11,146.47c-2-3.15-2.1-7.25-2.13-15.33A100.36,100.36,0,0,1,6.76,118c1-7.35,1.84-7.1,2.24-12,.63-7.72-1.45-8.69-1-16.79.13-2.48.37-8.2,3.34-13.49,2.31-4.13,7.77-10.64,11.86-9.56,1.9.49,2.34,2.32,8.58,6.72.49.35.75.52.94.65,3.06,2.2,11,8.6,13.58,19.48a26.23,26.23,0,0,1-.43,15.69A25.36,25.36,0,0,1,37,120.31a26.29,26.29,0,0,0,12,2.24c6.27-.4,9.55-3.15,15.34-2.13,3.74.66,3.92,3.09,6.92,2.94,2.55-.11,3.94-1.63,8.77-2.52,1.06-.19,2-.29,2.55-.35q4.68,15,9.37,30c-4.07.65-9.27,1.41-15.33,2.13-7.35.86-13.15,1.29-24.46,2.09-3,.22-12.07.84-23.36.64a29.14,29.14,0,0,1-12-2.24C14.44,152,10.61,150.32,8.11,146.47Z"/><path class="cls-14" d="M92,150.45l12.78-1.78a70,70,0,0,1-3.19-23c.08-2.69.37-5.37.37-5.37.2-1.9.47-3.65.76-5.2l-20.09,5.39Q87.33,135.48,92,150.45Z"/><path class="cls-15" d="M266.36,104.86c-1.51,2.33,0,4-1,7.14-1.06,3.35-3.64,4-3.16,5.47.4,1.17,2.16.85,6.5,2.46,3.31,1.23,3.85,2,4.7,1.59,2.55-1.21.73-9.48.51-10.43-.48-2.13-1.85-8.14-4.51-8.33C267.84,102.64,266.51,104.64,266.36,104.86Z"/><path class="cls-2" d="M267.64,98c1.72-4.28,8.64-5,9.58-3.57.4.6-.42,1.35-2.37,5.09-2.69,5.16-2.77,6.89-3.79,7C269.3,106.57,266.13,101.73,267.64,98Z"/><path class="cls-15" d="M300.5,78.57c-.25-.57-4.46.79-10.52,2.86-8.6,2.93-9.5,3.67-10.05,4.19a8.08,8.08,0,0,0-1.28,1.49c-.87,1.31-3,8.48-3.95,11.28-1.12,3.28-1.64,3.51-2.22,6.18-.43,2-1,5.94-.26,6.2,1.47.51,4-14.22,15.7-24C294.11,81.59,300.82,79.26,300.5,78.57Z"/><path class="cls-6" d="M204,65.87c-1.62-.61-2.91-1.37-4-.75s-1.08,2.32-1.85,5.47a42.07,42.07,0,0,1-1.84,5.46c-2.29,5.59-5.57,8.64-8.8,11.65-1.09,1-2.33,2-3.66,1.81-1.64-.3-2-2.31-2.91-2.2-1.29.14-2.48,4.3-1.49,8,.27,1,1.08,4.06,3.26,4.75s3.6-1.49,5.11-.71.68,3.46,2.17,6.22c.37.68,1.33,2.19,5.82,4.4,4.18,2.06,9.89,4.86,17.5,4.08a25.28,25.28,0,0,0,8.77-2.52,23.25,23.25,0,0,0,4.75-3.26,4.29,4.29,0,0,0,2.91,2.2c1.74.21,3-1.13,3.66-1.81,2-2.12,3.38-6.21,1.49-8-1.19-1.14-3.16-.9-4-.74a42.83,42.83,0,0,0,.39-6.57,43.71,43.71,0,0,0-1.42-10.22c-1.29-4.93-1.94-7.39-4-9.87-4-4.84-10-6-11.29-6.25C210,66.12,208.5,67.56,204,65.87Z"/><path class="cls-5" d="M367.93,102.52c1-1.56,2.19-2,6.45-4,3.71-1.73,7.31-3.67,11-5.44,7.49-3.6,7.84-3.78,8.65-4.28,5.21-3.26,5.44-4.91,7.7-5,3.11-.11,3.53,3,10.09,8.12a111,111,0,0,0,11.73,7.88c1.25.74,5,1.91,5,3.79a1.49,1.49,0,0,1-.13.64c-.77,2.14-3.46,3.24-9.69,5.89l-1.46.63h0c-5.79,2.37-13.86,9.38-13.86,9.38-8.74,7.6-10.44,4.73-14.76,10.27-4.47,5.73-4.2,10.81-6.87,11-2.47.21-4.59-3.75-7.41-9.05-3.49-6.52-4.55-11.6-6.66-21.75C367,107.3,366.55,104.76,367.93,102.52Z"/><path class="cls-16" d="M478.51,124.68c.38,2.63-.55,3.34-.1,5.33.38,1.66,1.86,4.87,9.46,7.64,10.1,3.69,15.39.93,26.58,1.91,15.43,1.37,23.95,8.27,25.7,5.67,1.25-1.85-2.37-6.46-6.7-11.94-5.64-7.17-8.3-8.14-12.26-13.7-2.11-3-3.64-6.62-6.69-13.91-5.64-13.49-5.95-17.91-11.2-22.24-1.48-1.21-5.38-4.43-8.85-3.25-3.76,1.28-4.85,7-5.21,8.84-2,10.24,4.57,15,1.88,19.62-3.38,5.88-16.47,3.21-17.2,7.15C473.49,118.07,477.76,119.45,478.51,124.68Z"/><path class="cls-17" d="M328.94,85.82c.23-2.66.72-7.55,4.28-11.52a8.54,8.54,0,0,1,4.88-3.19c2.93-.5,5.34,1.17,6.73,2.14,3.61,2.5,3.55,4.79,8.43,10.31,2,2.25,1.91,1.76,3.6,3.7,3.37,3.87,5,7.29,6.86,11.08,2.44,4.93,5.09,9.75,7.62,14.62,3.52,6.77,5.14,9.69,7.08,14.7,3.3,8.48,2.58,10.17,2.08,10.91-1.85,2.72-6.8,1.66-13.26,1.28-1.42-.09-11.44,1-31.46,3.25-9.37,1-14.86,1.72-23.07,1.24-3.44-.2-6.29-.55-8.23-.82a111.94,111.94,0,0,1-1.91-11.77,110.51,110.51,0,0,1-.57-16.16,43.57,43.57,0,0,1,8.08-.28c2.58.15,3.9.25,5.17,1,1.88,1,2.57,2.53,3.68,2.29s.9-1.72,2.21-2.27,1.95.56,4,.57c1.68,0,1.72-.72,3.77-1.08,1.78-.32,2.19.13,5.65.33,2.9.17,4.34.25,4.71-.37.59-1-1.73-2.87-3.9-5.9-3.05-4.24-4.06-8.34-5.13-12.72A32.28,32.28,0,0,1,328.94,85.82Z"/><path class="cls-18" d="M406.15,77.34c2,0,2.59,2.9,6,7,1.25,1.5,3.18,3.1,7,6.3,6.53,5.42,8.48,6.21,11.73,9.85a37.1,37.1,0,0,1,4.13,5.59l-7,2.09a59.74,59.74,0,0,0-6-5c-4.21-3.07-4.93-2.74-10.72-6.63-4.1-2.75-4.55-3.46-6.73-4.1-2-.6-3.43-.52-5.56-1.75-1.14-.66-3.29-1.9-3.28-3.46s1.86-1.86,4.72-4.3C404.37,79.56,404.44,77.33,406.15,77.34Z"/><path class="cls-6" d="M438,104.79l-1.43.13c-6.1.54-9.18.83-10.81,1.76-2.65,1.49-4.43,4.38-3.9,5.15.78,1.16,6.24-3,8.66-1,1.4,1.12.32,3.09.72,8.15.54,6.8,2.88,8,1.63,10.85-1.6,3.62-6,3.2-6.86,6.46-.56,2.19.95,5.23,3,5.8,3.29.92,5.49-5.23,11-5.38,2.75-.08,2.73,1.47,6.77,2.08,2.38.37,5.06-.18,10.33-1.3,8.67-1.84,9.75-2.85,10.3-3.86s0-1.1.42-5.76c.14-1.55.44-3.29.58-4.64,0-.12,0-.37.05-.69a12.39,12.39,0,0,0,0-1.31,13.74,13.74,0,0,0-1.18-4.94c-1.14-2.16-2.35-1.91-3-3.85-.49-1.5.09-2.08-.38-2.75-1.13-1.59-4.85,1.25-9.53.9C447.8,110.06,446,104.46,438,104.79Z"/><path class="cls-2" d="M409.53,115.78c.56-1.69,1.33-1,6.61-6.8,2.48-2.7,3.71-4.38,6.06-4.76,1.85-.3,3.89.28,4.07,1.12s-1.41,1.5-3.31,4.37c-.72,1.09-.72,1.34-.63,1.49.51.89,4.21-1.64,7.53-.2a4.62,4.62,0,0,1,2.58,2.44c.52,1.49-.46,2.34,0,3.92s1.61,1.7,2.66,3c1.79,2.22,1.71,5.91.59,8.32-2.13,4.6-8.31,5.1-8.8,5.14C417.23,134.45,407.41,122.12,409.53,115.78Z"/><path class="cls-6" d="M260.37,71.82c.14,0,0-.67-.11-1.3-.26-1.48-.27-3-.41-4.5-.39-3.95-.59-5.93-.61-6.36a23.15,23.15,0,0,1,.58-7.92,19.69,19.69,0,0,1,3.8-7c1.92-2.47,3.41-4.37,6-5.31s3.3.26,7.21-.44c3.2-.58,3.25-1.5,7.47-2.72,3.81-1.1,5.87-1.7,8-.83,2.6,1.06,3.75,3.67,5.15,6.84s1.82,5.81,2.47,9.74c.47,2.82,1,5.64,1.46,8.47.31,1.92.71,4.51,1.47,4.56s.89-2.06,2.44-2.58a3.3,3.3,0,0,1,2.59.48c2.52,1.47,4,6.06,2,8.4a5.52,5.52,0,0,1-5.41,1.31c-1.43-.42-2-1.34-2.67-1s-.41,2.06-.56,4A16,16,0,0,1,299,81.86c-2.7,4.56-9.56,5.35-13.75,5.82-3.34.39-8.75,1-14.82-1.86a24.36,24.36,0,0,1-10.23-9.21,5.1,5.1,0,0,1-2.91,1.24c-2.66.16-4.81-2.17-5.63-4.26-.15-.39-1.33-3.54.57-6,.2-.25,1.65-2.09,3.38-1.87C258.5,66.14,260,72,260.37,71.82Z"/><path class="cls-16" d="M382.85,139.36c-.88-2.61,1.66-5.76,5.29-10.25a44.71,44.71,0,0,1,8.66-8.2,39.87,39.87,0,0,0,12.1,14.55c6,4.36,11.27,5.3,11,6.87-.43,2.84-17.93,1.87-19.06,1.81C391.91,143.61,384.12,143.16,382.85,139.36Z"/><path class="cls-19" d="M412.68,112.26c1.86,1.12.49,3.6,2.16,7.54.73,1.7,1.8,3.16,10.32,9.77,2.71,2.1,5.06,3.86,6.88,5.2a16.41,16.41,0,0,1-7.63,5.54,17.26,17.26,0,0,1-9.49.2c-9.62-2-17.05-9.43-19.07-16.39a6.34,6.34,0,0,1-.06-4.47c.75-1.78,2.31-2.42,8-4.76C410.75,112.05,411.68,111.67,412.68,112.26Z"/><path class="cls-5" d="M442.24,73.16c1.91-1.5,6.14.76,12.93,4.37a94.61,94.61,0,0,1,12.28,7.81c13.25,9.89,19.95,15,23.67,23.31.67,1.49,3.75,8.37,1.45,10.44-1.6,1.44-4.83-.35-11.52-2.32-2.31-.69-3.61-1-5.3-1.34-4.81-1.11-8.18-1.54-9.12-1.7-9.9-1.67-18.2-18.32-19.76-21.33C446.23,91.16,438.54,76.08,442.24,73.16Z"/><path class="cls-2" d="M472.22,130.66c4.13-.25,5.57,1.94,7.87.88s3.23-4.14,3-6.59c-.38-4.08-4.25-6.63-6.83-8.33a26.23,26.23,0,0,0-14.63-4.09c3.86,6.36,4.21,11,3.71,14.2-.36,2.28-1.3,4.66-.24,5.52S468.17,130.9,472.22,130.66Z"/><path class="cls-5" d="M447.57,75.22c.26-.6,2.86.52,8.23.82,5,.28,6.68-.46,11.92-.81s8.85,0,16.08.84c10.85,1.2,12.69,2.6,13.71,4,1.34,1.81,1.14,3.45,1.3,7.38.29,7,.93,22.69,5.05,32.33.37.86,1.13,2.53.46,3.29-1.11,1.25-5.74-.36-8.85-3.25-1.84-1.7-2.42-3.18-3.9-5.89a92,92,0,0,0-7.09-10.78c-2.23-2.89-4.89-5.61-10.94-10.24C459.09,81.85,447,76.53,447.57,75.22Z"/><path class="cls-6" d="M409.84,15.24c-4.59,2.28-7.8,7-8.66,8.2a18.51,18.51,0,0,0-2.84,5.71c-.58,2.07-.69,4.06-.27,8.16.94,9.07,3,13.48,1.2,14.67l-.14.07a3.67,3.67,0,0,1-2.37,0c-2.69-.9-5.06-2.39-5.61-1.9s1.27,2.34,2.61,6.51c.7,2.18.72,3.19,1.63,3.69,1.23.68,2.33-.73,4.4-.61,2.3.14,3.92,2,4.93,3.24,2.84,3.36,1.79,5.47,3.65,8.17,3.05,4.42,9.91,4.6,12.69,4.68a22.72,22.72,0,0,0,13.42-4.11,20,20,0,0,0,7.25-8.28,19.75,19.75,0,0,0,1.54-11.13c2.09,1.2,3.08.84,3.44.64,1.56-.86,1.24-4,.82-8.23-.15-1.47-.48-4.82-1.23-4.87s-1.12,3.33-2.06,3.36-1.9-4.13-2.64-6.91c-.14-.52-2.62-9.73-6.21-14.53C430.11,14.72,418,11.19,409.84,15.24Z"/></svg>