<svg id="Layer_1" data-name="Layer 1" xmlns="http://www.w3.org/2000/svg" viewBox="0 0 1890.76 1217.58"><defs><style>.cls-1{fill:#010101;}.cls-2,.cls-3,.cls-4,.cls-6{fill:none;stroke:#010101;stroke-miterlimit:10;}.cls-2{stroke-width:1.13px;}.cls-3{stroke-width:0.85px;}.cls-4{stroke-width:2.27px;}.cls-5{fill:#231f20;}.cls-6{stroke-width:3.4px;}.cls-7{fill:#fff;}</style></defs><path class="cls-1" d="M1600.91,89.13c-8.68-1.95-17.3-4.09-25.93-6.23s-17.17-4.57-25.7-7.06-17-5.12-25.51-7.76c-4.24-1.32-8.45-2.73-12.65-4a82,82,0,0,0-12.64-2.76,95,95,0,0,0-25.92.37,149.82,149.82,0,0,0-25.5,6.14,236.13,236.13,0,0,0-24.63,9.64c-4.08,1.71-8,3.74-12,5.64-2,.92-4,2-5.94,3l-5.94,3c3.74-2.39,7.44-4.86,11.28-7.12s7.68-4.51,11.65-6.54a197,197,0,0,1,24.44-11,138.72,138.72,0,0,1,26-7,97.23,97.23,0,0,1,27.16-.61,86.55,86.55,0,0,1,13.32,3c4.28,1.34,8.5,2.73,12.7,4.15l25.22,8.47,25.29,8.3C1584.05,83.5,1592.5,86.22,1600.91,89.13Z"/><path class="cls-1" d="M1675.11,84.42c6.15-3,12.47-5.52,18.85-7.94s12.94-4.39,19.46-6.38,13.11-3.82,19.82-5.26q5-1.05,10.17-1.66a95.92,95.92,0,0,1,10.32-.63,84.81,84.81,0,0,1,10.32.61,57.75,57.75,0,0,1,10.2,2l4.87,1.54c1.61.49,3.23.91,4.87,1.28s3.3.7,5,1,3.33.59,5,.82a134.55,134.55,0,0,0,20.26,1.38,155.86,155.86,0,0,0,20.34-1.4,137,137,0,0,1-20.31,2.51,133.92,133.92,0,0,1-20.51-.76q-5.12-.56-10.17-1.59-2.53-.54-5-1.24l-4.89-1.47a58,58,0,0,0-9.85-1.82,84.72,84.72,0,0,0-10.07-.54c-13.49-.06-26.74,3.39-39.83,7-3.28.9-6.58,1.8-9.84,2.73s-6.5,2-9.73,3C1687.84,79.58,1681.46,81.94,1675.11,84.42Z"/><path class="cls-1" d="M21.75-11c-9.34,27.57-7.48,48-3.68,61.88C20.84,61,25.24,69.92,27.88,86.51a144.36,144.36,0,0,1,1.2,35.77,8.25,8.25,0,0,1-1.2.94c-4.07,2.67-12.18,3.28-17.17-1a10.25,10.25,0,0,1-2.45-12.58,12.63,12.63,0,0,0,2.45,19.92c6.06,3.73,15.13,3,20.85-2.09,1.46,4,3.89,10.26,7.36,17.83C47.29,163.48,52,168,53.64,176.71c1.28,6.84.88,17.31-8.59,31.47,1.89-.94,13.83-7.05,16-18.88a21.41,21.41,0,0,0-1.23-11.54c1.33.46,11.4,4.11,14.72,13.64,2.55,7.3.18,15.31-6.13,21,5.72-2.54,13.81-7.2,15.94-14.68.6-2.09,1.59-7.45-11-27.27-9.75-15.32-14.06-17.95-14.71-25.17-.83-9.15,5-17,9.81-22a36.23,36.23,0,0,0,6.13,12.59c7.37,9.76,15,9.79,22.08,18.88,5.54,7.1,9.24,17.81,4.91,21s-14.78-2-17.18-3.14c.85,6.41,4.76,11.52,9.82,12.58,7.11,1.5,14.8-5.38,17.17-11.53C115,164,104.86,158.35,99,142.1c-3.88-10.8-3-20.83-1.22-40.9a200.72,200.72,0,0,1,7.35-38.81,358.26,358.26,0,0,0,42.93,37.76c37.15,27.79,55,30.19,83.41,56.63C253.19,177,264,187.05,268.28,204c7.37,29.41-12.1,50.72,4.91,74.47,4.84,6.76,5.75,4.11,15.94,15.73,13.65,15.57,28.08,32,23.31,49.3-3.25,11.75-14.63,21.07-17.17,23.07a61,61,0,0,1-9.82,6.29c5.91.76,14.66,1,22.08-3.14,7.64-4.29,9.53-10.83,13.49-10.49,5.5.46,8.16,13.53,8.59,15.73,1.68,8.7,2.57,25-9.81,47.2,5.36-4.73,21.68-20.37,23.3-44.05a58.06,58.06,0,0,0-4.91-27.27c1.69.63,11.86,4.6,15.95,14.68a22.21,22.21,0,0,1-1.23,18.88c6.72-2.24,16.19-6.48,20.85-14.68,7.46-13.13-1.62-29,0-29.37,1.27-.32,7.83,9,9.82,22,1.88,12.34-2.35,14.94-1.23,28.32,1.22,14.49,6.48,15.1,6.13,25.17-.64,18.6-19,29.94-17.17,31.47,2.17,1.79,31.79-9.94,39.25-32.51,5.1-15.44-3.07-27.17,7.36-43a46.55,46.55,0,0,1,11-11.53c4.07,3.07,8.56,6.25,13.49,9.44,5.52,3.57,10.87,6.7,15.94,9.44a134.17,134.17,0,0,1-11-32.52c-3.59-18-3.84-39.28,0-39.85,2-.3,5.93,4.8,14.71,30.41a53.63,53.63,0,0,1,23.31,13.64,41.87,41.87,0,0,1,11,19.92c-.37-8-.86-20-1.23-34.61-.76-29.8,0-29.53-1.23-35.66-4.86-23.83-16.51-27.23-17.17-47.19-.2-6.23-.59-18.07,7.36-28.32,15.17-19.55,54.46-25.3,81-13.64,26.09,11.49,32.6,36.71,38,57.69,2.12,8.2,16.92,69.43-23.3,108-12.19,11.7-21.37,13.58-47.83,37.76-20.16,18.42-25.52,27.09-27,36.7-1.7,11.17,2.95,16.29,0,28.32S494,500.6,487.83,506c17.66-5.9,25.53-13.79,29.44-19.92,7.32-11.49,3.91-21.74,13.49-29.37,6.66-5.31,15.74-6.27,22.08-6.29,1.37,16.37-2.87,28-6.14,34.61-6.46,13.15-16.36,21.62-35.56,37.75-9.9,8.32-18.58,14.69-24.54,18.88,13.84,1.58,31,1.33,46.61-6.29,20.55-10.06,29.76-28.82,30.67-28.32s-10,15.22-20.85,33.56c-13.21,22.29-9.66,21.49-14.72,27.27-19.12,21.85-49.28,10-100.58,32.52-15.24,6.69-11.46,7.25-35.57,18.88-29.52,14.24-49.79,20.45-68.68,27.27-31,11.2-69.68,25.15-103,49.29C199.29,711.2,185.9,728.47,159.12,763c-36.41,47-54.62,70.46-57.64,102.78-1.75,18.63,4.61,17.89,7.35,64,2,34.1,0,52-13.49,65-7.89,7.59-11.57,5.66-20.85,14.68-20.16,19.61-21.46,46.87-17.17,48.25,3.73,1.19,11.78-17.12,19.62-15.74,6.32,1.12,8.1,14.23,8.59,17.83,3.37,24.53,11.78,75.63,23.3,144.74,17,4.78,38.21,9.37,42.93,3.15,3.17-4.18-3.1-10.6-9.81-23.07-11.11-20.64-13.08-38.62-14.72-53.5-3.3-30,7.94-28,3.68-50.34-5.65-29.6-26.5-39.07-20.85-60.83,2.59-10,7.09-8.45,13.49-21,11.71-22.91.41-36.94,0-80.76-.22-23.92,1.85-48.22,3.68-48.24,1.34,0,2.68,12.85,3.68,25.17,22.07-12.71,54.59-30.44,95.67-49.3,41.56-19.08,62.34-28.62,84.63-33.56,13.34-3,80.75-16.83,154.54,8.39A257,257,0,0,1,494,832.23q9.82-36.71,19.63-73.42L521,839.57c6.71.34,15.63,1.81,22.08,7.34s6.64,12,8.58,18.88c6.68,23.72,26.54,25,33.12,45.1,5.29,16.16-2.33,30.69-4.91,36.71-10.53,24.55-12.55,91.46,14.72,261.16l350.79,1c161.4,18.38,200.42,9.25,204.83-3.15,6.25-17.59-59-37-74.82-97.54-5.26-20.07-4.13-41-15.95-44-13.63-3.53-24,22-46.6,23.07-26.2,1.24-53.8-31.17-61.33-60.83-8.21-32.32,4.47-72.89,34.34-84.95,1.9-.77,19.94-7.82,31.89-1.05,14.74,8.34,13,33.69,12.27,47.19-1,18.17-7,25.82-1.23,31.47,8,7.83,33.91,7,45.38-4.2,19.05-18.58-19.6-48.2-12.26-101.73,4.63-33.78,25.08-58.9,34.34-70.27,21.07-25.88,47.4-43.28,49.06-42,2.22,1.77-36.46,39.29-34.34,40.91s44.17-36.48,46.61-34.61c2.17,1.66-29.83,33.37-27,35.66,3.31,2.66,51.35-36.9,52.74-35.66,1.1,1-28.17,26.21-27,27.27,1.53,1.37,51.73-39.54,55.19-36.71,2.77,2.26-24.87,32.29-24.53,32.51s12.54-22.78,31.89-25.17c25.36-3.14,51.47,30.45,51.52,30.41s-42.89-37.46-40.48-39.85c2.79-2.77,66,41.47,68.69,38.81,2.33-2.32-43.27-38.38-41.71-39.86s56.73,39.74,58.88,37.76c2-1.85-42.69-40-41.7-40.91s50.71,42.14,55.19,38.81c4-2.93-29.18-40.55-27-41.95,1.46-.94,16.26,15.67,42.92,34.61,4.59,3.25,21.44,15.23,23.31,13.63,3.16-2.69-40-41.2-36.8-44.05,1.13-1,22.53,31.85,60.1,38.81,22.59,4.18,30-4.87,66.23-7.34,17.83-1.22,49.32-3.37,79.73,8.39,30.91,12,65.33,40.05,71.14,74.46,4.89,29-6.05,28.82-1.23,79.72,3.27,34.5,10.83,43,8.59,74.46-1.53,21.54-6.48,37.61-13.49,51.39-6,11.69-10.06,15.23-14.72,23.08-8.39,14.11-15.22,36.58-6.14,72.37l337.69-91.61C2107.73,668.74,2032.37,568,1999,540.52c-63-51.82-216.48-40.72-288.29-35.53,0,0-146.78,12.64-253.89-24.12-36.78-12.62-23.73-16.53-68.69-33.56-91.93-34.83-139.87-16-177.84-53.49-16.17-16-34.9-46.48-23.31-66.08,4.69-7.92,12.25-10.54,13.49-18.88,2.42-16.16-22.47-29.66-34.34-38.8-49.56-38.17-51.36-138.37-3.68-169.91,29.82-19.72,80.51-13.61,87.09,0,6.47,13.39-32,29.5-41.71,71.32a86,86,0,0,0,0,37.76l68.69-86c-12.46,12.56-42.89,46.83-44.16,95.44a124.63,124.63,0,0,0,7.36,45.1c19.4-23.4,25.92-27.24,28.21-26.22,4.27,1.91-6.42,20.57-8.58,48.25a129.7,129.7,0,0,0,3.68,41.95l8.58-65c4.46,5.29,18.14,23,17.17,48.24s-16,42.16-20.85,47.2c35.28-24.26,44.59-45.11,45.38-60.83.54-10.66-2.72-21.35,0-22,3.79-.94,14.79,18.49,20.86,36.71a126.78,126.78,0,0,1,6.13,30.42c-14.39-57.3-18.55-83-14.72-83.91,4.85-1.17,22.24,37.49,24.53,36.71,1.36-.46-5.84-13.58-7.36-30.42-1.82-20.21,5.46-35.32,8.59-43,16.72-41.08-5.71-59.29,3.68-92.3,13-45.75,73.65-76.9,119-87,51.44-11.52,63.12,12.87,143.5,9.44,11.82-.5,21.19-1.41,29.34-2.54,31.91-4.43,56-9.61,58.81-10.25,22.21-5.08,74-1.39,201.44,34.82V-1.28Z"/><path class="cls-1" d="M153.6,264.29a90.2,90.2,0,0,0,17.3.42,85.14,85.14,0,0,0,17-3l2.07-.6,2-.69c1.37-.44,2.69-1,4-1.5,2.65-1.11,5.25-2.31,7.77-3.66a77.87,77.87,0,0,0,14.14-9.63l.4,1.88-25.13-6.82c-8.39-2.23-16.85-4.2-25.28-6.42a123.26,123.26,0,0,1-12.54-3.87,28.82,28.82,0,0,1-6-3,10.32,10.32,0,0,1-2.54-2.36,6.49,6.49,0,0,1-1.31-3.33,4.5,4.5,0,0,1,.28-1.84c.19-.56.42-1,.64-1.55a29.12,29.12,0,0,0,1.13-3,39.4,39.4,0,0,0,1.38-6.29,44.5,44.5,0,0,0-.25-12.93,41.17,41.17,0,0,1,1,13,39.85,39.85,0,0,1-1.11,6.49,27.15,27.15,0,0,1-1,3.16,6.36,6.36,0,0,0-.74,2.84,6.7,6.7,0,0,0,3.41,4.61,28.06,28.06,0,0,0,5.74,2.65c4,1.42,8.26,2.44,12.46,3.49,8.43,2.07,16.93,3.94,25.35,6.16l25.19,6.88,2,.54-1.58,1.34A79.64,79.64,0,0,1,171,265.61,81.91,81.91,0,0,1,153.6,264.29Z"/><path class="cls-1" d="M132.14,231.25c-2.57-.7-4-2.86-4.91-4.19-3.08-4.61-1.32-9.23-2.45-9.44-1-.19-3.17,2.86-3.68,6.29-.53,3.59.59,9.12,4.91,11.54,7.11,4,16.88-3.87,22.07,0,1.8,1.34,1.82,3.05,2.46,9.44,1.27,12.73,1.94,19.12,3.68,19.92,6.84,3.18,33.33-21,28.21-28.32-2.22-3.17-8.31-.36-20.86-5.24-7.82-3-8.82-5.46-13.49-5.24C140.71,226.35,137.34,232.67,132.14,231.25Z"/><path class="cls-1" d="M84.3,115.88c2.1,18.35,5,36.6,8.65,54.69.92,4.52,1.89,9,2.87,13.54s2,9,2.6,13.66a46.72,46.72,0,0,1,.38,7,62.76,62.76,0,0,1-.6,7,41,41,0,0,1-1.54,6.87,43.05,43.05,0,0,1-2.71,6.5c-2.11,4.17-4.53,8.1-6.82,12.11s-4.57,8-6.77,12Q73.76,261.44,67.87,274c-4,8.32-7.61,16.77-11.12,25.31-1.76,4.26-3.49,8.55-5.38,12.8a63,63,0,0,1-6.84,12.33A37.65,37.65,0,0,1,34,334c-2,1.32-4,2.35-5.87,3.61a33.44,33.44,0,0,0-5.21,4.13,24.12,24.12,0,0,0-4,5.13,21.69,21.69,0,0,0-2.3,6.05,23.89,23.89,0,0,0,.59,12.86,17.7,17.7,0,0,0,7.86,9.71c3.73,2.05,8.24,2.61,12.82,3.22,2.29.29,4.63.66,7,1.17a37,37,0,0,1,6.86,2.26c.56.24,1.08.56,1.62.83a15.48,15.48,0,0,1,1.59.9,33.82,33.82,0,0,1,3,2.11,22.69,22.69,0,0,1,4.84,5.6c2.53,4.19,4,8.66,5.57,13s3,8.74,4.39,13.2A99.39,99.39,0,0,1,76,431.44a52.91,52.91,0,0,1,.47,14.23,39.2,39.2,0,0,1-4.12,13.76c-1.09,2.14-2.37,4.11-3.48,6.06a17.84,17.84,0,0,0-2.34,5.83c-.64,3.82,1.78,7.89,4.75,10.82a18.1,18.1,0,0,0,5.23,3.52,19.93,19.93,0,0,0,3,1c1.06.28,2.12.47,3.37.79a8.86,8.86,0,0,1,1,.32,3.8,3.8,0,0,1,1.3.81,2.68,2.68,0,0,1,.79,2.16,3,3,0,0,1-.85,1.75,8.08,8.08,0,0,1-1.78,1.31c-.54.32-1.07.59-1.58.86a25.82,25.82,0,0,0-5.46,3.5,15.26,15.26,0,0,0-4.6,11.22,19.17,19.17,0,0,0,3.85,11.86A12.65,12.65,0,0,0,80.34,525a31,31,0,0,0,6.38,1.42A64.86,64.86,0,0,1,112.85,537a47.18,47.18,0,0,1,10.58,9.6,35,35,0,0,1,6.23,13A50.33,50.33,0,0,1,131,573.73a86.53,86.53,0,0,1-1.78,14c-.45,2.26-.94,4.57-1.57,6.86-.33,1.13-.64,2.28-1.06,3.39s-.82,2.24-1.28,3.34a51.16,51.16,0,0,1-3.32,6.31c-1.24,2-2.54,3.88-3.51,5.82a19,19,0,0,0-1.88,6.12,29.44,29.44,0,0,0-.06,6.57,37.75,37.75,0,0,0,3.82,12.7c4,8.06,10.15,15,17.09,20.83a90.58,90.58,0,0,0,23.26,14.14,78,78,0,0,0,26.55,5.78c9.13.47,18.32-.35,27.51-1.16s18.41-1.66,27.66-2.07a519.18,519.18,0,0,1,110.47,7c-18.27-2.69-36.65-4.59-55.08-5.54a502.7,502.7,0,0,0-55.31.22c-9.2.52-18.37,1.39-27.56,2.32s-18.45,1.79-27.79,1.4A82.78,82.78,0,0,1,173.25,680,84.14,84.14,0,0,1,159.82,676a92.46,92.46,0,0,1-24-14.33c-7.2-6-13.66-13.06-18-21.57a39.82,39.82,0,0,1-4.15-13.67,32,32,0,0,1,0-7.25,22.14,22.14,0,0,1,2.15-7.06c1.1-2.19,2.44-4.12,3.61-6.05a47.36,47.36,0,0,0,3.11-5.94c.43-1,.85-2.07,1.2-3.13s.68-2.14,1-3.22c.58-2.17,1-4.38,1.5-6.64A82.77,82.77,0,0,0,128,573.62a47,47,0,0,0-1.29-13.3A31.91,31.91,0,0,0,121,548.5a43.89,43.89,0,0,0-9.89-8.9,61.52,61.52,0,0,0-24.88-9.94,32.92,32.92,0,0,1-7.1-1.61,13.49,13.49,0,0,1-3.35-2c-.48-.42-1-.83-1.43-1.27L73,523.35a22.39,22.39,0,0,1-4.62-14A20.32,20.32,0,0,1,69.8,502a17.17,17.17,0,0,1,4.28-6.32,28.87,28.87,0,0,1,6.14-4c.5-.27,1-.54,1.45-.8a5.25,5.25,0,0,0,1-.71c.08-.08,0,0-.06.24a.72.72,0,0,0,.2.6c.14.09-.34-.17-.8-.27-1-.25-2.21-.48-3.38-.8a22.19,22.19,0,0,1-3.51-1.23,21.66,21.66,0,0,1-10.59-10.24,14.07,14.07,0,0,1-1.24-3.69,12.49,12.49,0,0,1-.06-4,20.84,20.84,0,0,1,2.75-7c1.18-2.06,2.43-4,3.44-5.93a36.21,36.21,0,0,0,3.81-12.62c1-8.86-.93-17.9-3.58-26.61-1.33-4.37-2.83-8.74-4.31-13.1s-3-8.69-5.25-12.42a19.24,19.24,0,0,0-4.17-4.85,30,30,0,0,0-2.65-1.88,13.23,13.23,0,0,0-1.42-.8c-.49-.25-.95-.54-1.46-.75a32.39,32.39,0,0,0-6.26-2.08c-2.18-.49-4.4-.85-6.69-1.14s-4.6-.6-6.95-1.13a25.45,25.45,0,0,1-6.91-2.48,20.63,20.63,0,0,1-9.18-11.35,26.75,26.75,0,0,1-.64-14.46,24.32,24.32,0,0,1,2.62-6.84,25.73,25.73,0,0,1,4.53-5.73,36.25,36.25,0,0,1,5.65-4.43c2-1.31,4.1-2.37,6-3.59a35,35,0,0,0,9.92-8.83A61.51,61.51,0,0,0,49.11,311c1.89-4.18,3.66-8.44,5.45-12.7,3.59-8.51,7.34-17,11.38-25.31s8.26-16.56,12.75-24.66q3.36-6.06,6.89-12c2.34-4,4.78-7.92,6.89-12a38.94,38.94,0,0,0,4.28-12.83,49.75,49.75,0,0,0,.4-13.62c-.51-4.54-1.49-9.06-2.39-13.58s-1.83-9.06-2.69-13.6q-2.55-13.62-4.52-27.34T84.3,115.88Z"/><path class="cls-2" d="M132.75,356.59c.69.56,9.74,8.12,7.36,16.78-2.44,8.86-15.29,13.16-24.53,12.58-10.09-.63-10.79-6.78-28.21-14.68-6.49-2.94-24-10.87-33.12-5.24-1.8,1.1-4.13,3.25-3.68,5.24C51.66,376,68,376.49,69,376.51"/><path class="cls-1" d="M67.13,468.29a56.66,56.66,0,0,1,14.44-1.16,37.64,37.64,0,0,1,14.3,3.47,24.08,24.08,0,0,1,3.32,1.89,20.41,20.41,0,0,1,2.88,2.54l5,5.17q5,5.12,10.15,10.11l5.15,5c.86.86,1.72,1.69,2.6,2.72a6.61,6.61,0,0,1,1.23,2.05,4,4,0,0,1,.21,1.43,6.19,6.19,0,0,1-1.17,3.4,9.45,9.45,0,0,1-1.5,1.58,19.62,19.62,0,0,1-3.25,2.15c-2.18,1.19-4.37,2.16-6.5,3.21a70.48,70.48,0,0,0-12.12,7.29,59.35,59.35,0,0,0-10.22,10,48.76,48.76,0,0,1,9.15-11.23,59.46,59.46,0,0,1,5.73-4.54,72.69,72.69,0,0,1,6.23-3.82c2.1-1.2,4.26-2.29,6.25-3.45s3.85-2.55,4.09-4a2.88,2.88,0,0,0,.06-.55,1.11,1.11,0,0,0,0-.34,3.67,3.67,0,0,0-.67-1c-.68-.8-1.55-1.63-2.39-2.45l-5.2-5c-3.42-3.38-6.82-6.8-10.11-10.33l-4.83-5.33a19.22,19.22,0,0,0-2.42-2.3A21.27,21.27,0,0,0,94.66,473a39.08,39.08,0,0,0-13.26-4.17A72.17,72.17,0,0,0,67.13,468.29Z"/><path class="cls-3" d="M84.3,490.31c3.33-1.53,8.3-3.2,13.5-2.1,7.6,1.63,9.32,7.87,15.94,11.54,4.8,2.66,13.07,4.47,28.21,0"/><path class="cls-1" d="M1599.07,99.1c0-.55-.46-.92-.85-1.21a9,9,0,0,0-1.35-.77,30,30,0,0,0-2.87-1.2c-1.94-.72-3.92-1.34-5.91-1.94-4-1.19-8-2.27-12-3.32-8-2.07-16.1-4-24.16-6s-16.14-3.81-24.26-5.45c-4.06-.81-8.14-1.54-12.23-2.08s-8.2-.88-12.32-1.08a214.72,214.72,0,0,0-73.11,10c-3.91,1.27-7.77,2.67-11.5,4.3-1.87.81-3.71,1.68-5.47,2.63a26.88,26.88,0,0,0-4.85,3.22,7.34,7.34,0,0,0-.88.89,2.07,2.07,0,0,0-.36.63s0,0,0,0,0-.06,0-.13-.08-.1,0-.05a3.1,3.1,0,0,0,.87.47,30.42,30.42,0,0,0,5.67,1.33c4,.63,8.15,1.06,12.26,1.49,8.25.84,16.46,1.74,24.71,2.2,16.46,1,33.07.42,49.67.49q12.45,0,24.89.22c8.28.15,16.57-.07,24.85-.53l24.84-1.52c4.14-.24,8.28-.45,12.43-.6,2.07-.07,4.14-.15,6.21-.33,1-.09,2.06-.21,3.08-.4a9.76,9.76,0,0,0,1.5-.4C1598.35,99.84,1598.91,99.62,1599.07,99.1Zm0,0c-.15.52-.72.74-1.18.93a9.46,9.46,0,0,1-1.5.4,29.21,29.21,0,0,1-3.08.42c-2.06.2-4.14.29-6.21.37q-6.21.25-12.42.66c-8.28.55-16.54,1.3-24.82,1.87s-16.57,1.08-24.88,1.13-16.58.2-24.87.41l-24.87.75c-8.3.24-16.64.34-25,0s-16.63-1.07-24.89-1.87c-4.14-.42-8.27-.82-12.45-1.45a32.93,32.93,0,0,1-6.42-1.5,6.27,6.27,0,0,1-1.83-1,3.48,3.48,0,0,1-.93-1.28,3.19,3.19,0,0,1-.18-.89,3.32,3.32,0,0,1,0-.79,5.06,5.06,0,0,1,1-2.12,10.92,10.92,0,0,1,1.29-1.33,29.82,29.82,0,0,1,5.51-3.64c1.88-1,3.8-1.91,5.74-2.74,3.88-1.65,7.84-3.07,11.83-4.34a196.84,196.84,0,0,1,24.36-5.9,204.18,204.18,0,0,1,49.85-2.71c4.16.31,8.3.75,12.42,1.41s8.2,1.49,12.25,2.41c8.1,1.83,16.12,4,24.16,6l24.08,6.29c4,1.07,8,2.16,12,3.38,2,.61,4,1.24,5.9,2,1,.37,1.94.75,2.87,1.21a10,10,0,0,1,1.34.78C1598.61,98.18,1599.12,98.55,1599.07,99.1Z"/><path class="cls-1" d="M1494.81,75c5.52,2.91,2.59,14.16,2.45,14.68a21.55,21.55,0,0,1-6.13,10.49c-6.47,5.79-16.33,5.86-31.89,5.24-35.11-1.4-53-2.12-54-7.34-.56-3,4.59-5.84,11-9.44,16.62-9.28,33.65-10.9,51.52-12.59,12.13-1.14,10.85.27,19.62-1C1490.86,74.47,1492.88,74,1494.81,75Z"/><path class="cls-4" d="M1665.3,96c.55-2.88,9.33-4.06,12.26-4.19,17.52-.79,20.44-8.24,50.29-11.54,24.62-2.72,43.79,0,57.65,2.1,2.78.41,54.42,8.32,54,16.78-.3,5.68-24,8.94-42.92,11.54-37.68,5.17-65.93,1.78-77.27-1s-19.63-5.25-19.63-5.25c-7.2-2.09-8.46-2.64-9.84-2.94,0,0-.59-.12-1.2-.2-4.56-.65-14,1.75-19.62-1C1667.28,99.31,1665,97.54,1665.3,96Z"/><path class="cls-1" d="M1682.47,97c.15,2.36,4.57,3.91,17.17,7.34,17.68,4.81,20.61,6,29.44,7.34,7.25,1.14,10.93,1.69,13.49,1,7.9-2,11.4-8.65,18.4-22,1-1.83,2.52-5.06,1.22-8.39a6.13,6.13,0,0,0-1.22-2.1c-1.56-1.76-6-4.77-33.12,0-7,1.23-14.08,2.83-28.21,6.29a40.54,40.54,0,0,0-13.49,6.3C1682.49,95.48,1682.45,96.63,1682.47,97Z"/><path class="cls-5" d="M1590.48,311a32.5,32.5,0,0,0-9.7,7.38,15.19,15.19,0,0,0-3.61,10.47,17.6,17.6,0,0,0,1.12,5.6,24.71,24.71,0,0,0,2.63,5.27,42.68,42.68,0,0,0,8.33,9,26.1,26.1,0,0,1-5.65-3,29.2,29.2,0,0,1-2.55-2c-.42-.36-.78-.77-1.16-1.16a12.87,12.87,0,0,1-1.1-1.23,21.35,21.35,0,0,1-3.51-5.68,22.23,22.23,0,0,1-1.07-3.23l-.3-1.69c-.09-.57-.1-1.15-.14-1.72a16.55,16.55,0,0,1,1.19-6.81,15.83,15.83,0,0,1,3.9-5.61,20.23,20.23,0,0,1,5.47-3.68A23.37,23.37,0,0,1,1590.48,311Z"/><path class="cls-5" d="M1604,339.28a17,17,0,0,1-8.31,2.81,7.92,7.92,0,0,1-2.31-.23,4.67,4.67,0,0,1-2.18-1.15,5.46,5.46,0,0,1-1.27-4.72,5.91,5.91,0,0,1,.91-2.36,4.08,4.08,0,0,1,2.2-1.69,4.35,4.35,0,0,1,2.77.23,11.21,11.21,0,0,1,2.12,1.14c2.54,1.7,4.69,3.62,7,5.39s4.58,3.48,6.95,5.09,4.83,3.08,7.32,4.52a71.7,71.7,0,0,0,15.52,7,55.58,55.58,0,0,0,8.24,1.9c2.76.4,5.7.65,8.53.86a42.76,42.76,0,0,0,8.4-.16,23.37,23.37,0,0,0,4-.88c.66-.18,1.27-.46,1.91-.69a18.93,18.93,0,0,0,1.79-.93,16.45,16.45,0,0,0,5.73-5.67c1.53-2.34,2.85-5.09,5-7.35a16.56,16.56,0,0,1,3.6-2.81,18.72,18.72,0,0,1,4.15-1.71,24,24,0,0,1,8.75-.67,25.93,25.93,0,0,0-8.46,1.57,19.83,19.83,0,0,0-3.75,1.93,15.29,15.29,0,0,0-3,2.8c-1.75,2.14-2.83,4.77-4.31,7.4a18.44,18.44,0,0,1-6.23,6.77,22,22,0,0,1-8.66,3.19,46.32,46.32,0,0,1-9,.43c-3-.15-5.84-.39-8.84-.79a58,58,0,0,1-8.76-1.94,72.79,72.79,0,0,1-16.16-7.46,100.06,100.06,0,0,1-14.31-10.34c-2.22-1.9-4.37-3.93-6.56-5.61-1.08-.81-2.29-1.51-3.14-1.31a3.17,3.17,0,0,0-2,2.5,4,4,0,0,0,.59,3.48,5.22,5.22,0,0,0,3.55,1.36,14.47,14.47,0,0,0,4.22-.43A20,20,0,0,0,1604,339.28Z"/><path class="cls-5" d="M1688.6,305.72a25.47,25.47,0,0,1,10.47,7.89,23.8,23.8,0,0,1,3.36,5.92,22.56,22.56,0,0,1,1.34,6.76,21.45,21.45,0,0,1-3.89,13,24.57,24.57,0,0,1-10.05,8.41,38.41,38.41,0,0,0,7.78-9.8,22.94,22.94,0,0,0,2.76-11.46,20.49,20.49,0,0,0-.31-2.94,22.25,22.25,0,0,0-.67-2.88,28.93,28.93,0,0,0-2.5-5.47A40.14,40.14,0,0,0,1688.6,305.72Z"/><path class="cls-4" d="M1666.52,30.92c3.63,53.67,5.83,110,6.14,168.87.28,54.26-1.07,106.41-3.68,156.27"/><path class="cls-1" d="M1532.83,423.19a54.28,54.28,0,0,0,23.22,6,90.16,90.16,0,0,0,12-.91l12.06-1.59c4-.55,8-1.08,12-1.81a48.17,48.17,0,0,0,5.75-1.35,48.88,48.88,0,0,0,5.46-2.22c3.62-1.66,7.37-3.66,11.66-4.53a27,27,0,0,1,12.88.66,18.81,18.81,0,0,1,5.87,3.1c.86.67,1.63,1.38,2.34,1.91a5.38,5.38,0,0,0,6.67.22,24.94,24.94,0,0,1,5.82-2.77,14.51,14.51,0,0,1,6.78-.37,25.66,25.66,0,0,1,6.09,2.19c1.87.87,3.66,1.77,5.49,2.59s3.69,1.62,5.54,2.36a104.45,104.45,0,0,0,11.37,3.78,70.56,70.56,0,0,0,11.77,2.05,48.86,48.86,0,0,0,11.9-.35A53.86,53.86,0,0,0,1719,429l0,0h0a8.11,8.11,0,0,1,4.63.24,5.93,5.93,0,0,1,3.5,3,3.53,3.53,0,0,1,.17,2.35,4.91,4.91,0,0,1-1.16,2,7,7,0,0,1-3.93,1.95,6.81,6.81,0,0,0,3.68-2.18,3.49,3.49,0,0,0,.66-3.81,5.2,5.2,0,0,0-3.2-2.39,7.07,7.07,0,0,0-4,0l.07,0a51.82,51.82,0,0,1-11.69,3.9,50.82,50.82,0,0,1-12.37.87,80,80,0,0,1-24.07-5.37c-1.93-.73-3.81-1.49-5.71-2.3s-3.75-1.69-5.57-2.51a24.73,24.73,0,0,0-5.36-1.88,11.21,11.21,0,0,0-5.26.33,22.7,22.7,0,0,0-5.11,2.51,11.22,11.22,0,0,1-3.28,1.34,8.3,8.3,0,0,1-3.78-.11,9.16,9.16,0,0,1-3.3-1.66c-.9-.7-1.63-1.38-2.37-1.95a15.06,15.06,0,0,0-4.82-2.58,20.85,20.85,0,0,0-5.56-1,21.29,21.29,0,0,0-5.64.35c-3.71.74-7.28,2.47-11,4.14a53.11,53.11,0,0,1-5.86,2.26,52.1,52.1,0,0,1-6.13,1.33c-4.07.63-8.12,1-12.16,1.46s-8.08.83-12.14,1.17a82.48,82.48,0,0,1-12.29.37,50.86,50.86,0,0,1-12.07-2.4A52.58,52.58,0,0,1,1532.83,423.19Z"/><path class="cls-1" d="M1562.27,429.48a138.58,138.58,0,0,0,35.28,14.41,146.47,146.47,0,0,0,18.66,3.33c3.13.42,6.29.59,9.44.81,1.57.13,3.16.09,4.74.14s3.16.09,4.74,0a160.28,160.28,0,0,0,18.94-1.21c6.3-.68,12.56-1.81,18.78-3.12,3.11-.66,6.2-1.43,9.3-2.2s6.16-1.64,9.21-2.58c6.11-1.84,12.12-4.05,18.09-6.45a128.72,128.72,0,0,1-17.35,8.55,165.45,165.45,0,0,1-18.41,6.12,156.18,156.18,0,0,1-19.07,3.94c-1.6.27-3.22.42-4.84.59s-3.23.37-4.85.45l-4.88.32-4.88.13a129.53,129.53,0,0,1-38.58-5.44A105.36,105.36,0,0,1,1562.27,429.48Z"/><path class="cls-1" d="M1579.44,428.43c8.88,1.37,17.72,2.63,26.58,3.58s17.74,1.63,26.64,1.95c4.44.21,8.9.28,13.35.29s8.9-.06,13.36-.15c8.91-.25,17.82-.82,26.78-1.47a183.84,183.84,0,0,1-26.63,4.12c-4.48.41-9,.59-13.48.72s-9,0-13.51-.11-9-.5-13.48-.94-9-1-13.39-1.78A184,184,0,0,1,1579.44,428.43Z"/><path class="cls-1" d="M297.72,810.2a29.83,29.83,0,0,1,2.48,7.34,23.52,23.52,0,0,1,.2,7.81,22,22,0,0,1-2.52,7.47,27.84,27.84,0,0,1-4.87,6.23,67.82,67.82,0,0,1-5.95,5.09c-2.05,1.59-4.07,3.16-6.2,4.69a63.55,63.55,0,0,1-6.69,4.11c-2.25,1.25-4.46,2.51-6.66,3.84-4.37,2.65-8.72,5.44-13,8.21a86.93,86.93,0,0,0-12.07,9.2,45.39,45.39,0,0,0-5.09,5.42c-1.49,1.9-2.67,4.17-4.23,6.38a54.87,54.87,0,0,1-5.07,6.15,59.8,59.8,0,0,1-5.81,5.43,65.84,65.84,0,0,1-6.49,4.54c-2.21,1.39-4.41,2.68-6.47,4.1a45.2,45.2,0,0,0-10.69,10.28,50.29,50.29,0,0,0-6.88,13.25,59.74,59.74,0,0,0-3,14.74,49.53,49.53,0,0,0,7.44,28.82,79.83,79.83,0,0,0,20.62,22.55,74.93,74.93,0,0,1-12.08-9.69,73.87,73.87,0,0,1-10-12A55.72,55.72,0,0,1,188,960a44.22,44.22,0,0,1-1.64-7.74c-.2-1.31-.25-2.63-.35-4s-.06-2.65,0-4A55.81,55.81,0,0,1,196,914.6a47.85,47.85,0,0,1,11.41-11.13c2.18-1.52,4.42-2.84,6.57-4.21a62.83,62.83,0,0,0,6.15-4.34,55,55,0,0,0,5.49-5.09,52,52,0,0,0,4.8-5.74c1.43-2,2.65-4.31,4.35-6.48a45.3,45.3,0,0,1,5.52-5.79,89.37,89.37,0,0,1,12.63-9.32c4.39-2.77,8.79-5.43,13.3-8,2.25-1.28,4.55-2.51,6.83-3.7A67.54,67.54,0,0,0,279.6,847c2.11-1.4,4.22-2.92,6.29-4.41a71.11,71.11,0,0,0,6-4.74,26.26,26.26,0,0,0,4.9-5.68,20.64,20.64,0,0,0,2.74-7A26.74,26.74,0,0,0,297.72,810.2Z"/><path class="cls-4" d="M280.55,954.94c-1.64-.48-6.82-1.37-17.17-3.14-9.83-1.69-12.57-2-15.95-1-4.13,1.12-10.35,4.33-11,9.44-.79,5.95,6.4,11.23,12.27,12.58,3.06.71,6.12.44,11,0,6.95-.61,7.45-1.71,9.81-1,4.72,1.33,3.91,6,9.81,11.54,1.78,1.66,6.13,5.71,12.27,6.29,6.92.66,15.4-3.17,17.17-8.39C311.77,972.27,295.26,959.23,280.55,954.94Z"/><path class="cls-1" d="M321,945.5a31.64,31.64,0,0,1,8.28,2.76,18.2,18.2,0,0,1,6.87,5.7,15.12,15.12,0,0,1,2.49,8.75,23.75,23.75,0,0,1-2.05,8.79,36.33,36.33,0,0,1-4.61,7.61,48.94,48.94,0,0,1-6.09,6.37,58.15,58.15,0,0,1-14.7,9.32,88.59,88.59,0,0,0,13.5-10.62,44.7,44.7,0,0,0,9.82-13.59,22,22,0,0,0,2-7.94,13.87,13.87,0,0,0-1.83-7.73,18.32,18.32,0,0,0-5.94-5.7A40.82,40.82,0,0,0,321,945.5Z"/><path class="cls-1" d="M187.33,951.8c-1.86,5.52-3.74,11-5.46,16.46l-2.58,8.26c-.88,2.74-1.75,5.47-2.45,8.21a34.49,34.49,0,0,0-1.4,8.13,14.25,14.25,0,0,0,.36,3.87,14,14,0,0,0,1.54,3.53,18.2,18.2,0,0,0,5.92,5.53,43.84,43.84,0,0,0,7.75,3.69,30.33,30.33,0,0,1-8.53-2.21,18.42,18.42,0,0,1-7.31-5.47,14.39,14.39,0,0,1-2.23-4.25,16.92,16.92,0,0,1-.72-4.71,35.29,35.29,0,0,1,1.33-9,154.89,154.89,0,0,1,5.83-16.5A100,100,0,0,1,187.33,951.8Z"/><path class="cls-1" d="M222.9,889.91a193.77,193.77,0,0,0-25.13,9c-4.1,1.78-8.21,3.48-12.2,5.42A62.85,62.85,0,0,0,174.25,911a33.7,33.7,0,0,0-4.81,4.35c-.75.77-1.41,1.64-2.09,2.48a18.52,18.52,0,0,0-1.57,2.71c-1.89,3.92-3.32,8.18-4.88,12.34-3,8.4-6,16.81-9.14,25.19,1.12-4.33,2.36-8.63,3.56-12.93s2.54-8.57,3.91-12.83c.68-2.13,1.37-4.26,2.12-6.38s1.54-4.23,2.5-6.32a17.48,17.48,0,0,1,1.75-3.09c.71-.9,1.4-1.83,2.2-2.67a36.68,36.68,0,0,1,5.07-4.66,63.6,63.6,0,0,1,11.79-6.78c4.11-1.86,8.26-3.53,12.44-5.11s8.42-3.12,12.72-4.37S218.49,890.67,222.9,889.91Z"/><path class="cls-1" d="M219.22,897.26a92.52,92.52,0,0,0-23.7,7.51q-2.79,1.35-5.47,2.88c-1.75,1.05-3.54,2.15-5.26,3.28a55.37,55.37,0,0,0-9.57,7.57,40.48,40.48,0,0,0-3.91,4.57,35,35,0,0,0-3.08,5.11,44.19,44.19,0,0,0-3.38,11.55c-.72,4.06-1.25,8.23-1.87,12.34s-1,8.24-1.28,12.37l-2.21-1.11q6.87-5.37,13.81-10.62l7-5.22c2.33-1.73,4.69-3.44,7.05-5.13q-3.2,3-6.44,5.88L174.38,954q-6.56,5.75-13.18,11.4l-2.26,1.92.06-3c.08-4.22.42-8.44.88-12.64s1-8.32,1.68-12.51a43,43,0,0,1,3.66-12.46A38.07,38.07,0,0,1,173,916.22a56.5,56.5,0,0,1,10.31-7.68,83.26,83.26,0,0,1,11.33-5.78A75.52,75.52,0,0,1,219.22,897.26Z"/><path class="cls-1" d="M167.71,925.57c10.83,13.38,15.84,15.52,18.4,14.69,3.65-1.19-.31-9.67,6.13-19.93,2.86-4.56,6.75-7.88,9.81-10.49a71.33,71.33,0,0,1,12.27-8.39,37,37,0,0,0-17.18,1c-5.72,1.83-9.73,5-17.17,11.54C176.7,916.92,172.47,920.8,167.71,925.57Z"/><path class="cls-1" d="M354.14,878.38a29.27,29.27,0,0,0,13.58-1,25.22,25.22,0,0,0,6.1-3,43.51,43.51,0,0,0,5.31-4.29c1.68-1.55,3.34-3.16,5.09-4.69a48.34,48.34,0,0,1,5.76-4,98.41,98.41,0,0,1,12.4-6.33q3.19-1.36,6.47-2.56c1.09-.4,2.2-.75,3.29-1.13s2.25-.64,3.37-1a59.44,59.44,0,0,1,6.86-1.49c1.14-.24,2.32-.28,3.47-.43l1.75-.19a14.56,14.56,0,0,1,1.75-.12c2.33-.08,4.67-.21,7-.06,1.16.05,2.33.05,3.49.16l3.48.34c1.17.08,2.31.27,3.46.45l3.46.55,3.41.72,1.71.36,1.69.45,3.37.9,3.33,1c2.23.67,4.38,1.56,6.57,2.34a114.19,114.19,0,0,1,12.63,5.92A94,94,0,0,1,494.67,869,80.07,80.07,0,0,1,505,878.37c3.17,3.4,6.11,7,9,10.57s5.77,7.2,8.49,10.94a178.54,178.54,0,0,1,14.42,23.6c-9.06-16.06-20.74-30.46-33.17-43.9a85.92,85.92,0,0,0-10.24-9,92.81,92.81,0,0,0-11.57-7.26,117.12,117.12,0,0,0-12.41-5.73c-2.15-.77-4.26-1.63-6.45-2.27l-3.27-1-3.3-.88a91.1,91.1,0,0,0-27-3,13.73,13.73,0,0,0-1.7.11l-1.69.16c-1.13.13-2.27.15-3.38.38a57.79,57.79,0,0,0-6.66,1.36c-1.09.31-2.19.54-3.28.9l-3.26,1.07c-2.16.74-4.31,1.52-6.43,2.38a96.55,96.55,0,0,0-12.34,5.94,47.1,47.1,0,0,0-5.66,3.76c-1.76,1.45-3.43,3-5.19,4.54a44.9,44.9,0,0,1-5.58,4.19A25.86,25.86,0,0,1,367.9,878,28.38,28.38,0,0,1,354.14,878.38Z"/><path class="cls-4" d="M356.59,891c1.27-1.7,4-1.44,7.36-2.09,5.66-1.1,8.79-3.87,13.49-7.35,0,0,7.35-5.42,24.53-15.73,19.15-11.48,53.59-1.12,69.92,6.29a92.16,92.16,0,0,1,47.83,49.3c-4.08-1.61-10-3.85-17.17-6.29-17.39-5.91-40.6-13.65-71.14-16.78-18.58-1.91-39-2-47.83-1-5.29.57-10.71.19-15.95,1-3.68.6-6.3,1.29-8.58,0C356.34,896.77,355.08,893,356.59,891Z"/><path class="cls-1" d="M399.52,868.94c-2.75,6.49,5.77,14.91,12.27,18.88,16,9.77,36.49,2.65,38,2.09a42.94,42.94,0,0,0,22.08-17.83c-10.72-5.9-27.06-12.47-46.61-11.53C418.25,860.88,402.61,861.64,399.52,868.94Z"/><path class="cls-1" d="M1115.81,876.28a114.61,114.61,0,0,1,38.11-28.19,131.09,131.09,0,0,1,22.42-8.43,107.76,107.76,0,0,1,11.78-2.51c2-.35,4-.55,6-.81s4-.39,6-.47a116.5,116.5,0,0,1,24,1.4c3.95.74,7.89,1.56,11.74,2.67,1.94.51,3.84,1.13,5.75,1.74s3.77,1.33,5.63,2.06c3.73,1.44,7.38,3,11,4.78s7.08,3.61,10.54,5.53,6.89,3.89,10.23,6,6.61,4.38,9.75,6.77q-5.12-3-10.37-5.68c-3.5-1.79-7.05-3.47-10.63-5.13a206.81,206.81,0,0,0-21.69-9,132,132,0,0,0-22.58-5.54,115.63,115.63,0,0,0-23.14-1.12c-1.93.05-3.86.25-5.78.4s-3.85.4-5.76.73c-3.83.54-7.62,1.36-11.38,2.28a142.8,142.8,0,0,0-22.07,7.51A137.82,137.82,0,0,0,1115.81,876.28Z"/><path class="cls-6" d="M1126.85,879.43c3.16-2,7.84-4.86,13.49-8.39,23.67-14.81,24.57-15.84,28.21-17.83,16.26-8.89,40.14-11.25,58.88-6.3,22.64,6,29.46,20.47,49.06,23.08,2.17.29,8.81,1,12.26,5.24,2.37,2.9,3.24,7.46,1.23,10.49-3.64,5.49-15.25,3.76-29.44,4.19-28.78.88-28.36,9.41-52.74,9.44-13.67,0-24.24-2.78-45.38-8.39A340.24,340.24,0,0,1,1126.85,879.43Z"/><path class="cls-1" d="M1163,856.88a34.17,34.17,0,0,0,16,27.27c18.76,11.85,41.28,2.79,42.93,2.09a40.45,40.45,0,0,0,24.53-30.41,77.78,77.78,0,0,0-45.38-11.54A75.67,75.67,0,0,0,1163,856.88Z"/><path class="cls-7" d="M1216.39,857.4c-3.37.92-3.19,13.93,0,14.68,2,.49,6.86-3.62,6.13-8.39C1222,860.06,1218.29,856.88,1216.39,857.4Z"/><path class="cls-1" d="M1390.56,871a228.36,228.36,0,0,1,21.2-11.82c7.28-3.51,14.54-7,22-10.21a117.21,117.21,0,0,1,23.36-7.56c2-.4,4.07-.74,6.12-1l6.18-.54a104.18,104.18,0,0,1,12.37.15,109.59,109.59,0,0,1,24.18,4.76,127.11,127.11,0,0,1,22.53,9.74,118.14,118.14,0,0,1,20.07,14,94.74,94.74,0,0,1,16.12,18.19,115.06,115.06,0,0,0-17.53-16.46,132.13,132.13,0,0,0-20.32-12.58,137.28,137.28,0,0,0-22.13-8.76,108.8,108.8,0,0,0-23.26-4.35,99,99,0,0,0-11.81-.24l-5.89.46c-2,.19-3.9.51-5.85.82-7.77,1.3-15.32,3.85-22.83,6.63s-15,5.93-22.43,9S1397.86,867.58,1390.56,871Z"/><path class="cls-6" d="M1396.69,879.43a116.08,116.08,0,0,1,23.3-14.69,125.55,125.55,0,0,1,60.1-12.58c7.66.32,40.83,2.44,67.46,24.12A87.92,87.92,0,0,1,1561,889.91c-3.16.36-7.87,1-13.49,2.1a182.74,182.74,0,0,0-25.76,7.34A156.33,156.33,0,0,1,1485,906.7c-26,1.81-46.88-6.22-57.65-10.49A140.25,140.25,0,0,1,1396.69,879.43Z"/><path class="cls-1" d="M1443.91,855.83a33.39,33.39,0,0,0,20.85,34.61c13.5,5.44,26.78,1,29.44,0,21.1-7.61,24.39-28.38,24.53-29.37a106.47,106.47,0,0,0-39.25-9.44A108.68,108.68,0,0,0,1443.91,855.83Z"/><path class="cls-7" d="M1495.61,860c-3.37.92-3.19,13.93,0,14.68,2,.49,6.87-3.62,6.13-8.39C1501.19,862.61,1497.52,859.43,1495.61,860Z"/><path class="cls-1" d="M1368.48,832.23c-.23,28.24.15,56.42,1.42,84.56.68,14.07,1.45,28.12,2.48,42.18s1.78,28.17,2.83,42.2l.4,5.23c.16,1.71.3,3.51.59,4.93l2.22,10.34a91.9,91.9,0,0,1,1.67,10.77,52.36,52.36,0,0,1-.21,11.12,66.23,66.23,0,0,1-2.44,10.73,48,48,0,0,1-4.24,10.29,33.18,33.18,0,0,1-3.25,4.71c-.65.7-1.24,1.46-2,2.1l-1,1-1.11.92a32.42,32.42,0,0,1-9.94,5.4,44.28,44.28,0,0,1-10.86,2.24,45.17,45.17,0,0,1-11-.44,35.17,35.17,0,0,1-10.55-3.43,24.42,24.42,0,0,1-2.41-1.45l-1.16-.81c-.39-.28-.78-.66-1.16-1a19.12,19.12,0,0,1-3.23-4.71c-1.64-3.22-3-6.36-5-9.06a21.79,21.79,0,0,0-3.46-3.65,13,13,0,0,0-4.36-2.29,17.2,17.2,0,0,0-5-.72,14.09,14.09,0,0,0-2.53.23,4.35,4.35,0,0,0-2.14.86c-.45.3.18,1.14.78,1.68a15.42,15.42,0,0,0,2.07,1.57,44.91,44.91,0,0,0,4.59,2.61,45.59,45.59,0,0,1-4.81-2.24,16.19,16.19,0,0,1-2.27-1.46,4.57,4.57,0,0,1-1-1,1.78,1.78,0,0,1-.31-.78,1.26,1.26,0,0,1,.28-.9,3.12,3.12,0,0,1,1.24-.89,10,10,0,0,1,1.33-.46,14.92,14.92,0,0,1,2.72-.42,18,18,0,0,1,5.47.41,14.22,14.22,0,0,1,5.1,2.29,23.75,23.75,0,0,1,4,3.8c2.39,2.81,4,6.12,5.77,9.08a17,17,0,0,0,2.89,3.87,11,11,0,0,0,.89.69l1,.66a20.5,20.5,0,0,0,2.17,1.17,31.13,31.13,0,0,0,9.63,2.67,42.21,42.21,0,0,0,19.83-2.28,26.76,26.76,0,0,0,14.47-12.4,43.17,43.17,0,0,0,3.61-9.3,61.6,61.6,0,0,0,2.07-9.93,51.38,51.38,0,0,0,.09-10,88,88,0,0,0-1.64-10.12l-2.29-10.33a53.25,53.25,0,0,1-.72-5.57l-.43-5.32c-1-14.12-1.75-28.19-2.53-42.28s-1.37-28.24-1.53-42.38A792.4,792.4,0,0,1,1368.48,832.23Z"/><path class="cls-1" d="M1297.34,1005.29a72.92,72.92,0,0,0-13.33,15,48,48,0,0,0-2.42,4.23c-.73,1.41-1.37,2.91-2,4.43a64.51,64.51,0,0,0-2.94,9.29,33.53,33.53,0,0,0-.94,9.32,16.39,16.39,0,0,0,2.6,8.38,18,18,0,0,0,7,5.91,40.62,40.62,0,0,0,9.57,3.19,27.35,27.35,0,0,1-10.55-.58,19,19,0,0,1-9.54-5.79,19.36,19.36,0,0,1-4.44-10.62,33.2,33.2,0,0,1,.77-11.07,52.34,52.34,0,0,1,3.55-10.17,41.52,41.52,0,0,1,2.58-4.76,40.37,40.37,0,0,1,3.16-4.39A43.49,43.49,0,0,1,1297.34,1005.29Z"/><path class="cls-1" d="M1323.1,807.06q2.24,26.28,2.54,52.7c.16,8.79,0,17.61-.19,26.4s-.64,17.54-.65,26.31,0,17.54.11,26.3.42,17.56.44,26.36,0,17.59-.19,26.38-.45,17.58-.84,26.36c-.68-17.57-1-35.14-1.63-52.68l-1-26.34q-.37-13.22-.29-26.41c.08-8.81.45-17.63.84-26.39s.6-17.52.76-26.3.2-17.55.2-26.33S1323.13,815.85,1323.1,807.06Z"/><path class="cls-1" d="M1395.07,1008.43a78.9,78.9,0,0,1,17.64,20.18,76.19,76.19,0,0,1,6.59,11.94,21,21,0,0,1,1.68,7.17,12.69,12.69,0,0,1-2.19,7.61,16.85,16.85,0,0,1-5.68,5,26.5,26.5,0,0,1-6.72,2.63,33,33,0,0,1-7.05.9,30.21,30.21,0,0,1-3.56-.18,33.83,33.83,0,0,1-3.48-.64,28.11,28.11,0,0,1-3.39-1,11,11,0,0,1-3.38-1.91,3.41,3.41,0,0,1-.41-.43,2.51,2.51,0,0,1-.39-.53,2.77,2.77,0,0,1-.32-.67,3.29,3.29,0,0,1-.15-.82,2.79,2.79,0,0,1,.41-1.5,3.61,3.61,0,0,1,.76-.93,10.84,10.84,0,0,1,3.22-1.9,41.46,41.46,0,0,1,6.53-1.92c2.19-.47,4.4-.84,6.62-1.09-2.11.74-4.2,1.49-6.25,2.3a44.54,44.54,0,0,0-5.93,2.72,9.14,9.14,0,0,0-2.33,1.71c-.27.3-.29.56-.24.48s.1.1.4.3a9.47,9.47,0,0,0,2.53,1.09,24.29,24.29,0,0,0,3,.67,30,30,0,0,0,6.19.32,29,29,0,0,0,6.08-1.08,23.47,23.47,0,0,0,5.58-2.36,12.54,12.54,0,0,0,4.19-3.72,8.26,8.26,0,0,0,1.46-4.94,18,18,0,0,0-1.21-5.74,91.56,91.56,0,0,0-5.63-11.67,121.9,121.9,0,0,0-6.69-11.32C1400.55,1015.42,1397.86,1011.91,1395.07,1008.43Z"/><path class="cls-1" d="M1224.7,1151a20.06,20.06,0,0,1,2.16-.09l1.94.09,3.8.12c2.52.06,5.05.05,7.57,0,5-.09,10.07-.49,15.06-1.06s9.89-1.49,14.86-2.51a103.08,103.08,0,0,0,14.39-3.91,72.22,72.22,0,0,0,13.34-6.25l3.18-2a27.12,27.12,0,0,1,3.64-2,18.34,18.34,0,0,1,4.18-1.28,26.9,26.9,0,0,1,4.2-.4,23.57,23.57,0,0,1,8.3,1.47c2.54.89,4.75,1.86,7,2.49a36.34,36.34,0,0,0,7,1.25c1.2,0,2.41.15,3.6.16a17.28,17.28,0,0,0,3.37-.26c1.18-.2,2.5-.45,3.78-.64s2.58-.37,3.87-.5c2.57-.27,5.13-.45,7.66-.63a136,136,0,0,1,15.42-.46,55.41,55.41,0,0,1,7.79.86,36.1,36.1,0,0,1,7.63,2.14c1.24.53,2.38,1.17,3.48,1.76s2.22,1.13,3.35,1.66c2.28,1,4.63,1.91,7,2.73a72.67,72.67,0,0,0,7.23,2.07c2.44.56,4.93,1,7.42,1.45,5,.88,10,1.61,15,2.45s10,1.81,15,2.7l15,2.62,4.12.72-3.85,1.81a305.37,305.37,0,0,0-28.91,15.57c-4.68,2.82-9.24,5.81-13.68,8.93s-8.68,6.5-13.09,9.9a77.22,77.22,0,0,1-14.39,9.08,96,96,0,0,1-16,5.88,110.83,110.83,0,0,1-33.61,3.46,113.17,113.17,0,0,1-16.8-2,93.39,93.39,0,0,1-16.36-4.68,57,57,0,0,1-7.74-3.87c-2.46-1.45-4.77-3-7.08-4.52l-13.7-9.17q-6.89-4.51-13.82-9c-4.64-2.95-9.3-5.86-14-8.77l-14.08-8.6-7.1-4.22-3.55-2.1-1.82-1.08C1225.86,1151.92,1225.24,1151.36,1224.7,1151Zm.55.17c.67.27,1.27.35,1.77.58l1.82.86,3.72,1.8,7.4,3.7c4.92,2.49,9.81,5,14.66,7.67s9.67,5.3,14.46,8,9.55,5.53,14.27,8.4,9.42,5.78,14.05,8.71,9.19,5.72,14.07,7.49a114.92,114.92,0,0,0,47.46,5.49,114,114,0,0,0,15.82-2.61,90.21,90.21,0,0,0,15.07-5.25,71.22,71.22,0,0,0,13.62-8.26c4.36-3.26,8.85-6.63,13.49-9.71s9.44-5.93,14.3-8.61c9.73-5.32,19.74-10.06,29.92-14.37l.27,2.52c-9.91-2.13-19.81-4.33-29.77-6.17-5-.88-10-1.69-15-2.48a106.79,106.79,0,0,1-15-3.31q-3.67-1.12-7.27-2.56c-1.2-.47-2.39-1-3.56-1.53s-2.28-1.09-3.39-1.5a33.39,33.39,0,0,0-7.09-1.58,50.37,50.37,0,0,0-7.37-.42,146.91,146.91,0,0,0-15,1.24c-2.52.3-5,.59-7.48,1-1.23.18-2.46.37-3.67.58s-2.38.48-3.7.74a24.73,24.73,0,0,1-4.2.44c-1.35,0-2.67,0-4-.11a40.66,40.66,0,0,1-8-1.39c-2.62-.72-5.08-1.76-7.32-2.59a18.53,18.53,0,0,0-6.58-1.28,22.31,22.31,0,0,0-3.37.28,13.49,13.49,0,0,0-3.1.9c-2,.82-4,2.33-6.34,3.61a76.3,76.3,0,0,1-14.36,6.26,99,99,0,0,1-15.12,3.49,146.32,146.32,0,0,1-15.26,1.77,133.42,133.42,0,0,1-15.36.07c-2.55-.13-5.09-.35-7.63-.63-1.27-.12-2.53-.3-3.79-.47l-1.84-.28C1226.39,1151.57,1225.91,1151.31,1225.25,1151.16Z"/><path class="cls-1" d="M193.46,977a29.27,29.27,0,0,0-.1,8.24,22.21,22.21,0,0,0,2.44,7.38,27.64,27.64,0,0,0,4.75,6.28,53.69,53.69,0,0,0,6.41,5.37,19.06,19.06,0,0,1-8.12-3.32,19.53,19.53,0,0,1-6-6.72,17.51,17.51,0,0,1-2.1-8.86A15.27,15.27,0,0,1,193.46,977Z"/><path class="cls-1" d="M208.18,1014.73a30.51,30.51,0,0,1,6.23,14.44,31.94,31.94,0,0,1,.39,4,32.68,32.68,0,0,1-.18,4.08,32.23,32.23,0,0,1-1.88,8l-.83,1.87A15.59,15.59,0,0,1,211,1049a36.44,36.44,0,0,1-2.12,3.49,36.13,36.13,0,0,1-19.11,13.66A70,70,0,0,0,201,1056a47,47,0,0,0,4.33-5.88,43.43,43.43,0,0,0,3.19-6.45,36.56,36.56,0,0,0,1.87-6.91c.26-1.18.29-2.38.45-3.58s.12-2.42.05-3.64A50.42,50.42,0,0,0,208.18,1014.73Z"/><path class="cls-1" d="M264.6,1009.48a42.25,42.25,0,0,1,2.67,15.72,49.08,49.08,0,0,1-2.93,15.89,51.87,51.87,0,0,1-7.74,14.14A47.87,47.87,0,0,1,245,1066.12a138.28,138.28,0,0,0,8.66-12.89,81.89,81.89,0,0,0,6.43-13.68,73.45,73.45,0,0,0,3.65-14.62A95.79,95.79,0,0,0,264.6,1009.48Z"/><path class="cls-1" d="M167.09,1141.11a72.75,72.75,0,0,1-2.39-9.92,70,70,0,0,1-.86-10.23,68.1,68.1,0,0,1,2.52-20.45,55.78,55.78,0,0,1,9.69-18.44,71.09,71.09,0,0,1,7-7.74,48.55,48.55,0,0,1,8.36-6.55,23.87,23.87,0,0,1,10.55-3.66,12.1,12.1,0,0,1,1.48,0,10.78,10.78,0,0,1,1.49.11,11.75,11.75,0,0,1,3,.73,11.3,11.3,0,0,1,2.79,1.6c.79.6,1.41,1.16,2,1.66a28.82,28.82,0,0,0,8.16,4.53,48.53,48.53,0,0,0,9.29,2.51,33.7,33.7,0,0,0,9.33.28,18.48,18.48,0,0,0,4.26-1.08,11.34,11.34,0,0,0,3.46-2.08,9.2,9.2,0,0,0,2.14-3.27,39.55,39.55,0,0,1,2.24-4.94,15.94,15.94,0,0,1,4-4.58,20.38,20.38,0,0,1,5.09-3,31.71,31.71,0,0,1,11-1.87c3.55-.06,7,.15,10.42.39l10.18.82c3.4.3,6.81.59,10.23,1.07a93.91,93.91,0,0,1,20.33,4.75,57.43,57.43,0,0,1,18.24,10.61,53.87,53.87,0,0,1,7,7.88c2.07,2.7,4.12,5.29,6.33,7.77a95.28,95.28,0,0,0,14.85,13.35c10.81,8,23.06,13.94,35.73,18.79a134.71,134.71,0,0,1-37.32-16.5,96.67,96.67,0,0,1-16-13.1c-2.44-2.47-4.68-5.14-6.82-7.76a49.4,49.4,0,0,0-6.72-7.09,48.28,48.28,0,0,0-8.07-5.35,64.77,64.77,0,0,0-8.95-3.93,88.46,88.46,0,0,0-19.31-4.09c-6.61-.75-13.4-1.22-20.13-1.69-3.35-.22-6.68-.39-9.91-.31a26.61,26.61,0,0,0-9,1.52,15.2,15.2,0,0,0-3.67,2.12,10.74,10.74,0,0,0-2.68,3,40,40,0,0,0-2,4.32,14.68,14.68,0,0,1-3.48,5.11,19.78,19.78,0,0,1-10.78,4.53,37.3,37.3,0,0,1-10.94-.43,53.55,53.55,0,0,1-10.27-3,40.46,40.46,0,0,1-4.89-2.34,28.17,28.17,0,0,1-4.54-3.17c-.69-.58-1.33-1.16-1.88-1.6a6.25,6.25,0,0,0-1.58-1,7.18,7.18,0,0,0-1.88-.48,8.73,8.73,0,0,0-1-.1,7.36,7.36,0,0,0-1,0,19.53,19.53,0,0,0-8.58,2.74c-5.54,3.15-10.39,7.85-14.72,12.82a52.8,52.8,0,0,0-9.91,17,57.29,57.29,0,0,0-2.52,9.63,89.39,89.39,0,0,0-1.08,10,69.26,69.26,0,0,0,.15,10.08A71.07,71.07,0,0,0,167.09,1141.11Z"/><path class="cls-1" d="M180.59,1143.21a41.73,41.73,0,0,1,.95-7,33.83,33.83,0,0,1,2.34-6.76,28.31,28.31,0,0,1,9.3-11.07,32.38,32.38,0,0,1,6.51-3.42,62,62,0,0,1,6.9-2.19c4.64-1.18,9.32-2,14-2.7s9.29-1.4,14-2c2.35-.31,4.75-.56,7.1-.76l7-.6c9.3-.84,18.61-1.75,27.89-2.8,4.66-.48,9.27-1,14.08-1.41a49.44,49.44,0,0,1,7.41-.06,55.51,55.51,0,0,1,7.3,1,48.67,48.67,0,0,1,7.13,2.11c2.3.88,4.49,1.91,6.62,2.94,4.26,2.07,8.38,4.17,12.59,6.14a349.22,349.22,0,0,0,52.57,19.13,233.89,233.89,0,0,1-54.35-15.08q-3.29-1.35-6.52-2.78l-6.39-2.91a52,52,0,0,0-12.69-4.28,62.35,62.35,0,0,0-6.62-.83,43.35,43.35,0,0,0-6.63.13c-4.54.38-9.23,1-13.89,1.51-9.35,1-18.69,1.84-28.08,2.5l-7,.42c-2.32.12-4.58.3-6.89.53l-13.94,1.45c-4.63.5-9.24,1.11-13.75,1.94a60.91,60.91,0,0,0-6.62,1.63,30.28,30.28,0,0,0-6.1,2.7,26.74,26.74,0,0,0-9.42,9.48A38.7,38.7,0,0,0,180.59,1143.21Z"/><path class="cls-1" d="M191.63,1144.26c9.94-.23,19.8-.66,29.6-1.55,4.9-.48,9.77-1,14.61-1.73s9.7-1.58,14.57-2.44c9.74-1.71,19.53-3.34,29.36-4.65s19.68-2.53,29.6-3.27c-9.61,2.6-19.29,4.76-29,6.76s-19.41,3.93-29.19,5.62c-4.89.84-9.81,1.65-14.79,2.23s-10,.93-15,1A158.68,158.68,0,0,1,191.63,1144.26Z"/><path class="cls-1" d="M229,1113.31a32.75,32.75,0,0,0-5.54,12.55,29.94,29.94,0,0,0,.64,13.68,20.92,20.92,0,0,1-2-6.77,22.41,22.41,0,0,1-.16-3.57,26.43,26.43,0,0,1,.41-3.55,23.63,23.63,0,0,1,2.4-6.7A23.35,23.35,0,0,1,229,1113.31Z"/><path class="cls-1" d="M231.49,1081.85a48.13,48.13,0,0,0,.19,7.6,40.15,40.15,0,0,0,1.45,7.38,38.55,38.55,0,0,0,2.8,7,40.29,40.29,0,0,0,4.14,6.36,27.85,27.85,0,0,1-8-13A30.55,30.55,0,0,1,231.49,1081.85Z"/></svg>