<svg id="Layer_1" data-name="Layer 1" xmlns="http://www.w3.org/2000/svg" viewBox="0 0 582.7 255.5"><defs><style>.cls-1{fill:#c5a870;}.cls-2{fill:#2a2722;}.cls-3{fill:#1d1e1c;}.cls-4{fill:#ab9160;}.cls-5{fill:#fff;}</style></defs><path class="cls-1" d="M540.47,104.32c.58.25.67,2.67-.16,5.7,0-1.81.07-3.72.09-5.71Z"/><path class="cls-2" d="M539,63.13c1.63,11.82,1.6,20.2,1.49,34.24,0,2.42,0,4.74-.07,6.94-.65-.1-1.71,2.28-5.89,6.46-4.93,4.92-6.83,5-7.44,5-2.4-.08-5.46-2-5.46-2-1.48-8.41-2.35-12.88-2.85-15.24a20.86,20.86,0,0,0-.62-2.63c-5.39-10.8-16.93-6.77-25.31-18.35-5.83-8-5.29-16.94-7.95-16.87-2.18,0-1.95,6.06-6.44,11.91-4.84,6.27-12,8.24-19.85,10.42-14.57,4-17.81.14-25.31,5-.92.59-10,6.57-10.92,15.88-.74,7.26,3.74,13.67,2.48,14.38s-4.54-5.21-6.44-4.46a2.42,2.42,0,0,0-1.14,1.69c-1.51-1.63-2.34-2.68-2.34-2.68-.61-.78-1.45-1.86-2.46-3.41A44,44,0,0,1,406,90.92c-.52-5.56.74-7.22,2.48-16.86,3.32-18.43,0-19.48,3.47-28.79,2.2-6,5.93-10.59,13.4-19.85s11-13.68,16.37-15.88C448,7,449.6,9.36,462.55,7.07c9.61-1.71,10.1-3.28,16.38-4,11.38-1.26,20.58,2.66,24.81,4.47a58.46,58.46,0,0,1,26.8,23.32C535.72,39.62,536.8,47.46,539,63.13Z"/><path class="cls-1" d="M534.51,110.77c4.18-4.18,5.24-6.56,5.89-6.46,0,2,0,3.9-.09,5.71h0a20.63,20.63,0,0,1-4.31,8.18,22.5,22.5,0,0,1-8,5.46,26.33,26.33,0,0,1-6.94,2,71.13,71.13,0,0,1-3.92,16l-.39.47c-3.38-.57-7.48-1.28-12.56-2-34.05-5.05-58.78-4.25-72.95-12.91a67.84,67.84,0,0,1-14-11.7,2.42,2.42,0,0,1,1.14-1.69c1.9-.75,5.27,5.14,6.44,4.46s-3.22-7.12-2.48-14.38c.95-9.31,10-15.29,10.92-15.88,7.5-4.82,10.74-1,25.31-5,7.87-2.18,15-4.15,19.85-10.42,4.49-5.85,4.26-11.87,6.44-11.91,2.66-.07,2.12,8.82,7.95,16.87,8.38,11.58,19.92,7.55,25.31,18.35a20.86,20.86,0,0,1,.62,2.63c.5,2.36,1.37,6.83,2.85,15.24,0,0,3.06,1.91,5.46,2C527.68,115.75,529.58,115.69,534.51,110.77Z"/><path class="cls-2" d="M540.31,110c-.24,13.8-.94,22.62-3.6,27.66-2.15-6.88,0-12.57-2.2-13.52s-6.37,4.1-9.93,8.44c-2.73,3.33-5.18,6.32-7.39,9a71.13,71.13,0,0,0,3.92-16,26.33,26.33,0,0,0,6.94-2,22.5,22.5,0,0,0,8-5.46A20.63,20.63,0,0,0,540.31,110Z"/><path class="cls-2" d="M534.51,124.17c2.21,1,0,6.64,2.2,13.52A10.32,10.32,0,0,1,534,141c-3.82,3-7.62,2.62-17,1.07.06-.17.13-.34.19-.5,2.21-2.68,4.66-5.67,7.39-9C528.14,128.27,532.26,123.2,534.51,124.17Z"/><path class="cls-1" d="M516.8,142.08l.39-.47c-.06.16-.13.33-.19.5Z"/><path class="cls-1" d="M517,142.11a59.61,59.61,0,0,1-14.75,22.25,60.35,60.35,0,0,1-10.59,8.34c-1.46-1.82-3-3.62-4.61-5.38,8.39-4,12.92-6.33,14.21-7.43,2.4-2,7.09-7.55,15.54-17.81Z"/><path class="cls-1" d="M516.8,142.08c-8.45,10.26-13.14,15.77-15.54,17.81-1.29,1.1-5.82,3.4-14.21,7.43C474,153,456.5,141.68,442.71,146a21.73,21.73,0,0,0-5,2.32,44.8,44.8,0,0,1-3-6.78c-2.11-6.14-2-9.75-5.46-11.91s-6-.21-8.93-2.49c-3.45-2.68-4-8.72-3.12-11.7a67.84,67.84,0,0,0,14,11.7c14.17,8.66,38.9,7.86,72.95,12.91C509.32,140.8,513.42,141.51,516.8,142.08Z"/><path class="cls-3" d="M491.66,172.7C502.28,186,508.58,200.47,504.74,207c-8.44,14.4-74.86,6.37-81.88-23.82-2.58-11.05,2.83-25,11.73-32.6,2.67.91,3.35,1,4.15,1.83,1.53,1.68,1,3.66,1,8.44,0,5.67,0,9.14,1.49,11.91,2.53,4.74,8.65,6.06,10.42,6.45,4.93,1.06,9.22.08,14.82-2.28a33.87,33.87,0,0,0,25.2-4.27Z"/><path class="cls-1" d="M487.05,167.32c1.61,1.76,3.15,3.56,4.61,5.38a33.87,33.87,0,0,1-25.2,4.27c2.12-.88,4.42-1.95,7-3.18C478.8,171.26,483.31,169.13,487.05,167.32Z"/><path class="cls-1" d="M487.05,167.32c-3.74,1.81-8.25,3.94-13.57,6.47-2.6,1.23-4.9,2.3-7,3.18a29,29,0,0,1-9.86-4.17c-3.58-2.41-5.77-5.65-10.42-11.91a101.93,101.93,0,0,1-8.46-12.57,21.73,21.73,0,0,1,5-2.32C456.5,141.68,474,153,487.05,167.32Z"/><path class="cls-4" d="M438.74,152.45c-.8-.87-1.48-.92-4.15-1.83a28.56,28.56,0,0,1,3.13-2.3,101.93,101.93,0,0,0,8.46,12.57c4.65,6.26,6.84,9.5,10.42,11.91a29,29,0,0,0,9.86,4.17c-5.6,2.36-9.89,3.34-14.82,2.28-1.77-.39-7.89-1.71-10.42-6.45-1.48-2.77-1.48-6.24-1.49-11.91C439.73,156.11,440.27,154.13,438.74,152.45Z"/><path class="cls-3" d="M418.89,150.47c-.43-.8-3.38.31-3.47,0-.15-.47,5.64-4.27,11.41-3,1.73.39,1.39.77,5.95,2.49l1.81.64c-8.9,7.57-14.31,21.55-11.73,32.6,7,30.19,73.44,38.22,81.88,23.82,3.84-6.57-2.46-21-13.08-34.34a60.35,60.35,0,0,0,10.59-8.34A59.61,59.61,0,0,0,517,142.11c9.39,1.55,13.19,1.93,17-1.07a10.32,10.32,0,0,0,2.7-3.35c.08.28.18.57.28.87,2.35,6.51,6.93,8.83,12.41,13.89,0,0,5.53,5.11,15.87,22.83,10.92,18.68,11.59,46.79,11.91,76.42v.19H6.5c1.72-11.2,3.62-25,5.5-42.37,3-27.93,4.6-53,12.4-53.59,1.93-.16,3.7.81,5.53,2.49-2.38,9.24,3.1,22.46,4.89,26.78a76.25,76.25,0,0,0,13.56,21.19q7.62,16.7,15.22,33.4c1.43-3.44,2.84-6.88,6.85-16.57q5.65,4.65,11.33,9.34c.72.59,1.44,1.17,2.16,1.77,5.21-3.27,20.78-14,22.33-30.76,0-.37.07-.74.08-1.12a30.68,30.68,0,0,0,3.4-16.75,25,25,0,0,0-2.49-8.33c.1-.27.21-.54.3-.78a65.84,65.84,0,0,0,7.37-14.37q.34-1,.6-1.71c.08-.22.16-.45.22-.67s.21-.66.29-.92.08-.24.11-.35,0-.11,0-.16c.21-.68.38-1.3.52-1.88,0-.19.1-.37.14-.55,1.68-6.59,1.61-10.43,3.81-11,2.68-.67,6.9,4,8.43,8.93a10,10,0,0,1,.46,2.22c.19,2.49-.65,5.33-2,13.66-1.9,12.23-.6,9.37-2,16.38-1,5.19-2.22,9.2-.5,10.42,1.26.88,2.71-.71,6,0,2.66.59,2.91,1.94,5,2,2.44.05,4.33-1.85,5.46-3a15.86,15.86,0,0,0,4-6.94,176.13,176.13,0,0,0,4-19.85c.64-4.33,3.09-21.1,8.43-21.83.82-.12,1.56.17,3.28,2.09.25,7.36,2.14,17,9.13,24.7a29.66,29.66,0,0,0,3.64,3.4A37.06,37.06,0,0,0,166.82,211c5.44,18.56,25.87,29.7,43.66,27.29,26.51-3.59,42.91-36.67,34.24-55.57a25.52,25.52,0,0,0-6.46-8.49c6.84-3.68,13.41-8.94,14.39-15.83a33.65,33.65,0,0,0,.11-5.93c1-1.31,2-2.48,2.87-3.5a92.47,92.47,0,0,0,2,13.4c2.2,9.79,3.84,9.61,4.47,15.88.7,7-.34,17.62-.5,19.35a14.8,14.8,0,0,0,.5,6.45,12.36,12.36,0,0,0,6.45,7.44c1.18.51,3.9,1.69,5.46.5,1.79-1.37,1-5.1,0-9.92a40,40,0,0,0-2.49-8.44c-1.55-3.79-2.55-9.85-.42-20,2.36,4.75,8.48,14.31,24.74,26.41,8.64,6.43,16,11.94,21.84,14.4A41.14,41.14,0,0,0,335,228.37c16.12,6.46,35.59-.24,44.66-11.91a21.81,21.81,0,0,0,2.37-5.33,7.19,7.19,0,0,0,2.59,1.37c1.11.33,3.61,1.1,5,0,1.17-.95.73-2.69.5-7.95-.18-4.19-.28-6.29,0-7.44.77-3.19,2.22-3.23,5.45-8.93,1.46-2.57,1.07-2.36,3-6,.58-1.08,1.07-1.93,1.48-2.64,1.5-2.51,2.17-3.16,3.49-5.79,1.7-3.41,3.08-6.16,3.47-9.92.51-4.93-1-7.89.49-8.93,1.27-.86,2.63.89,5.47.49C416.53,154.92,419.38,151.39,418.89,150.47Z"/><path class="cls-1" d="M395.07,152c1.76,3.61.15,7.68-.49,9.42-3.42,9.19,2.67-1-6,28.29-.06.19-.12.37-.16.56a28.39,28.39,0,0,1-7.78,3.9c-20.08,6.22-38-18.92-47.64-12.4-6.09,4.11-2.59,16.54-3,25.24-7.05-4.15-10.94-6.42-12.87-7.38-2.25-1.11-4.05-1.92-5.6-2.58a4.91,4.91,0,0,1,.63-1.39c1.71-2.46,5.6-1.78,6.46-4.46,1-3.3-4.3-6-8.44-12.9-5.35-8.93-5.72-20-3-21.34,1.42-.71,2.54,1.76,5.46,1.49,3.4-.31,4.35-3.89,9.92-8.94,2.34-2.11,3.83-3.45,6-4.46,5.38-2.54,8,.33,15.88,0,1.48-.06,1.26-.16,20.84-4.47,1.92-.42,5.09-1.07,7.93.5,2.25,1.24,1.85,2.51,4,4,3.71,2.56,6.6-.18,11.91,2C390.1,147.39,393.53,148.79,395.07,152Z"/><path class="cls-1" d="M382.06,211.13a2.65,2.65,0,0,0-1.38-.62c-2.93-.3-4.35,4.78-8.43,7.94-3.85,3-8.41,3-11.91,3-6.07,0-9.63-2.23-24.32-10.92L330,207c.41-8.7-3.09-21.13,3-25.24,9.66-6.52,27.56,18.62,47.64,12.4a28.39,28.39,0,0,0,7.78-3.9C385.57,200,383.56,206.82,382.06,211.13Z"/><path class="cls-3" d="M380.68,210.51a2.65,2.65,0,0,1,1.38.62,21.81,21.81,0,0,1-2.37,5.33c-9.07,11.67-28.54,18.37-44.66,11.91a41.14,41.14,0,0,1-17.36-13.88c3.62,1.53,6.63,1.86,8.92.48,2.44-1.47,3.27-4.42,3.45-8l6,3.54c14.69,8.69,18.25,10.92,24.32,10.92,3.5,0,8.06,0,11.91-3C376.33,215.29,377.75,210.21,380.68,210.51Z"/><path class="cls-3" d="M330,207c-.18,3.58-1,6.53-3.45,8-2.29,1.38-5.3,1.05-8.92-.48-4.87-6.64-7.17-13.65-6.1-17.48,1.55.66,3.35,1.47,5.6,2.58C319.1,200.55,323,202.82,330,207Z"/><path class="cls-3" d="M311.57,197c-1.07,3.83,1.23,10.84,6.1,17.48-5.81-2.46-13.2-8-21.84-14.4-16.26-12.1-22.38-21.66-24.74-26.41.26-1.22.56-2.51.92-3.86a63.34,63.34,0,0,0,9.43,10.42c1.49,1.32,6,5.17,15.87,10.42C304.23,194.33,306.77,195,311.57,197Z"/><path class="cls-1" d="M298.8,176.77c2.61,2.83,3.77,7.73,2,9.43-2.16,2.06-8.07-1.2-10.42-2.49-.71-.38-9.31-5.12-8.44-7.93S293.79,171.33,298.8,176.77Z"/><path class="cls-2" d="M297.31,190.66c-9.88-5.25-14.38-9.1-15.87-10.42A63.34,63.34,0,0,1,272,169.82c-.36,1.35-.66,2.64-.92,3.86-.5-1-.84-1.82-1.06-2.37-1.95-4.83-4.44-11.27-2.49-18.36,1.61-5.8,4.84-7.21,7.44-13.39,2.19-5.2,2-9.21,1.73-13.27.25-.85.5-1.72.76-2.62,2.79-9.69,4.51-15.83,4.74-21.15,7.9-12.63,21.53-21.28,25-23.51,5.59-3.55,14.69-9.18,27.79-10.42,22.3-2.11,38.68,10.15,43.67,13.89A72.37,72.37,0,0,1,401,110.77c2.73,6.22,7.76,17.62,6,30.77-.39,2.81-1,4.86-2.48,13.89-2.05,12.23-1.71,13.42-2.48,16.37a27.74,27.74,0,0,1-3.12,7.25,36.82,36.82,0,0,1-10.44,11.18c0-.19.1-.37.16-.56,8.63-29.28,2.54-19.1,6-28.29.64-1.74,2.25-5.81.49-9.42-1.54-3.17-5-4.57-5.95-5-5.31-2.17-8.2.57-11.91-2-2.13-1.46-1.73-2.73-4-4-2.84-1.57-6-.92-7.93-.5-19.58,4.31-19.36,4.41-20.84,4.47-7.88.33-10.5-2.54-15.88,0-2.13,1-3.62,2.35-6,4.46-5.57,5.05-6.52,8.63-9.92,8.94-2.92.27-4-2.2-5.46-1.49-2.74,1.36-2.37,12.41,3,21.34,4.14,6.9,9.49,9.6,8.44,12.9-.86,2.68-4.75,2-6.46,4.46a4.91,4.91,0,0,0-.63,1.39C306.77,195,304.23,194.33,297.31,190.66Zm-6.94-6.95c2.35,1.29,8.26,4.55,10.42,2.49,1.78-1.7.62-6.6-2-9.43-5-5.44-16-3.86-16.87-1S289.66,183.33,290.37,183.71Z"/><path class="cls-2" d="M281.93,97.37a25.09,25.09,0,0,1,.28,5.15,35.28,35.28,0,0,0-5.74,17.18,61.24,61.24,0,0,0,.24,6.59c-3.56,12.34-5.66,18.58-9.66,19.71-2.82.8-5.73-.6-8.74-2.93a21.11,21.11,0,0,0,3.28-1c3.09-1.16,7.43-4,7-5.95-.42-1.63-4.17-2-4.47-2-4.41-.35-6.88,2.52-8.44,1.49-1.33-.89-.74-3.88-.49-5.46,1.86-11.83-3.7-22.82-5-25.31-2.09-4.12-4.08-8-8.44-10.42-8.85-4.81-19.18,1.32-21.84-3-1.11-1.8-.16-4.25.51-6,2.72-7.06,11.06-9.61,10.91-9.92s-4.32,1-10.91,5c-9.08,5.4-8.58,7.47-13.4,9.43-9.11,3.71-13.12-2.73-21.34,1-5.61,2.54-3.68,5.52-12.41,11.91-6.55,4.8-10.17,5-11.41,8.93-1,3.3,1.37,4.79,1,10.92-.19,3.19-.4,6.58-2.48,7.94-2.82,1.85-7.27-1.25-10.47-2.86.07-3.54,0-7.36.05-11.53.06-42.91,3.65-43.09-.49-55.08-.6-1.74-1.31-3.81-2.2-6,1.57-2,3.64-4.66,6.66-8.84,13.53-18.73,13-21.48,18.86-25.8,12-8.78,27.4-7,35.73-6a71,71,0,0,1,30.26,11.41,76.69,76.69,0,0,1,24.82,27.79c4.25,7.77,2.64,7.94,10.91,25.8C279.79,90.94,281.13,92.35,281.93,97.37Z"/><path class="cls-2" d="M282.21,102.52c-.23,5.32-1.95,11.46-4.74,21.15-.26.9-.51,1.77-.76,2.62a61.24,61.24,0,0,1-.24-6.59A35.28,35.28,0,0,1,282.21,102.52Z"/><path class="cls-3" d="M252.76,152.48a33.65,33.65,0,0,1-.11,5.93c-1,6.89-7.55,12.15-14.39,15.83a1.51,1.51,0,0,0-.2-.17c1.19-2.13,2.62-4.55,4.68-7.72A166.74,166.74,0,0,1,252.76,152.48Z"/><path class="cls-3" d="M244.72,182.73c8.67,18.9-7.73,52-34.24,55.57-17.79,2.41-38.22-8.73-43.66-27.29a37.06,37.06,0,0,1,7.11-33.82,31.51,31.51,0,0,0,8.73,4.89c.91,3,1.24,5.39,2,9.08a136.71,136.71,0,0,0,11.41,32.25,131.81,131.81,0,0,0,17.37-14.88,142.68,142.68,0,0,0,16.37-20.35,144.89,144.89,0,0,0,8-13.72c.13-.07.28-.14.41-.22A25.52,25.52,0,0,1,244.72,182.73Z"/><path class="cls-3" d="M238.26,174.24c-.13.08-.28.15-.41.22l.21-.39A1.51,1.51,0,0,1,238.26,174.24Z"/><path class="cls-1" d="M238.06,174.07l-.21.39a85.71,85.71,0,0,1-15.95,6.28c-6.56,1.87-24.29,6.93-39.24,1.34-.27-.87-.57-1.8-1-2.83a34.25,34.25,0,0,0-3.25-6.38C194.79,160,223.64,161.6,238.06,174.07Z"/><path class="cls-4" d="M221.9,180.74a85.71,85.71,0,0,0,15.95-6.28,144.89,144.89,0,0,1-8,13.72,142.68,142.68,0,0,1-16.37,20.35,131.81,131.81,0,0,1-17.37,14.88,136.71,136.71,0,0,1-11.41-32.25c-.78-3.69-1.11-6.07-2-9.08C197.61,187.67,215.34,182.61,221.9,180.74Z"/><path class="cls-1" d="M220.41,80.5c6.59-3.92,10.8-5.18,10.91-5s-8.19,2.86-10.91,9.92c-.67,1.71-1.62,4.16-.51,6,2.66,4.29,13-1.84,21.84,3,4.36,2.38,6.35,6.3,8.44,10.42,1.26,2.49,6.82,13.48,5,25.31-.25,1.58-.84,4.57.49,5.46,1.56,1,4-1.84,8.44-1.49.3,0,4.05.36,4.47,2,.48,1.92-3.86,4.79-7,5.95a21.11,21.11,0,0,1-3.28,1c-2.32-1.8-4.71-4.16-7.14-6.49-23.89-22.94-35.83-34.41-45.65-34.24-17.68.29-21,32.39-44.17,34.73a27.85,27.85,0,0,1-11.93-1.47c.27-2.44.4-5,.47-7.84,3.2,1.61,7.65,4.71,10.47,2.86,2.08-1.36,2.29-4.75,2.48-7.94.38-6.13-2-7.62-1-10.92,1.24-4,4.86-4.13,11.41-8.93,8.73-6.39,6.8-9.37,12.41-11.91,8.22-3.72,12.23,2.72,21.34-1C211.83,88,211.33,85.9,220.41,80.5Z"/><path class="cls-3" d="M181.7,179.25c.39,1,.69,2,1,2.83a31.51,31.51,0,0,1-8.73-4.89l.82-.92a32.21,32.21,0,0,1,3.7-3.4A34.25,34.25,0,0,1,181.7,179.25Z"/><path class="cls-3" d="M173.93,177.19a29.66,29.66,0,0,1-3.64-3.4c-7-7.68-8.88-17.34-9.13-24.7,1.32,1.47,3.21,3.89,6.15,7.83,5.79,7.76,9.12,12.64,11.14,16a32.21,32.21,0,0,0-3.7,3.4Z"/><path class="cls-1" d="M161.35,137.07c23.21-2.34,26.49-34.44,44.17-34.73,9.82-.17,21.76,11.3,45.65,34.24,2.43,2.33,4.82,4.69,7.14,6.49a9.07,9.07,0,0,1-3.92,0,1.29,1.29,0,0,0-.74-.06c-1.55.45-1.1,4.95-.89,9.45a166.74,166.74,0,0,0-10,13.87c-2.06,3.17-3.49,5.59-4.68,7.72-14.42-12.47-43.27-14.08-59.61-1.2-2-3.31-5.35-8.19-11.14-16-2.94-3.94-4.83-6.36-6.15-7.83a53.65,53.65,0,0,1,.69-10.53,10.43,10.43,0,0,1-7.45,1.49,9.74,9.74,0,0,1-5.13-3.25c.06-.4.11-.79.15-1.2A27.85,27.85,0,0,0,161.35,137.07Z"/><path class="cls-2" d="M149.45,61.15c4.14,12,.55,12.17.49,55.08,0,4.17,0,8-.05,11.53-1.53-.78-2.77-1.22-3.42-.62-1.06,1-.48,4.7,1.53,7.93a31,31,0,0,1-10-6.44c-6.05-5.93-8.7-14.37-9-23.55-.49-14.58,4.93-31,12-41.95,2.14-3.32,3.19-4.23,6.24-8C148.14,57.34,148.85,59.41,149.45,61.15Z"/><path class="cls-2" d="M149.89,127.76c-.07,2.79-.2,5.4-.47,7.84-.48-.17-1-.34-1.42-.53-2-3.23-2.59-6.95-1.53-7.93C147.12,126.54,148.36,127,149.89,127.76Z"/><path class="cls-2" d="M149.42,135.6c0,.41-.09.8-.15,1.2a15.05,15.05,0,0,1-1.27-1.73C148.46,135.26,148.94,135.43,149.42,135.6Z"/><path class="cls-2" d="M129,105.08c.3,9.18,2.95,17.62,9,23.55a31,31,0,0,0,10,6.44,15.05,15.05,0,0,0,1.27,1.73c-.82,6.23-2.67,11.33-6.78,15.65-3.56,3.76-8.8,6.86-10.91,5.46a2.24,2.24,0,0,1-.87-1.82c-.25-2.63,1.13-7.29-1.61-12.07-1.87-3.28-3.3-2.48-5-5.46-2.11-3.78-.74-6.73.12-14.12v0c1.43-5,2.2-7.84,2.36-8.67a51.4,51.4,0,0,0,.82-10.64Z"/><path class="cls-2" d="M127.44,105.1c-.17-6.69-1.77-15.09-7.72-21-10.4-10.31-27.79-6.85-29.88-6.4-17.19,3.67-17,16.18-34.67,20.66-14.77,3.73-24.77-2.55-29.28,4a13.48,13.48,0,0,0-2,6.89c-1.15,2.54-.53,5.16.31,8.84h0c.07.69.14,1.4.2,2.12.44,4.66,1.13,5.75,1.49,10.92,0,6.23-1.07,14.69-3,14.88-2.38.24-5.45-12.43-8.93-26.79C10,102.6,7.94,94.3,7.53,86c-.59-11.92-1.24-23.84,5-36.23C15.63,43.48,23,37,37.8,23.93,58.54,5.64,64.78,3.65,70.55,3.59c6.73-.07,13.17,2.5,16.87,4,7,2.8,10.21,5.64,16.87,9.93,13.94,9,17.28,7.64,24.81,12.89,10,7,15.1,17,18.15,24.72-3.05,3.8-4.1,4.71-6.24,8-7,11-12.47,27.37-12,41.95Z"/><path class="cls-1" d="M123.65,106.81c1.6,3.44,1.4,6.75,1,13.39-.09,1.54-.22,2.94-.37,4.21v0c-1.12,4-2.65,9.28-4.59,16.1-2.58,9.11-1.62,10.38-2.81,15.44,0,.18-.09.36-.14.55-.14.58-.31,1.2-.52,1.88,0,.05,0,.11,0,.16s-.08.24-.11.35c-.08.26-.17.56-.29.92-.06.2-.14.43-.22.67q-.25.75-.6,1.71c-2.41,6.24-4.77,7.67-7.37,14.37-.13.19-.26.38-.41.57C94.94,152.76,45.18,140,32.84,153a11.54,11.54,0,0,0-2.62,4.47c-3.19-4.34-4.8-8.12-4.83-12.41,0-3.62,1-6.61.5-13.89a55.23,55.23,0,0,0-1.69-13h0a61.73,61.73,0,0,1-.31-8.84,6.64,6.64,0,0,1,.51-.94c2-3.05,5.38-3.66,11.42-5.46,8.67-2.59,13.5-1.13,22.32-1.49,11.44-.47,10-3.21,25.8-5.46,19-2.7,26.57.48,28.78,1.49C115.72,98.75,121.07,101.29,123.65,106.81Z"/><path class="cls-1" d="M116,158.92c0-.11.07-.22.11-.35C116.12,158.68,116.08,158.79,116,158.92Z"/><path class="cls-1" d="M107.56,176.59c2.6-6.7,5-8.13,7.37-14.37A65.84,65.84,0,0,1,107.56,176.59Z"/><path class="cls-3" d="M109.75,185.7a30.68,30.68,0,0,1-3.4,16.75,29,29,0,0,0-.08-4.34l-3.47,2c3.5-10.69.51-11.12,4-21.33.17-.48.33-.94.49-1.38A25,25,0,0,1,109.75,185.7Z"/><path class="cls-3" d="M106.27,198.11a29,29,0,0,1,.08,4.34,39.13,39.13,0,0,1-11.2,13.6,69.69,69.69,0,0,0,7.65-16h0Z"/><path class="cls-5" d="M73.07,217l29.73-16.94a69.69,69.69,0,0,1-7.65,16,30.8,30.8,0,0,1-10.71,5.38,26,26,0,0,1-8.36.8C75.09,220.5,74.07,218.77,73.07,217Z"/><path class="cls-5" d="M95.15,216.05c-.85,1.33-1.62,2.46-2.27,3.39A85.4,85.4,0,0,1,82,232.34c-2-3.37-3.91-6.74-5.88-10.11a26,26,0,0,0,8.36-.8A30.8,30.8,0,0,0,95.15,216.05Z"/><path class="cls-1" d="M107.15,177.16c-4.5,6.32-10.91,12.29-19.73,14.5-10.77,2.68-20.28-1.46-23.82-3-6.52-2.82-10.63-7-18.85-15.39-6.46-6.58-11.3-11.51-14.53-15.87A11.54,11.54,0,0,1,32.84,153C45.18,140,94.94,152.76,107.15,177.16Z"/><path class="cls-3" d="M82,232.34a85.4,85.4,0,0,0,10.92-12.9c.65-.93,1.42-2.06,2.27-3.39a39.13,39.13,0,0,0,11.2-13.6c0,.38,0,.75-.08,1.12-1.55,16.78-17.12,27.49-22.33,30.76-.72-.6-1.44-1.18-2.16-1.77Z"/><path class="cls-3" d="M76.08,222.23c2,3.37,3.92,6.74,5.88,10.11l-.18.22q-5.67-4.69-11.33-9.34c.24-.59.48-1.18.73-1.77A27.18,27.18,0,0,0,76.08,222.23Z"/><path class="cls-3" d="M73.07,217c1,1.74,2,3.47,3,5.2a27.18,27.18,0,0,1-4.9-.78l1.8-4.38Z"/><path class="cls-3" d="M73,217l0,.06-.09,0Z"/><path class="cls-5" d="M73,217l0,.1h0l-5.59,3.19a48.4,48.4,0,0,1-15.83-10.58c-.58-2.39-1.19-5.06-2-8.31,10.1,2.36,15,5.72,17.54,8.64C67.86,210.9,73,217,73,217Z"/><path class="cls-3" d="M73,217.08h0l-1.8,4.38-.25,0C71.61,220,72.29,218.52,73,217.08Z"/><path class="cls-5" d="M73,217.08c-.68,1.44-1.36,2.87-2,4.32a35.63,35.63,0,0,1-3.55-1.13Z"/><path class="cls-3" d="M71.18,221.45c-.25.59-.49,1.18-.73,1.77l-.28-.23c.26-.53.5-1.06.76-1.59Z"/><path class="cls-5" d="M70.93,221.4c-.26.53-.5,1.06-.76,1.59l-3.09-2.55.3-.17A35.63,35.63,0,0,0,70.93,221.4Z"/><path class="cls-5" d="M70.17,223q-3,6.4-6.07,12.83a77.45,77.45,0,0,1-7.44-11.91,60.52,60.52,0,0,1-5.11-14.22,48.4,48.4,0,0,0,15.83,10.58l-.3.17Z"/><path class="cls-3" d="M64.1,235.82q3-6.42,6.07-12.83l.28.23c-4,9.69-5.42,13.13-6.85,16.57Q56,223.1,48.38,206.39c1,1.13,2.08,2.23,3.17,3.3a60.52,60.52,0,0,0,5.11,14.22A77.45,77.45,0,0,0,64.1,235.82Z"/><path class="cls-3" d="M49.54,201.38c.82,3.25,1.43,5.92,2,8.31-1.09-1.07-2.14-2.17-3.17-3.3l-2.64-5.8C47.08,200.83,48.35,201.1,49.54,201.38Z"/><path class="cls-3" d="M48.38,206.39A76.25,76.25,0,0,1,34.82,185.2c-1.79-4.32-7.27-17.54-4.89-26.78a59.69,59.69,0,0,1,5.88,6.94c3.54,4.58,6.62,10.17,11.42,27.28.93,3.35,1.67,6.22,2.31,8.74-1.19-.28-2.46-.55-3.8-.79Z"/><path class="cls-4" d="M30.22,157.42c3.23,4.36,8.07,9.29,14.53,15.87,8.22,8.38,12.33,12.57,18.85,15.39,3.54,1.52,13.05,5.66,23.82,3,8.82-2.21,15.23-8.18,19.73-14.5a1.06,1.06,0,0,1,.11.21c-.16.44-.32.9-.49,1.38-3.46,10.21-.47,10.64-4,21.33h0L73.07,217l0-.06s-5.17-6.07-6-6.95c-2.57-2.92-7.44-6.28-17.54-8.64-.64-2.52-1.38-5.39-2.31-8.74-4.8-17.11-7.88-22.7-11.42-27.28a59.69,59.69,0,0,0-5.88-6.94C30,158.08,30.11,157.75,30.22,157.42Z"/><path class="cls-2" d="M25.89,131.12c-.36-5.17-1.05-6.26-1.49-10.92-.06-.72-.13-1.43-.2-2.12A55.23,55.23,0,0,1,25.89,131.12Z"/><path class="cls-2" d="M58.14,101.34c-8.82.36-13.65-1.1-22.32,1.49-6,1.8-9.47,2.41-11.42,5.46a6.64,6.64,0,0,0-.51.94,13.48,13.48,0,0,1,2-6.89c4.51-6.52,14.51-.24,29.28-4,17.71-4.48,17.48-17,34.67-20.66,2.09-.45,19.48-3.91,29.88,6.4,6,5.9,7.55,14.3,7.72,21a51.4,51.4,0,0,1-.82,10.64c-.16.83-.93,3.64-2.36,8.67.15-1.27.28-2.67.37-4.21.42-6.64.62-10-1-13.39-2.58-5.52-7.93-8.06-10.93-9.44-2.21-1-9.78-4.19-28.78-1.49C68.13,98.13,69.58,100.87,58.14,101.34Z"/></svg>