<svg id="Layer_1" data-name="Layer 1" xmlns="http://www.w3.org/2000/svg" viewBox="0 0 561.82 255.5"><defs><style>.cls-1{fill:#322a2a;}.cls-2{fill:#341d19;}.cls-3{fill:#472f20;}.cls-4{fill:#4e423a;}.cls-5{fill:#4f3627;}.cls-6{fill:#010101;}.cls-7{fill:#3b3030;}.cls-8{fill:#100d0e;}.cls-9{fill:#41423c;}.cls-10{fill:#b09c8c;}.cls-11{fill:#d0b9a6;}.cls-12{fill:#8d633a;}.cls-13{fill:#110d0e;}.cls-14{fill:#c6a299;}.cls-15{fill:#9f7868;}.cls-16{fill:#0c0c0f;}.cls-17{fill:#3c2e24;}.cls-18{fill:#28120b;}.cls-19{fill:#b8a092;}.cls-20{fill:#4b2e22;}.cls-21{fill:#100f0b;}.cls-22{fill:#c6a589;}.cls-23{fill:#b5977d;}.cls-24{fill:#928889;}.cls-25{fill:#212a34;}</style></defs><path class="cls-1" d="M344.51,254.13c-.63-1.3-1.28-2.66-1.92-4.15-.3-3.56-.66-7.19-1.11-10.87v0c.45,3.53.81,7,1.11,10.35h0c.77,1.68,1.53,3.22,2.27,4.67h-.35Z"/><path class="cls-2" d="M233.11,167.38a29.31,29.31,0,0,0-1.43,6.71c-.22.38-.42.84-.65,1.32a86.66,86.66,0,0,0-8.51-10c-9.06-9.15-14.88-11-25.42-21.16-1.53-1.48-2.9-2.81-4.09-4,1.64,1.24,1.33.71,4.82,3.17,2.84,2,4.29,3.24,6.82,3.86,1.46.36,2.65.63,3.15.07,1.17-1.36-3.11-5.88-4.37-9.05,2.14,1.63,4.48,3.63,7.08,6s5.5,5.14,8.79,8.3A184.3,184.3,0,0,1,233.11,167.38Z"/><path class="cls-3" d="M235.48,208.07c1.39,1.11,2.64,2.08,3.75,2.85a72.25,72.25,0,0,0,1.64,14.23,89.23,89.23,0,0,0,4.34,14c3.49,8.92,4.8,8.47,5.7,13.06a14.32,14.32,0,0,1,.27,1.93h-13c-.49-3.3-1.12-7-1.84-11-3.25-18.4-4.31-23.66-4.42-24.23,0,0,0,0,0-.06s0,0,0-.05q-1.11-8-2.25-16A49.84,49.84,0,0,0,235.48,208.07Z"/><path class="cls-1" d="M342.59,237.32c-.38.59-.73,1.16-1.11,1.71v.06c-.15-1.44-.35-2.88-.54-4.34C341.48,235.61,342,236.46,342.59,237.32Z"/><path class="cls-1" d="M344.86,254.12h0Z"/><path class="cls-4" d="M341.48,239.11c-.6,1-1.22,2-1.84,3-.92-2.76-1.8-5.82-2.66-9.28a75.22,75.22,0,0,0-2.22-7.79l6.18,9.71c.19,1.46.39,2.9.54,4.34Z"/><path class="cls-5" d="M187.49,133.1a9.08,9.08,0,0,1-.87-3.82A18.2,18.2,0,0,1,190,119c3.49-5.14,9.14-9,14.31-8.71l.24,0a11.88,11.88,0,0,0,.3,1.2,8.22,8.22,0,0,0,1.64,2.87,11.17,11.17,0,0,0,.63,5.56c.56,1.42.86,1.39,3.79,5.47,0,0,3.46,4.79,6.65,10.12s5.26,8.8,4.34,9.72-4.36-.65-6.74-2.69c-.2-.18-.39-.35-.57-.53-2.68-2.61-2.55-4.9-5.3-6.25-2.06-1-5.12-1.17-6,.11a2.62,2.62,0,0,0,.09,2.37c-4.58-3.46-8.4-5.21-12.56-5.27C189.84,133,188.73,133.05,187.49,133.1Z"/><path class="cls-1" d="M344.72,240.67q.07,6.71.14,13.45c-.74-1.45-1.5-3-2.27-4.67h0c-.3-3.38-.66-6.82-1.11-10.35.38-.58.73-1.17,1.11-1.77a3.3,3.3,0,0,0,.26.39Z"/><path class="cls-6" d="M256.38,248.42a17.89,17.89,0,0,1-1,5.71h-4.19a14.32,14.32,0,0,0-.27-1.93c-.9-4.59-2.21-4.14-5.7-13.06a89.23,89.23,0,0,1-4.34-14,72.25,72.25,0,0,1-1.64-14.23c2.26,1.57,3.92,2.35,5.11,1.72l.1-.07a14.26,14.26,0,0,0-.8,2.68,17,17,0,0,0,.23,7.7c1.71,6.12,6.25,6.72,9.69,12.8A24,24,0,0,1,256.38,248.42Z"/><path class="cls-2" d="M203.34,135.89c.87-1.28,3.93-1.12,6-.11,2.75,1.35,2.62,3.64,5.3,6.25l-4.12,2.24c-2.6-2.38-4.94-4.38-7.08-6A2.62,2.62,0,0,1,203.34,135.89Z"/><path class="cls-2" d="M231.68,174.09a29.31,29.31,0,0,1,1.43-6.71,184.3,184.3,0,0,0-13.81-14.81c-3.29-3.16-6.19-5.92-8.79-8.3l4.12-2.24c.18.18.37.35.57.53,2.38,2,5.87,3.57,6.74,2.69s-1.09-4.3-4.34-9.72S211,125.41,211,125.41c-2.93-4.08-3.23-4-3.79-5.47a11.17,11.17,0,0,1-.63-5.56c1.61,1.84,4.22,3.34,8.1,6.21,5.09,3.74,4,3.63,8.14,6.61a60.69,60.69,0,0,0,13.64,7.68c5.51,2.14,12.36,4.79,18.35,3.38-3.82,5.09-7.72,10.75-11.59,17-3.68,6-6.87,11.77-9.61,17.23a.24.24,0,0,0-.12,0C232.83,172.47,232.24,173.11,231.68,174.09Z"/><path class="cls-1" d="M341.48,239c.38-.55.73-1.12,1.11-1.71-.38.6-.73,1.19-1.11,1.77Z"/><path class="cls-1" d="M344.72,240.52v.15l-1.87-3C343.47,238.67,344.1,239.59,344.72,240.52Z"/><path class="cls-1" d="M344.86,254.12q-.08-6.74-.14-13.45c0,4.48.09,9,.16,13.46Z"/><path class="cls-1" d="M393.72,164.05c1.54,15.8,3,30.8,13.91,51.38a147.66,147.66,0,0,0,8.71,14.31c-1,2.3-1.87,4.17-2.56,5.56q8.81,9.44,17.63,18.83H344.88c-.07-4.49-.11-9-.16-13.46v-.15c-.62-.93-1.25-1.85-1.87-2.81a3.3,3.3,0,0,1-.26-.39q9.86-16.06,19.74-32.15a52.46,52.46,0,0,1-24.57-6c-.31-.16-.59-.3-.89-.47a75.1,75.1,0,0,1,4.33-12.06c.9-2,1.85-3.84,2.82-5.57.64-.66,1.29-1.34,2-2a7.13,7.13,0,0,0,1.84,0c5.18-.73,8.84-4.3,15.79-11.36,1.68,3.95,3.87,6.79,7.09,7.3,6.76,1.08,14.31-8.65,17.11-13.4a30.35,30.35,0,0,0,3.89-10.81c1.13-.22,2.25-.39,3.39-.5.72-.08,1.37-.13,2-.18a4.36,4.36,0,0,0-1.05,1C393,154.63,393.26,159.48,393.72,164.05Z"/><path class="cls-1" d="M553.33,254.13h-.78V245.9C552.84,248.52,553.09,251.26,553.33,254.13Z"/><path class="cls-1" d="M552.55,245.9v8.23H459.88l34.53-48.35c0-.3-.09-.6-.14-.87q17.21-17.67,34.39-35.32a134.59,134.59,0,0,0-12.74-6.86,30,30,0,0,1,6.59,2.56c21.19,11.07,25.38,42.19,29.53,76.28C552.22,243,552.38,244.41,552.55,245.9Z"/><path class="cls-7" d="M528.66,169.59q-17.2,17.66-34.39,35.32A86,86,0,0,0,485,177.29c1,.07,1.93.08,2.72.07a56.82,56.82,0,0,0-.35-14.83c2.61-.07,5.11-.19,7.48-.34,7.61-.44,14.27-1.22,21.09.54A134.59,134.59,0,0,1,528.66,169.59Z"/><path class="cls-7" d="M515.92,162.73c-6.82-1.76-13.48-1-21.09-.54-2.37.15-4.87.27-7.48.34-.26-1.72-.58-3.22-.9-4.51a41.29,41.29,0,0,0-5.12-12.2c3.88.42,5.31,4.33,10.55,7.86,3.88,2.6,7,3.1,10.83,4.14A83.37,83.37,0,0,1,515.92,162.73Z"/><path class="cls-1" d="M494.41,205.78l-34.53,48.35H431.41q-8.81-9.39-17.63-18.83c.69-1.39,1.59-3.26,2.56-5.56.17.25.36.52.55.81.56-2.24,1.27-4.91,2.18-7.92.52-1.54,1-3.19,1.57-4.9,5.58-16.51,9.47-18.8,12.26-31.08,1.41-6.21,1.09-8.56,3.43-13.08,1.58-3,3.39-5.17,3.15-8.49a8.4,8.4,0,0,0-.9-3.09,43.24,43.24,0,0,0,6.45.44,52.84,52.84,0,0,0,10.14-1.09c1.57.16,3.11.28,4.63.41a4.52,4.52,0,0,0,.18,1.54c-2.24,2.82-2.48,3.55-2.64,4.06-1.65,5.6,3.78,14,3.78,14,4,6.09,11.34,18.78,21.41,35.58q5.85-6,11.74-12C494.32,205.18,494.37,205.48,494.41,205.78Z"/><path class="cls-7" d="M494.27,204.91q-5.88,6-11.74,12c-10.07-16.8-17.45-29.49-21.41-35.58,0,0-5.43-8.42-3.78-14,.16-.51.4-1.24,2.64-4.06,1.3,5.17,10,10.36,16.78,12.5a32.72,32.72,0,0,0,8.22,1.5A86,86,0,0,1,494.27,204.91Z"/><path class="cls-1" d="M487.35,162.53a56.82,56.82,0,0,1,.35,14.83c-.79,0-1.71,0-2.72-.07a56.32,56.32,0,0,0-11.62-14.78C478.35,162.67,483,162.65,487.35,162.53Z"/><path class="cls-1" d="M486.45,158c.32,1.29.64,2.79.9,4.51-4.34.12-9,.14-14,0a39.7,39.7,0,0,0-6.88-4.93c5.25-2.57,9.31-6.11,10.53-10.55a7.05,7.05,0,0,1,4.08-1.24,1.57,1.57,0,0,0,.24,0A41.29,41.29,0,0,1,486.45,158Z"/><path class="cls-8" d="M483.6,65.92c.38,1.92.3,2.76-.37,12-.4,5.54-.9,11.09-1.2,16.64-.34,6.46-.23,8.49-1.19,12.38-.92,3.74-1.64,6.45-4,8.82A15.11,15.11,0,0,1,472,119a2.17,2.17,0,0,0-1-.8c-.87-.35-1.74,0-2.74.73a89.59,89.59,0,0,1-1.8-9c-.42-2.86-.71-4.84-.84-6.51a17.15,17.15,0,0,1,0-2.85c.22-4.14,1.22-6.84-.12-10.28a11.59,11.59,0,0,0-2.22-3.57c0,.63-.09,1.36-.19,2.2a6,6,0,0,0-.54-1.22c-1.25-2.27-3.39-2.77-4.45-6.07s.52-4.43-.1-9.2a19.82,19.82,0,0,0-2.57-7.62c-1.47-2.46-2.14-2.22-6.53-6.82-4.05-4.2-4.16-5.14-6.86-7.07-2.52-1.81-3.22-1.59-5.4-3.14a21,21,0,0,1-6.62-8,17.88,17.88,0,0,1-3.81,3.11c-3.34,2-4.8,1.41-6.67,3.25-2.08,2.07-1.34,3.87-3.38,5.1-1.72,1-2.72,0-4.84.57-2.32.55-4.06,3.2-7.46,8.48a46.84,46.84,0,0,0-4.58,8.32,40.89,40.89,0,0,0-1.87,5.85,32.49,32.49,0,0,0-1,6.11c-.22,4.39.82,7.86,2,11.38,1,3.1,1.15,2.61,2.5,6.48.44,1.25.76,2.28,1,3.12-2.3.54-7.27-7.88-10-14.21-1.68-3.89-3.36-8.93-5.09-21.1-1.89-13.42-2.84-20.14-1.92-25.3,2.46-14,11.25-23,14-25.76,4-4,11.22-11.17,22.59-12.9a32.56,32.56,0,0,1,4.62-.36c5.85,0,10.93,1.73,17,3.81,9.17,3.12,19.37,6.58,24.74,15.81.64,1.06,2.11,6.14,5.06,16.24C476.17,49,476.09,50,478,54,480.85,60.21,482.63,61.13,483.6,65.92Z"/><path class="cls-1" d="M481.33,145.82a1.57,1.57,0,0,1-.24,0A7.05,7.05,0,0,0,477,147a1.51,1.51,0,0,0,.13-.41c.57-2.4,0-3.62-1-7,1.11.55,2.21,2,3.67,4C480.34,144.35,480.85,145.09,481.33,145.82Z"/><path class="cls-1" d="M485,177.29a32.72,32.72,0,0,1-8.22-1.5c-6.81-2.14-15.48-7.33-16.78-12.5.31-.43.69-.91,1.14-1.45,4.27.35,8.34.56,12.24.67A56.32,56.32,0,0,1,485,177.29Z"/><path class="cls-1" d="M476.12,139.59c1,3.41,1.59,4.63,1,7a1.51,1.51,0,0,1-.13.41c-.81.48-1.74,1.08-2.87,1.79a39,39,0,0,0-8.88,8.08c-.35-.19-.68-.35-1-.51a24,24,0,0,0,2-2.19c6.11-7.58,5.64-14.58,8.76-14.85A2,2,0,0,1,476.12,139.59Z"/><path class="cls-9" d="M476.12,139.59a2,2,0,0,0-1.17-.24c-3.12.27-2.65,7.27-8.76,14.85a24,24,0,0,1-2,2.19,32.45,32.45,0,0,0-6.9-2.46,35.45,35.45,0,0,0-15.44-.14,64.22,64.22,0,0,0-4.42,5.18l-.75-.11c-2.66-3.82-4.6-4.55-9.94-9.25-6.24-5.44-6.9-7.32-9.93-7.63a4.46,4.46,0,0,0-1.26,0c-1.38-1.05-2.33-1.76-3.07-2.22.61-4.75.92-7.21.68-10.16-.29-3.17-.87-3.82-.32-4.53.89-1.13,3.09-.53,6.12.57a19.87,19.87,0,0,0,3,8c5.68,8.63,17.14,10.3,24.6,9.26,15.85-2.22,22.67-18,23.05-18.92-.45-1.43-.83-2.79-1.18-4.11A10.4,10.4,0,0,0,472,119c.92,1.31,1.12,3.89,1.57,7.32A87,87,0,0,0,476.12,139.59Z"/><path class="cls-1" d="M474.14,148.82c1.13-.71,2.06-1.31,2.87-1.79-1.22,4.44-5.28,8-10.53,10.55a11.36,11.36,0,0,0-1.22-.68A39,39,0,0,1,474.14,148.82Z"/><path class="cls-9" d="M471,118.18a2.17,2.17,0,0,1,1,.8,10.4,10.4,0,0,1-3.48.89c-.09-.31-.17-.65-.23-1C469.26,118.18,470.13,117.83,471,118.18Z"/><path class="cls-9" d="M468.49,119.87c.35,1.32.73,2.68,1.18,4.11-.38.89-7.2,16.7-23.05,18.92-7.46,1-18.92-.63-24.6-9.26a19.87,19.87,0,0,1-3-8c2.53.9,5.6,2.14,9,3,1.73.45,20.8,5.13,33.46-3.88a65.41,65.41,0,0,0,5.69-5A6.77,6.77,0,0,0,468.49,119.87Z"/><path class="cls-9" d="M468.26,118.91c.06.31.14.65.23,1a6.77,6.77,0,0,1-1.36,0A11.31,11.31,0,0,1,468.26,118.91Z"/><path class="cls-1" d="M466.48,157.58a39.7,39.7,0,0,1,6.88,4.93c-3.9-.11-8-.32-12.24-.67.13-.15.27-.31.41-.49l2.09-2.52C464.61,158.45,465.58,158,466.48,157.58Z"/><path class="cls-10" d="M468.26,118.91a11.31,11.31,0,0,0-1.13.93,3.65,3.65,0,0,1-1.78-.73c-2.84-2.24.7-7.71-.12-15.69l.39,0c.13,1.67.42,3.65.84,6.51A89.59,89.59,0,0,0,468.26,118.91Z"/><path class="cls-1" d="M465.26,156.9a11.36,11.36,0,0,1,1.22.68c-.9.44-1.87.87-2.86,1.25C464.18,158.15,464.74,157.5,465.26,156.9Z"/><path class="cls-10" d="M465.46,90.26c1.34,3.44.34,6.14.12,10.28a17.15,17.15,0,0,0,0,2.85l-.39,0a24.46,24.46,0,0,0-.91-4.52,20.89,20.89,0,0,0-1.58-3.73,10.88,10.88,0,0,0,.31-6.28c.1-.84.16-1.57.19-2.2A11.59,11.59,0,0,1,465.46,90.26Z"/><path class="cls-10" d="M465.35,119.11a3.65,3.65,0,0,0,1.78.73,65.41,65.41,0,0,1-5.69,5c-12.66,9-31.73,4.33-33.46,3.88-3.38-.87-6.45-2.11-9-3-.08-.57-.14-1.11-.17-1.6,9.56,4.36,25.73-3.86,35.58-15.1l.19-.23a28,28,0,0,0,3.19-4.11s0,0,0,0a35.34,35.34,0,0,0,4.94-9.44,20.89,20.89,0,0,1,1.58,3.73,24.46,24.46,0,0,1,.91,4.52C466.05,111.4,462.51,116.87,465.35,119.11Z"/><path class="cls-1" d="M464.23,156.39c.35.16.68.32,1,.51-.52.6-1.08,1.25-1.64,1.93-1.07.43-2.17.81-3.29,1.17C461,158.94,462.34,158.26,464.23,156.39Z"/><path class="cls-11" d="M463.05,88.89a10.88,10.88,0,0,1-.31,6.28c-.19-.36-.4-.72-.64-1.11.16-.63.27-1.17.37-1.61C462.75,91.15,462.93,89.94,463.05,88.89Z"/><path class="cls-11" d="M462.51,87.67a6,6,0,0,1,.54,1.22c-.12,1-.3,2.26-.58,3.56-.1.44-.21,1-.37,1.61-.76-1.28-1.73-2.71-3-4.53-2.53-3.75-7.92-11.72-14.5-16.48C432.91,64.56,412,62.43,404.25,71.4c-8.31,9.59,1.05,29-2.33,30.14h-.06c-.27-.84-.59-1.87-1-3.12-1.35-3.87-1.48-3.38-2.5-6.48-1.14-3.52-2.18-7-2-11.38a32.49,32.49,0,0,1,1-6.11,40.89,40.89,0,0,1,1.87-5.85,46.84,46.84,0,0,1,4.58-8.32c3.4-5.28,5.14-7.93,7.46-8.48,2.12-.53,3.12.44,4.84-.57,2-1.23,1.3-3,3.38-5.1,1.87-1.84,3.33-1.22,6.67-3.25A17.88,17.88,0,0,0,430,39.78a21,21,0,0,0,6.62,8c2.18,1.55,2.88,1.33,5.4,3.14,2.7,1.93,2.81,2.87,6.86,7.07,4.39,4.6,5.06,4.36,6.53,6.82A19.82,19.82,0,0,1,458,72.4c.62,4.77-1,5.91.1,9.2S461.26,85.4,462.51,87.67Z"/><path class="cls-1" d="M463.62,158.83l-2.09,2.52c-.14.18-.28.34-.41.49l-1.32-.09a1.42,1.42,0,0,1,0-.29,2.93,2.93,0,0,1,.51-1.46C461.45,159.64,462.55,159.26,463.62,158.83Z"/><path class="cls-11" d="M462.1,94.06c.24.39.45.75.64,1.11a35.34,35.34,0,0,1-4.94,9.44A33.91,33.91,0,0,0,462.1,94.06Z"/><path class="cls-1" d="M459.8,161.75l1.32.09c-.45.54-.83,1-1.14,1.45A4.52,4.52,0,0,1,459.8,161.75Z"/><path class="cls-11" d="M462.1,94.06a33.91,33.91,0,0,1-4.3,10.55s0,0,0,0c-.35.5-.65.91-.86,1.18-.73,1-1.51,2-2.33,2.93l-.19.23c-3.22,3.34-6.65,4.9-13.48,8a77.08,77.08,0,0,1-13.12,4.56,80,80,0,0,1-9,1.73c0,.26,0,.53.06.8a9.86,9.86,0,0,1-.92-.46c-3.27-1.88-7.46-6.43-8-7a31.13,31.13,0,0,1-6.09-8.59c-1.11-2.41-1-3.3-2-6.47h.06c3.38-1.1-6-20.55,2.33-30.14,7.74-9,28.66-6.84,40.39,1.65,6.58,4.76,12,12.73,14.5,16.48C460.37,91.35,461.34,92.78,462.1,94.06Z"/><path class="cls-9" d="M464.23,156.39c-1.89,1.87-3.22,2.55-3.9,3.61-1.69.53-3.42,1-5.16,1.34-5.58-.57-11.48-1.34-17.7-2.37a64.22,64.22,0,0,1,4.42-5.18,35.45,35.45,0,0,1,15.44.14A32.45,32.45,0,0,1,464.23,156.39Z"/><path class="cls-1" d="M460.33,160a2.93,2.93,0,0,0-.51,1.46,1.42,1.42,0,0,0,0,.29c-1.52-.13-3.06-.25-4.63-.41C456.91,161,458.64,160.53,460.33,160Z"/><path class="cls-12" d="M456.93,105.82c.21-.27.51-.68.86-1.18a28,28,0,0,1-3.19,4.11C455.42,107.8,456.2,106.82,456.93,105.82Z"/><path class="cls-11" d="M440.93,117c6.83-3.11,10.26-4.67,13.48-8-9.85,11.24-26,19.46-35.58,15.1,0-.27-.05-.54-.06-.8a80,80,0,0,0,9-1.73A77.08,77.08,0,0,0,440.93,117Z"/><path class="cls-9" d="M455.17,161.34A52.84,52.84,0,0,1,445,162.43a43.24,43.24,0,0,1-6.45-.44,18.68,18.68,0,0,0-1.46-2.57l.35-.45C443.69,160,449.59,160.77,455.17,161.34Z"/><path class="cls-7" d="M439.48,165.08c.24,3.32-1.57,5.44-3.15,8.49-2.34,4.52-2,6.87-3.43,13.08-2.79,12.28-6.68,14.57-12.26,31.08,6.25-21.21,2.58-32.5,10.53-48.68a60.81,60.81,0,0,1,4.46-7.54c1,.19,2,.35,2.95.48A8.4,8.4,0,0,1,439.48,165.08Z"/><path class="cls-9" d="M437.12,159.42a18.68,18.68,0,0,1,1.46,2.57c-1-.13-2-.29-2.95-.48C436.07,160.83,436.58,160.13,437.12,159.42Z"/><path class="cls-9" d="M437.47,159l-.35.45-.32-.46a.35.35,0,0,0-.08-.1Z"/><path class="cls-9" d="M436.8,159l.32.46c-.54.71-1.05,1.41-1.49,2.09a52.27,52.27,0,0,1-7.89-2.25c.35-.73.64-1.35.86-1.89,2.76.56,5.46,1,8.12,1.49A.35.35,0,0,1,436.8,159Z"/><path class="cls-9" d="M426.78,149.61c5.34,4.7,7.28,5.43,9.94,9.25-2.66-.46-5.36-.93-8.12-1.49.9-2.2.81-2.93.75-3.35-.43-2.42-2.21-3.29-8.52-8-2.24-1.68-3.94-3-5.24-4a4.46,4.46,0,0,1,1.26,0C419.88,142.29,420.54,144.17,426.78,149.61Z"/><path class="cls-7" d="M435.63,161.51a60.81,60.81,0,0,0-4.46,7.54c-7.95,16.18-4.28,27.47-10.53,48.68-.59,1.71-1.11,3.35-1.57,4.9-.92,2.66-1.86,5.06-2.73,7.11a147.66,147.66,0,0,1-8.71-14.31c-10.91-20.58-12.37-35.58-13.91-51.38-.46-4.57-.7-9.42,2.3-13a4.36,4.36,0,0,1,1.05-1l1.44-.06c1.14.33,2.27.66,3.39,1-1.27,1.64-2.44,2.94-3.34,3.91a46.22,46.22,0,0,0,3.47,9.48c2.51,5.09,4.62,9.33,8.66,10.28a9.64,9.64,0,0,0,6.22-1c4.09-1.82,6-5.36,9.77-12.35.41-.78.78-1.48,1.06-2.08A52.27,52.27,0,0,0,435.63,161.51Z"/><path class="cls-1" d="M429.35,154c.06.42.15,1.15-.75,3.35-2.78-.52-5.58-1.12-8.45-1.76-5.19-3.16-8.52-6.92-8.51-10.14a12.59,12.59,0,0,1,.34-2.15,15.83,15.83,0,0,1,3.61-1.3c1.3,1,3,2.31,5.24,4C427.14,150.73,428.92,151.6,429.35,154Z"/><path class="cls-1" d="M428.6,157.37c-.22.54-.51,1.16-.86,1.89a44.59,44.59,0,0,1-7.59-3.65C423,156.25,425.82,156.85,428.6,157.37Z"/><path class="cls-1" d="M427.74,159.26c-.28.6-.65,1.3-1.06,2.08-3.73,7-5.68,10.53-9.77,12.35a9.64,9.64,0,0,1-6.22,1c-4-.95-6.15-5.19-8.66-10.28a46.22,46.22,0,0,1-3.47-9.48c.9-1,2.07-2.27,3.34-3.91,6.32,1.78,12.39,3.32,18.25,4.62A44.59,44.59,0,0,0,427.74,159.26Z"/><path class="cls-1" d="M419.07,222.63c.46-1.55,1-3.19,1.57-4.9C420.11,219.44,419.59,221.09,419.07,222.63Z"/><path class="cls-7" d="M419.07,222.63c-.91,3-1.62,5.68-2.18,7.92-.19-.29-.38-.56-.55-.81C417.21,227.69,418.15,225.29,419.07,222.63Z"/><path class="cls-1" d="M412.52,139.8c.74.46,1.69,1.17,3.07,2.22a15.83,15.83,0,0,0-3.61,1.3c.14-.68.28-1.64.47-3C412.47,140.11,412.5,140,412.52,139.8Z"/><path class="cls-1" d="M412.52,139.8c0,.15,0,.31-.07.47-.19,1.41-.33,2.37-.47,3l-2.68,1.16-4.14,1.8c2.61-4.34,2.93-6.44,4.94-7A2.84,2.84,0,0,1,412.52,139.8Z"/><path class="cls-1" d="M411.64,145.47c0,3.22,3.32,7,8.51,10.14-5.86-1.3-11.93-2.84-18.25-4.62.72-.9,1.45-1.91,2.19-3,.4-.59.75-1.14,1.07-1.67l4.14-1.8,2.68-1.16A12.59,12.59,0,0,0,411.64,145.47Z"/><path class="cls-7" d="M405.16,146.28c-.32.53-.67,1.08-1.07,1.67-.74,1.13-1.47,2.14-2.19,3-1.12-.3-2.25-.63-3.39-1l-1.44.06A73.72,73.72,0,0,1,405.16,146.28Z"/><path class="cls-13" d="M386.42,122.25c3,6.62,6.25,13.72,5.81,23.34a43.9,43.9,0,0,1-.51,5.18c-5.73,1.16-11.86,4-23.08,11.23a10.82,10.82,0,0,0,1.6-3c1.24-3.46.87-6.45.07-12.29-.69-5-1.11-4.46-2.83-12.66s-1.93-11.83-4.87-13.4a10.76,10.76,0,0,0-3.49-.92,20.76,20.76,0,0,0-7.14.17c-5.07.83-5.5-.09-11.1.44a53.58,53.58,0,0,0-13.5,3.16c-7.64,2.78-12.21,4.43-14,8.63-.86,2-.53,4.93.12,10.85a93,93,0,0,0,1.81,10.17c1.16,5.33,1.75,8,3,10.66a33.64,33.64,0,0,0,2.25,4.28,7.57,7.57,0,0,1-2.57,4c-2.92,2.24-7,1.13-7.34,1.05-6.81-1.95-9.05-11.44-9.43-13.11-.62-2.63-.27-3.09-.66-10.23s-.94-9.31-1.1-12.21c-.38-7.79,2.76-14.53,9-28,3.73-8,5.64-12,9-15.72,2.67-3,8.06-8.9,17-10.82a30.18,30.18,0,0,1,17.24,1.75c8.5,3.09,13.29,8.42,20.19,16.1A80.33,80.33,0,0,1,386.42,122.25Z"/><path class="cls-1" d="M391.72,150.77a30.35,30.35,0,0,1-3.89,10.81c-2.8,4.75-10.35,14.48-17.11,13.4-3.22-.51-5.41-3.35-7.09-7.3.28-.28.55-.57.84-.85a42,42,0,0,0,4.17-4.83C379.86,154.75,386,151.93,391.72,150.77Z"/><path class="cls-14" d="M370.31,146.73c.8,5.84,1.17,8.83-.07,12.29a10.82,10.82,0,0,1-1.6,3c-.76.51-1.57,1-2.38,1.56-1.2.79-2.31,1.54-3.38,2.23-4.06-11.13-5.33-28.55-13.86-30.25-9.49-1.87-27.13,15.77-27.89,28.1a19.86,19.86,0,0,1-.35,3.34l-.3-.15c0,.28.1.58.14.88a3.24,3.24,0,0,1-.09.4,33.64,33.64,0,0,1-2.25-4.28c-1.22-2.67-1.81-5.33-3-10.66A93,93,0,0,1,313.5,143c-.65-5.92-1-8.87-.12-10.85,1.79-4.2,6.36-5.85,14-8.63a53.58,53.58,0,0,1,13.5-3.16c5.6-.53,6,.39,11.1-.44a20.76,20.76,0,0,1,7.14-.17,10.76,10.76,0,0,1,3.49.92c2.94,1.57,3.18,5.26,4.87,13.4S369.62,141.73,370.31,146.73Z"/><path class="cls-1" d="M366.26,163.56c.81-.54,1.62-1.05,2.38-1.56a42,42,0,0,1-4.17,4.83c-.29.28-.56.57-.84.85-.27-.6-.53-1.24-.75-1.89C364,165.1,365.06,164.35,366.26,163.56Z"/><path class="cls-1" d="M362.88,165.79c.22.65.48,1.29.75,1.89-6.95,7.06-10.61,10.63-15.79,11.36a7.13,7.13,0,0,1-1.84,0c.64-.65,1.32-1.31,2-2C351.76,173.33,355.81,170.47,362.88,165.79Z"/><path class="cls-1" d="M362.33,205.17q-9.88,16.08-19.74,32.15c-.55-.86-1.11-1.71-1.65-2.57a224.44,224.44,0,0,0-4.07-22.43,51.7,51.7,0,0,1-1.37-7.61h0c.35-1.89.78-3.91,1.35-6,.3.17.58.31.89.47A52.46,52.46,0,0,0,362.33,205.17Z"/><path class="cls-14" d="M349,135.54c8.53,1.7,9.8,19.12,13.86,30.25-7.07,4.68-11.12,7.54-14.88,11.25-.68.67-1.36,1.33-2,2a5,5,0,0,1-.73-.09c-8.18-4-16.32-8-24.49-12a19.86,19.86,0,0,0,.35-3.34C321.89,151.31,339.53,133.67,349,135.54Z"/><path class="cls-12" d="M345.27,178.93a5,5,0,0,0,.73.09c-.69.69-1.34,1.37-2,2C344.43,180.32,344.85,179.61,345.27,178.93Z"/><path class="cls-15" d="M345.27,178.93c-.42.68-.84,1.39-1.25,2.12a30.6,30.6,0,0,0-7,11,27.67,27.67,0,0,0-1.4,5.9,57.44,57.44,0,0,1-13.51-10.82c0-.44-.05-.86-.07-1.27-.11-2.73,0-4.57-.25-8.25s-.62-6.79-1-9.15a16.26,16.26,0,0,0,3.51,3.84c1.65,1.28,3.39,2.14,9.1,3.69S342.8,178.55,345.27,178.93Z"/><path class="cls-1" d="M344.51,254.13h-1.57c-.11-1.38-.22-2.76-.35-4.15C343.23,251.47,343.88,252.83,344.51,254.13Z"/><path class="cls-4" d="M342.59,250c.13,1.39.24,2.77.35,4.15h-2.57q-2-3.12-4.22-6.33c1.16-1.88,2.34-3.79,3.49-5.69C340.61,245,341.61,247.64,342.59,250Z"/><path class="cls-4" d="M341.48,239.11c.45,3.68.81,7.31,1.11,10.87-1-2.34-2-4.94-2.95-7.87C340.26,241.11,340.88,240.11,341.48,239.11Z"/><path class="cls-1" d="M344,181.05c-1,1.73-1.92,3.59-2.82,5.57a75.1,75.1,0,0,0-4.33,12.06l-1.29-.73a27.67,27.67,0,0,1,1.4-5.9A30.6,30.6,0,0,1,344,181.05Z"/><path class="cls-14" d="M345.27,178.93c-2.47-.38-6.2-1.4-11.91-2.94s-7.45-2.41-9.1-3.69a16.26,16.26,0,0,1-3.51-3.84c0-.25-.08-.51-.13-.75a5,5,0,0,0,.16-.73C329,171,337.09,175,345.27,178.93Z"/><path class="cls-16" d="M340.94,234.75,334.76,225a20.21,20.21,0,0,0-5.55-8.71h0l-7.7-12.07a46.18,46.18,0,0,0,.76-6.89,51.18,51.18,0,0,0-.79-10.88c.18.21.38.41.59.65a76.69,76.69,0,0,0,2,13.45l11.39,4.11v0a51.7,51.7,0,0,0,1.37,7.61A224.44,224.44,0,0,1,340.94,234.75Z"/><path class="cls-17" d="M340.37,254.13h-8.1c1.3-2.11,2.58-4.22,3.88-6.33Q338.42,251,340.37,254.13Z"/><path class="cls-4" d="M339.64,242.11c-1.15,1.9-2.33,3.81-3.49,5.69-2.45-3.49-5.2-7-8.23-10.61-1.16-1.36-2.3-2.68-3.46-3.93-.31-2.25-.63-4.49-.95-6.74a2.48,2.48,0,0,0,.22-1.05,2.8,2.8,0,0,0-.6-1.6q-.74-5.34-1.49-10.66a13.72,13.72,0,0,1,5.22,1.54,14.36,14.36,0,0,1,2.35,1.57h0c1.85,2.91,3.71,5.81,5.55,8.71a75.22,75.22,0,0,1,2.22,7.79C337.84,236.29,338.72,239.35,339.64,242.11Z"/><path class="cls-1" d="M336.87,198.68c-.57,2.12-1,4.14-1.35,6h0v0a31.22,31.22,0,0,1,.08-6.74Z"/><path class="cls-17" d="M336.15,247.8c-1.3,2.11-2.58,4.22-3.88,6.33H327.4c-1-7-1.95-13.92-2.94-20.87,1.16,1.25,2.3,2.57,3.46,3.93C331,240.76,333.7,244.31,336.15,247.8Z"/><path class="cls-16" d="M335.5,204.69l-11.39-4.11a76.69,76.69,0,0,1-2-13.45A57.44,57.44,0,0,0,335.58,198,31.22,31.22,0,0,0,335.5,204.69Z"/><path class="cls-17" d="M334.76,225c-1.84-2.9-3.7-5.8-5.55-8.71A20.21,20.21,0,0,1,334.76,225Z"/><path class="cls-4" d="M321.51,204.25l7.7,12.07a14.36,14.36,0,0,0-2.35-1.57,13.72,13.72,0,0,0-5.22-1.54c-.27-2-.56-3.9-.82-5.86C321.07,206.4,321.31,205.36,321.51,204.25Z"/><path class="cls-17" d="M324.46,233.26c1,7,2,13.91,2.94,20.87H267.68c-2.22-5.5-5.32-6-7.49-10.37a18.15,18.15,0,0,1,.14-2.27,20.2,20.2,0,0,1,3-7.68c3.54-5.18,14.36-5.6,20-6.33a49,49,0,0,0,13.23-3.64,54.14,54.14,0,0,0-.79,6,58.8,58.8,0,0,0-.1,7.44,41,41,0,0,1,9.39-9.46c2.37-1.71,11.52-8.31,16.5-5.36a5.38,5.38,0,0,1,1.6,1.4c.13.89.27,1.77.38,2.65a5.39,5.39,0,0,1-3,2.58C321.83,230.42,323.15,231.81,324.46,233.26Z"/><path class="cls-4" d="M323.51,226.52c.32,2.25.64,4.49.95,6.74-1.31-1.45-2.63-2.84-3.91-4.16A5.39,5.39,0,0,0,323.51,226.52Z"/><path class="cls-17" d="M323.73,225.47a2.48,2.48,0,0,1-.22,1.05c-.11-.88-.25-1.76-.38-2.65A2.8,2.8,0,0,1,323.73,225.47Z"/><path class="cls-4" d="M321.64,213.21q.76,5.32,1.49,10.66a5.38,5.38,0,0,0-1.6-1.4c-5-2.95-14.13,3.65-16.5,5.36a41,41,0,0,0-9.39,9.46,58.8,58.8,0,0,1,.1-7.44,54.14,54.14,0,0,1,.79-6A63.67,63.67,0,0,0,311,215,24.33,24.33,0,0,1,321.64,213.21Z"/><path class="cls-4" d="M320.82,207.35c.26,2,.55,3.91.82,5.86A24.33,24.33,0,0,0,311,215a63.67,63.67,0,0,1-14.51,8.87,51.76,51.76,0,0,1,1.3-5.54,71.66,71.66,0,0,0,14.82-9.53,67.1,67.1,0,0,0,7.24-7.06l1.62,2.54C321.31,205.36,321.07,206.4,320.82,207.35Z"/><path class="cls-14" d="M320.48,166.83l.3.15a5,5,0,0,1-.16.73C320.58,167.41,320.53,167.11,320.48,166.83Z"/><path class="cls-14" d="M320.62,167.71c.05.24.1.5.13.75-.08-.11-.14-.22-.22-.35A3.24,3.24,0,0,0,320.62,167.71Z"/><path class="cls-18" d="M290.69,95.35c.78,3.55,1.84,6.27.6,9.39-1,2.6-2.53,2.68-4.52,5.16-4.85,6-1.11,12.16-5,15.46-3,2.55-8.42,1.59-11.72-.09a13.08,13.08,0,0,1-2.31-1.54c1.23-2.64,2.42-5.78,4.12-10.3,1.92-5.14,2.89-7.71,3.35-9.93.81-4,.44-5.31,1.42-13.23.77-6.21,1-5.52,1-7.2,0-.9-.34-9.45-6.7-15-3.57-3.12-7.39-3.85-12-4.65-5.64-1-19.32-3.37-31.67,4.92-3.6,2.41-8.59,5.74-10.95,11.85a79.57,79.57,0,0,0-3.5,16.23c-.34,2.76-.59,6-2.94,7.61-1.78,1.24-3.57.78-4.69,2.3a3.42,3.42,0,0,0-.42.73,11.11,11.11,0,0,1-1.79.56c-3.85.73-8.25-1.38-10.58-4.44-2.2-2.89-2.27-6.22-2.27-8.43,0-11.26,0-16.91,2.64-25.6,3.37-11.34,6.4-21.48,16-30.46a49.09,49.09,0,0,1,21-11.65c3.6-.91,18.3-4.65,32.21,3.61a38.07,38.07,0,0,1,11.55,10.68,11.61,11.61,0,0,1,6.68,1.57c3.23,2,4.63,5.45,6.31,13.59a186.93,186.93,0,0,1,3.35,24.91C290.61,92.61,289.87,91.57,290.69,95.35Z"/><path class="cls-19" d="M277.61,83.07c0,1.68-.19,1-1,7.2-1,7.92-.61,9.22-1.42,13.23-.46,2.22-1.43,4.79-3.35,9.93-1.7,4.52-2.89,7.66-4.12,10.3-3.84-3.24-4.92-8.36-7.22-13.28-7.3-15.54-25.94-27.38-34.41-23.75-5.9,2.53-7.95,13.52-13.75,16.9a51.58,51.58,0,0,1-7.2,3.33,4.59,4.59,0,0,1-.45.14,3.42,3.42,0,0,1,.42-.73c1.12-1.52,2.91-1.06,4.69-2.3,2.35-1.63,2.6-4.85,2.94-7.61a79.57,79.57,0,0,1,3.5-16.23c2.36-6.11,7.35-9.44,10.95-11.85,12.35-8.29,26-5.9,31.67-4.92,4.62.8,8.44,1.53,12,4.65C277.27,73.62,277.59,82.17,277.61,83.07Z"/><path class="cls-3" d="M267.68,254.13h-7.82a41.3,41.3,0,0,0,.38-8.93c0-.14-.07-.66-.05-1.44C262.36,248.17,265.46,248.63,267.68,254.13Z"/><path class="cls-19" d="M267.76,123.73a40.93,40.93,0,0,1-2.35,4.41c-3,4.8-4.48,7.2-7.16,8.74a12.7,12.7,0,0,1-3.49,1.38c.84-1.13,1.69-2.24,2.51-3.3-21.65-2.11-33.39-9.44-40.16-16-3.48-3.35-6.25-7-10.27-8.28a2.31,2.31,0,0,0-.65-1.3,3.58,3.58,0,0,0-1.76-.92,4.21,4.21,0,0,1,.3-1.43,4.59,4.59,0,0,0,.45-.14,51.58,51.58,0,0,0,7.2-3.33c5.8-3.38,7.85-14.37,13.75-16.9,8.47-3.63,27.11,8.21,34.41,23.75C262.84,115.37,263.92,120.49,267.76,123.73Z"/><path class="cls-3" d="M260.24,245.2a41.3,41.3,0,0,1-.38,8.93h-4.49a17.89,17.89,0,0,0,1-5.71,24,24,0,0,0-2.82-12.67c-3.44-6.08-8-6.68-9.69-12.8a17,17,0,0,1-.23-7.7,14.26,14.26,0,0,1,.8-2.68,3.67,3.67,0,0,0,1.39-2.55c1.4-2.06,2.92-3.49,3.33-6.55.56-4.19-1.49-7.79-3.28-10.93-1.89-3.32-3.16-4.22-4.76-6.11.22.11.45.26.68.38a20.14,20.14,0,0,1,8,9.19c1.78,4,.94,5.5,1.63,12.18.83,7.74,2.61,8.31,5.33,20.21,1.69,7.37,1.32,8.79,2.22,12.13a17.12,17.12,0,0,0,1.18,3.24C260.17,244.54,260.24,245.06,260.24,245.2Z"/><path class="cls-19" d="M257.27,135c-.82,1.06-1.67,2.17-2.51,3.3-6,1.41-12.84-1.24-18.35-3.38a60.69,60.69,0,0,1-13.64-7.68c-4.17-3-3.05-2.87-8.14-6.61-3.88-2.87-6.49-4.37-8.1-6.21a17.32,17.32,0,0,0,.31-3.66c4,1.25,6.79,4.93,10.27,8.28C223.88,125.52,235.62,132.85,257.27,135Z"/><path class="cls-6" d="M245.88,192.54c1.79,3.14,3.84,6.74,3.28,10.93-.41,3.06-1.93,4.49-3.33,6.55a14.23,14.23,0,0,0-.68-6.87c-1.74-5-5.07-5-9-11.12a29.44,29.44,0,0,1-3.57-7.88,19.48,19.48,0,0,1,8.54,2.28h0C242.72,188.32,244,189.22,245.88,192.54Z"/><path class="cls-5" d="M245.15,203.15a14.23,14.23,0,0,1,.68,6.87,13.51,13.51,0,0,0-1.39,2.55l-.1.07c-1.19.63-2.85-.15-5.11-1.72,0-2.3,0-4.77.23-7.39-3-2.65-6.75-5.85-11-9.25-.26-1.69-.49-3.39-.72-5.09.19-1.71.43-3.33.73-4.84a22.36,22.36,0,0,1,4.11-.2,29.44,29.44,0,0,0,3.57,7.88C240.08,198.11,243.41,198.17,245.15,203.15Z"/><path class="cls-5" d="M244.44,212.57a13.51,13.51,0,0,1,1.39-2.55A3.67,3.67,0,0,1,244.44,212.57Z"/><path class="cls-5" d="M239.46,203.53c-.19,2.62-.27,5.09-.23,7.39-1.11-.77-2.36-1.74-3.75-2.85a49.84,49.84,0,0,1-5.86-5.28c-.38-2.83-.79-5.67-1.17-8.51C232.71,197.68,236.46,200.88,239.46,203.53Z"/><path class="cls-6" d="M238.7,183a27.94,27.94,0,0,0,2.41,3.42,19.48,19.48,0,0,0-8.54-2.28c-.19-.68-.36-1.4-.51-2.13a26.45,26.45,0,0,1-.5-5.88.88.88,0,0,1,.12.19c.61-1.26,1.23-2.52,1.88-3.81C235,172.79,235.05,177,238.7,183Z"/><path class="cls-2" d="M238.17,254.13h-1.35q-2.48-17.61-4.91-35.2c.11.57,1.17,5.83,4.42,24.23C237.05,247.17,237.68,250.83,238.17,254.13Z"/><path class="cls-2" d="M231.91,218.93q2.44,17.61,4.91,35.2H233c-3.26-18.86-5.77-38.38-5.77-53.79.36.35.7.67,1,1,1.11,5.2,2.35,11.07,3.68,17.49,0,0,0,0,0,.05S231.89,218.92,231.91,218.93Z"/><path class="cls-2" d="M233.56,172.52c-.65,1.29-1.27,2.55-1.88,3.81a.88.88,0,0,0-.12-.19,19.63,19.63,0,0,1,.12-2c.56-1,1.15-1.62,1.76-1.6A.24.24,0,0,1,233.56,172.52Z"/><path class="cls-2" d="M233,254.13H188.14c.45-5.22,1.84-11.45,2.81-19.16a173.84,173.84,0,0,0,.62-34.33c-.51-6-.19-12-1.45-17.89a57.92,57.92,0,0,1-1.28-6.38c4.52,2.16,6,5.13,13.13,8.74,5.08,2.59,5.06,1.48,10.28,4.19a62.38,62.38,0,0,1,12.88,9.16c.78.68,1.45,1.3,2.05,1.88C227.18,215.75,229.69,235.27,233,254.13Z"/><path class="cls-5" d="M232.57,184.15a22.36,22.36,0,0,0-4.11.2.18.18,0,0,0,0-.11,56.35,56.35,0,0,1,2.55-8.83c.19.25.37.49.53.73a26.45,26.45,0,0,0,.5,5.88C232.21,182.75,232.38,183.47,232.57,184.15Z"/><path class="cls-3" d="M229.62,202.79q1.14,8,2.25,16c-1.33-6.42-2.57-12.29-3.68-17.49C228.7,201.85,229.18,202.33,229.62,202.79Z"/><path class="cls-2" d="M231.68,174.09a19.63,19.63,0,0,0-.12,2c-.16-.24-.34-.48-.53-.73C231.26,174.93,231.46,174.47,231.68,174.09Z"/><path class="cls-5" d="M231,175.41a56.35,56.35,0,0,0-2.55,8.83.18.18,0,0,1,0,.11l-1.38.27c.23,1.53.43,3,.65,4.57-.15,1.35-.27,2.78-.36,4.24-.35-.26-.7-.54-1.05-.83-.2-.95-.41-1.87-.6-2.76-2.52-1-4.85-2-7-2.88a144.88,144.88,0,0,0-20.81-12.44c-4.73-2.24-9.28-4-13.25-4-.36-9.23-1.92-17.48-5.38-23.11-1.63-2.65-11.64-19-25.41-20.39h0c-.4-.31-.61-.55-.53-.77.41-1.24,8.87-.19,16.47,2.65,3.85,1.42,3.91,2,7,3,.9.27,1.76.48,2.57.65-.16.13-.24.22-.21.34.08.31,1,.11,2.22,0h0a28.25,28.25,0,0,0,2.91.24c3.15.76,3.35,2.93,8.43,6.87l.25.19c1.19,1.22,2.56,2.55,4.09,4,10.54,10.18,16.36,12,25.42,21.16A86.66,86.66,0,0,1,231,175.41Z"/><path class="cls-5" d="M228.45,194.28c.38,2.84.79,5.68,1.17,8.51-.44-.46-.92-.94-1.43-1.46-.33-1.56-.65-3.07-1-4.49,0-1.18.08-2.3.14-3.41C227.73,193.73,228.1,194,228.45,194.28Z"/><path class="cls-5" d="M227.73,189.19c.23,1.7.46,3.4.72,5.09-.35-.28-.72-.55-1.08-.85C227.46,192,227.58,190.54,227.73,189.19Z"/><path class="cls-5" d="M228.46,184.35c-.3,1.51-.54,3.13-.73,4.84-.22-1.52-.42-3-.65-4.57Z"/><path class="cls-5" d="M227.23,196.84c.31,1.42.63,2.93,1,4.49-.31-.32-.65-.64-1-1C227.18,199.14,227.19,198,227.23,196.84Z"/><path class="cls-5" d="M227.37,193.43c-.06,1.11-.11,2.23-.14,3.41-.32-1.48-.62-2.89-.91-4.24C226.67,192.89,227,193.17,227.37,193.43Z"/><path class="cls-5" d="M227.23,196.84c0,1.14,0,2.3,0,3.5-.6-.58-1.27-1.2-2.05-1.88a62.38,62.38,0,0,0-12.88-9.16c-5.22-2.71-5.2-1.6-10.28-4.19-7.09-3.61-8.61-6.58-13.13-8.74-.11-1.3,0-2.28.68-2.72,1.27-.88,3.81.84,4.67,1.41,3.87,2.55,11,6.23,24.49,11.9,2.68,1.88,5.22,3.79,7.64,5.64C226.61,194,226.91,195.36,227.23,196.84Z"/><path class="cls-5" d="M225.72,189.84c.19.89.4,1.81.6,2.76-2.42-1.85-5-3.76-7.64-5.64C220.87,187.86,223.2,188.83,225.72,189.84Z"/><path class="cls-5" d="M203.43,138.26c1.26,3.17,5.54,7.69,4.37,9.05-.5.56-1.69.29-3.15-.07-2.53-.62-4-1.84-6.82-3.86-3.49-2.46-3.18-1.93-4.82-3.17-2.7-2.75-4.54-4.92-5.52-7.11,1.24,0,2.35-.11,3.38-.11C195,133.05,198.85,134.8,203.43,138.26Z"/><path class="cls-5" d="M206.84,110.72a17.32,17.32,0,0,1-.31,3.66,8.22,8.22,0,0,1-1.64-2.87,11.88,11.88,0,0,1-.3-1.2A10.18,10.18,0,0,1,206.84,110.72Z"/><path class="cls-5" d="M206.19,109.42a2.31,2.31,0,0,1,.65,1.3,10.18,10.18,0,0,0-2.25-.41,7.35,7.35,0,0,1-.16-1.81A3.58,3.58,0,0,1,206.19,109.42Z"/><path class="cls-5" d="M204.59,110.31l-.24,0c-5.17-.24-10.82,3.57-14.31,8.71l-.3-.21c.34-.47.72-1,1.24-1.8,2.27-3.34,2.51-4,3.11-4.78,2.25-2.9,7.3-4.46,10.34-3.71A7.35,7.35,0,0,0,204.59,110.31Z"/><path class="cls-5" d="M218.68,187c-13.47-5.67-20.62-9.35-24.49-11.9-.86-.57-3.4-2.29-4.67-1.41-.65.44-.79,1.42-.68,2.72-.64-.3-1.3-.57-2.06-.84s-1.32-.42-2.06-.61c0-1.48,0-2.92-.1-4.35,4,0,8.52,1.71,13.25,4A144.88,144.88,0,0,1,218.68,187Z"/><path class="cls-5" d="M193,140.21l-.25-.19c-5.08-3.94-5.28-6.11-8.43-6.87,1.13,0,2.19,0,3.16-.05C188.47,135.29,190.31,137.46,193,140.21Z"/><path class="cls-3" d="M191.57,200.64A173.84,173.84,0,0,1,191,235c-1,7.71-2.36,13.94-2.81,19.16H171.42q2.36-9.87,4.48-17.89s8.89-33.76,8.82-61.32c.74.19,1.44.39,2.06.61s1.42.54,2.06.84a57.92,57.92,0,0,0,1.28,6.38C191.38,188.6,191.06,194.68,191.57,200.64Z"/><path class="cls-5" d="M189.74,118.79l.3.21a18.2,18.2,0,0,0-3.42,10.28,9.08,9.08,0,0,0,.87,3.82c-1,.05-2,.08-3.16.05,0,0,0,0,0,0a10.52,10.52,0,0,0-2.88-.22h0c-.65-.08-1.31-.2-2-.35.76-.52,3.25-1.28,4.38-3.68.66-1.41.2-1.77.92-3.49.82-2,1.69-2.09,4.22-5.41C189.14,119.63,189.43,119.25,189.74,118.79Z"/><path class="cls-20" d="M184.72,174.92c.07,27.56-8.82,61.32-8.82,61.32q-2.13,8-4.48,17.89H158c2.81-5.52,4.51-11.09,7.43-20.63,2.68-8.86,4-13.28,4-16.83,0-3.24-.46-6.27,1-10.36,1.08-3,2.05-3.4,3.56-7.09a33.82,33.82,0,0,0,2.25-9.3,32,32,0,0,0-1.4-12.47,12.79,12.79,0,0,1,1.86-3.25A25.75,25.75,0,0,1,184.72,174.92Z"/><path class="cls-5" d="M184.62,170.57c.06,1.43.1,2.87.1,4.35a25.75,25.75,0,0,0-7.95-.72,9,9,0,0,1,2.36-2.16A10,10,0,0,1,184.62,170.57Z"/><path class="cls-12" d="M184.3,133.13s0,0,0,0a28.25,28.25,0,0,1-2.91-.24A10.52,10.52,0,0,1,184.3,133.13Z"/><path class="cls-5" d="M179.24,147.46c3.46,5.63,5,13.88,5.38,23.11a10,10,0,0,0-5.49,1.47,9,9,0,0,0-2.36,2.16l-.64,0a49.5,49.5,0,0,0-1.6-20.17c-1.2-4.16-4.76-16.28-15.24-23.58-2.32-1.63-4.48-2.68-5.46-3.41C167.6,128.5,177.61,144.81,179.24,147.46Z"/><path class="cls-5" d="M179.37,132.56c.7.15,1.36.27,2,.35-1.25.1-2.14.3-2.22,0C179.13,132.78,179.21,132.69,179.37,132.56Z"/><path class="cls-20" d="M176.13,174.23l.64,0a12.79,12.79,0,0,0-1.86,3.25,32,32,0,0,1,1.4,12.47,33.82,33.82,0,0,1-2.25,9.3c-1.51,3.69-2.48,4.12-3.56,7.09-1.49,4.09-1,7.12-1,10.36,0,3.55-1.36,8-4,16.83-2.92,9.54-4.62,15.11-7.43,20.63H132.89q-17.1-6.82-38.46-14.31c3.53-19.13,6.67-33.62,8.1-42.24,3.81-23.08,2.52-21.6,3-25.14h0c.16-.5.32-1,.47-1.46.08.14.19.25.27.38a51.88,51.88,0,0,1,2.46-7.65c0-.08.07-.16.1-.25.6-1.35,1.23-2.73,2-4.11.11-.21.2-.41.32-.62s.2-.38.31-.56c2.65-4.66,4.35-7.63,7.89-10.26,3.07-2.28,6.56-3.54,6.26-4.66a.6.6,0,0,0-.31-.41c5.21-3.45,10.43-6.86,15.64-10.3-.12-.76-.23-1.57-.31-2.39A25.54,25.54,0,0,1,151.63,127a19.83,19.83,0,0,1,2.19.11h0c1,.73,3.14,1.78,5.46,3.41,10.48,7.3,14,19.42,15.24,23.58A49.5,49.5,0,0,1,176.13,174.23Z"/><path class="cls-21" d="M167.79,98.79c2.51,3.41,4.84,4.22,4.7,6.27s-2.4,3.44-4,4a7.39,7.39,0,0,1-6.06-1c-1.56-1-2.43-2.35-3.72-4.33-1.71-2.63-1.53-3.43-2.53-3.82-1.57-.65-3.65.6-6.14,2.11-2.16,1.28-3.19,2.36-4.44,2a2.8,2.8,0,0,1-1.53-1.34,11.59,11.59,0,0,1-1.39-3.49v-.41c.14-3.66.74-3.42,1.19-8.09a43.13,43.13,0,0,0-.21-12C142.22,71.49,137,63,129,59.9c-2.14-.83-5.53-.95-12.35-1.21a71.43,71.43,0,0,0-14,.64c-4.65.73-7,1.11-9.82,2.63-1.48.79-6.9,3.95-9.07,9.74A25.58,25.58,0,0,0,82.61,76a32.54,32.54,0,0,0-.46,6,35.17,35.17,0,0,0,.52,8c.54,2.7,1,2.9,1.48,5,.74,3.52-.16,5-.29,8.86a23.89,23.89,0,0,0,1.54,10.47,20.87,20.87,0,0,0,5.43,7.47c-.77,1.81-1.54,3.64-2.3,5.44-.27-.42-.59-.88-.94-1.34-2-2.62-6-6.44-8.07-5.46a1.54,1.54,0,0,0-.73.68c-1.81-1.62-3.86-3.52-6.17-5.66-7.52-7-10.11-10.28-10.68-14.74a24,24,0,0,1,.62-8c.93-4.84,2.3-6.68,3.58-10.8,1.59-5.09,1-7,1.76-12.39.31-2.06.91-5.43,7-20.18C79.5,38.18,81.8,32.57,83.1,30.88c7.92-10.27,19.54-13.3,22.51-14a42.19,42.19,0,0,1,25.82,1.73c9.93,4.08,15.26,11,20.91,18.35a78.07,78.07,0,0,1,10.33,18.18c4.42,11,6.63,16.5,4.93,23.11-1.33,5.17-4.33,8.14-3.14,13.34A22.62,22.62,0,0,0,167.79,98.79Z"/><path class="cls-22" d="M143.63,78.65a43.13,43.13,0,0,1,.21,12c-.45,4.67-1.05,4.43-1.19,8.09v.41a21,21,0,0,1-.59-5.23c-.11-8-30-24-43.22-14.32-10,7.36-6.7,26.85-6.59,38.92-.46,1.14-.93,2.27-1.42,3.41a20.87,20.87,0,0,1-5.43-7.47A23.89,23.89,0,0,1,83.86,104c.13-3.88,1-5.34.29-8.86-.46-2.15-.94-2.35-1.48-5a35.17,35.17,0,0,1-.52-8,32.54,32.54,0,0,1,.46-6,25.58,25.58,0,0,1,1.16-4.34c2.17-5.79,7.59-9,9.07-9.74,2.84-1.52,5.17-1.9,9.82-2.63a71.43,71.43,0,0,1,14-.64c6.82.26,10.21.38,12.35,1.21C137,63,142.22,71.49,143.63,78.65Z"/><path class="cls-22" d="M142.65,99.12c-.19,6.71,1.84,9,0,12.44a12.88,12.88,0,0,1-1.57,1.63c.13-.73.26-1.44.4-2.12L95,112.1c-.91,2.14-1.81,4.27-2.72,6.39-.11-12.07-3.42-31.56,6.59-38.92C112,69.89,142,85.9,142.06,93.89A21,21,0,0,0,142.65,99.12Z"/><path class="cls-22" d="M141.46,111.07c-.14.68-.27,1.39-.4,2.12l-2.73,2.65c-2.53,2.46-3.76,3.54-6.45,6.14-1.62,1.56-2.94,2.84-3.76,3.67a62.85,62.85,0,0,1-7.89,1.66,69.36,69.36,0,0,1-13.38.59c-4.13-.22-6.24-.35-9-1.41A21.72,21.72,0,0,1,92.09,123a35.12,35.12,0,0,0,.16-4.49c.91-2.12,1.81-4.25,2.72-6.39Z"/><path class="cls-20" d="M140.55,130.14c.08.82.19,1.63.31,2.39-5.21,3.44-10.43,6.85-15.64,10.3a4.59,4.59,0,0,0-2-.59A57.83,57.83,0,0,1,136,132.56C137.52,131.72,139,130.88,140.55,130.14Z"/><path class="cls-23" d="M141.06,113.19c-.25,1.43-.46,2.92-.6,4.51a60.83,60.83,0,0,0,.09,12.44c-1.52.74-3,1.58-4.55,2.42a57.83,57.83,0,0,0-12.75,9.68l-.08,0c-7.55-1-12.06-7.72-25.94-13.64-1.33-.57-3.36-1.39-5.91-2.25a12.27,12.27,0,0,0,.77-3.35,21.72,21.72,0,0,0,5.79,3.51c2.73,1.06,4.84,1.19,9,1.41a69.36,69.36,0,0,0,13.38-.59,62.85,62.85,0,0,0,7.89-1.66c.82-.83,2.14-2.11,3.76-3.67,2.69-2.6,3.92-3.68,6.45-6.14Z"/><path class="cls-20" d="M132.89,254.13H93.36c.08-2.74.19-5.58.29-8.55,0-.71.09-2.73.3-5.79l.48,0Q115.79,247.31,132.89,254.13Z"/><path class="cls-20" d="M125.53,143.24c.3,1.12-3.19,2.38-6.26,4.66-3.54,2.63-5.24,5.6-7.89,10.26-.11.18-.2.37-.31.56a68.15,68.15,0,0,1,6.29-9.8,62.74,62.74,0,0,1,4.49-5.25l1.19.58,2.18-1.42A.6.6,0,0,1,125.53,143.24Z"/><path class="cls-20" d="M125.22,142.83,123,144.25l-1.19-.58c.46-.5.94-1,1.4-1.43A4.59,4.59,0,0,1,125.22,142.83Z"/><path class="cls-24" d="M123.17,142.22l.08,0c-.46.44-.94.93-1.4,1.43q-15.94-7.78-31.88-15.6a3.85,3.85,0,0,0,1.35-1.74c2.55.86,4.58,1.68,5.91,2.25C111.11,134.5,115.62,141.18,123.17,142.22Z"/><path class="cls-24" d="M90,128.07q15.94,7.81,31.88,15.6a62.74,62.74,0,0,0-4.49,5.25,68.15,68.15,0,0,0-6.29,9.8c-.12.21-.21.41-.32.62a43.5,43.5,0,0,0-2,4.11c0,.09-.07.17-.1.25-1.09,2.51-2,4.93-2.73,7.27l-.19-.24c.13-.68.3-1.51.54-2.52,1.83-8.17,3.62-13,.86-17.48-3.4-5.51-9.77-2.86-13.75-9.4-2.76-4.53-1.84-8.28-4.27-12.86A2.36,2.36,0,0,0,90,128.07Z"/><path class="cls-12" d="M110.75,159.34c-.72,1.38-1.35,2.76-2,4.11A43.5,43.5,0,0,1,110.75,159.34Z"/><path class="cls-24" d="M107.18,150.73c2.76,4.44,1,9.31-.86,17.48-.24,1-.41,1.84-.54,2.52-3.06-4.25-5.6-7.89-7.48-10.65-4.6-6.69-7.44-10.93-9.79-16.62-2.76-6.73-2.57-9.36-2.21-11.07a12.9,12.9,0,0,1,1.64-4,1.88,1.88,0,0,0,1.22.13c2.43,4.58,1.51,8.33,4.27,12.86C97.41,147.87,103.78,145.22,107.18,150.73Z"/><path class="cls-20" d="M106,171c.75-2.34,1.64-4.76,2.73-7.27a51.88,51.88,0,0,0-2.46,7.65C106.16,171.22,106.05,171.11,106,171Z"/><path class="cls-12" d="M105.78,170.73l.19.24c-.15.49-.31,1-.47,1.46C105.56,172,105.66,171.41,105.78,170.73Z"/><path class="cls-25" d="M105.78,170.73c-.12.68-.22,1.24-.28,1.7h0c-.73,2.38-1.35,4.66-1.87,6.81A344.93,344.93,0,0,0,94,239.79c-.21,3.06-.27,5.08-.3,5.79-.1,3-.21,5.81-.29,8.55H15.08c-.84-13-2.22-24.38-3.76-34.1C9,205.17,4.69,184.18,16.26,171.2,25,161.43,44,154.72,48.52,153.41c4.3-1.26,6.82-1,11.52-2.76,1.52-.58,3.37-1.42,5.66-.94,1.74.36,2.3,1.21,3.49.92s1.63-1.54,3.46-3.93a37.21,37.21,0,0,1,2.92-3.35c4.15-4.81,1-18.61,3.22-22.13,4.47,4,7.39,6.47,9.15,7.12a12.9,12.9,0,0,0-1.64,4c-.36,1.71-.55,4.34,2.21,11.07,2.35,5.69,5.19,9.93,9.79,16.62C100.18,162.84,102.72,166.48,105.78,170.73Z"/><path class="cls-20" d="M105.5,172.44c-.45,3.54.84,2.06-3,25.14-1.43,8.62-4.57,23.11-8.1,42.24l-.48,0a344.93,344.93,0,0,1,9.68-60.54C104.15,177.1,104.77,174.82,105.5,172.44Z"/><path class="cls-22" d="M92.25,118.49a35.12,35.12,0,0,1-.16,4.49.72.72,0,0,0-.15-.11c-.32-.27-.7-.59-1.11-1C91.32,120.76,91.79,119.63,92.25,118.49Z"/><path class="cls-21" d="M91.94,122.87a.72.72,0,0,1,.15.11,12.27,12.27,0,0,1-.77,3.35c-.46-.16-.95-.3-1.46-.48a16.49,16.49,0,0,0-1.29,1.56s0,0,0,0v0s0,0,0,0a.06.06,0,0,1,0,0c.76-1.8,1.53-3.63,2.3-5.44C91.24,122.28,91.62,122.6,91.94,122.87Z"/><path class="cls-21" d="M89.86,125.85c.51.18,1,.32,1.46.48A3.85,3.85,0,0,1,90,128.07l-1.4-.66A16.49,16.49,0,0,1,89.86,125.85Z"/><path class="cls-21" d="M88.57,127.41l1.4.66a2.36,2.36,0,0,1-.81.4,9.36,9.36,0,0,0-.6-1A0,0,0,0,1,88.57,127.41Z"/><path class="cls-21" d="M89.16,128.47a1.88,1.88,0,0,1-1.22-.13,9.81,9.81,0,0,1,.62-.92A9.36,9.36,0,0,1,89.16,128.47Z"/><path class="cls-21" d="M88.57,127.41a0,0,0,0,0,0,0h0S88.56,127.39,88.57,127.41Z"/><path class="cls-21" d="M88.56,127.39v0h0a9.81,9.81,0,0,0-.62.92c-1.76-.65-4.68-3.07-9.15-7.12a1.54,1.54,0,0,1,.73-.68c2-1,6,2.84,8.07,5.46.35.46.67.92.94,1.34v0h0S88.54,127.39,88.56,127.39Z"/><path class="cls-21" d="M88.53,127.34a.06.06,0,0,0,0,0h0Z"/></svg>