<svg id="Layer_1" data-name="Layer 1" xmlns="http://www.w3.org/2000/svg" viewBox="0 0 592.73 775.92"><defs><style>.cls-1{fill:#30b3ba;}</style></defs><path class="cls-1" d="M423.91,33.11c94.66,0,128.89,77.53,128.89,148,0,50.34-18.12,100.69-51.35,133.92-31.22,31.22-76.53,30.21-76.53,51.36,0,27.18,57.4,24.16,97.68,64.44C559.85,468.11,577,513.42,577,555.71c0,82.57-65.45,207.43-186.29,207.43-72.49,0-117.81-58.4-169.16-58.4-49.35,0-54.38,50.35-137,50.35-39.27,0-55.38-32.23-55.38-56.39,0-27.19,15.1-56.39,22.15-81.56,7-28.2,15.11-99.69,15.11-275.91,0-97.67,0-152-15.11-178.23-5-8.05-17.11-30.2-17.11-54.37,0-27.19,22.15-48.34,51.35-48.34,42.29,0,59.41,28.2,132.91,28.2C273.88,88.49,328.25,33.11,423.91,33.11Zm-155.07,151c-36.24,0-69.47,27.19-69.47,86.59,0,33.23,16.1,76.53,56.38,76.53,48.34,0,76.53-45.31,76.53-92.63C332.28,218.39,311.14,184.15,268.84,184.15Zm-7,404.79c30.21,0,64.45-24.17,64.45-76.53,0-26.18-22.15-88.61-65.45-88.61-34.24,0-55.38,48.33-55.38,94.65C205.41,552.69,221.52,588.94,261.79,588.94Z"/></svg>