<svg id="Layer_1" data-name="Layer 1" xmlns="http://www.w3.org/2000/svg" xmlns:xlink="http://www.w3.org/1999/xlink" viewBox="0 0 1920 990"><defs><style>.cls-1{fill:none;}.cls-2{fill:#30b4bb;}.cls-3{font-size:349.09px;font-family:Synthemesc-Regular, Synthemesc;}.cls-3,.cls-6{fill:#fff;}.cls-4{letter-spacing:-0.05em;}.cls-5{letter-spacing:0em;}.cls-7{fill:#ee3457;}.cls-8{clip-path:url(#clip-path);}.cls-9{fill:#09090b;}.cls-10{fill:#6acad3;}</style><clipPath id="clip-path"><path class="cls-1" d="M1709.33,883.63c0,2.6-.08,5.21,0,7.81,0,.93-.29,1.18-1.19,1.13a27.84,27.84,0,0,1-10.82-2.73c-.78-.38-1.56-.79-2.32-1.25a3,3,0,0,0-1.66-.79v1.72c0,7.34.12,14.68-.06,22a21.13,21.13,0,0,1-21.1,20.48h-.07a25.31,25.31,0,0,1-10.75-2.76h0c-.08-.33-.36-.38-.64-.47l-1.29-1.1-.3-.28a.37.37,0,0,0-.32-.36h0a.29.29,0,0,0-.32-.32c0-.22,0-.37-.32-.31.16-.68-.43-1-.71-1.5a20.26,20.26,0,0,1-2.17-17.43c3.1-9.38,9.93-14.18,19.68-15a.48.48,0,0,1,.16.13c0,2.5-.12,5-.06,7.48,0,1.23-.22,1.49-1.5,1.24a9.6,9.6,0,0,0-10.54,6.36,9.44,9.44,0,0,0,4.4,11.43l.58.52c.09.2.19.39.45.34a8,8,0,0,0,7.9,3.34c5.42-.59,8.75-4.5,8.75-10q0-21.69,0-43.39c0-1.54.27-2.17,2-2,2.16.14,4.35,0,6.54,0l.14.14a8.07,8.07,0,0,0,.88,3.17c1.15,2.55,2.56,4.92,5.11,6.36,0,.27.18.35.39.42.32.3.66.57,1,.85l.26.22a0,0,0,0,1,0,0h0a13.61,13.61,0,0,0,7.92,4.47A.25.25,0,0,1,1709.33,883.63Z"/></clipPath></defs><rect class="cls-2" width="1920" height="990"/><text class="cls-3" transform="translate(322.22 700.23)">B<tspan class="cls-4" x="198.63" y="0">e</tspan><tspan class="cls-5" x="367.59" y="0">atles</tspan></text><path class="cls-6" d="M985.11,239.94c21.69,0,55.21,11.27,55.21,33.52,0,6.76-4.79,10.43-9.86,10.43-4.79,0-8.73-2.26-13.24-5.64a40.91,40.91,0,0,0-22.54-7c-30.14,0-49.29,31.55-49.29,66.76,0,28.74,12.11,57.75,39.15,57.75,9,0,25.64-8.17,25.64-20.85,0-8.45-7.33-17.18-11.83-21.69-6.48-6.19-9.3-11.26-9.3-16.05,0-11.55,15.78-19.16,35.21-19.16s35.5,7.61,35.5,20c0,9.58-11.83,18.31-11.83,25.92,0,9,10.42,18.87,10.42,30.7,0,31.83-39.72,49-75.22,49-58,0-103.94-32.4-103.94-97.19C879.19,290.08,925.1,239.94,985.11,239.94Z"/><path class="cls-6" d="M1290.27,302.78c0,84.93-77.48,55.43-77.48,79.86,0,9.24,10.73,13.11,17.88,13.11,15.5,0,33.08-11.92,36.95-15.79,7.45-7.45,11.33-14.6,17.88-14.6,3.58,0,5.67,2.68,5.67,6.55,0,42.32-36.66,60.5-68.24,60.5-55.43,0-84-42.92-84-107,0-58.11,23.84-94.17,86.42-94.17C1268.52,231.26,1290.27,256.89,1290.27,302.78Zm-34.86,35.16c0-9.53-9.54-13.41-17.58-13.41-18.48,0-28.61,9.54-28.61,19.37,0,5.07,4.17,9.54,11.62,9.54C1236.93,353.44,1255.41,350.16,1255.41,337.94Z"/><path class="cls-6" d="M576.35,231.26c28,0,38.14,23,38.14,43.81,0,14.9-5.36,29.8-15.2,39.63-9.23,9.24-22.64,8.94-22.64,15.2,0,8,17,7.15,28.9,19.07,11,11,16.09,24.43,16.09,36.95,0,24.43-19.37,61.38-55.13,61.38-21.45,0-34.86-17.28-50.06-17.28-14.6,0-16.09,14.9-40.52,14.9-11.63,0-16.39-9.54-16.39-16.69,0-8,4.47-16.68,6.55-24.13,2.09-8.35,4.47-29.51,4.47-81.65,0-28.91,0-45-4.47-52.75-1.49-2.38-5.06-8.94-5.06-16.09,0-8,6.55-14.3,15.19-14.3,12.52,0,17.59,8.34,39.34,8.34C532,247.65,548,231.26,576.35,231.26ZM530.46,276c-10.73,0-20.56,8.05-20.56,25.63,0,9.83,4.76,22.64,16.68,22.64,14.31,0,22.65-13.4,22.65-27.41C549.23,286.09,543,276,530.46,276Zm-2.09,119.79c8.94,0,19.07-7.15,19.07-22.64,0-7.75-6.55-26.23-19.36-26.23-10.14,0-16.4,14.31-16.4,28C511.68,385,516.45,395.75,528.37,395.75Z"/><path class="cls-6" d="M745.89,380.56c0,23.54-18.18,54.83-59.6,54.83-44.7,0-58.41-25.33-58.41-50.07,0-39.63,20.57-57.21,64.07-57.21C723.84,328.11,745.89,347.18,745.89,380.56Zm-63.47,15.49c0,8.64,4.47,17,14.6,17,13.71,0,20.26-8.64,20.26-17.58s-6-17.88-18.18-17.88C687.48,377.58,682.42,386.81,682.42,396.05Z"/><path class="cls-6" d="M868.65,380.56c0,23.54-18.18,54.83-59.6,54.83-44.7,0-58.41-25.33-58.41-50.07,0-39.63,20.57-57.21,64.07-57.21C846.6,328.11,868.65,347.18,868.65,380.56Zm-63.47,15.49c0,8.64,4.47,17,14.6,17,13.71,0,20.26-8.64,20.26-17.58s-6-17.88-18.18-17.88C810.24,377.58,805.18,386.81,805.18,396.05Z"/><path class="cls-6" d="M1132.59,313.64c0,11.16-14.39,24.93-14.39,45,0,28.84,12.33,38,12.33,51.17,0,11.53-7.19,21-29.28,21-23.63,0-32.61-7.25-32.61-18.6,0-16.38,14.64-22.33,14.64-42.61,0-35.91-15.41-40.19-15.41-54.52,0-12.46,8-19.9,32.61-19.9C1124.88,295.22,1132.59,301.73,1132.59,313.64Z"/><ellipse class="cls-6" cx="1096.91" cy="261.59" rx="25.72" ry="18.25"/><path class="cls-6" d="M1332.63,303c0,3.72,1.12,8.64,5,8.64,6.48,0-3-23.85,11.15-23.85,15.21,0,7.78,14.43,12.7,19.7a4.92,4.92,0,0,0,3.55,1.64c1.38,0,6-.69,6-10.8,0-8.29-6.3-11.67-6.3-18.75,0-6.4,4.58-10.72,10.11-10.72,9.16,0,12.44,8.56,12.44,16.16,0,8.9-3.63,22.13-6.39,30.08-3.63,10.72-8.73,18.49-15.39,18.49-11.49,0-9.59-19.1-14.26-19.1-1.64,0-3.8,5.45-4.23,7.18-1.47,5.7-3,11.92-8.3,11.92-4.75,0-8.73-3.71-11.15-7.08-5.35-8-7.86-21.09-7.86-32.33,0-16.76,4.15-22.81,10.54-22.81,5,0,7.87,3,7.87,7.78C1338.16,286,1332.63,294.89,1332.63,303Z"/><path class="cls-6" d="M1439.61,287c1.29,0,3-.43,4.49-.43s2.68.52,2.68,2.5c0,5.36-14.09,3.55-14.09,17.81,0,4.75,2.08,6.57,4.06,6.57,2.42,0,4.67-2.94,6.57-2.94s2.85,3.2,2.85,5.36c0,10.28-8,13.39-16.5,13.39-12.88,0-17.29-4.84-17.29-11.15,0-7.6,5.79-16.85,5.79-21.43,0-4.32-6.05-1.12-6.05-5.62,0-4.67,10.29.87,15.56-13.48.69-2.07,2.25-4.23,5.18-4.23C1439.52,274.07,1433.73,287,1439.61,287Z"/><path class="cls-6" d="M1487.74,270c7.08,0,11.75,2.16,11.75,7.7,0,10.54-7.78,14-7.78,22.29,0,10,7.18,11.93,7.18,24.46,0,6.57-5.45,9.34-11.41,9.34-6.14,0-9.85-3.2-9.85-7.52,0-4.93,4.49-10.72,4.49-16,0-3.29-2.42-7.26-7.78-7.26-4.58,0-7.95,2.59-7.95,8.12,0,2.68,3.54,8.82,3.54,14s-3.89,8.21-10,8.21-11.24-2.59-11.24-7.69c0-12.79,6.4-13,6.4-25.84,0-13.57-6.48-13.31-6.48-21.52,0-6.31,5-8.73,12.1-8.73,5.87,0,11,1.9,11,5.88,0,8-6.05,7.86-6.05,14.35,0,4.66,2.85,5.7,7.18,5.7,7.17,0,9.68-2.85,9.68-5.62,0-4.41-6-9-6-13.48C1476.42,271,1483.5,270,1487.74,270Z"/><path class="cls-6" d="M1371.34,364.35c1.3,0,3-.44,4.5-.44s2.67.52,2.67,2.51c0,5.36-14.08,3.55-14.08,17.81,0,4.75,2.07,6.56,4.06,6.56,2.42,0,4.67-2.93,6.57-2.93s2.85,3.19,2.85,5.35c0,10.29-8,13.4-16.51,13.4-12.88,0-17.28-4.84-17.28-11.15,0-7.6,5.79-16.85,5.79-21.43,0-4.33-6.05-1.13-6.05-5.62,0-4.67,10.28.86,15.55-13.48.7-2.08,2.25-4.24,5.19-4.24C1371.25,351.38,1365.46,364.35,1371.34,364.35Z"/><path class="cls-6" d="M1419.47,347.32c7.09,0,11.76,2.16,11.76,7.69,0,10.55-7.78,14-7.78,22.3,0,10,7.17,11.93,7.17,24.46,0,6.57-5.44,9.33-11.41,9.33-6.13,0-9.85-3.19-9.85-7.52,0-4.92,4.5-10.71,4.5-16,0-3.29-2.42-7.26-7.78-7.26-4.58,0-7.95,2.59-7.95,8.12,0,2.68,3.54,8.81,3.54,14s-3.89,8.21-10,8.21-11.23-2.59-11.23-7.69c0-12.79,6.39-13,6.39-25.84,0-13.57-6.48-13.31-6.48-21.52,0-6.31,5-8.73,12.1-8.73,5.88,0,11,1.9,11,5.88,0,8-6.05,7.86-6.05,14.34,0,4.67,2.85,5.71,7.17,5.71,7.18,0,9.68-2.85,9.68-5.62,0-4.41-6-9-6-13.48C1408.15,348.36,1415.24,347.32,1419.47,347.32Z"/><path class="cls-6" d="M1475.47,370.4c0,24.63-22.47,16.07-22.47,23.16,0,2.68,3.11,3.8,5.18,3.8,4.5,0,9.6-3.46,10.72-4.58,2.16-2.16,3.28-4.23,5.19-4.23,1,0,1.64.77,1.64,1.9,0,12.27-10.63,17.54-19.79,17.54-16.08,0-24.38-12.44-24.38-31,0-16.86,6.92-27.32,25.07-27.32C1469.16,349.65,1475.47,357.09,1475.47,370.4Zm-10.11,10.2c0-2.77-2.77-3.89-5.1-3.89-5.36,0-8.3,2.76-8.3,5.61,0,1.47,1.21,2.77,3.37,2.77C1460,385.09,1465.36,384.14,1465.36,380.6Z"/><path class="cls-6" d="M1409.19,295.05c0,3.2-4.12,7.15-4.12,12.92,0,8.28,3.53,10.9,3.53,14.69,0,3.31-2.06,6-8.4,6-6.78,0-9.36-2.09-9.36-5.34,0-4.7,4.2-6.41,4.2-12.24,0-10.31-4.43-11.53-4.43-15.65,0-3.58,2.29-5.71,9.37-5.71S1409.19,291.63,1409.19,295.05Z"/><ellipse class="cls-6" cx="1398.95" cy="280.1" rx="7.38" ry="5.24"/><path class="cls-6" d="M1571.71,879.78a20,20,0,0,0-19.85,17.58h-74a20,20,0,0,0-39.71,0h-74a20,20,0,0,0-39.72,0h-74a20,20,0,0,0-39.71,0h-74a20,20,0,0,0-39.72,0h-74a20,20,0,0,0-39.72,0h-74a20,20,0,0,0-39.71,0h-74a20,20,0,0,0-39.72,0H681.55a20,20,0,0,0-39.67,0H567.82a20,20,0,0,0-39.71,0H454.06a20,20,0,0,0-39.71,0h-74a20,20,0,0,0-39.72.08h-74a20,20,0,0,0-39.7,0,19.45,19.45,0,0,0-.16,2.43,20.56,20.56,0,0,0,.2,2.85,20,20,0,0,0,39.63,0h74.09a19.09,19.09,0,0,1-.17-2.64c0-.44,0-.88,0-1.32,0,.34,0,.69,0,1a20,20,0,0,0,39.82,2.85h74.11a20,20,0,0,0,39.63,0h74.13a20,20,0,0,0,39.63,0h74.1a20,20,0,0,0,39.67,0h74.1a20,20,0,0,0,39.63,0H869.4a20,20,0,0,0,39.63,0h74.12a20,20,0,0,0,39.63,0h74.12a20,20,0,0,0,39.63,0h74.12a20,20,0,0,0,39.63,0h74.12a20,20,0,0,0,39.64,0h74.12a20,20,0,0,0,39.63,0h74.12a20,20,0,1,0,19.8-22.86Zm-1365,35.11A15.05,15.05,0,0,1,192,902.72a15.38,15.38,0,0,1-.08-5.28,15,15,0,0,1,29.83,2.43,14.06,14.06,0,0,1-.28,2.85A15,15,0,0,1,206.71,914.89Zm113.76-.08a15,15,0,1,1,14.8-17.45,13.9,13.9,0,0,1,.2,2.43,14.06,14.06,0,0,1-.28,2.85A15,15,0,0,1,320.47,914.81Zm113.73,0a15,15,0,0,1-14.72-12.17,14.06,14.06,0,0,1-.28-2.85A15,15,0,0,1,449,897.36a13.9,13.9,0,0,1,.2,2.43,14.06,14.06,0,0,1-.28,2.85A15,15,0,0,1,434.2,914.81Zm113.77,0a15,15,0,0,1-14.74-12.17,14.06,14.06,0,0,1-.28-2.85,13.9,13.9,0,0,1,.2-2.43,15,15,0,0,1,29.62,0,13.9,13.9,0,0,1,.2,2.43,14.06,14.06,0,0,1-.28,2.85A15,15,0,0,1,548,914.81Zm113.75.34A15,15,0,0,1,647,902.64a14.32,14.32,0,0,1-.24-2.64,15.34,15.34,0,0,1,.23-2.64,15,15,0,0,1,29.57,0,16.4,16.4,0,0,1,.22,2.64,15.25,15.25,0,0,1-.23,2.64A15.09,15.09,0,0,1,661.72,915.15Zm113.73-.34a15,15,0,0,1-14.72-12.17,14.06,14.06,0,0,1-.28-2.85,13.9,13.9,0,0,1,.2-2.43,15,15,0,0,1,29.82,2.43,14.06,14.06,0,0,1-.28,2.85A15,15,0,0,1,775.45,914.81Zm113.77,0a15,15,0,0,1-14.73-12.17,14.06,14.06,0,0,1-.28-2.85,15,15,0,0,1,30,0,14.06,14.06,0,0,1-.28,2.85A15,15,0,0,1,889.22,914.81Zm113.74,0a15,15,0,0,1-14.72-12.17,14.06,14.06,0,0,1-.28-2.85,15,15,0,0,1,29.82-2.43,13.9,13.9,0,0,1,.2,2.43,14.06,14.06,0,0,1-.28,2.85A15,15,0,0,1,1003,914.81Zm113.75,0A15.05,15.05,0,0,1,1102,902.64a15.38,15.38,0,0,1-.08-5.28,15,15,0,0,1,29.83,2.43,14.06,14.06,0,0,1-.28,2.85A15,15,0,0,1,1116.71,914.81Zm113.75,0a15,15,0,0,1-14.72-12.17,14.06,14.06,0,0,1-.28-2.85,13.9,13.9,0,0,1,.2-2.43,15,15,0,0,1,29.81,2.43,14.06,14.06,0,0,1-.28,2.85A15,15,0,0,1,1230.46,914.81Zm113.77,0a15,15,0,0,1-14.74-12.17,14.06,14.06,0,0,1-.28-2.85,13.9,13.9,0,0,1,.2-2.43,15,15,0,0,1,29.82,2.43,14.06,14.06,0,0,1-.28,2.85A15,15,0,0,1,1344.23,914.81Zm113.75,0a15,15,0,0,1-14.73-12.17,14.06,14.06,0,0,1-.28-2.85,15,15,0,0,1,30,0,14.06,14.06,0,0,1-.28,2.85A15,15,0,0,1,1458,914.81Zm113.73,0A15,15,0,0,1,1557,902.64a14.81,14.81,0,0,1-.27-2.85,13.9,13.9,0,0,1,.2-2.43,15,15,0,1,1,14.8,17.45Z"/><circle class="cls-6" cx="1681.79" cy="900" r="51.51"/><path class="cls-7" d="M1712.73,894c.06,1.23-.36,1.54-1.54,1.45a27.84,27.84,0,0,1-13.51-4.37c-.22-.13-.42-.38-.73-.38l.32-.9a27.84,27.84,0,0,0,10.82,2.73c.9,0,1.21-.2,1.19-1.13,0-2.6,0-5.21,0-7.81,3.37.53,3.37.53,3.37,3.86C1712.7,889.66,1712.62,891.85,1712.73,894Z"/><g class="cls-8"><rect class="cls-1" x="1591.43" y="526.6" width="359.26" height="350.02"/><rect class="cls-9" x="1591.43" y="526.6" width="359.26" height="350.02" rx="38.41"/><rect class="cls-1" x="1591.43" y="876.62" width="359.26" height="350.02"/><rect class="cls-9" x="1591.43" y="876.62" width="359.26" height="350.02" rx="38.41"/></g><path class="cls-10" d="M1708.55,881c.56,0,.75.22.72.75s0,1.16-.06,1.75a13.61,13.61,0,0,1-7.92-4.47,0,0,0,0,1,0,0v0A18.79,18.79,0,0,0,1708.55,881Z"/><path class="cls-10" d="M1701.32,879v0a0,0,0,0,0,0,0h0Z"/><path class="cls-10" d="M1701.32,879h0s0,0,0,0v0h0l-.26-.22a.15.15,0,0,1,.09,0h.1l.07.06A.28.28,0,0,1,1701.32,879Z"/><path class="cls-10" d="M1701.29,879h0S1701.29,879,1701.29,879Z"/><path class="cls-10" d="M1701.28,879v0a0,0,0,0,0,0,0Z"/><path class="cls-7" d="M1699.65,877.51a.44.44,0,0,1,.37.42c-.21-.07-.43-.15-.39-.42Z"/><path class="cls-7" d="M1699.63,877.49v0c-2.55-1.44-4-3.81-5.11-6.36a8.07,8.07,0,0,1-.88-3.17,4.19,4.19,0,0,1,.47-.05c2.38,0,2.4,0,2.69,2.28A20.7,20.7,0,0,0,1699.63,877.49Z"/><path class="cls-7" d="M1697.27,889.84l-.32.9h-.13a3.24,3.24,0,0,0-.14,1.69c0,7.08.11,14.15,0,21.23-.18,8.68-4.14,15.26-12,19.08s-15.29,2.8-22.26-2.28c-.43-.32-1-.53-1.14-1.22h0a25.31,25.31,0,0,0,10.75,2.76h.07a21.13,21.13,0,0,0,21.1-20.48c.18-7.33,0-14.67.06-22V887.8a3,3,0,0,1,1.66.79C1695.71,889.05,1696.49,889.46,1697.27,889.84Z"/><path class="cls-10" d="M1691.5,865c1.23,0,2.08.07,1.86,1.63a5.36,5.36,0,0,0,.14,1.24c-2.19,0-4.38.19-6.54,0-1.7-.13-2,.5-2,2q.09,21.69,0,43.39c0,5.46-3.33,9.37-8.75,10a8,8,0,0,1-7.9-3.34c1.29,0,2.51.5,3.82.5h.38a9.66,9.66,0,0,0,9.12-9.84c0-14.61.06-29.22,0-43.83,0-1.5.43-1.85,1.84-1.79C1686.18,865.07,1688.84,865.05,1691.5,865Z"/><path class="cls-7" d="M1678.33,903c0,1.14-.25,1.42-1.41,1.23a9.57,9.57,0,0,0-11.1,10.34,12.09,12.09,0,0,0,1.52,4.48,9.44,9.44,0,0,1-4.4-11.43,9.6,9.6,0,0,1,10.54-6.36c1.28.25,1.53,0,1.5-1.24-.06-2.5,0-5,.06-7.48,3.26-.19,3.26-.19,3.26,3C1678.3,898,1678.25,900.53,1678.33,903Z"/><path class="cls-10" d="M1673.63,889.62c2.29.19,1.06,1.79,1.25,2.82-9.75.84-16.58,5.64-19.68,15a20.26,20.26,0,0,0,2.17,17.43c.28.47.87.82.71,1.5v0c-.5.2-.63-.28-.85-.5a21.2,21.2,0,0,1,16.4-36.3Z"/><path class="cls-10" d="M1668.31,919.71a.23.23,0,0,1,.06.23c-.26,0-.36-.14-.45-.34a.44.44,0,0,0,.16,0h.12s0,0,0,0,0,0,0,0Z"/><path class="cls-7" d="M1661.29,929.24h0c-.38.08-.51-.19-.64-.48C1660.93,928.86,1661.21,928.91,1661.29,929.24Z"/><path class="cls-10" d="M1659.06,927.39l.3.28c-.19,0-.33-.11-.34-.28Z"/><path class="cls-10" d="M1659.06,927.39h0a.08.08,0,0,1,0-.06A.12.12,0,0,1,1659.06,927.39Z"/><path class="cls-10" d="M1659.06,927.39a.12.12,0,0,0-.06-.06.08.08,0,0,0,0,.06c-.19,0-.34-.11-.32-.33h0l0,0A.37.37,0,0,1,1659.06,927.39Z"/><path class="cls-10" d="M1658.72,927h0l0,0,0,0Z"/><path class="cls-10" d="M1658.74,927.06h0v0l0,0Z"/><path class="cls-10" d="M1658.72,927h0v0c-.22,0-.39,0-.31-.32h0v0A.29.29,0,0,1,1658.72,927Z"/><path class="cls-10" d="M1658.4,926.7v0Z"/><path class="cls-10" d="M1658.08,926.39c.28-.06.35.09.32.31h0v0c-.27,0-.43,0-.31-.32Z"/><path class="cls-10" d="M1658.39,926.7v0h0Z"/></svg>