<svg id="Layer_1" data-name="Layer 1" xmlns="http://www.w3.org/2000/svg" viewBox="0 0 458.02 201.2"><defs><style>.cls-1{fill:#fff;}</style></defs><path class="cls-1" d="M175.21,48.47c.47.69,1.07,1.18,1,1.54-.23,1.31-.89,2.56-1,3.87a33.66,33.66,0,0,0-.07,4.17l-1,0c-.44-1-.87-1.89-1.24-2.8l-.16-.39a4.11,4.11,0,0,1-.06-1.17l.9.16C174.05,52.24,174.55,50.6,175.21,48.47Z"/><path class="cls-1" d="M447.5,162.18h0l0,0a.08.08,0,0,1,0,0Z"/><path class="cls-1" d="M282.76,62.56c.34.09.91.46.89.65a14.24,14.24,0,0,1-.88,4.43,22,22,0,0,1-3.17,3.9c-.27-.16-.54-.32-.8-.49.64-1.14,1.28-2.29,2-3.63l-2.63.64-.29-.55,1.75-1.24,1.9-3.74A4.56,4.56,0,0,1,282.76,62.56Z"/><path class="cls-1" d="M30.86,33a1,1,0,0,1-.22-.18A1.92,1.92,0,0,0,30.86,33Z"/><path class="cls-1" d="M158.66,111.33c-.7,3.25-1.41,6.49-2.11,9.74l-.44,0c-.76-3.55.4-6.73,1.85-9.85Z"/><path class="cls-1" d="M285.9,66.75l-1.32-2.39,2.3-2.37.36.37c-.63,1.31-2.73,2.22-.78,4.22Z"/><path class="cls-1" d="M298.94,32.64l0,0,0,0Z"/><path class="cls-1" d="M40.09,68.47a4.19,4.19,0,0,1,.44-.32,5.34,5.34,0,0,0-.43.32Z"/><path class="cls-1" d="M324.87,90.32c.87-.48,1.57-1.58,3-.24l-2.77.91Z"/><path class="cls-1" d="M159.63,50.59l.26-.09Z"/><path class="cls-1" d="M152.74,53.79c1.12,4.08,2.08-1.27,3.38.08a4.7,4.7,0,0,1,.59,2c-.15,1.15-.29,2.45-1.65,3.09-.3.14-.37.87-.42,1.35,0,.17.36.38.56.58L156,60c.74-.87,1.46-1.77,2.23-2.62.95-1.05.39-1.71-.35-2.24.7-1.53,1.41-3.06,2.11-4.58h0v-.07h0l-.09,0c-2.74-1.63-1.55-4.1-1.09-6.41,0,.45.1.9.16,1.37l.8-.08-.42.3,2.3,3.43c.82-1.56,1.44-2.72,2-3.85,3,2.31,1.31,4.79.67,7.19l.61.18c.59-1.5,1.19-3,1.88-4.76.41.51.85.87.78,1-1.35,3,.21,6.73-2.32,9.54-.47.53-.06,1.92,0,2.9a2.72,2.72,0,0,1-.66,2.06l-.17.17a2.24,2.24,0,0,1-.38.31,2.47,2.47,0,0,1-.66.3,1.86,1.86,0,0,1-.48.09l0,.19c.06.52.12,1,.19,1.62-2.15-.41-2.15-.41-2.73,3.2a5,5,0,0,0,.51.1L161,70c-1.18,1.14-.5,2.33-.32,3.49a2.1,2.1,0,0,1-.12,1.21l1.28.26c-1.42,1.93-.21,5.35-3.92,6,.16-1.64.3-3.22.45-4.8-.14,0-.28,0-.42-.06L157,77.87l-.58-.17c.19-1.71.37-3.41.55-5.12l-.42-.15a62,62,0,0,1-2.74,5.9c-1.24,2.11,0,4.45-1,6.54l-1.34-.4c2.45,3.7,1.54,7.47,1.29,11.34l-.81.17c.6,1.58-.58,4.24-2,4.71l1.85.43c-1.1,1.06-2.63,1.32-3,.41a18.59,18.59,0,0,1-.62-3.45l-.46-.18a15.89,15.89,0,0,0-1.06,1.52c-.13.23,0,.61-.08.86-.34.79-.75,1.55-1.13,2.32-.11-.72-.2-1.45-.35-2.16-.27-1.27.55-2.9-1.14-3.67-.35-.16-1.18-.06-1.28.16a52,52,0,0,0-2.31,5.5c-.2.6.21,1.41.34,2.17l1.48.1L140,106c-.79-2.84-1.29-5.32.57-7.65.16-.2.31-.66.2-.79-1.13-1.4.18-2.08.83-3,.18-.23.48-.44.52-.69.88-5.38,2.94-10.57,1.75-16.25-.59-2.86-.28-5.9-.32-8.86,0-.35.37-.69.52-1s.57-1.1.42-1.26c-1.48-1.6.41-3.06.05-4.41,3.93-1.1,2.42-4.23,2.7-6.69l1.32.57c-.19-.7-.3-1.15-.3-1.15l2.33-3.07a.6.6,0,0,0,.11-.12l1.83-.62v1.86l-.4-.23-.75,1.19c-.38.59-.75,1.18-1.12,1.77l.43.48c1,0,.93-1.15,1.33-1.84A.86.86,0,0,1,152.74,53.79Z"/><path class="cls-1" d="M299,57.08l-.5.34-.09-1.23,0,.66-3.78,4.39c-.89-2,.48-4.33,4.9-8.1-.36.69-.71,1.37-1.16,2.21l1.19.5C299.36,56.26,299.18,56.67,299,57.08Z"/><path class="cls-1" d="M416.62,70.76c.29,1.25-.27,1.61-1.09,2.44V65.09l-.33,0,1.4-2.25,1.23.9c-.55.73-1.26,1.23-1.3,1.79A17.73,17.73,0,0,0,416.62,70.76Z"/><path class="cls-1" d="M151.26,104a8.64,8.64,0,0,1-.44,4.68,8.61,8.61,0,0,0,.44-4.67Z"/><path class="cls-1" d="M3.59,88.43l.51.12,1-.92c-.48-1.06-.84-1.88-1.21-2.69l-.31,0ZM18.12,70.27c-.18.62-.32,1.25-.47,1.87l-.59.22c-.16-.44-.31-.89-.5-1.41-.88,1.09-.63,2.44-.73,3.62l-.94.14a3.43,3.43,0,0,1-2.37-4.37,5.94,5.94,0,0,0,0-1.4c-.35.35-.93.66-1,1.06a7.89,7.89,0,0,0-.19,3.33,28.53,28.53,0,0,0,2.59,6.79c.66,1.11,2.08,1.79,1.89,3.39-.15,1.24-.37,2.47-.62,3.69a1.44,1.44,0,0,1-1,0,13.09,13.09,0,0,1-1.08-1.53c-.24-.34-.53-.64-.8-1L11.9,85c.48.82.89,1.68,1.44,2.44a35.79,35.79,0,0,0,2.95,3.64c.17.18,1.48-.22,1.53-.5.58-3,1-6,1.5-9,.25-1.73.51-3.17,2.31-4.35a13,13,0,0,0,3.14-3.57V162.2a36.45,36.45,0,0,1-4-14.2c-.11-1.93-.53-3.84-.73-5.77s-.82-3.14-3-3.3c-2.37-.18-4.22-1.5-6-3.08a8,8,0,0,1-2.67-6.93c.13-1.93-.05-3.87,0-5.8.21-3.92-1.95-7.05-3.38-10.41-1.08-2.56-1-5.12-.81-7.79.13-1.86-.22-3.76-.27-5.64,0-.67.29-1.36.32-2a2.74,2.74,0,0,0-.48-1.61c.6-1.84.52-3.47-1.14-4.85a1.61,1.61,0,0,1-.39-1.29,7.33,7.33,0,0,0-1-5.39,1.12,1.12,0,0,1-.2-.48q-.21-4.37-.4-8.73c0-.3.08-.64,0-.88-1.25-2.49-.42-5-.25-7.56.06-.91-.06-1.81-.09-2.72a2.15,2.15,0,0,1,.06-.67c.79-2.27,1.63-4.53,2.35-6.83.15-.45-.19-1-.28-1.59a3.31,3.31,0,0,1-.15-1.3,84.48,84.48,0,0,1,3-10,72,72,0,0,1,5-9.14c1.12-1.89,2.49-3.63,3.75-5.44.17-.24.35-.47.52-.7l1.85-2.49.25.39,1.09-1-.84-.66a8.87,8.87,0,0,0,.81-.55c1.67-1.37,3.27-2.83,5-4.11.7-.52,1.37-1.08,2-1.66V43.91c-1.15,1.89-2.25,3.72-3.35,5.55l.43.42a15.41,15.41,0,0,0,2.22-2.44,6.82,6.82,0,0,1,.7-1v15.4c-.63.75-1.27,1.51-1.93,2.31l-.71-1.57a28.89,28.89,0,0,0-2.89,2.09,1.5,1.5,0,0,0-.13,1.42,2,2,0,0,1-.34,2.35A6.13,6.13,0,0,0,18.12,70.27ZM7.93,106.19c-.71,2.36-.2,5.31.84,6.28A6.92,6.92,0,0,0,7.93,106.19Zm9.28-46.35,2.23-4C17.58,55.77,17,56.8,17.21,59.84Z"/><path class="cls-1" d="M420.63,79.08l.9-.43a6.71,6.71,0,0,1,.78,1.74c0,.25-.62.59-1,.89C421.11,80.55,420.87,79.81,420.63,79.08Z"/><path class="cls-1" d="M299,32.59v.09l0,0h0Z"/><path class="cls-1" d="M299.55,55.83l0,0,0,0Z"/><path class="cls-1" d="M293.56,77.93c-.06-3.13,2.36-5.38,2.91-8.29l.77.31c-.55,1.23-1.16,2.44-1.61,3.7a5.41,5.41,0,0,0-.21,2c0,.27.38.52.58.78l-1.37.36c-.18.47-.34.9-.5,1.34Z"/><path class="cls-1" d="M296.36,48.12a2,2,0,0,1-2,0c-.45-.43-1.85-1.47.1-2.12.06.36.11.68.15.94L299,44.57l.19.28A29.56,29.56,0,0,1,296.36,48.12Z"/><path class="cls-1" d="M300.68,32.22c-.64-.09-1.26-.18-1.71.36,0-1.56,1.52-1.89,2.48-2.4a13,13,0,0,1,8.48-1.07c.68.11,1.38.14,2.06.21V30c-1.49.08-3,.18-4.46.24-.37,0-.79-.23-1.12-.12-1.24.41-3,.56-3.57,1.45A1.88,1.88,0,0,1,300.68,32.22Z"/><path class="cls-1" d="M45.77,50.61c-.28.65-.52,1.33-.85,2l-1.67,3.13-.53-.28c-.87-2.57,1.33-3.53,2.52-5Z"/><path class="cls-1" d="M174.47,41.32c.35,1.23.54,1.93.82,2.92l-2.19-.41Z"/><path class="cls-1" d="M150.21,110.14l-.2.36Z"/><path class="cls-1" d="M405.12,63.23c-2.31-1.13-.72-3-1-4l4-4c-.05-.07.48.37.4.57a17,17,0,0,1-1.31,2.45c-.19.33-.45.63-.67.95H408c-.15.42-.31,1.14-.43,1.14C405.54,60.21,405.24,61.65,405.12,63.23Z"/><path class="cls-1" d="M330.88,158.17c1.58.05,1.12,1.44.95,2.22-.07.34-1.29.44-2.33.75Z"/><path class="cls-1" d="M389.91,89.67a1.8,1.8,0,0,1,0,.19h0l-.09.06C389.88,89.85,389.9,89.76,389.91,89.67Z"/><path class="cls-1" d="M195.05,69.52c.39,2,.69,3.5,1,5.18l-1.9.77A14.7,14.7,0,0,1,193,73.12c-.09-.29.47-.75.7-1.15C194.08,71.32,194.43,70.66,195.05,69.52Z"/><path class="cls-1" d="M39.87,28.39c.14.71.55,1.56.31,2.13a14.05,14.05,0,0,1-2.11,3.34c-.65.77-.71,1.31-.23,1.77l-.89.1c-.34-.37-.65-.75-.63-1.1.06-.69.92-1.28,1.23-2A9.47,9.47,0,0,0,38,30.49l-.42-.36,1.89-.54c0-.2-.1-.68-.19-1.23A2.37,2.37,0,0,1,39.87,28.39Z"/><path class="cls-1" d="M314.57,110.42l.74-.23c.3.73,1,1.57.8,2.17s-1.2.93-1.85,1.37a8.78,8.78,0,0,1-.17-1.68A9.49,9.49,0,0,1,314.57,110.42Z"/><path class="cls-1" d="M70.06.51c-.38.25-.73.65-1.13.73-.71.13-1.42.23-2.13.33l-.14-1C67.72.39,68.78.17,69.85,0Z"/><path class="cls-1" d="M455.54,102.26a11.12,11.12,0,0,1-.66-2.05c0-.25.43-.6.71-.86s.77-.66,1.27-1.08L458,99c-.53,1-1,2-1.54,2.86C456.34,102.1,455.86,102.13,455.54,102.26Z"/><path class="cls-1" d="M298.92,32.65h0c-.45,1-.89,2-1.34,3Z"/><path d="M387.08,121.46c.06.11,0,.07,0,0Z"/><path class="cls-1" d="M390,64.61l-2.42,4,1.59-.24,1.21-3.61Zm.95-4.33-3.63-1.2a11.63,11.63,0,0,1,.79,1.64c-1.31,1-.19,1.71,0,2.57C389,62.33,389.81,61.46,390.92,60.28Zm-3.72-2c2-4.61,3.48-6.47,4.49-6.21-1.19,1.81-2.42,3.7-3.64,5.58.53.52.86,1.11,1.3,1.21s1.51,0,1.64-.35c.89-2.11,3-3.36,3.42-6,.22-1.49,2.28-2.72,3.55-4,.8-.84,1.67-1.64,2.58-2.52l.63.74c.08-.58.23-1.19.26-1.79l.64,0c0,.66.92,1.13,1.14,1.76-.46.88-.94,1.79-1.65,3.12l2.31-.43c-1.19,1.78-2.19,3.43-3.36,5-.33.43-1.15.5-1.74.73l-.33-.42c-.56,1.18-1.14,2.35-1.75,3.61-1.94.48-3.18,2.13-4.15,3.88-.37.66.1,1.8.59,2.73-.41.6-.83,1.2-1.25,1.79.7,1.5,1.4,3,2.1,4.46l-1.79.41c2.07.7.41,3,1.92,4.2.42.34-.07,2-.37,3a3.21,3.21,0,0,1-1.26,1.83c-3.07,1.63-1.6,4.58-2.16,6.92-.17.72-.28,1.46-.41,2.18a36,36,0,0,1-1.09-4.53,42.93,42.93,0,0,1,0-5.11l-1.32,1-.22-2.14-.61,0c-.15.58-.31,1.16-.47,1.74l-.46,0c-.11-.75-.21-1.5-.31-2.23l-.25.37L384,75.57l-.94,1-.44-.34c.38-.49.73-1,1.13-1.47.11-.12.38-.11.84-.22l-1.95-1.78c-1,1.87-1.82,3.58-2.77,5.43-2.39-2.68-2.34-3.87,0-5l-2.2-.59,1-.52-.45-.19c.33-2.08.64-4,.95-5.88l-2.09-.13a32.24,32.24,0,0,1,.77-5.58c.67-2.06,1.27-4.26,3.27-5.65.39-.27.27-1.28.79-1.9l1.57,3.68c-.17.47-.39,1.07-.6,1.67l.41.25-2,.88c1.12.84,1.91,1.71-.18,2.87l.9.13,4.06-4.7Z"/><path class="cls-1" d="M303.29,44l-.9,0c.1-2.52,2.87-5.25,6.37-6.16-.63.82-1.11,1.43-1.63,2.09l.64,1Z"/><path class="cls-1" d="M292.38,40.76c-.74.66-1.53,1.28-2.2,2a3.55,3.55,0,0,0-.49,1.25l.45.35c-1.08.19-2.15.42-3.24.52-.09,0-.51-1-.35-1.24,1.3-2.07,3.56-2.47,5.55-3.35C292.19,40.45,292.28,40.61,292.38,40.76Z"/><path class="cls-1" d="M283.55,58.31c.21,1.65.24,1.65-1.6,3.22.58-2.55,1.06-4.72,1.56-6.9l-.45-.25c-1.16,1.95-2.31,3.9-3.5,5.92-1.54-3.26-.4-6,1.64-8.32,1.69-1.93,3.72-3.56,5.6-5.33.25.14.5.28.76.41-.46,1.74-.94,3.47-1.37,5.21a7.08,7.08,0,0,0-.16,1.45c0,1.07-.43,1.66-1.24,1.38-.28.74-.54,1.44-.81,2.14C283.84,57.6,283.51,58,283.55,58.31Z"/><path class="cls-1" d="M40.06,68.49c1,1,1.13,1.67.32,1.62a5.48,5.48,0,0,1-2.18-.63Z"/><path class="cls-1" d="M160,50.45h0l-.08,0h0Z"/><path class="cls-1" d="M51.89,100.1l0,.57L48.63,102l-.43-.46c.34-.74.57-2,1-2.12C50.05,99.27,51,99.85,51.89,100.1Z"/><path class="cls-1" d="M160,50.46v.07l0,0Z"/><path class="cls-1" d="M177,78.1c.15.18.29.36.43.55h0C177.32,78.46,177.18,78.28,177,78.1Z"/><path class="cls-1" d="M33.28,30.89c-.2.42-.4.85-.61,1.27C32.88,31.74,33.08,31.31,33.28,30.89Z"/><path class="cls-1" d="M158.67,52.25c.08.42-.43.94-.74,1.57-1.9-1.58-1.39-3.47-1.6-5l3.6,1.71,0,0-.26.09A1.3,1.3,0,0,0,158.67,52.25Z"/><path class="cls-1" d="M40,68.45l.07,0h0l0,0Z"/><path class="cls-1" d="M399.74,63.4c0-.38.41-.74.64-1.11a5.48,5.48,0,0,1,.93.64c.44.43.82.94,1.34,1.54a4.21,4.21,0,0,0-.8.4,5,5,0,0,0-.56.64l1.17,1.08c0,.09-.11.17-.16.25-.78-.34-1.81-.49-2.27-1.08A3.94,3.94,0,0,1,399.74,63.4Z"/><path class="cls-1" d="M376.77,82c1.11,1.24,1.11,1.24-.39,3.51C376.49,84.44,376.61,83.38,376.77,82Z"/><path class="cls-1" d="M149.89,110.7l.08-.12Z"/><path class="cls-1" d="M37.51,36.37c-.16-.21-.36-.42-.56-.64l.89-.1a3.25,3.25,0,0,0,.93.58c-.77,1.14-1.55,2.22-2.22,3.35-.43.74-.64,1.61-1.07,2.35-.3.51-.93.83-1.18,1.35-.59,1.24-.69,3-1.61,3.77-1.88,1.67-1.66,3.43-1,5.64L30.3,52c-.64,2.39-1.26,4.73-1.88,7.06L28,59c0-.38.06-.75.09-1-1.07,1.28-2.15,2.56-3.27,3.91V46.44a5.57,5.57,0,0,1,2.56-1.74c.79-.29,1.19-1.63,1.77-2.5l3.07.21c.67-1,1-1.61,1.47-2.18a2.45,2.45,0,0,0,.66-2.31,8.18,8.18,0,0,1,.29-2.86l.58,0v3.34C36.2,37.86,35.63,35.72,37.51,36.37Z"/><path d="M299.55,55.83v0Z"/><path class="cls-1" d="M42,37.39s.31,0,.68.08c-.15,1.2-.3,2.37-.48,3.78l-1.46-.67c-.06-.23-.11-.29-.09-.34C41.07,39.29,41.51,38.33,42,37.39Z"/><path class="cls-1" d="M397.72,68.39l-1.21-.32c.17-.26.37-.76.51-.75.45.05,1.23.26,1.24.45a16.89,16.89,0,0,1-.2,2.65l-.34,0Z"/><path class="cls-1" d="M159.93,50.48l0,0Z"/><path class="cls-1" d="M217.37,152.52c.15,2.11-1.58,2-2.71,2.67-.67-1.3-.67-1.3.68-3.39Z"/><path d="M298.93,32.63h0v0h0s0,0,0,0a.08.08,0,0,1,0,0s0,0,0,0Z"/><path class="cls-1" d="M390.77,89.74a4.6,4.6,0,0,1,.12,1.82c-.12.3-.94.34-1.62.54.28-.9.48-1.55.68-2.18Z"/><path class="cls-1" d="M304.61,73.29c0-2.1,1.08-3.76,2.38-3.73Z"/><path class="cls-1" d="M70.86,170.52s0,0,0,0l0,0Z"/><path class="cls-1" d="M447.45,162.17A7.1,7.1,0,0,1,446,162a.82.82,0,0,1-.26-.14c-.37-.33-.32-1.14-.45-1.74l.6-.28Z"/><path class="cls-1" d="M195.16,110.43c.27-.16,1,.46,1.86.89l-4,1.63-.36-.45A17.75,17.75,0,0,1,195.16,110.43Z"/><path class="cls-1" d="M14.89,74.71l.94-.14a2.34,2.34,0,0,1-1.54,2.23C13.24,75.86,13,75.09,14.89,74.71Z"/><polygon class="cls-1" points="447.5 162.18 447.5 162.18 447.5 162.18 447.5 162.18"/><path class="cls-1" d="M32.67,32.16l-.6,1.27Z"/><path class="cls-1" d="M161,47.24c.21-1.44-.07-3,1.44-4,.58-.41.63-1.51,1-2.26s.75-1.26,1.17-2c.89,2.08.45,3.37-1.26,4.61a5,5,0,0,0-1,1.68A7.46,7.46,0,0,1,161,47.24Z"/><polygon class="cls-1" points="159.95 50.48 159.95 50.48 159.94 50.48 159.93 50.48 159.95 50.48"/><path class="cls-1" d="M410.74,77.76c.65-1.52,1.25-2.71,1.68-4s.65-2.35,1-3.59c.34,1,.7,2.17,1.11,3.46l-.67.58,1,2.17-2.08-.83.64,1.51a4.23,4.23,0,0,0-1.12,0A9.33,9.33,0,0,0,410.74,77.76Z"/><path class="cls-1" d="M32.07,33.43h0c-.22,0-.42-.1-.6-.16A5.92,5.92,0,0,0,32.07,33.43Z"/><path class="cls-1" d="M399.56,67.27c1.47,1.62,1.47,1.62-.61,5.09C399.16,70.66,399.36,69,399.56,67.27Z"/><path class="cls-1" d="M37.93,42.58c.19.43.37.84.55,1.21-.12.14-.2.31-.27.3a1.84,1.84,0,0,0-2,1.67c-.55,2.17-1.21,4.32-1.89,6.45-.1.3-.63.46-.89.63-.24-1.34-.48-2.42-.59-3.51a2.74,2.74,0,0,1,.3-1.49C34,46.05,35,44.26,36,42.54A31.31,31.31,0,0,1,39,38.44c.29-.34,1.21-.15,1.84-.2,0,.18.09.36.13.54a13.92,13.92,0,0,0-1.13,1c-.22.23-.54.71-.46.83C40.68,42.56,38.92,42.26,37.93,42.58Z"/><path class="cls-1" d="M160,50.53h0Z"/><path class="cls-1" d="M154,98.36c1.28,2.13.34,3.71-.1,5.32l-.54,0C153.5,102,153.7,100.44,154,98.36Z"/><path class="cls-1" d="M291.33,68.32c-1.49,0-2.44,1.3-2.91,4l-1.9-1c-1.44,1.59-2.72,3-4.09,4.57-.54-1.26,1-2.94-1.3-3.59,1.73-1.77,3.37-3.32,4.85-5,1.06-1.21,1.9-2.61,3-4.13a4.66,4.66,0,0,1,1.34-.14c.82.09,1.5.19,1.1,1.51A13.51,13.51,0,0,0,291.33,68.32Z"/><path class="cls-1" d="M394,71.16h.07l-.05,0Z"/><path class="cls-1" d="M300.36,53.42c.18-.57.37-1.13.56-1.7.06-.18.43-.29.67-.36.07,0,.33.3.31.33-.8,1.09.54,3.16-1.66,3.63a1.92,1.92,0,0,0-.62.44C299.87,55,300.11,54.2,300.36,53.42Z"/><path class="cls-1" d="M299.62,55.76l0,.11,0,0h0Z"/><path class="cls-1" d="M411.49,85.5a22.87,22.87,0,0,1-.44-3.47c0-.41.69-.81,1.12-1.27v4.71Z"/><path class="cls-1" d="M161.42,73.4c-.24-1.11.55-2.57-.45-3.43l.09-.64c.83.14.82,0,.75-1.37l.44-.13a5.39,5.39,0,0,1,.23,1.1c0,1,0,2,0,3.1,0,.82,0,1.66,0,2.55A1.57,1.57,0,0,1,161.42,73.4Z"/><path class="cls-1" d="M160,50.51h0l-.06,0h0Z"/><path class="cls-1" d="M175,45.89l-1.8,5.32C172.07,48.62,172.52,47.15,175,45.89Z"/><path class="cls-1" d="M170.65,96.85c-.91.73,0,2.24-.67,3.06l-.81-.32c.14-.69.29-1.38.47-2.27l-1.75.3-.09-.42,2.56-.81Z"/><path class="cls-1" d="M151.26,104l-.54.74Z"/><path class="cls-1" d="M164.2,63.83a2.24,2.24,0,0,0,.38-.31A2.24,2.24,0,0,1,164.2,63.83Z"/><path class="cls-1" d="M392.52,84.3c-1.5-2-.08-2.39.76-3.07l.42.23Z"/><path class="cls-1" d="M160,128.31V125c-1.7.41-2.1,1.17-1.74,3.08Zm-7.23,5.34-1.14-3.78-.54.15C150.49,131.27,151,132.51,152.77,133.65Zm57.31,8.41c-.64-1.76-1.85-2.38-3.13-1.42-.5.37-.56,1.35-.81,2.05a5.92,5.92,0,0,0,2,.31A8.19,8.19,0,0,0,210.08,142.06ZM154,123.62a7.75,7.75,0,0,1,0,2.09c3.47,2.08,3.73-1.65,5.06-3.5l.43.17c-.13.66-.25,1.32-.38,2l.43.12c.51-1.42,1-2.84,1.54-4.25l-.64-.41-.76,2.05-.66-.61c1-3.09,2.08-6.19,3.17-9.41l.89.44c.13-.15.26-.22.28-.31.49-2.16,1-4.33,1.44-6.5a1.49,1.49,0,0,1,.32-.78c2.14-1.81,4.26-3.66,6.48-5.36,1.67-1.27,3.74-.89,5.64-.88.51,0,1,1,1.47,1.41-1.51.51-2.68.85-3.79,1.33a1.21,1.21,0,0,0-.52,1c0,.23.51.45.81.65,2,1.32,3.82-.32,5.72-.48a26,26,0,0,0,3.58-.81c.57.82,1.57,1.31,3.23.69.84-.31,2,.44,3.09.63a36.15,36.15,0,0,1,3.68.72c-5.71.48-10.59,2.45-13.95,7.62-.32-.58-.45-.75-.52-.94a4.67,4.67,0,0,1-.13-.67c-2.22.58-2.55,1.43-1.34,4.06l2.19-1.51,2.16-1.48c.54-.38,1.35-1.19,1.59-1a7.26,7.26,0,0,1,2.49,2.24c.37.61.35,1,1.29,1.14s1.6,1.15,2.39,1.77a7,7,0,0,0,1.57,1c.67,1.2,1.17,2.58,3.23,2.1-.08.58-.15,1.07-.22,1.6.2,0,.41.17.51.11a5.09,5.09,0,0,0,1.72-1.15,3.41,3.41,0,0,1,2.35-1.58c1.72-.35,2.56-1.78,3-4.05l2.77-2.12c-1.16-3.69-4.1-4.72-7-5.93,4.68-.09,9,2.94,13.82,1,.16.61.15,1.23.36,1.33,2,.85,1.52,2.63,1.62,4.2a29.6,29.6,0,0,1,.32,5.12,18.53,18.53,0,0,0,.23,5.31,48.09,48.09,0,0,1,.11,5.64c.06,1.52.26,3,.4,4.63-.49.28-1.06.62-1.81,1l1.26.83c-2.47,1.69-.65,4.15-.65,6.24,0,.68,0,1.35.08,2a27,27,0,0,0,.14,2.7,1.75,1.75,0,0,1-1.13,2.2,5.82,5.82,0,0,0-3.23,4.89c-.08.78,1.08,1.51.19,2.39-.29.28-.52.69-.85.84-3.27,1.36-6.56,2.69-9.84,4a1.83,1.83,0,0,1-1,.15c-3-.58-4.14,0-5.17,2.84-.13.38-.31.75-.55,1.32,2.61-.61,5.13-1.38,7.7-1.76s5.25-.38,7.88-.55c.48,2.25,1.52,4.41-1.19,6l2.31,2.88c-1.08,1.54,1.07,2.18,1.64,3.87l-5.06-1.68,1.06,1.33h-2c1,1.21,1.78,2.29,2.85,3.66l1.35-.26c.69,1.68-.44,2.78-1.1,4a2.09,2.09,0,0,0-.25,1.6c1,1.85.46,2.78-1.77,2.87-.09.48-.19,1-.33,1.65a2.4,2.4,0,0,0-1.13.18c-.19.13-.09.7-.13,1.11h1.73c-.68.74-1.38,1.44-2,2.2-.18.22-.34.76-.22.9,1.08,1.22,0,1.55-1.14,2.18,1.19.76,2.2,1.41,3.22,2,.19.12.45.12.66.23,2.93,1.49,2.84,2.32.43,4.41-1.4,1.23-2.28.93-3.66.33a63,63,0,0,1-12.23-7c-2.43-1.79-5.33-2.94-7.92-4.54A50,50,0,0,1,177.8,185c-2-1.68-3.72-3.65-5.65-5.41a9.62,9.62,0,0,1-2.82-5.74,52.68,52.68,0,0,1-1.16-8.1,42.85,42.85,0,0,0-2.83-13.37c-.72-2-1.18-4.17-1.79-6.25a8.89,8.89,0,0,0-.45-1.19c-1.78,1-3.38,2.49-5.09,2.62a11.56,11.56,0,0,1-6.13-1.56c-6.35-3.6-9.43-9.68-11.64-16.33-.57-1.73-1.53-3.33-2-5.07a14.77,14.77,0,0,1-.71-5.16,17.46,17.46,0,0,1,5.13-10.53c.9-.93,1.62-.43,2.12.42a10,10,0,0,1,.62,1.85c-2.36.39-3.48,2.33-4.27,4.18-1,2.23-.77,4.6-.26,7.12a34.51,34.51,0,0,0,3.13,8.67,27,27,0,0,0,4,5.65c-4.84-7.5-5.79-15.22-2.29-22.94h3.4c-.82,2,.33,2.5,2,2.67-.16-.5-.3-.94-.43-1.37l.37-.2,2,3.6c-.8.53-1.14,1.38-.32,2.58A11.14,11.14,0,0,1,154,123.62Z"/><path class="cls-1" d="M302.38,44.09a.57.57,0,0,1,0-.13l.9,0,1,1.09-6.81,4.72-.4-.48C298.83,47.6,299.39,44.77,302.38,44.09Z"/><path class="cls-1" d="M394.05,74.26V71.19c2.6-.33,3.76.64,4.13,3.31.05.36.6.66.92,1l.44-.25c-.07.48-.14,1-.21,1.47l-1.28-.87c0,.17.06.35.08.51l-.65.09a7,7,0,0,0-.37-1c-.19-.5-.43-1-.64-1.42Z"/><path class="cls-1" d="M389.87,89.93l.09-.06s0,0,0,0Z"/><path class="cls-1" d="M73.08,165.21a2.23,2.23,0,0,1,.52,2.47,6.5,6.5,0,0,0-.34,1.63c0,.51-1.5,1-2.32,1.51a.31.31,0,0,1-.09-.13.65.65,0,0,1,0-.14L72,169.27c-.31-.67-1.78-1.48,0-2.49.71-.4-.94-.78-.21-1.81s1-.95,1.57-.64C73.26,164.65,73,165.12,73.08,165.21Z"/><path class="cls-1" d="M447.47,162.21l0,0v.06Z"/><path class="cls-1" d="M163.54,64.13a2.46,2.46,0,0,1-.47.1,1.1,1.1,0,0,0,0,.18l0-.19A1.86,1.86,0,0,0,163.54,64.13Z"/><path class="cls-1" d="M439.58,141.2c2.44.93,3.76.8,4.85-.48C441.93,139.21,440.32,139.37,439.58,141.2Zm-15-35.48c-4.9.87-8.89,3.45-12.9,7.16,2.17.1,3.94.56,5.46.14s2.76-1.73,4.24-2.74c1.32,2.19,3.11,3.86,5.72,3.27a5.3,5.3,0,0,0,4.34-4.62,6.11,6.11,0,0,1,1.44.48,21.29,21.29,0,0,1,1.72,1.45,7.79,7.79,0,0,1-1.15,1.21c-1.44,1-2.92,2-4.38,3,0,.15.06.31.1.46.53,0,1.15.27,1.57.08,1.39-.63,3.06.49,4.37-.93.57-.62,2-.4,2.6-1s.55-1.82.8-2.83l1.56.63.66-1.47L439,106.71c-.83-.3-1.46-.57-2.1-.75-1.58-.46-3.17-1.25-4.75-1.23A47.66,47.66,0,0,0,424.56,105.72Zm-37.48,15.74c0,.07.06.11,0,0ZM374,108.7c-.53,3.66.21,7.16,1.46,11.16.51-.61,1-.94,1.1-1.37.23-1.07.24-2.18.42-3.27.42-2.62.17-5.42,2.05-7.67a1.44,1.44,0,0,0-.41-1.29C376.42,105.06,374.3,106.23,374,108.7Zm.13-4.29c1.78-2.79,6.08-3.35,8.1-.85.51.65.3,1.88.42,2.85l-.07,0c0,.22.2.59.12.65-1.32,1.07-.73,2.15,0,3.15s1.52,1.81,2.27,2.72c1.3,1.58,2.89,2.83,3.71,4.89a82.8,82.8,0,0,0,4.29,8.52c.27.5,1,.77,1.84,1.43,0-1,0-1.63,0-2.21-.26-3.42-.66-6.83-.76-10.26a56.93,56.93,0,0,1,.29-9.69c.28-2,1.52-3.87,2.25-5.59,1.8-.33,3.4,1.43,4.74-.45,0-.06.79.4,1.23.57s1.11.49,1.22.35a11,11,0,0,1,6.39-3.86c.32-.06.61-.32.82,0l6.11,1.63c-.19-.8-.28-1.22-.38-1.64.56-.56,3.92.78,5,2.07-.37.55-.76,1.12-1.22,1.78l-.61-.58-4.27,2.61c.07.65.45,1.07,1.74.8a66.89,66.89,0,0,1,7.45-1.1,27.34,27.34,0,0,1,3.91.27,71.32,71.32,0,0,0,8.13.27,3.35,3.35,0,0,1,2.7.74c1.31,1.22,2.13-.65,3.38-.24-.31-1-.59-1.87-.91-2.91l-1.48-.34c.21-.32.4-.72.49-.69,1.39.36,2.75.86,4.16,1.14.45.09,1-.41,1.53-.57.82-.23,2-.84,2.44-.5.89.68,2.15,1.22,2,3a41.8,41.8,0,0,0,.46,5.87,4.53,4.53,0,0,1-.22,1.34c.34,1.87.64,3.5,1,5.13a1,1,0,0,0,.27.4c1.72,1.94.75,4.26.85,6.41.07,1.75-.47,3.56-.19,5.25.36,2.14,1.47,4.13,1.87,6.26a13.37,13.37,0,0,1,.06,5.49,8.74,8.74,0,0,1-2.56,3.72c-1.29,1.28-3,2.15-4.29,3.43a23.33,23.33,0,0,0-3.29,4.17c-.81,1.28.5,3.19,1.77,3.2a44.64,44.64,0,0,1,1.64-4.37c.14-.29,1.31-.44,1.67-.19a10.75,10.75,0,0,1,2,2.16c.79,1,.81,1.94-.43,2.61a25.75,25.75,0,0,0-4.31,2.32c-2.8,2.3-5.76,2-8.88,1.08a9.25,9.25,0,0,0-7.86.78,7.65,7.65,0,0,1-3.85.61,4.32,4.32,0,0,0-3.94,1.79c.18.06.34.18.49.16,3.81-.42,7.61-.93,11.43-1.25,1.64-.13,3.31.22,5,.19,1.17,0,2.23-.09,2.63,1.35.83-.75,1.28-.68,1.54.41a10.79,10.79,0,0,0,.95,2l.43-.15c-.08.41-.15.83-.26,1.39,0,.19-.07.4-.11.63a15.71,15.71,0,0,0-3.55.08c-.53.12-.86,1.13-1.28,1.74l.39.44h2l-.58.83c1.93,1.68,3.61,3.72,6.39,3.29-.59,1.27-1.14,2.43-1.83,3.89l2.62,1.44v3.4c-.07.05-.22.12-.38.21.34.54.67,1,1.05,1.65l-2.05,1.11,1.41.27-2.73,2.44-1.1-.64-.82,1.36c-.1-1.3-1.12-2.08-1.88-1.36s-1.79.58-2.53,1.15l-2.22,1.73-5.61-.69-1,2.38,1.75.81-.21.64a22,22,0,0,1-4.61-1.38c-3.27-1.82-6.34-4-9.58-5.87a21.24,21.24,0,0,0-3.69-1.32,6.23,6.23,0,0,1-.78-.38c-3.12-1.72-6.14-3.69-9.39-5.09-3.55-1.54-6.19-4.07-8.68-6.79s-2.22-6.55-2.35-10.05c-.17-4.8-.3-9.6-.45-14.38l3.1-2.77-1.15-1a4.38,4.38,0,0,1-.49,1c-3.7,4.2-11.59,2.66-13.95-1.89a83,83,0,0,1-6.5-18c-.89-3.46-1.46-7-2-10.53A11.06,11.06,0,0,1,374.08,104.41Zm5.54,14.67c-1.63,1.82-1.61,4.19-1,6.44.29,1,.85,2.29,1.65,2.65a22.85,22.85,0,0,0,5.33,1.39c1.31.25,2.72.1,3.17,1.84.09.37.64.63,1.31,1.23l-2-5.28h-3.26l-.27-.56c.43-.36.9-1,1.31-1.17a.39.39,0,0,1,.21,0c2,.26,1.34-1.15,1.65-2.31l-2.22,1.47c-.08-.09-.17-.17-.25-.25l1.8-3.12,0,0c-.37-1-.66-2.13-1.13-3.13-.77-1.62-2.11-.18-3.15-.49a2.14,2.14,0,0,1-.34-.09C381,117.15,380.21,118.41,379.62,119.08Z"/><path class="cls-1" d="M299.54,55.85,299,57.08c.18-.41.36-.82.53-1.23Z"/><path class="cls-1" d="M188.62,73.3V70.17l.78,0c-.05,1-.11,2.08-.15,3.11Z"/><path class="cls-1" d="M150.55,51.77,149,53.28l-.34-.17c.49-1.49,1-3,1.46-4.46l.58.07v2.93A.6.6,0,0,1,150.55,51.77Z"/><path class="cls-1" d="M70.86,170.52l0,.08-.07-.1Z"/><path class="cls-1" d="M72.7,191.06c.09.74.16,1.44.27,2.36l-2.13-.8.18-.47Z"/><path class="cls-1" d="M177.46,78.65h0a2.48,2.48,0,0,0-1.17.53,2.48,2.48,0,0,1,1.17-.53Z"/><path class="cls-1" d="M160,50.45h0l0,0-.05,0Z"/><path class="cls-1" d="M172.16,83.59c.3-1.31.61-2.63.91-4l-.63-.22C171,80.57,171.93,82.14,172.16,83.59Zm7.23-16.82c.9-2,1.91-4,3-5.92a3.41,3.41,0,0,1,1.48-1.25c-1.65,2.88-2.41,6-1.07,8.91,1,2.18-.37,4.21.91,6.12l-.46.13-.91-1.2c-.8,2.41-1.6,4.8-2.39,7.19H179c-.26-1-.53-2-.8-3.06l-1.59-.14.44.56c.15.18.29.36.43.55a2.48,2.48,0,0,0-1.17.53,2.42,2.42,0,0,0-.92,2.42c.44,1.78-.17,2.14-2.05,1.65.29.92.5,1.6.77,2.47-2.1.67-2.34,2.82-3.16,4.92L169.65,89c2.54-.75.07-1.83.47-2.72l-.44-.4-4.15,3c.12-1.22.25-2,.28-2.84a8.55,8.55,0,0,0-.19-1.5l-.56,0L164.49,86l-.31,0c0-.41-.08-.83-.13-1.24l-1.86,1.09h0c-.19-.65-.41-1.31-.57-2a2.58,2.58,0,0,1,.37-2.63,10.27,10.27,0,0,0,1.78-4.66c.21-1.47-.28-3-.28-4.56v-.27a6.84,6.84,0,0,1,.95-3.52,4,4,0,0,0,.9-3.21,3.28,3.28,0,0,1,.31-1.2l.59.08c.13,2.9.27,5.81.41,8.94a3.68,3.68,0,0,0,.72-1.17c.2-1.08.53-2.12.8-3.13a57.62,57.62,0,0,0,1.33-9.65c.1-1.19-.46-2.42-.49-3.64a10,10,0,0,1,.59-2.45c.06-.22.2-.46.15-.66a6.5,6.5,0,0,1,1.62-6.21l-.64,10.49,1.45-.47c.58,2.11.58,2.11,1.92,2.11l1,0c0,.48,0,1,0,1.49l-1.52-.2c-.06.72-.14,1.65-.2,2.46,1.06-.08,2-.13,3.09-.2,0-.49-.82-1.63.71-2.24.29-.11.12-1.36.18-2.37l1.67.81c.25-.29.53-.64.94-1.13l1.24,1.16-.2.37L179.87,58c-.71,1.84-.23,4.17-2.37,5.28-.07-.11-.2-.31-.32-.52l-.39,0c0,.86.08,1.72.11,2.34-.5.22-1.33.32-1.51.72a12.68,12.68,0,0,0-.53,2.87c1-.28,1.59-.66,1.92-.5C178.48,69.1,178.85,68,179.39,66.77Z"/><path class="cls-1" d="M406.31,41.3c-1.21.9-2.32,1.63-3.31,2.46l-.43-.71c-.17-.83-.33-1.57-.51-2.41Z"/><path class="cls-1" d="M301.18,37l-7.45,2c-1.54-1.64.86-2,1.32-3.18l-1.38.21c0-.5-.26-1.32-.05-1.46a42.58,42.58,0,0,1,4.35-2.5c.18-.08.62.34.95.56l-1.33,3c-.15.33-.31.67-.46,1C298.42,36.54,300,35.18,301.18,37Z"/><path class="cls-1" d="M322,138.06c.69,1.14,1.63,1.1,2.83-.38l-2.6-1C322.1,137.18,321.78,137.77,322,138.06ZM301.62,99.81c3.05.42,6.15.61,9.14,1.28,2.23.51,4.31,1.69,6.51,2.42.92.31,2.1.61,2.47-1,.32-1.36-.19-2.43-1.38-2.72-3.32-.82-6.67-1.55-9.95-2.51-3.09-.92-5.53.87-8.27,1.37,0,.25,0,.49,0,.74A13.18,13.18,0,0,0,301.62,99.81Zm3.65,10.2a9.72,9.72,0,0,1,2,1.56,12,12,0,0,1,1,2.52c1.49.53,3.21,1.14,4.66,1.64a6.91,6.91,0,0,0-.91,2.08c0,.25,1,.61,1.67,1v.88c.66-.45,1.21-1.14,1.68-1.09,1.69.18,2.08-.92,2.53-2.12a12.55,12.55,0,0,1,1.37-3.1c.69-1,1.37-3.55.68-4.54a11.83,11.83,0,0,0-9.37-5.41c-4.67-.24-8,2.06-10.56,5.7a8.82,8.82,0,0,0-.76,2.8l.57.39.94.47a4.27,4.27,0,0,0-.25,1.1ZM280.61,113c3,1.77,3,5,4.11,7.76a34.75,34.75,0,0,0,2.81,4.76l.5-.26c-.24-1.7-.52-3.39-.72-5.09a50.57,50.57,0,0,1,1-15.71c.09-.45-.09-1,.11-1.38s.85-1,1.15-.94c2.57.63,4.29-1.06,5.92-2.37a47.53,47.53,0,0,0,5.08-5.42,8,8,0,0,0,1.09-1.38c2.18-3.71,5.16-3.39,8.18-1.72,1.75,1,3.31,1.1,4.6.31,2.26.94,4.23,1.82,6.24,2.6,1.51.59,3.13,1,4.59,1.66.49.23.75,1.15.89,1.81a11.8,11.8,0,0,0,.23,2l1.35-2.3.42.08v4.85L326.58,101l-.29.23a26.3,26.3,0,0,1,1.55,2.66,10.19,10.19,0,0,1,.47,2,26.1,26.1,0,0,1,1,4.3,30.33,30.33,0,0,1-.4,4.82c-.06.57-.29,1.13-.32,1.7-.16,3-.18,6.07-.43,9.09-.21,2.6-.8,5.17-.93,7.77-.08,1.64-.08,3.58.71,4.9,1.39,2.34.38,4.26-.22,6.32-.49,1.68-1.63,3.28-.41,5.31l4.25-2.43-.19-.63a8.89,8.89,0,0,1,1.75.95,2.69,2.69,0,0,1,1,1.57c0,.42-.65,1.05-1.16,1.26-1.33.54-2.73.92-4.51,1.48-.13.56-.34,1.47-.61,2.59a14.55,14.55,0,0,1-3.39-1.06,2,2,0,0,0-2.56.44c-1.07.93-2,1.85-3.62,1.8a3.08,3.08,0,0,0-1.54.79c-.24.17-.51.59-.45.83a1,1,0,0,0,.79.48,8,8,0,0,0,2.93-.43,8,8,0,0,1,6.46-.38c.78.25,1.58.42,2.42.64.3,1.29.37,2.44-1.15,3-.2.08-.53.27-.52.38.2,2.23-2.51,2.94-2.47,5.14,2.67-.23.25,2.23,1.12,2.75a46.39,46.39,0,0,1,5.64-.4c1.14,0,1.75.91,1.2,2.17a1.19,1.19,0,0,0-.05.65c.14.64.65,1.56.41,1.86a10.77,10.77,0,0,1-2.46,1.9,44.53,44.53,0,0,0-4,2.64c-.33.28-.11,1.35,0,2a8.31,8.31,0,0,0,.73,1.65l-.48.31-1.23-.88c.24.79.43,1.39.66,2.16-2.78,1.74-5.21.07-7.46-1.08-5.17-2.64-8.9-7.06-12.47-11.46a95.38,95.38,0,0,1-9.22-13.43c-1.7-3-2.31-6.71-3.29-10.13-.73-2.6-1.26-5.26-1.9-7.88-.18-.73-.45-1.43-.53-1.71-1.8.23-3.51.92-4.85.49a9.9,9.9,0,0,1-4.22-3.14,53,53,0,0,1-4.18-6.51,28.4,28.4,0,0,1-3.78-16c.11-2.34-.41-4.78,1.3-6.9-.32,3.92-.24,7.77,1.65,11.36,0-1.05,0-2.19,0-3.33a14,14,0,0,1,.18-3.83c.69.65,1.39,1.28,2.06,2C279.92,112.17,280.18,112.71,280.61,113Z"/><path class="cls-1" d="M398.63,79.24c-.81-.71-2.05-1.18-1.18-2.53a.37.37,0,0,0,0-.28l.65-.09C398.33,77.5,398.48,78.36,398.63,79.24Z"/><path class="cls-1" d="M58.45,136.41c1.61,1.66,2.94,1.61,4.61,0a7.76,7.76,0,0,0-2.3-.79A7.44,7.44,0,0,0,58.45,136.41ZM64.64,90c.09.06.66-.28.65-.38A8.6,8.6,0,0,0,64.7,87c-.22-.44-1.07-.55-1.74-.85.38,1.23.61,2.15.95,3A2,2,0,0,0,64.64,90ZM39.26,87.82c1.61,2.27,4.21,2.87,6.73,3.37a42.36,42.36,0,0,0,5.65.49c1.7.11,3.48,1.06,5.09-.43l1.18.64a6.12,6.12,0,0,1,1.81-.62c1.39,0,1.88-.55,1.57-2a13.73,13.73,0,0,1-.12-1.77L60,85.68l-.33.28c0,.34,0,.68,0,1-2.53-1.82-5.07-3.33-8.25-3.3A19.54,19.54,0,0,1,48,83.55c-3.06-.5-5.53,1-8,2.35C39.53,86.18,39,87.5,39.26,87.82Zm1.24,12.54c.15.26.26.55.43.89L42.3,99.5l.53.32c-.35.77-.69,1.55-1.11,2.5,3.41.86,6.61,3.7,10.41.88l-.65,1,6.08-2.28c-.36-.65-1.12-1.44-1-1.82.69-1.62-.46-2.41-1.32-3.12a11.46,11.46,0,0,0-11.09-2.49c-1.31.39-2.54,1.1-3.85,1.5-2.89.89-4.79,3.05-7.13,5,1.49.48,2.33.32,3.15-.82C37.75,98.22,39.42,98.38,40.5,100.36ZM77.32,77.91a2.48,2.48,0,0,1,3,2.73c0,.63-.09,1.26-.14,2l1.6-.1c0,.75-.08,1.36-.14,2.37-1.37-2.05-2.76-.11-4.16-.35-.13,1.8-3.76,6.85-5.22,7l.67,1-.45-.46c-.59.73-1.17,1.45-1.75,2.19l.68.29A19.43,19.43,0,0,0,71.64,97c.57,2.77-.6,5.63.58,8.42.41,1,.09,2.28,0,3.43s-.24,2.5-.37,3.78l.95-.35c0,.53-.14,1-.14,1.41,0,1.49,0,3,0,4.48,0,.73-1.08,1-.45,2.06a4.85,4.85,0,0,1,.1,2.67c-.16,1.78-.51,3.55-.64,5.33-.06.9.28,1.82.26,2.73,0,1.61-.21,3.23-.24,4.84,0,.33.35.68.57,1.06-2,1.33-2.09,3.79-3.13,6l1.51.27c-.16.47-.32.92-.51,1.46.29,0,.49.14.6.07a1.94,1.94,0,0,1,3.13,1.41c.17,1.6.38,3.19.58,4.78.07.6.42,1.6.22,1.73-.87.55-2,1.28-2.84,1.12a2.52,2.52,0,0,0-2.66,1.46c-.68,1.65-1.75,1-2.5.63a2.8,2.8,0,0,0-2.77-.07,7,7,0,0,1-2,.35,33.65,33.65,0,0,1-4,.3c-1.53,0-3.06-.33-4.59-.44-1-.07-2,0-3.22,0,.51,1.95,1,2.72,2.8,2.15,1.54-.48,3.31-.18,4.95-.44,3.52-.55,6.72.76,10,1.58.81.2,1.61.49,2.54.79.19-.13.93-.77,1.08-.65A5.16,5.16,0,0,1,73,161.22c.1.22-.67,1-1.17,1.26a14.57,14.57,0,0,1-2.33.83l.55,1-1.27.47c0,.15.09.3.12.46.13.8.22,1.61.41,2.39a9.32,9.32,0,0,0,.71,1.81,8.27,8.27,0,0,0,.71,1.07l-1.34-.14c.35.62.63,1.11,1,1.7l3.8-1.14v-3.21l.31,0,.42,1.86v-4.79l2.43,2.74c.28.48.75,1.36,1.26,2.21s1,1.89-.48,2.34l1.47,1.39L81,171.9l.36.24-.37,1.09.67.08c0,.09.07.16,0,.2-.9,1.73-1.79,3.46-2.72,5.17a.74.74,0,0,1-.72.18c-1.21-.66-1.3.33-1.57,1s-.5,1.36-.76,2-1,1.65-.88,2.39a2.84,2.84,0,0,1-1.41,3.24c-.61.37-1.5.71-.95,1.84.1.2-.57.79-.92,1.17s-.72.72-1.09,1.08l.38.49-.18.47-1.27-.48c-.42.38-.8,1-1.2,1a38.54,38.54,0,0,1-7.6-.12,30.19,30.19,0,0,1-7.61-2.5,39.87,39.87,0,0,1-7.83-4.68,116.65,116.65,0,0,1-11.24-10.05,50.74,50.74,0,0,1-6.84-9.1c-.89-1.47-1.73-3-2.48-4.51V73.61c.3-.44.61-.86.93-1.27.67.48,3.06,0,3.73-.87s1.47-1.55,2.09-2.4c1.8-2.47,3.51-5,5.32-7.47.8-1.08,1.82-2,2.63-3.08.69-.92,2.31-1.47,1.41-3.29l1.84.18.53.28q-1.19,2.2-2.39,4.45l-.61-.67c-.13.19-.41.42-.36.52.82,2.21-1.37,3.32-1.93,5-.45,1.38-2.07,2.38-3,3.71-.71.1-1.91-.5-1.82,1.23a6.56,6.56,0,0,1-1,.24c.1,1.13.45,1.9,2,1.17-.05.59-.08,1-.11,1.31a19.66,19.66,0,0,0,4.3.25c2-.3,3.79-1.43,5.86.23.68.55,2.32-.09,3.52-.2l1.95-.2a26.46,26.46,0,0,0,4.6,1.81c4.65.92,9.11,2.89,14,2.61.5,0,1,.43,1.56.67-.16.57-.29,1-.4,1.44,0,.09.08.21.57.45l.51-2.23c1-.09,2.18-1,2.64.62.59,0,1.13-.09,1.67-.11C75.56,78,76.45,78,77.32,77.91ZM66.69,91.38l2.39-.25c-.08-.33-.21-.86-.26-1.08l-1.68-.76C67,89.92,66.85,90.63,66.69,91.38Z"/><path class="cls-1" d="M449.24,179.61h0Z"/><path class="cls-1" d="M149.89,110.7a3.59,3.59,0,0,1-1.47,1.48l1-1.46c-.63-1-1.22-2-1.79-2.92-.06-.09-.1-.3-.07-.32,1.55-1,.69-3.09,2-4.51.19,1,.32,1.73.5,2.69l.64-.92.54-.74a8.61,8.61,0,0,1-.44,4.67,10.78,10.78,0,0,1-.61,1.47l-.2.36a.59.59,0,0,0,0,.08Z"/><path class="cls-1" d="M323.39,88.66l-4.94,1.89-.18-.1A16.75,16.75,0,0,1,321,88.34a6.76,6.76,0,0,1,2.46-.24Z"/><path class="cls-1" d="M43.68,66c-1,1.23-1.5,3.08-3.58,2.45a5.34,5.34,0,0,1,.43-.32c.26-.18.51-.36.52-.55C41.11,65.66,42.42,66,43.68,66Z"/><path d="M40.09,68.47h0Z"/><path class="cls-1" d="M448.6,164.94l-2.81-.95,1.12-1.19c.2-.2.38-.4.56-.59l0,0c.58-1.48,1.33-1,2.31-.13l-2,1.44Z"/><path class="cls-1" d="M40.07,68.48h0l0,0,0,0Z"/><path class="cls-1" d="M162.19,85.87h0c.19.66.38,1.31.56,2l-3,1.2C160.71,87.78,161.45,86.82,162.19,85.87Z"/><path class="cls-1" d="M447.47,162.21c-.18.19-.36.39-.56.59Z"/><path class="cls-1" d="M208.18,67.39c-1.09-.36-1.6-2.59-1.17-5.25C207.44,64.05,207.81,65.71,208.18,67.39Z"/><path class="cls-1" d="M300.68,32.22c-.64-.09-1.26-.18-1.72.37,0,0,0,0,0,0C299.42,32,300,32.13,300.68,32.22Z"/><path class="cls-1" d="M382.53,106.44l.07,0c1.79-.73.71-2.56,1.42-3.72a10,10,0,0,0,.66-1.62l.49.13a5.92,5.92,0,0,1-.24,1.92c-.67,1.34-.31,1.78,1,1.6-1.81,2.71.64,4.3,1.85,6.21l-.31.33a4.67,4.67,0,0,1-1.07-.78c-.87-1.08-1.63-2.25-2.52-3.31A4.07,4.07,0,0,0,382.53,106.44Z"/><path class="cls-1" d="M28.64,36.19c2-.56,2.38-2.33.86-4C29.18,33.7,28.93,34.86,28.64,36.19Zm3.89-14.67-.33-.58-3.11,2.39.47.61Zm-.47-1.24,2.73,1c0-.1.09-.19.12-.29L33.26,20,35,19.14c-.09-.16-.2-.33-.3-.49l-2.66,1.19Zm8.52-7.49c2.12,1.4-.14,2.3-.07,3.43-1.44-.47-2.8.37-3.81,2.53l2.69-1.47c.78,1.7.37,2.43-.84,2.45-1.14,1.15-2,2.05-2.89,2.9s-2.15,1.94-3.48,3.14l.5,2.27c-2.16-.43-4.25-.26-5.67,1.67a7.23,7.23,0,0,0-1.15,2.22c-.11.38.37.91.84,1.94,1-1.22,1.71-2.1,2.38-3,.27-.36.33-.89.62-1.21a3.51,3.51,0,0,1,1.08-.53,3.74,3.74,0,0,1-.07,1.12c-.48,1.27-.53,2.06-.07,2.57a1,1,0,0,0,.22.18,1.75,1.75,0,0,0,.27.16,2.52,2.52,0,0,0,.33.14c.18.06.38.11.6.16h0l.6-1.27c.21-.42.41-.85.61-1.27l.41.21c-.94,1.18.15,3.09-2.09,4a4,4,0,0,0-2.41,3.71c0,.38-.39.81-.63,1.26l-1.44-.69-.21.25c.26.42.51.83.61,1-.12.7-.2,1.16-.27,1.61l.42.08-1.38.75-.56-.77c-.33.53-.65,1.06-1,1.58V18c2.48-2.2,4.75-4.66,8-6C35.12,11.07,37,9,39,7.25a5.22,5.22,0,0,1,3.58-1.5c1.29,0,2.54-1,3.85-1.42,1.87-.59,3.79-1,5.68-1.57,1.51-.41,3-.95,4.51-1.25,1.12-.23,2.32-.05,3.46-.24,1-.17,1.88-.74,2.85-.86s1.78.3,2.64.23c.36,0,.72-.06,1.08-.11l.14,1c-.84.12-1.69.23-2.53.37-3.47.61-6.95,1.24-10.41,1.9a35.24,35.24,0,0,0-3.67.94A4.83,4.83,0,0,0,48.3,6.22l1.5.47-.3.48A5.09,5.09,0,0,1,48,7.29c-2.38-.47-3.81,1.18-5.48,2.36-1.84,1.31-3.77,2.5-5.67,3.74L35.44,16a20.45,20.45,0,0,0,2.74-1.22A24.81,24.81,0,0,0,40.58,12.79Z"/><path class="cls-1" d="M292.88,34.6c.61,2.12-.65,2.49-1.69,3l-.39-.34C291.43,36.49,292.05,35.68,292.88,34.6Z"/><path class="cls-1" d="M30.86,33a1.75,1.75,0,0,0,.27.16A1.75,1.75,0,0,1,30.86,33Z"/><path class="cls-1" d="M401.43,44.51c0-.9-.43-1.9,1.14-1.46l.43.71c-.15.11-.28.23-.42.35a1.21,1.21,0,0,0-.51.86l-.64,0A2.94,2.94,0,0,0,401.43,44.51Z"/><path class="cls-1" d="M394.05,71.15v0H394Z"/></svg>